<svg width="1440" height="262" viewBox="0 0 1440 262" fill="none" xmlns="http://www.w3.org/2000/svg">
<g clip-path="url(#clip0_4_156)">
<rect width="1440" height="262" fill="black"/>
<g opacity="0.8" filter="url(#filter0_f_4_156)">
<mask id="mask0_4_156" style="mask-type:alpha" maskUnits="userSpaceOnUse" x="0" y="195" width="1440" height="219">
<path d="M0 195.222H1440V413.719H0V195.222Z" fill="#D9D9D9"/>
</mask>
<g mask="url(#mask0_4_156)">
<g filter="url(#filter1_f_4_156)">
<path d="M1136.9 290.36C1030.51 290.36 944.245 254.618 944.245 210.527C944.245 166.436 1030.51 130.693 1136.9 130.693C1243.31 130.693 1329.57 166.436 1329.57 210.527C1329.57 254.618 1243.31 290.36 1136.9 290.36Z" fill="#B80042"/>
<path d="M1479.61 292.895C1373.2 292.895 1286.95 257.153 1286.95 213.062C1286.95 168.971 1373.2 133.228 1479.61 133.228C1586.02 133.228 1672.28 168.971 1672.28 213.062C1672.28 257.152 1586.02 292.895 1479.61 292.895Z" fill="#E61A32"/>
<path d="M942.069 291.88C835.665 291.88 749.407 256.137 749.407 212.047C749.407 167.956 835.665 132.213 942.069 132.213C1048.47 132.213 1134.73 167.956 1134.73 212.047C1134.73 256.137 1048.47 291.88 942.069 291.88Z" fill="#CB37FF"/>
<path d="M692.267 291.881C585.863 291.881 499.606 256.139 499.606 212.048C499.606 167.957 585.863 132.214 692.267 132.214C798.671 132.214 884.929 167.957 884.929 212.048C884.929 256.139 798.671 291.881 692.267 291.881Z" fill="#7622FF"/>
<path d="M442.464 291.881C336.061 291.881 249.803 256.139 249.803 212.048C249.803 167.957 336.061 132.214 442.464 132.214C548.868 132.214 635.126 167.957 635.126 212.048C635.126 256.139 548.868 291.881 442.464 291.881Z" fill="#4131FF"/>
<path d="M315.297 289.347C208.893 289.347 122.635 253.605 122.635 209.514C122.635 165.423 208.893 129.68 315.297 129.68C421.701 129.68 507.958 165.423 507.958 209.514C507.958 253.604 421.701 289.347 315.297 289.347Z" fill="#53E0FF"/>
<path d="M192.67 291.881C86.2658 291.881 0.0078125 256.138 0.0078125 212.048C0.0078125 167.957 86.2658 132.214 192.67 132.214C299.073 132.214 385.331 167.957 385.331 212.048C385.331 256.138 299.073 291.881 192.67 291.881Z" fill="#38EDAC"/>
<path d="M0.00455918 291.881C-106.4 291.881 -192.657 256.138 -192.657 212.048C-192.657 167.957 -106.4 132.214 0.00445595 132.214C106.408 132.214 192.666 167.957 192.666 212.048C192.666 256.138 106.408 291.881 0.00455918 291.881Z" fill="#04E896"/>
</g>
</g>
</g>
<g style="mix-blend-mode:overlay" filter="url(#filter2_f_4_156)">
<path d="M446.171 240.722C233.105 240.722 60.3806 266.511 60.3806 298.325C60.3806 330.139 233.105 355.929 446.171 355.929C659.237 355.929 831.961 330.139 831.961 298.325C831.961 266.511 659.237 240.722 446.171 240.722Z" fill="white"/>
</g>
<g style="mix-blend-mode:overlay" filter="url(#filter3_f_4_156)">
<path d="M993.829 242.467C780.763 242.467 608.039 268.257 608.039 300.07C608.039 331.884 780.763 357.674 993.829 357.674C1206.9 357.674 1379.62 331.884 1379.62 300.07C1379.62 268.257 1206.9 242.467 993.829 242.467Z" fill="white"/>
</g>
<g style="mix-blend-mode:overlay" filter="url(#filter4_f_4_156)">
<path d="M673.747 251.27C460.681 251.27 287.957 277.059 287.957 308.873C287.957 340.687 460.681 366.477 673.747 366.477C886.813 366.477 1059.54 340.687 1059.54 308.873C1059.54 277.059 886.813 251.27 673.747 251.27Z" fill="white"/>
</g>
<g style="mix-blend-mode:overlay">
<path d="M457.286 202.908C456.966 202.441 456.279 202.291 455.752 202.575C455.225 202.859 455.057 203.468 455.376 203.936C455.696 204.404 456.383 204.553 456.911 204.269C457.437 203.986 457.605 203.376 457.286 202.908Z" fill="white"/>
<path d="M349.532 240.526C349.211 240.059 348.525 239.909 347.997 240.193C347.47 240.477 347.302 241.086 347.621 241.554C347.942 242.022 348.628 242.171 349.156 241.887C349.683 241.604 349.851 240.994 349.532 240.526Z" fill="white"/>
<path d="M357.763 171.847C357.442 171.379 356.756 171.229 356.228 171.513C355.702 171.797 355.533 172.406 355.853 172.874C356.173 173.342 356.86 173.491 357.387 173.207C357.914 172.924 358.082 172.314 357.763 171.847Z" fill="white"/>
<path d="M494.592 261.302C494.272 260.835 493.586 260.685 493.058 260.969C492.531 261.253 492.363 261.862 492.682 262.33C493.003 262.798 493.689 262.947 494.217 262.663C494.744 262.38 494.912 261.77 494.592 261.302Z" fill="white"/>
<path d="M288.734 257.294C289.044 256.82 288.861 256.214 288.328 255.939C287.795 255.665 287.111 255.826 286.802 256.3C286.492 256.773 286.675 257.379 287.208 257.654C287.742 257.928 288.425 257.767 288.734 257.294Z" fill="white"/>
</g>
<g style="mix-blend-mode:overlay">
<path d="M457.286 202.908C456.966 202.441 456.279 202.291 455.752 202.575C455.225 202.859 455.057 203.468 455.376 203.936C455.696 204.404 456.383 204.553 456.911 204.269C457.437 203.986 457.605 203.376 457.286 202.908Z" fill="white"/>
<path d="M349.532 240.526C349.211 240.059 348.525 239.909 347.997 240.193C347.47 240.477 347.302 241.086 347.621 241.554C347.942 242.022 348.628 242.171 349.156 241.887C349.683 241.604 349.851 240.994 349.532 240.526Z" fill="white"/>
<path d="M357.763 171.847C357.442 171.379 356.756 171.229 356.228 171.513C355.702 171.797 355.533 172.406 355.853 172.874C356.173 173.342 356.86 173.491 357.387 173.207C357.914 172.924 358.082 172.314 357.763 171.847Z" fill="white"/>
<path d="M494.592 261.302C494.272 260.835 493.586 260.685 493.058 260.969C492.531 261.253 492.363 261.862 492.682 262.33C493.003 262.798 493.689 262.947 494.217 262.663C494.744 262.38 494.912 261.77 494.592 261.302Z" fill="white"/>
<path d="M288.734 257.294C289.044 256.82 288.861 256.214 288.328 255.939C287.795 255.665 287.111 255.826 286.802 256.3C286.492 256.773 286.675 257.379 287.208 257.654C287.742 257.928 288.425 257.767 288.734 257.294Z" fill="white"/>
</g>
<g opacity="0.5">
<g style="mix-blend-mode:overlay">
<path d="M696.32 118.41C696.824 118.726 697.521 118.62 697.877 118.173C698.233 117.727 698.114 117.109 697.61 116.793C697.106 116.477 696.409 116.583 696.052 117.03C695.696 117.476 695.816 118.094 696.32 118.41Z" fill="white"/>
<path d="M698.956 176.355C699.46 176.671 700.157 176.565 700.513 176.118C700.869 175.672 700.75 175.053 700.246 174.738C699.742 174.422 699.045 174.528 698.689 174.975C698.332 175.421 698.452 176.039 698.956 176.355Z" fill="white"/>
<path d="M765.513 209.015C766.017 209.331 766.714 209.225 767.07 208.778C767.427 208.332 767.307 207.714 766.803 207.398C766.299 207.082 765.602 207.188 765.246 207.635C764.89 208.081 765.009 208.699 765.513 209.015Z" fill="white"/>
<path d="M623.065 241.288C623.569 241.604 624.266 241.498 624.622 241.051C624.978 240.605 624.859 239.986 624.355 239.671C623.851 239.355 623.154 239.461 622.798 239.908C622.441 240.354 622.561 240.972 623.065 241.288Z" fill="white"/>
</g>
<g style="mix-blend-mode:overlay">
<path d="M696.32 118.41C696.824 118.726 697.521 118.62 697.877 118.173C698.233 117.727 698.114 117.109 697.61 116.793C697.106 116.477 696.409 116.583 696.052 117.03C695.696 117.476 695.816 118.094 696.32 118.41Z" fill="white"/>
<path d="M698.956 176.355C699.46 176.671 700.157 176.565 700.513 176.118C700.869 175.672 700.75 175.053 700.246 174.738C699.742 174.422 699.045 174.528 698.689 174.975C698.332 175.421 698.452 176.039 698.956 176.355Z" fill="white"/>
<path d="M765.513 209.015C766.017 209.331 766.714 209.225 767.07 208.778C767.427 208.332 767.307 207.714 766.803 207.398C766.299 207.082 765.602 207.188 765.246 207.635C764.89 208.081 765.009 208.699 765.513 209.015Z" fill="white"/>
<path d="M623.065 241.288C623.569 241.604 624.266 241.498 624.622 241.051C624.978 240.605 624.859 239.986 624.355 239.671C623.851 239.355 623.154 239.461 622.798 239.908C622.441 240.354 622.561 240.972 623.065 241.288Z" fill="white"/>
</g>
</g>
<g style="mix-blend-mode:overlay">
<path d="M1051.29 88.8582C1051.83 89.1232 1052.5 88.9493 1052.81 88.4693C1053.1 87.9903 1052.91 87.3883 1052.37 87.1233C1051.83 86.8593 1051.15 87.0333 1050.85 87.5123C1050.55 87.9923 1050.75 88.5942 1051.29 88.8582Z" fill="white"/>
<path d="M1061.16 146.21C1061.71 146.474 1062.38 146.3 1062.69 145.82C1062.98 145.341 1062.79 144.739 1062.25 144.475C1061.71 144.21 1061.02 144.384 1060.72 144.864C1060.43 145.343 1060.62 145.945 1061.16 146.21Z" fill="white"/>
<path d="M1059.03 252.385C1059.57 252.65 1060.25 252.475 1060.54 251.996C1060.85 251.517 1060.65 250.915 1060.1 250.65C1059.56 250.386 1058.89 250.56 1058.59 251.039C1058.29 251.519 1058.49 252.121 1059.03 252.385Z" fill="white"/>
<path d="M1131.37 172.106C1131.91 172.37 1132.58 172.196 1132.89 171.716C1133.18 171.237 1132.99 170.635 1132.45 170.37C1131.91 170.106 1131.23 170.28 1130.93 170.76C1130.63 171.239 1130.82 171.841 1131.37 172.106Z" fill="white"/>
<path d="M1162.77 235.284C1163.31 235.548 1163.99 235.374 1164.29 234.894C1164.58 234.415 1164.39 233.813 1163.85 233.548C1163.31 233.284 1162.62 233.458 1162.33 233.938C1162.04 234.417 1162.23 235.019 1162.77 235.284Z" fill="white"/>
<path d="M993.91 218.269C994.45 218.534 995.129 218.36 995.428 217.88C995.726 217.401 995.53 216.799 994.988 216.534C994.448 216.27 993.769 216.444 993.472 216.923C993.173 217.403 993.369 218.005 993.91 218.269Z" fill="white"/>
</g>
<g style="mix-blend-mode:overlay">
<path d="M1051.29 88.8582C1051.83 89.1232 1052.5 88.9493 1052.81 88.4693C1053.1 87.9903 1052.91 87.3883 1052.37 87.1233C1051.83 86.8593 1051.15 87.0333 1050.85 87.5123C1050.55 87.9923 1050.75 88.5942 1051.29 88.8582Z" fill="white"/>
<path d="M1061.16 146.21C1061.71 146.474 1062.38 146.3 1062.69 145.82C1062.98 145.341 1062.79 144.739 1062.25 144.475C1061.71 144.21 1061.02 144.384 1060.72 144.864C1060.43 145.343 1060.62 145.945 1061.16 146.21Z" fill="white"/>
<path d="M1059.03 252.385C1059.57 252.65 1060.25 252.475 1060.54 251.996C1060.85 251.517 1060.65 250.915 1060.1 250.65C1059.56 250.386 1058.89 250.56 1058.59 251.039C1058.29 251.519 1058.49 252.121 1059.03 252.385Z" fill="white"/>
<path d="M1131.37 172.106C1131.91 172.37 1132.58 172.196 1132.89 171.716C1133.18 171.237 1132.99 170.635 1132.45 170.37C1131.91 170.106 1131.23 170.28 1130.93 170.76C1130.63 171.239 1130.82 171.841 1131.37 172.106Z" fill="white"/>
<path d="M1162.77 235.284C1163.31 235.548 1163.99 235.374 1164.29 234.894C1164.58 234.415 1164.39 233.813 1163.85 233.548C1163.31 233.284 1162.62 233.458 1162.33 233.938C1162.04 234.417 1162.23 235.019 1162.77 235.284Z" fill="white"/>
<path d="M993.91 218.269C994.45 218.534 995.129 218.36 995.428 217.88C995.726 217.401 995.53 216.799 994.988 216.534C994.448 216.27 993.769 216.444 993.472 216.923C993.173 217.403 993.369 218.005 993.91 218.269Z" fill="white"/>
</g>
</g>
<defs>
<filter id="filter0_f_4_156" x="-280" y="-84.7776" width="2000" height="657.672" filterUnits="userSpaceOnUse" color-interpolation-filters="sRGB">
<feFlood flood-opacity="0" result="BackgroundImageFix"/>
<feBlend mode="normal" in="SourceGraphic" in2="BackgroundImageFix" result="shape"/>
<feGaussianBlur stdDeviation="140" result="effect1_foregroundBlur_4_156"/>
</filter>
<filter id="filter1_f_4_156" x="-292.657" y="29.6804" width="2064.93" height="363.214" filterUnits="userSpaceOnUse" color-interpolation-filters="sRGB">
<feFlood flood-opacity="0" result="BackgroundImageFix"/>
<feBlend mode="normal" in="SourceGraphic" in2="BackgroundImageFix" result="shape"/>
<feGaussianBlur stdDeviation="50" result="effect1_foregroundBlur_4_156"/>
</filter>
<filter id="filter2_f_4_156" x="-139.619" y="40.7224" width="1171.58" height="515.207" filterUnits="userSpaceOnUse" color-interpolation-filters="sRGB">
<feFlood flood-opacity="0" result="BackgroundImageFix"/>
<feBlend mode="normal" in="SourceGraphic" in2="BackgroundImageFix" result="shape"/>
<feGaussianBlur stdDeviation="100" result="effect1_foregroundBlur_4_156"/>
</filter>
<filter id="filter3_f_4_156" x="408.039" y="42.4673" width="1171.58" height="515.207" filterUnits="userSpaceOnUse" color-interpolation-filters="sRGB">
<feFlood flood-opacity="0" result="BackgroundImageFix"/>
<feBlend mode="normal" in="SourceGraphic" in2="BackgroundImageFix" result="shape"/>
<feGaussianBlur stdDeviation="100" result="effect1_foregroundBlur_4_156"/>
</filter>
<filter id="filter4_f_4_156" x="87.957" y="51.2703" width="1171.58" height="515.207" filterUnits="userSpaceOnUse" color-interpolation-filters="sRGB">
<feFlood flood-opacity="0" result="BackgroundImageFix"/>
<feBlend mode="normal" in="SourceGraphic" in2="BackgroundImageFix" result="shape"/>
<feGaussianBlur stdDeviation="100" result="effect1_foregroundBlur_4_156"/>
</filter>
<clipPath id="clip0_4_156">
<rect width="1440" height="262" fill="white"/>
</clipPath>
</defs>
</svg>
