<svg width="624" height="646" viewBox="0 0 624 646" fill="none" xmlns="http://www.w3.org/2000/svg">
<mask id="mask0_1622_59299" style="mask-type:alpha" maskUnits="userSpaceOnUse" x="0" y="20" width="624" height="626">
<ellipse opacity="0.8" cx="312" cy="332.619" rx="312" ry="312.619" fill="url(#paint0_linear_1622_59299)" fill-opacity="0.15"/>
<ellipse opacity="0.8" cx="312" cy="332.619" rx="264.952" ry="265.571" fill="url(#paint1_linear_1622_59299)" fill-opacity="0.15"/>
<ellipse opacity="0.8" cx="312" cy="332.619" rx="217.905" ry="218.524" fill="url(#paint2_linear_1622_59299)" fill-opacity="0.3"/>
<ellipse opacity="0.8" cx="312" cy="332.619" rx="172.095" ry="171.476" fill="url(#paint3_linear_1622_59299)" fill-opacity="0.5"/>
<ellipse opacity="0.8" cx="312" cy="332.619" rx="125.008" ry="124.559" fill="url(#paint4_linear_1622_59299)" fill-opacity="0.5"/>
<ellipse opacity="0.8" cx="312" cy="332.619" rx="78.4582" ry="78.176" fill="url(#paint5_linear_1622_59299)" fill-opacity="0.5"/>
</mask>
<g mask="url(#mask0_1622_59299)">
<rect opacity="0.6" x="4.7959" y="-1.4458" width="590.65" height="609.645" fill="url(#paint6_linear_1622_59299)"/>
<g opacity="0.5">
<g style="mix-blend-mode:overlay">
<ellipse cx="0.943312" cy="0.943804" rx="0.943312" ry="0.943804" transform="matrix(0.192072 -0.981381 -0.981402 -0.191964 600.704 527.183)" fill="white"/>
<ellipse cx="0.943312" cy="0.943804" rx="0.943312" ry="0.943804" transform="matrix(0.192072 -0.981381 -0.981402 -0.191964 564.177 485.708)" fill="white"/>
<ellipse cx="0.943312" cy="0.943804" rx="0.943312" ry="0.943804" transform="matrix(0.192072 -0.981381 -0.981402 -0.191964 485.477 422.15)" fill="white"/>
<ellipse cx="0.943312" cy="0.943804" rx="0.943312" ry="0.943804" transform="matrix(0.192072 -0.981381 -0.981402 -0.191964 583.355 424.396)" fill="white"/>
<ellipse cx="0.943312" cy="0.943804" rx="0.943312" ry="0.943804" transform="matrix(0.192072 -0.981381 -0.981402 -0.191964 554.251 365.414)" fill="white"/>
<ellipse cx="0.943312" cy="0.943804" rx="0.943312" ry="0.943804" transform="matrix(0.192072 -0.981381 -0.981402 -0.191964 475.061 485.196)" fill="white"/>
<ellipse cx="0.943768" cy="0.94331" rx="0.943768" ry="0.94331" transform="matrix(-0.89832 -0.439279 -0.439676 0.898187 490.17 370.714)" fill="white"/>
<ellipse cx="0.943768" cy="0.943311" rx="0.943768" ry="0.943311" transform="matrix(-0.89832 -0.439279 -0.439676 0.898187 440.634 395.234)" fill="white"/>
<ellipse cx="0.943768" cy="0.943311" rx="0.943768" ry="0.943311" transform="matrix(-0.89832 -0.439279 -0.439676 0.898187 358.844 454.745)" fill="white"/>
<ellipse cx="0.943768" cy="0.943311" rx="0.943768" ry="0.943311" transform="matrix(-0.89832 -0.439279 -0.439676 0.898187 386.334 360.844)" fill="white"/>
<ellipse cx="0.943768" cy="0.943311" rx="0.943768" ry="0.943311" transform="matrix(-0.89832 -0.439279 -0.439676 0.898187 321.798 373.665)" fill="white"/>
<ellipse cx="0.943768" cy="0.943311" rx="0.943768" ry="0.943311" transform="matrix(-0.89832 -0.439279 -0.439676 0.898187 417.086 481.126)" fill="white"/>
<circle cx="0.943808" cy="0.943808" r="0.943808" transform="matrix(-0.816722 0.577126 0.577587 0.816262 473.773 158.381)" fill="white"/>
<circle cx="0.943808" cy="0.943808" r="0.943808" transform="matrix(-0.816722 0.577126 0.577587 0.816262 471.546 213.584)" fill="white"/>
<circle cx="0.943808" cy="0.943808" r="0.943808" transform="matrix(-0.816722 0.577126 0.577587 0.816262 484.573 313.859)" fill="white"/>
<circle cx="0.943808" cy="0.943808" r="0.943808" transform="matrix(-0.816722 0.577126 0.577587 0.816262 415.311 244.698)" fill="white"/>
<circle cx="0.943808" cy="0.943808" r="0.943808" transform="matrix(-0.816722 0.577126 0.577587 0.816262 395.619 307.441)" fill="white"/>
<circle cx="0.943808" cy="0.943808" r="0.943808" transform="matrix(-0.816722 0.577126 0.577587 0.816262 535.667 275.444)" fill="white"/>
</g>
<g style="mix-blend-mode:overlay">
<ellipse cx="0.943312" cy="0.943804" rx="0.943312" ry="0.943804" transform="matrix(0.192072 -0.981381 -0.981402 -0.191964 600.704 527.183)" fill="white"/>
<ellipse cx="0.943312" cy="0.943804" rx="0.943312" ry="0.943804" transform="matrix(0.192072 -0.981381 -0.981402 -0.191964 564.177 485.708)" fill="white"/>
<ellipse cx="0.943312" cy="0.943804" rx="0.943312" ry="0.943804" transform="matrix(0.192072 -0.981381 -0.981402 -0.191964 485.477 422.15)" fill="white"/>
<ellipse cx="0.943312" cy="0.943804" rx="0.943312" ry="0.943804" transform="matrix(0.192072 -0.981381 -0.981402 -0.191964 583.355 424.396)" fill="white"/>
<ellipse cx="0.943312" cy="0.943804" rx="0.943312" ry="0.943804" transform="matrix(0.192072 -0.981381 -0.981402 -0.191964 554.251 365.414)" fill="white"/>
<ellipse cx="0.943312" cy="0.943804" rx="0.943312" ry="0.943804" transform="matrix(0.192072 -0.981381 -0.981402 -0.191964 475.061 485.196)" fill="white"/>
<ellipse cx="0.943768" cy="0.94331" rx="0.943768" ry="0.94331" transform="matrix(-0.89832 -0.439279 -0.439676 0.898187 490.17 370.714)" fill="white"/>
<ellipse cx="0.943768" cy="0.943311" rx="0.943768" ry="0.943311" transform="matrix(-0.89832 -0.439279 -0.439676 0.898187 440.634 395.234)" fill="white"/>
<ellipse cx="0.943768" cy="0.943311" rx="0.943768" ry="0.943311" transform="matrix(-0.89832 -0.439279 -0.439676 0.898187 358.844 454.745)" fill="white"/>
<ellipse cx="0.943768" cy="0.943311" rx="0.943768" ry="0.943311" transform="matrix(-0.89832 -0.439279 -0.439676 0.898187 386.334 360.844)" fill="white"/>
<ellipse cx="0.943768" cy="0.943311" rx="0.943768" ry="0.943311" transform="matrix(-0.89832 -0.439279 -0.439676 0.898187 321.798 373.665)" fill="white"/>
<ellipse cx="0.943768" cy="0.943311" rx="0.943768" ry="0.943311" transform="matrix(-0.89832 -0.439279 -0.439676 0.898187 417.086 481.126)" fill="white"/>
<circle cx="0.943808" cy="0.943808" r="0.943808" transform="matrix(-0.816722 0.577126 0.577587 0.816262 473.773 158.381)" fill="white"/>
<circle cx="0.943808" cy="0.943808" r="0.943808" transform="matrix(-0.816722 0.577126 0.577587 0.816262 471.546 213.584)" fill="white"/>
<circle cx="0.943808" cy="0.943808" r="0.943808" transform="matrix(-0.816722 0.577126 0.577587 0.816262 484.573 313.859)" fill="white"/>
<circle cx="0.943808" cy="0.943808" r="0.943808" transform="matrix(-0.816722 0.577126 0.577587 0.816262 415.311 244.698)" fill="white"/>
<circle cx="0.943808" cy="0.943808" r="0.943808" transform="matrix(-0.816722 0.577126 0.577587 0.816262 395.619 307.441)" fill="white"/>
<circle cx="0.943808" cy="0.943808" r="0.943808" transform="matrix(-0.816722 0.577126 0.577587 0.816262 535.667 275.444)" fill="white"/>
</g>
</g>
<g opacity="0.5">
<g style="mix-blend-mode:overlay">
<ellipse cx="0.943312" cy="0.943804" rx="0.943312" ry="0.943804" transform="matrix(0.192072 -0.981381 -0.981402 -0.191964 600.704 527.183)" fill="white"/>
<ellipse cx="0.943312" cy="0.943804" rx="0.943312" ry="0.943804" transform="matrix(0.192072 -0.981381 -0.981402 -0.191964 564.177 485.708)" fill="white"/>
<ellipse cx="0.943312" cy="0.943804" rx="0.943312" ry="0.943804" transform="matrix(0.192072 -0.981381 -0.981402 -0.191964 485.477 422.15)" fill="white"/>
<ellipse cx="0.943312" cy="0.943804" rx="0.943312" ry="0.943804" transform="matrix(0.192072 -0.981381 -0.981402 -0.191964 583.355 424.396)" fill="white"/>
<ellipse cx="0.943312" cy="0.943804" rx="0.943312" ry="0.943804" transform="matrix(0.192072 -0.981381 -0.981402 -0.191964 554.251 365.414)" fill="white"/>
<ellipse cx="0.943312" cy="0.943804" rx="0.943312" ry="0.943804" transform="matrix(0.192072 -0.981381 -0.981402 -0.191964 475.061 485.196)" fill="white"/>
<ellipse cx="0.943768" cy="0.94331" rx="0.943768" ry="0.94331" transform="matrix(-0.89832 -0.439279 -0.439676 0.898187 490.17 370.714)" fill="white"/>
<ellipse cx="0.943768" cy="0.943311" rx="0.943768" ry="0.943311" transform="matrix(-0.89832 -0.439279 -0.439676 0.898187 440.634 395.234)" fill="white"/>
<ellipse cx="0.943768" cy="0.943311" rx="0.943768" ry="0.943311" transform="matrix(-0.89832 -0.439279 -0.439676 0.898187 358.844 454.745)" fill="white"/>
<ellipse cx="0.943768" cy="0.943311" rx="0.943768" ry="0.943311" transform="matrix(-0.89832 -0.439279 -0.439676 0.898187 386.334 360.844)" fill="white"/>
<ellipse cx="0.943768" cy="0.943311" rx="0.943768" ry="0.943311" transform="matrix(-0.89832 -0.439279 -0.439676 0.898187 321.798 373.665)" fill="white"/>
<ellipse cx="0.943768" cy="0.943311" rx="0.943768" ry="0.943311" transform="matrix(-0.89832 -0.439279 -0.439676 0.898187 417.086 481.126)" fill="white"/>
<circle cx="0.943808" cy="0.943808" r="0.943808" transform="matrix(-0.816722 0.577126 0.577587 0.816262 473.773 158.381)" fill="white"/>
<circle cx="0.943808" cy="0.943808" r="0.943808" transform="matrix(-0.816722 0.577126 0.577587 0.816262 471.546 213.584)" fill="white"/>
<circle cx="0.943808" cy="0.943808" r="0.943808" transform="matrix(-0.816722 0.577126 0.577587 0.816262 484.573 313.859)" fill="white"/>
<circle cx="0.943808" cy="0.943808" r="0.943808" transform="matrix(-0.816722 0.577126 0.577587 0.816262 415.311 244.698)" fill="white"/>
<circle cx="0.943808" cy="0.943808" r="0.943808" transform="matrix(-0.816722 0.577126 0.577587 0.816262 395.619 307.441)" fill="white"/>
<circle cx="0.943808" cy="0.943808" r="0.943808" transform="matrix(-0.816722 0.577126 0.577587 0.816262 535.667 275.444)" fill="white"/>
</g>
<g style="mix-blend-mode:overlay">
<ellipse cx="0.943312" cy="0.943804" rx="0.943312" ry="0.943804" transform="matrix(0.192072 -0.981381 -0.981402 -0.191964 600.704 527.183)" fill="white"/>
<ellipse cx="0.943312" cy="0.943804" rx="0.943312" ry="0.943804" transform="matrix(0.192072 -0.981381 -0.981402 -0.191964 564.177 485.708)" fill="white"/>
<ellipse cx="0.943312" cy="0.943804" rx="0.943312" ry="0.943804" transform="matrix(0.192072 -0.981381 -0.981402 -0.191964 485.477 422.15)" fill="white"/>
<ellipse cx="0.943312" cy="0.943804" rx="0.943312" ry="0.943804" transform="matrix(0.192072 -0.981381 -0.981402 -0.191964 583.355 424.396)" fill="white"/>
<ellipse cx="0.943312" cy="0.943804" rx="0.943312" ry="0.943804" transform="matrix(0.192072 -0.981381 -0.981402 -0.191964 554.251 365.414)" fill="white"/>
<ellipse cx="0.943312" cy="0.943804" rx="0.943312" ry="0.943804" transform="matrix(0.192072 -0.981381 -0.981402 -0.191964 475.061 485.196)" fill="white"/>
<ellipse cx="0.943768" cy="0.94331" rx="0.943768" ry="0.94331" transform="matrix(-0.89832 -0.439279 -0.439676 0.898187 490.17 370.714)" fill="white"/>
<ellipse cx="0.943768" cy="0.943311" rx="0.943768" ry="0.943311" transform="matrix(-0.89832 -0.439279 -0.439676 0.898187 440.634 395.234)" fill="white"/>
<ellipse cx="0.943768" cy="0.943311" rx="0.943768" ry="0.943311" transform="matrix(-0.89832 -0.439279 -0.439676 0.898187 358.844 454.745)" fill="white"/>
<ellipse cx="0.943768" cy="0.943311" rx="0.943768" ry="0.943311" transform="matrix(-0.89832 -0.439279 -0.439676 0.898187 386.334 360.844)" fill="white"/>
<ellipse cx="0.943768" cy="0.943311" rx="0.943768" ry="0.943311" transform="matrix(-0.89832 -0.439279 -0.439676 0.898187 321.798 373.665)" fill="white"/>
<ellipse cx="0.943768" cy="0.943311" rx="0.943768" ry="0.943311" transform="matrix(-0.89832 -0.439279 -0.439676 0.898187 417.086 481.126)" fill="white"/>
<circle cx="0.943808" cy="0.943808" r="0.943808" transform="matrix(-0.816722 0.577126 0.577587 0.816262 473.773 158.381)" fill="white"/>
<circle cx="0.943808" cy="0.943808" r="0.943808" transform="matrix(-0.816722 0.577126 0.577587 0.816262 471.546 213.584)" fill="white"/>
<circle cx="0.943808" cy="0.943808" r="0.943808" transform="matrix(-0.816722 0.577126 0.577587 0.816262 484.573 313.859)" fill="white"/>
<circle cx="0.943808" cy="0.943808" r="0.943808" transform="matrix(-0.816722 0.577126 0.577587 0.816262 415.311 244.698)" fill="white"/>
<circle cx="0.943808" cy="0.943808" r="0.943808" transform="matrix(-0.816722 0.577126 0.577587 0.816262 395.619 307.441)" fill="white"/>
<circle cx="0.943808" cy="0.943808" r="0.943808" transform="matrix(-0.816722 0.577126 0.577587 0.816262 535.667 275.444)" fill="white"/>
</g>
</g>
<g style="mix-blend-mode:overlay">
<circle cx="0.943808" cy="0.943808" r="0.943808" transform="matrix(0.299691 -0.954036 -0.953842 -0.300308 266.226 536.304)" fill="white"/>
<circle cx="0.943808" cy="0.943808" r="0.943808" transform="matrix(0.299691 -0.954036 -0.953842 -0.300308 234.549 490.997)" fill="white"/>
<circle cx="0.943808" cy="0.943808" r="0.943808" transform="matrix(0.299691 -0.954036 -0.953842 -0.300308 163.432 419.034)" fill="white"/>
<circle cx="0.943808" cy="0.943808" r="0.943808" transform="matrix(0.299691 -0.954036 -0.953842 -0.300308 260.408 432.174)" fill="white"/>
<circle cx="0.943808" cy="0.943808" r="0.943808" transform="matrix(0.299691 -0.954036 -0.953842 -0.300308 238.05 370.288)" fill="white"/>
<circle cx="0.943808" cy="0.943808" r="0.943808" transform="matrix(0.299691 -0.954036 -0.953842 -0.300308 146.084 480.558)" fill="white"/>
<circle cx="0.943808" cy="0.943808" r="0.943808" transform="matrix(-0.843775 -0.536998 -0.536352 0.843803 173.808 368.417)" fill="white"/>
<circle cx="0.943808" cy="0.943808" r="0.943808" transform="matrix(-0.843775 -0.536998 -0.536352 0.843803 121.879 387.276)" fill="white"/>
<circle cx="0.943808" cy="0.943808" r="0.943808" transform="matrix(-0.843775 -0.536998 -0.536352 0.843803 34.0236 437.332)" fill="white"/>
<circle cx="0.943808" cy="0.943808" r="0.943808" transform="matrix(-0.843775 -0.536998 -0.536352 0.843803 71.76 347.033)" fill="white"/>
<circle cx="0.943808" cy="0.943808" r="0.943808" transform="matrix(-0.843775 -0.536998 -0.536352 0.843803 6.22974 352.589)" fill="white"/>
<circle cx="0.943808" cy="0.943808" r="0.943808" transform="matrix(-0.843775 -0.536998 -0.536352 0.843803 88.9479 470.051)" fill="white"/>
<circle cx="0.943808" cy="0.943808" r="0.943808" transform="matrix(-0.875361 0.4828 0.483086 0.875942 181.102 155.478)" fill="white"/>
<circle cx="0.943808" cy="0.943808" r="0.943808" transform="matrix(-0.875361 0.4828 0.483086 0.875942 172.759 210.115)" fill="white"/>
<circle cx="0.943808" cy="0.943808" r="0.943808" transform="matrix(-0.875361 0.4828 0.483086 0.875942 174.562 311.266)" fill="white"/>
<circle cx="0.943808" cy="0.943808" r="0.943808" transform="matrix(-0.875361 0.4828 0.483086 0.875942 113.443 234.785)" fill="white"/>
<circle cx="0.943808" cy="0.943808" r="0.943808" transform="matrix(-0.875361 0.4828 0.483086 0.875942 86.9136 294.973)" fill="white"/>
<circle cx="0.943808" cy="0.943808" r="0.943808" transform="matrix(-0.875361 0.4828 0.483086 0.875942 229.581 278.765)" fill="white"/>
</g>
<g style="mix-blend-mode:overlay">
<circle cx="0.943808" cy="0.943808" r="0.943808" transform="matrix(0.299691 -0.954036 -0.953842 -0.300308 266.226 536.304)" fill="white"/>
<circle cx="0.943808" cy="0.943808" r="0.943808" transform="matrix(0.299691 -0.954036 -0.953842 -0.300308 234.549 490.997)" fill="white"/>
<circle cx="0.943808" cy="0.943808" r="0.943808" transform="matrix(0.299691 -0.954036 -0.953842 -0.300308 163.432 419.034)" fill="white"/>
<circle cx="0.943808" cy="0.943808" r="0.943808" transform="matrix(0.299691 -0.954036 -0.953842 -0.300308 260.408 432.174)" fill="white"/>
<circle cx="0.943808" cy="0.943808" r="0.943808" transform="matrix(0.299691 -0.954036 -0.953842 -0.300308 238.05 370.288)" fill="white"/>
<circle cx="0.943808" cy="0.943808" r="0.943808" transform="matrix(0.299691 -0.954036 -0.953842 -0.300308 146.084 480.558)" fill="white"/>
<circle cx="0.943808" cy="0.943808" r="0.943808" transform="matrix(-0.843775 -0.536998 -0.536352 0.843803 173.808 368.417)" fill="white"/>
<circle cx="0.943808" cy="0.943808" r="0.943808" transform="matrix(-0.843775 -0.536998 -0.536352 0.843803 121.879 387.276)" fill="white"/>
<circle cx="0.943808" cy="0.943808" r="0.943808" transform="matrix(-0.843775 -0.536998 -0.536352 0.843803 34.0236 437.332)" fill="white"/>
<circle cx="0.943808" cy="0.943808" r="0.943808" transform="matrix(-0.843775 -0.536998 -0.536352 0.843803 71.76 347.033)" fill="white"/>
<circle cx="0.943808" cy="0.943808" r="0.943808" transform="matrix(-0.843775 -0.536998 -0.536352 0.843803 6.22974 352.589)" fill="white"/>
<circle cx="0.943808" cy="0.943808" r="0.943808" transform="matrix(-0.843775 -0.536998 -0.536352 0.843803 88.9479 470.051)" fill="white"/>
<circle cx="0.943808" cy="0.943808" r="0.943808" transform="matrix(-0.875361 0.4828 0.483086 0.875942 181.102 155.478)" fill="white"/>
<circle cx="0.943808" cy="0.943808" r="0.943808" transform="matrix(-0.875361 0.4828 0.483086 0.875942 172.759 210.115)" fill="white"/>
<circle cx="0.943808" cy="0.943808" r="0.943808" transform="matrix(-0.875361 0.4828 0.483086 0.875942 174.562 311.266)" fill="white"/>
<circle cx="0.943808" cy="0.943808" r="0.943808" transform="matrix(-0.875361 0.4828 0.483086 0.875942 113.443 234.785)" fill="white"/>
<circle cx="0.943808" cy="0.943808" r="0.943808" transform="matrix(-0.875361 0.4828 0.483086 0.875942 86.9136 294.973)" fill="white"/>
<circle cx="0.943808" cy="0.943808" r="0.943808" transform="matrix(-0.875361 0.4828 0.483086 0.875942 229.581 278.765)" fill="white"/>
</g>
</g>
<defs>
<linearGradient id="paint0_linear_1622_59299" x1="312" y1="20.0001" x2="312" y2="425.757" gradientUnits="userSpaceOnUse">
<stop stop-color="#3C3C43"/>
<stop offset="1" stop-color="#3C3C43" stop-opacity="0"/>
</linearGradient>
<linearGradient id="paint1_linear_1622_59299" x1="312" y1="67.0475" x2="312" y2="411.74" gradientUnits="userSpaceOnUse">
<stop stop-color="#3C3C43"/>
<stop offset="1" stop-color="#3C3C43" stop-opacity="0"/>
</linearGradient>
<linearGradient id="paint2_linear_1622_59299" x1="312" y1="114.095" x2="312" y2="438.24" gradientUnits="userSpaceOnUse">
<stop stop-color="#3C3C43"/>
<stop offset="1" stop-color="#3C3C43" stop-opacity="0"/>
</linearGradient>
<linearGradient id="paint3_linear_1622_59299" x1="312" y1="161.143" x2="312" y2="474.998" gradientUnits="userSpaceOnUse">
<stop stop-color="#3C3C43"/>
<stop offset="1" stop-color="#3C3C43" stop-opacity="0"/>
</linearGradient>
<linearGradient id="paint4_linear_1622_59299" x1="312" y1="208.06" x2="312" y2="436.042" gradientUnits="userSpaceOnUse">
<stop stop-color="#3C3C43"/>
<stop offset="1" stop-color="#3C3C43" stop-opacity="0"/>
</linearGradient>
<linearGradient id="paint5_linear_1622_59299" x1="312" y1="254.443" x2="312" y2="397.53" gradientUnits="userSpaceOnUse">
<stop stop-color="#3C3C43"/>
<stop offset="1" stop-color="#3C3C43" stop-opacity="0"/>
</linearGradient>
<linearGradient id="paint6_linear_1622_59299" x1="-616.73" y1="1609.41" x2="888.733" y2="1414.3" gradientUnits="userSpaceOnUse">
<stop offset="0.0622324" stop-color="#201CFF"/>
<stop offset="0.801798" stop-color="#13EFA0"/>
</linearGradient>
</defs>
</svg>
