<svg width="40" height="40" viewBox="0 0 40 40" fill="none" xmlns="http://www.w3.org/2000/svg">
<g clip-path="url(#clip0_1825_5913)">
<path d="M28.1933 27.371L22.1017 20.201L28.1933 13.031C28.5149 12.651 28.6709 12.181 28.6222 11.681C28.5832 11.181 28.3395 10.741 27.9496 10.421C27.1699 9.78098 26.0003 9.88098 25.3473 10.651L19.6748 17.331L14.0023 10.661C13.3493 9.89098 12.1797 9.79098 11.3999 10.431C11.0101 10.751 10.7762 11.191 10.7274 11.691C10.6884 12.181 10.8346 12.661 11.1563 13.041L17.2479 20.171L11.1563 27.341C10.8346 27.721 10.6884 28.201 10.7274 28.691C10.7664 29.191 11.0101 29.631 11.3999 29.951C12.1504 30.571 13.3687 30.461 14.0023 29.721L19.6748 23.041L25.357 29.761C25.7079 30.181 26.2245 30.421 26.7801 30.421C27.2089 30.421 27.628 30.271 27.9594 30.001C28.3493 29.681 28.5832 29.241 28.6222 28.741C28.6611 28.251 28.5149 27.771 28.1933 27.391V27.371Z" fill="white"/>
<path d="M39.5871 23.977L36.6046 20.457L39.5871 16.937C39.899 16.567 40.0452 16.107 40.0062 15.627C39.9672 15.147 39.7333 14.707 39.3629 14.407C38.6124 13.797 37.5305 13.897 36.9068 14.627L34.2849 17.717L31.6631 14.627C31.0296 13.887 29.9574 13.787 29.2069 14.407C28.8366 14.717 28.6027 15.147 28.5637 15.627C28.5247 16.107 28.6709 16.577 28.9828 16.937L31.9652 20.427L28.9828 23.937C28.6709 24.307 28.5247 24.767 28.5637 25.247C28.6027 25.727 28.8366 26.167 29.2069 26.467C29.9184 27.047 31.0685 26.947 31.6631 26.237L34.2849 23.147L36.9068 26.257C37.2381 26.657 37.7352 26.877 38.2518 26.877C38.6514 26.877 39.051 26.737 39.3629 26.477C39.7333 26.167 39.9672 25.737 40.0062 25.257C40.0452 24.777 39.899 24.307 39.5871 23.947V23.977Z" fill="white"/>
<path d="M8.06661 20.457L11.0491 16.947C11.361 16.577 11.5072 16.117 11.4682 15.637C11.4292 15.157 11.1953 14.717 10.8249 14.417C10.0842 13.817 8.98279 13.917 8.36875 14.637L5.74692 17.727L3.12509 14.637C2.50131 13.907 1.39994 13.807 0.668947 14.407C0.28883 14.717 0.0549116 15.147 0.00617867 15.627C-0.0328077 16.107 0.113391 16.577 0.425282 16.947L3.40774 20.437L0.435029 23.947C0.123138 24.317 -0.0230611 24.777 0.0159253 25.257C0.0549116 25.737 0.28883 26.177 0.6592 26.477C1.3707 27.057 2.5208 26.957 3.11534 26.247L5.73717 23.157L8.359 26.267C8.70014 26.667 9.18746 26.887 9.70403 26.887C10.1036 26.887 10.5033 26.747 10.8151 26.487C11.1855 26.187 11.4194 25.747 11.4584 25.267C11.4974 24.787 11.3512 24.317 11.0393 23.957L8.05686 20.437L8.06661 20.457Z" fill="white"/>
</g>
<defs>
<clipPath id="clip0_1825_5913">
<rect width="40" height="40" fill="white"/>
</clipPath>
</defs>
</svg>
