<svg width="40" height="40" viewBox="0 0 40 40" fill="none" xmlns="http://www.w3.org/2000/svg">
<g clip-path="url(#clip0_1688_4809)">
<path d="M40 2.5C40 11.38 33.39 18.71 24.83 19.84C24.28 15.67 22.44 11.9 19.73 8.96C22.72 3.62 28.44 0 35 0H37.5C38.88 0 40 1.12 40 2.5ZM0 7.5C0 6.12 1.12 5 2.5 5H5C14.66 5 22.5 12.84 22.5 22.5V37.5C22.5 38.88 21.38 40 20 40C18.62 40 17.5 38.88 17.5 37.5V25C7.84 25 0 17.16 0 7.5Z" fill="white"/>
</g>
<defs>
<clipPath id="clip0_1688_4809">
<rect width="40" height="40" fill="white"/>
</clipPath>
</defs>
</svg>
