<svg width="40" height="40" viewBox="0 0 40 40" fill="none" xmlns="http://www.w3.org/2000/svg">
<path d="M37.7778 4C39.0069 4 40 5.00547 40 6.25V33.25C40 34.4945 39.0069 35.5 37.7778 35.5C36.5486 35.5 35.5556 34.4945 35.5556 33.25V6.25C35.5556 5.00547 36.5486 4 37.7778 4ZM4.44444 15.1305L33.3333 6.25V33.25L24.2292 30.4516C23.4861 33.3555 20.8819 35.5 17.7778 35.5C14.0972 35.5 11.1111 32.4766 11.1111 28.75C11.1111 27.9766 11.2431 27.2242 11.4792 26.5352L4.44444 24.3695C4.38194 25.5578 3.40972 26.5 2.22222 26.5C0.993056 26.5 0 25.4945 0 24.25V15.25C0 14.0055 0.993056 13 2.22222 13C3.40972 13 4.38194 13.9422 4.44444 15.1305ZM21.0417 29.4672L14.6806 27.5125C14.5347 27.8922 14.4514 28.3141 14.4514 28.75C14.4514 30.6133 15.9444 32.125 17.7847 32.125C19.3819 32.125 20.7153 30.9859 21.0417 29.4672Z" fill="white"/>
</svg>
