<svg width="40" height="40" viewBox="0 0 40 40" fill="none" xmlns="http://www.w3.org/2000/svg">
<path d="M37.7778 5C36.5486 5 35.5555 5.98235 35.5555 7.19828V33.5776C35.5555 34.7935 36.5486 35.7759 37.7778 35.7759C39.0069 35.7759 40 34.7935 40 33.5776V7.19828C40 5.98235 39.0069 5 37.7778 5ZM11.1111 29.181C11.1111 32.8219 14.0972 35.7759 17.7778 35.7759C21.0278 35.7759 23.7361 33.4746 24.3264 30.4313L21.0903 29.5245C20.9166 31.187 19.5 32.4785 17.7778 32.4785C15.9375 32.4785 14.4444 31.0015 14.4444 29.181C14.4444 28.6727 14.5625 28.185 14.7708 27.7522L11.5416 26.8454C11.2639 27.5736 11.1111 28.3567 11.1111 29.181Z" fill="#13EF93"/>
<path opacity="0.4" d="M4.44445 15.9158L35.5556 7.19827V33.5776L4.44445 24.8601C4.40278 26.0348 3.42361 26.9828 2.22222 26.9828C0.993056 26.9828 0 26.0004 0 24.7845V15.9914C0 14.7755 0.993056 13.7931 2.22222 13.7931C3.42361 13.7931 4.40278 14.7411 4.44445 15.9158Z" fill="#13EF93"/>
</svg>
