<svg width="40" height="40" viewBox="0 0 40 40" fill="none" xmlns="http://www.w3.org/2000/svg">
<path d="M27.4734 27.9808C27.4734 34.6187 22.092 40 15.4541 40C8.81624 40 3.43489 34.6187 3.43489 27.9807C3.4349 21.3428 8.81624 15.9615 15.4541 15.9615C16.7312 15.9615 17.9673 16.1595 19.1214 16.5283L26.9066 24.3135C27.2753 25.4676 27.4734 26.7037 27.4734 27.9808ZM12.7225 33.444C14.2317 33.444 15.4541 32.2216 15.4541 30.7124C15.4541 29.2032 14.2317 27.9808 12.7225 27.9808C11.2133 27.9807 9.99085 29.2032 9.99085 30.7124C9.99085 32.2216 11.2133 33.444 12.7225 33.444Z" fill="#13EF93"/>
<path opacity="0.4" d="M26.9066 24.3135L19.1214 16.5283L21.457 14.3157C21.7028 13.9469 22.1194 13.7762 22.5565 13.7762L25.2881 13.7762L25.2881 11.0445C25.2881 10.1363 26.0188 9.40555 26.9271 9.40555L29.6588 9.40555L29.6588 6.6739C29.6588 5.76563 30.3895 5.03492 31.2977 5.03492L36.761 5.03492C37.6659 5.03492 38.4 5.76563 38.4 6.67391L38.4 12.1372C38.4 12.5743 38.2273 12.9908 37.92 13.2981L26.9066 24.3135Z" fill="#13EF93"/>
<path d="M18.6985 2.91842L21.3908 5.61071C21.6913 5.91119 21.6913 6.39676 21.3908 6.69724L18.6985 9.38953C18.3981 9.69 17.9125 9.69 17.612 9.38953C17.3115 9.08905 17.3115 8.60347 17.612 8.303L19.7586 6.15398L17.612 4.00495C17.3115 3.70448 17.3115 3.2189 17.612 2.91842C17.9125 2.61795 18.3981 2.61795 18.6985 2.91842ZM10.2371 4.00495L8.08926 6.15398L10.2371 8.303C10.5376 8.60347 10.5376 9.08905 10.2371 9.38953C9.9366 9.69 9.45102 9.69 9.15055 9.38953L6.45759 6.69724C6.1572 6.39676 6.1572 5.91119 6.45759 5.61071L9.15055 2.91842C9.45102 2.61795 9.9366 2.61795 10.2371 2.91842C10.5376 3.2189 10.5376 3.70448 10.2371 4.00495Z" fill="#13EF93"/>
<path opacity="0.4" d="M16.2034 0.980709L13.1265 11.7501C13.0087 12.1587 12.5832 12.3943 12.1746 12.2789C11.7659 12.1611 11.5304 11.7357 11.6457 11.327L14.7226 0.558116C14.8404 0.149609 15.2659 -0.0869271 15.6746 0.0298028C16.0832 0.146509 16.3188 0.572298 16.2034 0.980709Z" fill="#13EF93"/>
</svg>
