<svg width="40" height="40" viewBox="0 0 40 40" fill="none" xmlns="http://www.w3.org/2000/svg">
<g clip-path="url(#clip0_1723_4966)">
<path d="M40 1.22C40 0.55 39.45 0 38.77 0C38.69 0 38.61 0 38.53 0.02L28.48 2.03C27.86 2.16 27.49 2.69 27.49 3.24C27.49 3.54 27.6 3.85 27.85 4.1L30.55 6.8L10.98 26.38L7.09 25.08C6.93 25.03 6.75 25 6.58 25C6.16 25 5.75 25.16 5.45 25.47L0.47 30.45C0.15 30.77 0 31.1 0 31.57C0 32.22 0.4 32.87 1.1 33.1L5.45 34.55L6.9 38.9C7.14 39.6 7.78 40 8.44 40C8.84 40 9.25 39.85 9.57 39.53L14.54 34.55C14.85 34.24 15.01 33.83 15.01 33.41C15.01 33.24 14.98 33.07 14.93 32.91L13.64 29.01L33.22 9.44L35.92 12.13C36.17 12.38 36.48 12.49 36.78 12.49C37.33 12.49 37.86 12.12 37.99 11.5L40 1.45C40.01 1.37 40.02 1.28 40.02 1.21L40 1.22Z" fill="#13EF93"/>
<path opacity="0.4" d="M22.05 11.76L25.69 8.12C22.52 6.1 18.83 5.01 14.99 5.01C11.15 5.01 7.39 6.12 4.2 8.18L3.9 7.88C3.66 7.64 3.33 7.51 3.01 7.51C2.69 7.51 2.37 7.63 2.12 7.88L0.36 9.64C0.12 9.87 0 10.19 0 10.51C0 10.83 0.12 11.15 0.37 11.4L11.39 22.41L14.93 18.88L7.86 11.82C10.02 10.63 12.47 10 14.94 10C17.41 10 19.92 10.61 22.06 11.76H22.05ZM31.82 35.74C33.88 32.55 34.99 28.84 34.99 24.95C34.99 21.06 33.97 17.42 31.87 14.32L28.23 17.96C29.38 20.11 29.99 22.51 29.99 25.02C29.99 27.53 29.36 30 28.17 32.17L21.1 25.09L17.56 28.62L28.64 39.7C28.88 39.94 29.2 40.07 29.52 40.07C29.84 40.07 30.16 39.95 30.4 39.7L32.17 37.93C32.41 37.69 32.54 37.36 32.54 37.04C32.54 36.72 32.42 36.4 32.17 36.15L31.81 35.73L31.82 35.74Z" fill="#13EF93"/>
</g>
<defs>
<clipPath id="clip0_1723_4966">
<rect width="40" height="40" fill="white"/>
</clipPath>
</defs>
</svg>
