<svg width="40" height="40" viewBox="0 0 40 40" fill="none" xmlns="http://www.w3.org/2000/svg">
<g clip-path="url(#clip0_1723_4964)">
<path d="M39.9785 1.48034C40.0585 1.07034 39.9285 0.660344 39.6385 0.360344C39.3485 0.0603437 38.9285 -0.0496563 38.5285 0.0203437L28.5285 1.89034C28.0785 1.98034 27.6985 2.30034 27.5685 2.75034C27.4385 3.20034 27.5485 3.67034 27.8785 4.00034L30.6085 6.73034L11.2985 26.0403L7.32847 25.0503C6.68847 24.8903 6.01847 25.0803 5.54847 25.5403L0.548468 30.5403C0.0684681 31.0203 -0.111532 31.7103 0.0684681 32.3703C0.248468 33.0303 0.768468 33.5303 1.41847 33.6903L5.32847 34.6703L6.30847 38.5803C6.46847 39.2403 6.96847 39.7503 7.62847 39.9303C8.28847 40.1103 8.97847 39.9303 9.45847 39.4503L14.4585 34.4503C14.9285 33.9803 15.1185 33.3103 14.9485 32.6703L13.9585 28.7003L33.2685 9.40034L35.9985 12.1303C36.3285 12.4603 36.8085 12.5803 37.2485 12.4403C37.6885 12.3003 38.0185 11.9303 38.1085 11.4803L39.9785 1.48034ZM4.19847 8.16034C3.21847 7.25034 1.68847 7.28034 0.738468 8.23034C-0.241532 9.21034 -0.241532 10.7903 0.738468 11.7703L11.3985 22.4303L14.9285 18.9003L7.84847 11.8203C12.2585 9.42034 17.6285 9.41034 22.0585 11.7703L25.7185 8.11034C19.1685 3.95034 10.7385 3.97034 4.20847 8.17034L4.19847 8.16034ZM28.2385 17.9503C30.5985 22.3803 30.5785 27.7503 28.1885 32.1603L21.1085 25.0803L17.5785 28.6103L28.2385 39.2703C29.2185 40.2503 30.7985 40.2503 31.7785 39.2703C32.7285 38.3203 32.7585 36.7903 31.8485 35.8103C36.0385 29.2803 36.0685 20.8403 31.9085 14.3003L28.2485 17.9603L28.2385 17.9503Z" fill="white"/>
</g>
<defs>
<clipPath id="clip0_1723_4964">
<rect width="40" height="40" fill="white"/>
</clipPath>
</defs>
</svg>
