<svg width="40" height="40" viewBox="0 0 40 40" fill="none" xmlns="http://www.w3.org/2000/svg">
<g clip-path="url(#clip0_1723_4905)">
<path d="M35.71 5.70999C38.08 5.70999 40 7.62999 40 9.99999V35.71C40 38.08 38.08 40 35.71 40H32.85C30.48 40 28.56 38.08 28.56 35.71V9.99999C28.56 7.62999 30.48 5.70999 32.85 5.70999H35.71ZM7.13999 17.14C9.50999 17.14 11.43 19.06 11.43 21.43V35.72C11.43 38.09 9.50999 40.01 7.13999 40.01H4.27999C1.90999 40.01 -0.0100098 38.09 -0.0100098 35.72V21.43C-0.0100098 19.06 1.90999 17.14 4.27999 17.14H7.13999Z" fill="#13EF93"/>
<path opacity="0.4" d="M14.29 4.29C14.29 1.92 16.21 0 18.58 0H21.44C23.81 0 25.73 1.92 25.73 4.29V35.72C25.73 38.09 23.81 40.01 21.44 40.01H18.58C16.21 40.01 14.29 38.09 14.29 35.72V4.29Z" fill="#13EF93"/>
</g>
<defs>
<clipPath id="clip0_1723_4905">
<rect width="40" height="40" fill="white"/>
</clipPath>
</defs>
</svg>
