<svg width="40" height="40" viewBox="0 0 40 40" fill="none" xmlns="http://www.w3.org/2000/svg">
<path d="M31.265 16.975L33.795 14.375C34.975 13.265 36.995 14.105 36.995 15.765V24.295C36.995 25.405 36.155 26.175 35.115 26.175H26.515C24.855 26.175 24.005 24.225 25.125 23.045L27.725 20.515L23.245 16.035L17.515 21.765C16.535 22.745 14.965 22.745 13.985 21.765L7.735 15.515C6.755 14.535 6.755 12.965 7.735 11.985C8.715 11.005 10.285 11.005 11.265 11.985L15.675 16.465L21.475 10.735C22.455 9.755 24.025 9.755 25.005 10.735L31.255 16.985L31.265 16.975Z" fill="#13EF93"/>
<path opacity="0.4" d="M2.5 2C3.88 2 5 3.12 5 4.5V30.75C5 31.44 5.56 32 6.25 32H37.5C38.88 32 40 33.12 40 34.5C40 35.88 38.88 37 37.5 37H6.25C2.8 37 0 34.2 0 30.75V4.5C0 3.12 1.12 2 2.5 2Z" fill="#13EF93"/>
</svg>
