<svg width="40" height="40" viewBox="0 0 40 40" fill="none" xmlns="http://www.w3.org/2000/svg">
<g clip-path="url(#clip0_1723_4922)">
<path d="M39.4076 2.93761C40.3376 4.01761 40.1676 5.58761 39.0176 6.45761L26.5076 16.3976C25.6876 17.1776 24.4276 17.2076 23.5176 16.5176L15.0576 10.1776L4.06761 18.8976C2.98761 19.8276 1.41761 19.6576 0.54761 18.5076C-0.31239 17.4976 -0.14239 15.9276 0.93761 15.0576L13.4476 5.04761C14.3376 4.33761 15.5976 4.31761 16.5076 4.99761L24.9676 11.3376L35.9576 2.54761C37.0376 1.68761 38.6076 1.85761 39.4076 2.93761Z" fill="#13EF93"/>
<path opacity="0.4" d="M17.5176 19.5076V34.5176C17.5176 35.8976 16.3976 37.0176 15.0176 37.0176C13.6376 37.0176 12.5176 35.8976 12.5176 34.5176V19.5076C12.5176 18.1276 13.6376 17.0076 15.0176 17.0076C16.3976 17.0076 17.5176 18.1276 17.5176 19.5076ZM7.51761 27.0076V34.5076C7.51761 35.8876 6.39761 37.0076 5.01761 37.0076C3.63761 37.0076 2.51761 35.8876 2.51761 34.5076V27.0076C2.51761 25.6276 3.63761 24.5076 5.01761 24.5076C6.39761 24.5076 7.51761 25.6276 7.51761 27.0076ZM22.5276 24.5076C22.5276 23.1276 23.6476 22.0076 25.0276 22.0076C26.4076 22.0076 27.5276 23.1276 27.5276 24.5076V34.5076C27.5276 35.8876 26.4076 37.0076 25.0276 37.0076C23.6476 37.0076 22.5276 35.8876 22.5276 34.5076V24.5076ZM37.5376 19.5076V34.5176C37.5376 35.8976 36.4176 37.0176 35.0376 37.0176C33.6576 37.0176 32.5376 35.8976 32.5376 34.5176V19.5076C32.5376 18.1276 33.6576 17.0076 35.0376 17.0076C36.4176 17.0076 37.5376 18.1276 37.5376 19.5076Z" fill="#13EF93"/>
</g>
<defs>
<clipPath id="clip0_1723_4922">
<rect width="40" height="40" fill="white"/>
</clipPath>
</defs>
</svg>
