<svg width="40" height="40" viewBox="0 0 40 40" fill="none" xmlns="http://www.w3.org/2000/svg">
<g clip-path="url(#clip0_1754_4728)">
<path d="M28.58 31.91L28.62 31.36C28.54 31.28 28.46 31.2 28.38 31.12C28.3 31.04 28.23 30.96 28.15 30.87H27.6C27.6 30.87 27.56 30.89 27.54 30.89C26.58 30.89 25.74 30.33 25.4 29.46C25.29 29.17 25.2 28.91 25.13 28.64L25.06 28.36V28.33C24.99 28.05 24.94 27.77 24.9 27.5C24.77 26.54 25.28 25.61 26.18 25.19L26.65 24.97C26.7 24.77 26.75 24.56 26.82 24.37L26.52 23.9C25.99 23.07 26.04 22.01 26.64 21.27C26.84 21.02 27.07 20.78 27.31 20.55L27.33 20.53C27.58 20.29 27.83 20.07 28.09 19.89C28.47 19.61 28.92 19.46 29.39 19.46C29.72 19.46 30.05 19.53 30.35 19.67V12.6C30.35 10.81 28.89 9.35001 27.1 9.35001H24.93C23.14 9.35001 21.68 10.81 21.68 12.6V32.1C21.68 33.89 23.14 35.35 24.93 35.35H27.1C28.16 35.35 29.1 34.84 29.7 34.05C28.98 33.62 28.54 32.8 28.6 31.93L28.58 31.91Z" fill="white"/>
<path d="M5.42 18H3.25C1.45507 18 0 19.4551 0 21.25V32.08C0 33.8749 1.45507 35.33 3.25 35.33H5.42C7.21493 35.33 8.67 33.8749 8.67 32.08V21.25C8.67 19.4551 7.21493 18 5.42 18Z" fill="white"/>
<path d="M16.25 5H14.08C12.2851 5 10.83 6.45507 10.83 8.25V32.08C10.83 33.8749 12.2851 35.33 14.08 35.33H16.25C18.0449 35.33 19.5 33.8749 19.5 32.08V8.25C19.5 6.45507 18.0449 5 16.25 5Z" fill="white"/>
<path d="M36.3 21.12C36.33 20.73 36.12 20.35 35.76 20.19C35.54 20.1 35.31 20.01 35.09 19.94L34.84 19.87C34.61 19.8 34.37 19.75 34.13 19.71C33.74 19.64 33.37 19.85 33.2 20.2L32.64 21.28C32.07 21.32 31.5 21.45 30.97 21.68L29.95 20.98C29.62 20.75 29.2 20.73 28.89 20.97C28.67 21.13 28.46 21.31 28.26 21.5L28.24 21.52C28.04 21.71 27.85 21.92 27.68 22.13C27.44 22.43 27.44 22.86 27.65 23.19L28.32 24.24C28.07 24.77 27.92 25.33 27.86 25.9L26.76 26.43C26.41 26.59 26.19 26.95 26.24 27.34C26.27 27.58 26.32 27.82 26.37 28.06L26.44 28.3C26.5 28.53 26.58 28.76 26.67 28.99C26.81 29.36 27.18 29.58 27.58 29.57L28.81 29.54C28.97 29.77 29.16 30 29.36 30.22C29.56 30.44 29.79 30.63 30.02 30.8L29.94 32.03C29.91 32.42 30.12 32.8 30.48 32.96C30.7 33.05 30.93 33.14 31.16 33.21L31.4 33.28C31.64 33.35 31.87 33.4 32.12 33.44C32.51 33.51 32.88 33.3 33.05 32.95L33.61 31.87C34.18 31.83 34.75 31.7 35.28 31.47L36.3 32.17C36.63 32.4 37.05 32.42 37.36 32.18C37.58 32.01 37.79 31.83 38 31.64C38.21 31.45 38.39 31.24 38.57 31.03C38.81 30.73 38.81 30.3 38.6 29.97L37.93 28.92C38.18 28.39 38.33 27.83 38.39 27.26L39.49 26.74C39.84 26.58 40.06 26.22 40.01 25.83C39.98 25.59 39.93 25.35 39.87 25.11L39.8 24.86C39.74 24.63 39.66 24.4 39.57 24.18C39.43 23.81 39.06 23.59 38.66 23.6L37.43 23.63C37.26 23.39 37.08 23.17 36.87 22.95C36.66 22.73 36.44 22.54 36.21 22.37L36.29 21.14L36.3 21.12ZM31.69 27.92C30.92 27.12 30.93 25.86 31.71 25.11C32.49 24.36 33.75 24.4 34.52 25.2C35.29 26 35.28 27.26 34.5 28.01C33.72 28.76 32.46 28.72 31.69 27.92Z" fill="white"/>
</g>
<defs>
<clipPath id="clip0_1754_4728">
<rect width="40" height="40" fill="white"/>
</clipPath>
</defs>
</svg>
