<svg width="40" height="40" viewBox="0 0 40 40" fill="none" xmlns="http://www.w3.org/2000/svg">
<path d="M25.52 25.02C24.54 26 22.97 26 21.99 25.02L16.19 19.29L11.78 23.77C10.8 24.75 9.23 24.75 8.25 23.77C7.27 22.79 7.27 21.22 8.25 20.24L14.5 13.99C15.48 13.01 17.05 13.01 18.03 13.99L23.76 19.72L28.24 15.24L25.64 12.64C24.53 11.53 25.37 9.51 27.03 9.51H35.63C36.67 9.51 37.51 10.35 37.51 11.39V19.99C37.51 21.65 35.49 22.49 34.31 21.31L31.78 18.78L25.53 25.03L25.52 25.02Z" fill="white"/>
<path d="M2.5 2C3.88 2 5 3.12 5 4.5V30.75C5 31.44 5.56 32 6.25 32H37.5C38.88 32 40 33.12 40 34.5C40 35.88 38.88 37 37.5 37H6.25C2.8 37 0 34.2 0 30.75V4.5C0 3.12 1.12 2 2.5 2Z" fill="white"/>
</svg>
