<svg width="40" height="40" viewBox="0 0 40 40" fill="none" xmlns="http://www.w3.org/2000/svg">
<path d="M39.0576 6.45761C40.1376 5.59761 40.3076 4.01761 39.4476 2.93761C38.5876 1.85761 37.0076 1.68761 35.9276 2.54761L24.9476 11.3376L16.4976 4.99761C15.5876 4.30761 14.3276 4.33761 13.4376 5.04761L0.93761 15.0576C-0.14239 15.9176 -0.31239 17.4976 0.54761 18.5776C1.40761 19.6576 2.98761 19.8276 4.06761 18.9676L15.0476 10.1776L23.4976 16.5176C24.4076 17.2076 25.6676 17.1776 26.5576 16.4676L39.0576 6.46761V6.45761ZM12.4976 19.5076V34.5076C12.4976 35.8876 13.6176 37.0076 14.9976 37.0076C16.3776 37.0076 17.4976 35.8876 17.4976 34.5076V19.5076C17.4976 18.1276 16.3776 17.0076 14.9976 17.0076C13.6176 17.0076 12.4976 18.1276 12.4976 19.5076ZM2.49761 27.0076V34.5076C2.49761 35.8876 3.61761 37.0076 4.99761 37.0076C6.37761 37.0076 7.49761 35.8876 7.49761 34.5076V27.0076C7.49761 25.6276 6.37761 24.5076 4.99761 24.5076C3.61761 24.5076 2.49761 25.6276 2.49761 27.0076ZM24.9976 22.0076C23.6176 22.0076 22.4976 23.1276 22.4976 24.5076V34.5076C22.4976 35.8876 23.6176 37.0076 24.9976 37.0076C26.3776 37.0076 27.4976 35.8876 27.4976 34.5076V24.5076C27.4976 23.1276 26.3776 22.0076 24.9976 22.0076ZM32.4976 19.5076V34.5076C32.4976 35.8876 33.6176 37.0076 34.9976 37.0076C36.3776 37.0076 37.4976 35.8876 37.4976 34.5076V19.5076C37.4976 18.1276 36.3776 17.0076 34.9976 17.0076C33.6176 17.0076 32.4976 18.1276 32.4976 19.5076Z" fill="white"/>
</svg>
