<svg width="40" height="40" viewBox="0 0 40 40" fill="none" xmlns="http://www.w3.org/2000/svg">
<g clip-path="url(#clip0_1723_4903)">
<path d="M14.29 4.29C14.29 1.92 16.21 0 18.58 0H21.44C23.81 0 25.73 1.92 25.73 4.29V35.72C25.73 38.09 23.81 40.01 21.44 40.01H18.58C16.21 40.01 14.29 38.09 14.29 35.72V4.29ZM0 21.43C0 19.06 1.92 17.14 4.29 17.14H7.15C9.52 17.14 11.44 19.06 11.44 21.43V35.72C11.44 38.09 9.52 40.01 7.15 40.01H4.29C1.92 40.01 0 38.09 0 35.72L0 21.43ZM32.86 5.71H35.72C38.09 5.71 40.01 7.63 40.01 10V35.71C40.01 38.08 38.09 40 35.72 40H32.86C30.49 40 28.57 38.08 28.57 35.71V10C28.57 7.63 30.49 5.71 32.86 5.71Z" fill="white"/>
</g>
<defs>
<clipPath id="clip0_1723_4903">
<rect width="40" height="40" fill="white"/>
</clipPath>
</defs>
</svg>
