<svg width="40" height="40" viewBox="0 0 40 40" fill="none" xmlns="http://www.w3.org/2000/svg">
<path d="M37.5 25.5C37.5 26.88 36.38 28 35 28C33.62 28 32.5 26.88 32.5 25.5V8C32.5 6.62 33.62 5.5 35 5.5C36.38 5.5 37.5 6.62 37.5 8V25.5ZM22.5 25.5C22.5 26.88 21.38 28 20 28C18.62 28 17.5 26.88 17.5 25.5V13C17.5 11.62 18.62 10.5 20 10.5C21.38 10.5 22.5 11.62 22.5 13V25.5ZM15 25.5C15 26.88 13.88 28 12.5 28C11.12 28 10 26.88 10 25.5V20.5C10 19.12 11.12 18 12.5 18C13.88 18 15 19.12 15 20.5V25.5ZM27.5 15.5C28.88 15.5 30 16.62 30 18V25.5C30 26.88 28.88 28 27.5 28C26.12 28 25 26.88 25 25.5V18C25 16.62 26.12 15.5 27.5 15.5Z" fill="#13EF93"/>
<path opacity="0.4" d="M2.5 3C3.88 3 5 4.12 5 5.5V31.75C5 32.44 5.56 33 6.25 33H37.5C38.88 33 40 34.12 40 35.5C40 36.88 38.88 38 37.5 38H6.25C2.8 38 0 35.2 0 31.75V5.5C0 4.12 1.12 3 2.5 3Z" fill="#13EF93"/>
</svg>
