<svg width="40" height="40" viewBox="0 0 40 40" fill="none" xmlns="http://www.w3.org/2000/svg">
<path d="M9.9975 2H12.4969C13.8765 2 14.9963 3.12 14.9963 4.5V7H7.49813V4.5C7.49813 3.12 8.61785 2 9.9975 2ZM14.9963 9.5V34.5C14.9963 35.88 13.8765 37 12.4969 37H2.49938C1.11972 37 0 35.88 0 34.5V29.88C0 27.18 0.729818 24.52 2.12947 22.2C3.1992 20.42 3.88903 18.43 4.14896 16.37L4.73882 11.68C4.89878 10.43 5.95851 9.49 7.2182 9.49H15.0062L14.9963 9.5ZM32.7918 9.5C34.0515 9.5 35.1212 10.44 35.2712 11.69L35.851 16.38C36.111 18.44 36.8008 20.43 37.8705 22.21C39.2602 24.53 40 27.19 40 29.89V34.51C40 35.89 38.8803 37.01 37.5006 37.01H27.5031C26.1235 37.01 25.0037 35.89 25.0037 34.51V9.5H32.8018H32.7918ZM24.9938 4.5C24.9938 3.12 26.1135 2 27.4931 2H29.9925C31.3722 2 32.4919 3.12 32.4919 4.5V7H24.9938V4.5ZM22.4944 9.5V22H17.4956V9.5H22.4944Z" fill="white"/>
</svg>
