<svg width="40" height="40" viewBox="0 0 40 40" fill="none" xmlns="http://www.w3.org/2000/svg">
<path d="M14.9937 34.5081V19.5044H17.4944V7.00125H7.26181C5.98149 7.00125 4.90122 7.9815 4.78119 9.25181L4.08102 16.2636C3.87097 18.3941 3.18079 20.4646 2.08052 22.3051C0.72018 24.5656 0 27.1463 0 29.7869V34.5081C0 35.8885 1.12028 37.0088 2.50062 37.0088H12.5031C13.8835 37.0088 15.0037 35.8885 15.0037 34.5081H14.9937ZM24.9962 34.5081C24.9962 35.8885 26.1165 37.0088 27.4969 37.0088H37.4994C38.8797 37.0088 40 35.8885 40 34.5081V29.7869C40 27.1463 39.2798 24.5556 37.9295 22.3051C36.8292 20.4646 36.139 18.4041 35.929 16.2636L35.2288 9.25181C35.0988 7.9815 34.0285 7.00125 32.7382 7.00125H22.5056V19.5044H25.0063V34.5081H24.9962Z" fill="#13EF93"/>
<path opacity="0.4" d="M7.80194 4.50062V7.00125H15.3038V4.50062C15.3038 3.12028 14.1835 2 12.8032 2H10.3026C8.92222 2 7.80194 3.12028 7.80194 4.50062ZM25.3063 4.50062V7.00125H32.8082V4.50062C32.8082 3.12028 31.6879 2 30.3076 2H27.8069C26.4266 2 25.3063 3.12028 25.3063 4.50062ZM22.8057 7.00125H17.8044V19.5044H22.8057V7.00125Z" fill="#13EF93"/>
</svg>
