<svg width="40" height="40" viewBox="0 0 40 40" fill="none" xmlns="http://www.w3.org/2000/svg">
<g clip-path="url(#clip0_1743_4815)">
<path d="M15 2.5C15 3.88 16.12 5 17.5 5C27.16 5 35 12.84 35 22.5C35 23.88 36.12 25 37.5 25C38.88 25 40 23.88 40 22.5C40 10.07 29.93 0 17.5 0C16.12 0 15 1.12 15 2.5ZM15 10C15 11.38 16.12 12.5 17.5 12.5C23.02 12.5 27.5 16.98 27.5 22.5C27.5 23.88 28.62 25 30 25C31.38 25 32.5 23.88 32.5 22.5C32.5 14.22 25.78 7.5 17.5 7.5C16.12 7.5 15 8.62 15 10ZM7.5 11.25C7.5 9.18 5.82 7.5 3.75 7.5C1.68 7.5 0 9.18 0 11.25V28.75C0 34.96 5.04 40 11.25 40C17.46 40 22.5 34.96 22.5 28.75C22.5 22.54 17.46 17.5 11.25 17.5H10V25H11.25C13.32 25 15 26.68 15 28.75C15 30.82 13.32 32.5 11.25 32.5C9.18 32.5 7.5 30.82 7.5 28.75V11.25Z" fill="white"/>
</g>
<defs>
<clipPath id="clip0_1743_4815">
<rect width="40" height="40" fill="white"/>
</clipPath>
</defs>
</svg>
