<svg width="40" height="40" viewBox="0 0 40 40" fill="none" xmlns="http://www.w3.org/2000/svg">
<g clip-path="url(#clip0_1743_4817)">
<path d="M13.46 17.72C12.32 17.49 11.25 18.42 11.25 19.58V23.52C11.25 24.32 11.81 24.96 12.56 25.17C13.98 25.7 15 27.07 15 28.62C15 30.69 13.32 32.3 11.25 32.3C9.18 32.3 7.5 30.62 7.5 28.62V9.38001C7.5 8.34001 6.66 7.58001 5.62 7.58001H1.87C0.84 7.51001 0 8.35001 0 9.38001V28.68C0 35.67 6.42 41.2 13.67 39.67C17.92 38.77 21.35 35.33 22.25 31.1C23.61 24.69 19.36 18.89 13.46 17.72Z" fill="#13EF93"/>
<path opacity="0.4" d="M17.5 0C16.12 0 15 1.12 15 2.5C15 3.88 16.12 5 17.5 5C27.15 5 35 12.85 35 22.5C35 23.88 36.12 25 37.5 25C38.88 25 40 23.88 40 22.5C40 10.09 29.91 0 17.5 0ZM17 7.51C15.99 7.46 15.07 8.23 15.01 9.26C14.94 10.29 15.72 11.18 16.75 11.18C22.96 11.59 28.34 16.97 28.75 23.18C28.81 24.17 29.64 24.93 30.62 24.93C30.66 24.93 30.7 24.93 30.74 24.93C31.77 24.86 32.56 23.97 32.49 22.94C31.97 14.99 25.02 8.04 17 7.51Z" fill="#13EF93"/>
</g>
<defs>
<clipPath id="clip0_1743_4817">
<rect width="40" height="40" fill="white"/>
</clipPath>
</defs>
</svg>
