<svg width="40" height="40" viewBox="0 0 40 40" fill="none" xmlns="http://www.w3.org/2000/svg">
<path d="M10.125 29.5H32.6875C34.655 29.5 36.25 27.905 36.25 25.9375V4.5625C36.25 2.59496 34.6543 1 32.6875 1H10.125C6.18992 1 3 4.18992 3 8.125V31.875C3 35.8101 6.18992 39 10.125 39H33.875C35.1864 39 36.25 37.9364 36.25 36.6918C36.25 35.3113 35.1887 34.25 33.875 34.25H10.2289C8.98871 34.25 7.88063 33.343 7.76336 32.108C7.62605 30.6949 8.73637 29.5 10.125 29.5ZM13.6207 10.5H27.8707C28.5906 10.5 29.125 11.0344 29.125 11.6875C29.125 12.3406 28.5906 12.875 27.9375 12.875H13.6207C13.0344 12.875 12.5 12.3406 12.5 11.6875C12.5 11.0344 13.0344 10.5 13.6207 10.5ZM13.6207 15.25H27.8707C28.5906 15.25 29.125 15.7844 29.125 16.4375C29.125 17.0906 28.5906 17.625 27.9375 17.625H13.6207C13.0344 17.625 12.5 17.0906 12.5 16.4375C12.5 15.7844 13.0344 15.25 13.6207 15.25Z" fill="#13EF93"/>
<path opacity="0.4" d="M32.6875 29.5H10.125C8.81355 29.5 7.75 30.5636 7.75 31.875C7.75 33.1864 8.81355 34.25 10.125 34.25H33.875V29.2818C33.4371 29.4109 33.1031 29.5 32.6875 29.5Z" fill="#13EF93"/>
</svg>
