<svg width="40" height="40" viewBox="0 0 40 40" fill="none" xmlns="http://www.w3.org/2000/svg">
<path d="M1 3.37577C1 2.06213 2.06138 1.00082 3.37511 1.00082H8.12532C9.43905 1.00082 10.5004 2.06213 10.5004 3.37577V8.12567H1V3.37577ZM1 10.5006H10.5004V29.5002H1V10.5006ZM1 31.8752H10.5004V36.625C10.5004 37.9387 9.43905 39 8.12532 39H3.37511C2.06138 39 1 37.9387 1 36.625V31.8752ZM12.8755 3.37577C12.8755 2.06213 13.9369 1.00082 15.2506 1.00082H20.0008C21.3146 1.00082 22.3759 2.06213 22.3759 3.37577V8.12567H12.8755V3.37577ZM12.8755 10.5006H22.3759V29.5002H12.8755V10.5006ZM12.8755 31.8752H22.3759V36.625C22.3759 37.9387 21.3146 39 20.0008 39H15.2506C13.9369 39 12.8755 37.9387 12.8755 36.625V31.8752ZM27.9871 30.3982L24.7511 18.2637V11.599L32.2029 9.60259L37.1016 27.9639L27.9871 30.3982ZM31.5943 7.30928L24.7511 9.13502V1.81721L27.4898 1.08246C28.7442 0.741061 30.0431 1.49065 30.3771 2.75977L31.5943 7.30928ZM28.5958 32.6915L37.7102 30.2498L38.92 34.7845C39.254 36.0462 38.5118 37.345 37.25 37.6864L32.6928 38.9109C31.4385 39.2523 30.1396 38.5027 29.8056 37.2336L28.5958 32.6915Z" fill="white"/>
</svg>
