<svg width="40" height="40" viewBox="0 0 40 40" fill="none" xmlns="http://www.w3.org/2000/svg">
<path d="M22.372 9.14316L22.4759 9.51921L31.5887 7.14725L30.3717 2.7143C30.0378 1.48493 28.7391 0.754542 27.485 1.07996L22.9286 2.27317C22.7282 2.32379 22.5427 2.40334 22.372 2.49735V7.94272H12.8734V10.2568H22.372V9.14316ZM32.1973 9.37457L23.0844 11.761L27.9822 29.6519L37.095 27.2727L32.1973 9.38181V9.37457ZM29.8077 36.3122C30.1417 37.5415 31.4403 38.2719 32.6945 37.9465L37.2509 36.7533C38.505 36.4207 39.2545 35.1551 38.9205 33.9258L37.7109 29.5073L28.5907 31.8792L29.8003 36.3122H29.8077ZM1 7.94272V10.2568H10.4987V7.94272H1ZM10.4987 28.7697H1V31.0838H10.4987V28.7697ZM22.372 28.7697H12.8734V31.0838H22.372V28.7697Z" fill="#13EF93"/>
<path opacity="0.4" d="M1 3.3141C1 2.03411 2.06118 1 3.37467 1H8.12402C9.43751 1 10.4987 2.03411 10.4987 3.3141V7.94231H1V3.3141ZM1 10.2564H10.4987V28.7692H1V10.2564ZM1 31.0833H10.4987V35.7115C10.4987 36.9915 9.43751 38.0256 8.12402 38.0256H3.37467C2.06118 38.0256 1 36.9915 1 35.7115V31.0833ZM12.8734 3.3141C12.8734 2.03411 13.9345 1 15.248 1H19.9974C21.3109 1 22.372 2.03411 22.372 3.3141V7.94231H12.8734V3.3141ZM12.8734 10.2564H22.372V28.7692H12.8734V10.2564ZM12.8734 31.0833H22.372V35.7115C22.372 36.9915 21.3109 38.0256 19.9974 38.0256H15.248C13.9345 38.0256 12.8734 36.9915 12.8734 35.7115V31.0833ZM22.4759 9.51879L31.5887 7.14684L32.1973 9.38139L23.0845 11.7606L22.4759 9.52602V9.51879ZM27.9822 29.6443L37.095 27.2651L37.7035 29.4996L28.5907 31.8788L27.9822 29.6443Z" fill="#13EF93"/>
</svg>
