<svg width="40" height="40" viewBox="0 0 40 40" fill="none" xmlns="http://www.w3.org/2000/svg">
<path d="M10.2857 0C6.26339 0 3 3.27539 3 7.3125V31.6875C3 35.7246 6.26339 39 10.2857 39H32.1429H34.5714C35.9147 39 37 37.9107 37 36.5625C37 35.2143 35.9147 34.125 34.5714 34.125V29.25C35.9147 29.25 37 28.1607 37 26.8125V2.4375C37 1.08926 35.9147 0 34.5714 0H32.1429H10.2857ZM10.2857 29.25H29.7143V34.125H10.2857C8.94241 34.125 7.85714 33.0357 7.85714 31.6875C7.85714 30.3393 8.94241 29.25 10.2857 29.25ZM12.7143 10.9688C12.7143 10.2984 13.2607 9.75 13.9286 9.75H28.5C29.1679 9.75 29.7143 10.2984 29.7143 10.9688C29.7143 11.6391 29.1679 12.1875 28.5 12.1875H13.9286C13.2607 12.1875 12.7143 11.6391 12.7143 10.9688ZM13.9286 14.625H28.5C29.1679 14.625 29.7143 15.1734 29.7143 15.8438C29.7143 16.5141 29.1679 17.0625 28.5 17.0625H13.9286C13.2607 17.0625 12.7143 16.5141 12.7143 15.8438C12.7143 15.1734 13.2607 14.625 13.9286 14.625Z" fill="white"/>
</svg>
