<svg width="40" height="40" viewBox="0 0 40 40" fill="none" xmlns="http://www.w3.org/2000/svg">
<g clip-path="url(#clip0_1712_4678)">
<g clip-path="url(#clip1_1712_4678)">
<path d="M18.75 21.25V35.625H21.25V30H23.9609C24.4766 31.4531 25.8672 32.5 27.5 32.5C29.5703 32.5 31.25 30.8203 31.25 28.75C31.25 26.6797 29.5703 25 27.5 25C25.8672 25 24.4766 26.0469 23.9609 27.5H21.25V12.5H25C25.6875 12.5 26.25 13.0625 26.25 13.75V13.9609C24.7969 14.4766 23.75 15.8672 23.75 17.5C23.75 19.5703 25.4297 21.25 27.5 21.25C29.5703 21.25 31.25 19.5703 31.25 17.5C31.25 15.8672 30.2031 14.4766 28.75 13.9609V13.75C28.75 11.6797 27.0703 10 25 10H21.25V4.375H18.75V10H16.0391C15.5234 8.54688 14.1328 7.5 12.5 7.5C10.4297 7.5 8.75 9.17969 8.75 11.25C8.75 13.3203 10.4297 15 12.5 15C14.1328 15 15.5234 13.9531 16.0391 12.5H18.75V18.75H15C12.9297 18.75 11.25 20.4297 11.25 22.5V25.2109C9.79688 25.7266 8.75 27.1172 8.75 28.75C8.75 30.8203 10.4297 32.5 12.5 32.5C14.5703 32.5 16.25 30.8203 16.25 28.75C16.25 27.1172 15.2031 25.7266 13.75 25.2109V22.5C13.75 21.8125 14.3125 21.25 15 21.25H18.75ZM13.75 11.25C13.75 11.5815 13.6183 11.8995 13.3839 12.1339C13.1495 12.3683 12.8315 12.5 12.5 12.5C12.1685 12.5 11.8505 12.3683 11.6161 12.1339C11.3817 11.8995 11.25 11.5815 11.25 11.25C11.25 10.9185 11.3817 10.6005 11.6161 10.3661C11.8505 10.1317 12.1685 10 12.5 10C12.8315 10 13.1495 10.1317 13.3839 10.3661C13.6183 10.6005 13.75 10.9185 13.75 11.25ZM27.5 18.75C27.1685 18.75 26.8505 18.6183 26.6161 18.3839C26.3817 18.1495 26.25 17.8315 26.25 17.5C26.25 17.1685 26.3817 16.8505 26.6161 16.6161C26.8505 16.3817 27.1685 16.25 27.5 16.25C27.8315 16.25 28.1495 16.3817 28.3839 16.6161C28.6183 16.8505 28.75 17.1685 28.75 17.5C28.75 17.8315 28.6183 18.1495 28.3839 18.3839C28.1495 18.6183 27.8315 18.75 27.5 18.75ZM13.75 28.75C13.75 29.0815 13.6183 29.3995 13.3839 29.6339C13.1495 29.8683 12.8315 30 12.5 30C12.1685 30 11.8505 29.8683 11.6161 29.6339C11.3817 29.3995 11.25 29.0815 11.25 28.75C11.25 28.4185 11.3817 28.1005 11.6161 27.8661C11.8505 27.6317 12.1685 27.5 12.5 27.5C12.8315 27.5 13.1495 27.6317 13.3839 27.8661C13.6183 28.1005 13.75 28.4185 13.75 28.75ZM28.75 28.75C28.75 29.0815 28.6183 29.3995 28.3839 29.6339C28.1495 29.8683 27.8315 30 27.5 30C27.1685 30 26.8505 29.8683 26.6161 29.6339C26.3817 29.3995 26.25 29.0815 26.25 28.75C26.25 28.4185 26.3817 28.1005 26.6161 27.8661C26.8505 27.6317 27.1685 27.5 27.5 27.5C27.8315 27.5 28.1495 27.6317 28.3839 27.8661C28.6183 28.1005 28.75 28.4185 28.75 28.75Z" fill="#13EF93"/>
<path opacity="0.4" d="M18.75 4.375C18.75 1.96094 16.7891 0 14.375 0C12.1172 0 10.2578 1.71094 10.0234 3.89844C7.85938 4.44531 6.25 6.41406 6.25 8.75C6.25 9.21875 6.3125 9.67969 6.4375 10.1094C4.1875 10.6016 2.5 12.6016 2.5 15C2.5 16.1719 2.89844 17.25 3.57812 18.1016C1.46094 19.1016 0 21.2578 0 23.75C0 26.4219 1.67187 28.7031 4.03125 29.5938C3.85156 30.1094 3.75 30.6719 3.75 31.25C3.75 34.0078 5.99219 36.25 8.75 36.25C9.1875 36.25 9.61719 36.1953 10.0234 36.0859C10.25 38.2891 12.1172 40 14.375 40C16.7891 40 18.75 38.0391 18.75 35.625V21.25H15C14.3125 21.25 13.75 21.8125 13.75 22.5V25.2109C15.2031 25.7266 16.25 27.1172 16.25 28.75C16.25 30.8203 14.5703 32.5 12.5 32.5C10.4297 32.5 8.75 30.8203 8.75 28.75C8.75 27.1172 9.79688 25.7266 11.25 25.2109V22.5C11.25 20.4297 12.9297 18.75 15 18.75H18.75V12.5H16.0391C15.5234 13.9531 14.1328 15 12.5 15C10.4297 15 8.75 13.3203 8.75 11.25C8.75 9.17969 10.4297 7.5 12.5 7.5C14.1328 7.5 15.5234 8.54688 16.0391 10H18.75V4.375ZM21.25 12.5V27.5H23.9609C24.4766 26.0469 25.8672 25 27.5 25C29.5703 25 31.25 26.6797 31.25 28.75C31.25 30.8203 29.5703 32.5 27.5 32.5C25.8672 32.5 24.4766 31.4531 23.9609 30H21.25V35.625C21.25 38.0391 23.2109 40 25.625 40C27.8828 40 29.7422 38.2891 29.9766 36.0859C30.3828 36.1953 30.8125 36.25 31.25 36.25C34.0078 36.25 36.25 34.0078 36.25 31.25C36.25 30.6719 36.1484 30.1094 35.9688 29.5938C38.3281 28.7031 40 26.4219 40 23.75C40 21.2578 38.5391 19.1016 36.4219 18.1016C37.1016 17.25 37.5 16.1719 37.5 15C37.5 12.6016 35.8125 10.6016 33.5625 10.1094C33.6875 9.67969 33.75 9.21875 33.75 8.75C33.75 6.41406 32.1406 4.44531 29.9766 3.89844C29.7344 1.71094 27.8828 0 25.625 0C23.2109 0 21.25 1.96094 21.25 4.375V10H25C27.0703 10 28.75 11.6797 28.75 13.75V13.9609C30.2031 14.4766 31.25 15.8672 31.25 17.5C31.25 19.5703 29.5703 21.25 27.5 21.25C25.4297 21.25 23.75 19.5703 23.75 17.5C23.75 15.8672 24.7969 14.4766 26.25 13.9609V13.75C26.25 13.0625 25.6875 12.5 25 12.5H21.25Z" fill="#13EF93"/>
</g>
</g>
<defs>
<clipPath id="clip0_1712_4678">
<rect width="40" height="40" fill="white"/>
</clipPath>
<clipPath id="clip1_1712_4678">
<rect width="40" height="40" fill="white"/>
</clipPath>
</defs>
</svg>
