<svg width="40" height="40" viewBox="0 0 40 40" fill="none" xmlns="http://www.w3.org/2000/svg">
<g clip-path="url(#clip0_1659_5048)">
<path d="M18.8125 5.15625C18.8125 2.86289 16.9496 1 14.6562 1C12.5113 1 10.7449 2.62539 10.5223 4.70352C8.46641 5.22305 6.9375 7.09336 6.9375 9.3125C6.9375 9.75781 6.99688 10.1957 7.11562 10.6039C4.97813 11.0715 3.375 12.9715 3.375 15.25C3.375 16.3633 3.75352 17.3875 4.39922 18.1965C2.38789 19.1465 1 21.1949 1 23.5625C1 26.1008 2.58828 28.268 4.82969 29.1141C4.65898 29.6039 4.5625 30.1383 4.5625 30.6875C4.5625 33.3074 6.69258 35.4375 9.3125 35.4375C9.72812 35.4375 10.1363 35.3855 10.5223 35.2816C10.7375 37.3746 12.5113 39 14.6562 39C16.9496 39 18.8125 37.1371 18.8125 34.8438V21.1875H15.25C14.5969 21.1875 14.0625 21.7219 14.0625 22.375V24.9504C15.443 25.4402 16.4375 26.7613 16.4375 28.3125C16.4375 30.2793 14.8418 31.875 12.875 31.875C10.9082 31.875 9.3125 30.2793 9.3125 28.3125C9.3125 26.7613 10.307 25.4402 11.6875 24.9504V22.375C11.6875 20.4082 13.2832 18.8125 15.25 18.8125H18.8125V12.875H16.2371C15.7473 14.2555 14.4262 15.25 12.875 15.25C10.9082 15.25 9.3125 13.6543 9.3125 11.6875C9.3125 9.7207 10.9082 8.125 12.875 8.125C14.4262 8.125 15.7473 9.11953 16.2371 10.5H18.8125V5.15625ZM21.1875 12.875V27.125H23.7629C24.2527 25.7445 25.5738 24.75 27.125 24.75C29.0918 24.75 30.6875 26.3457 30.6875 28.3125C30.6875 30.2793 29.0918 31.875 27.125 31.875C25.5738 31.875 24.2527 30.8805 23.7629 29.5H21.1875V34.8438C21.1875 37.1371 23.0504 39 25.3438 39C27.4887 39 29.2551 37.3746 29.4777 35.2816C29.8637 35.3855 30.2719 35.4375 30.6875 35.4375C33.3074 35.4375 35.4375 33.3074 35.4375 30.6875C35.4375 30.1383 35.341 29.6039 35.1703 29.1141C37.4117 28.268 39 26.1008 39 23.5625C39 21.1949 37.6121 19.1465 35.6008 18.1965C36.2465 17.3875 36.625 16.3633 36.625 15.25C36.625 12.9715 35.0219 11.0715 32.8844 10.6039C33.0031 10.1957 33.0625 9.75781 33.0625 9.3125C33.0625 7.09336 31.5336 5.22305 29.4777 4.70352C29.2477 2.62539 27.4887 1 25.3438 1C23.0504 1 21.1875 2.86289 21.1875 5.15625V10.5H24.75C26.7168 10.5 28.3125 12.0957 28.3125 14.0625V14.2629C29.693 14.7527 30.6875 16.0738 30.6875 17.625C30.6875 19.5918 29.0918 21.1875 27.125 21.1875C25.1582 21.1875 23.5625 19.5918 23.5625 17.625C23.5625 16.0738 24.557 14.7527 25.9375 14.2629V14.0625C25.9375 13.4094 25.4031 12.875 24.75 12.875H21.1875ZM11.6875 11.6875C11.6875 12.0024 11.8126 12.3045 12.0353 12.5272C12.258 12.7499 12.5601 12.875 12.875 12.875C13.1899 12.875 13.492 12.7499 13.7147 12.5272C13.9374 12.3045 14.0625 12.0024 14.0625 11.6875C14.0625 11.3726 13.9374 11.0705 13.7147 10.8478C13.492 10.6251 13.1899 10.5 12.875 10.5C12.5601 10.5 12.258 10.6251 12.0353 10.8478C11.8126 11.0705 11.6875 11.3726 11.6875 11.6875ZM27.125 16.4375C26.8101 16.4375 26.508 16.5626 26.2853 16.7853C26.0626 17.008 25.9375 17.3101 25.9375 17.625C25.9375 17.9399 26.0626 18.242 26.2853 18.4647C26.508 18.6874 26.8101 18.8125 27.125 18.8125C27.4399 18.8125 27.742 18.6874 27.9647 18.4647C28.1874 18.242 28.3125 17.9399 28.3125 17.625C28.3125 17.3101 28.1874 17.008 27.9647 16.7853C27.742 16.5626 27.4399 16.4375 27.125 16.4375ZM11.6875 28.3125C11.6875 28.6274 11.8126 28.9295 12.0353 29.1522C12.258 29.3749 12.5601 29.5 12.875 29.5C13.1899 29.5 13.492 29.3749 13.7147 29.1522C13.9374 28.9295 14.0625 28.6274 14.0625 28.3125C14.0625 27.9976 13.9374 27.6955 13.7147 27.4728C13.492 27.2501 13.1899 27.125 12.875 27.125C12.5601 27.125 12.258 27.2501 12.0353 27.4728C11.8126 27.6955 11.6875 27.9976 11.6875 28.3125ZM25.9375 28.3125C25.9375 28.6274 26.0626 28.9295 26.2853 29.1522C26.508 29.3749 26.8101 29.5 27.125 29.5C27.4399 29.5 27.742 29.3749 27.9647 29.1522C28.1874 28.9295 28.3125 28.6274 28.3125 28.3125C28.3125 27.9976 28.1874 27.6955 27.9647 27.4728C27.742 27.2501 27.4399 27.125 27.125 27.125C26.8101 27.125 26.508 27.2501 26.2853 27.4728C26.0626 27.6955 25.9375 27.9976 25.9375 28.3125Z" fill="white"/>
</g>
<defs>
<clipPath id="clip0_1659_5048">
<rect width="38" height="38" fill="white" transform="translate(1 1)"/>
</clipPath>
</defs>
</svg>
