<svg width="40" height="40" viewBox="0 0 40 40" fill="none" xmlns="http://www.w3.org/2000/svg">
<g clip-path="url(#clip0_1714_4619)">
<path d="M20.9844 0.203125C20.3594 -0.0625 19.6407 -0.0625 19.0157 0.203125L1.51566 7.70312C0.421907 8.17188 -0.187467 9.34375 0.05472 10.5C0.296907 11.6562 1.31253 12.5 2.50003 12.5V13.125C2.50003 14.1641 3.33597 15 4.37503 15H35.625C36.6641 15 37.5 14.1641 37.5 13.125V12.5C38.6875 12.5 39.711 11.6641 39.9453 10.5C40.1797 9.33594 39.5703 8.16406 38.4844 7.70312L20.9844 0.203125ZM20 5C20.6631 5 21.299 5.26339 21.7678 5.73223C22.2366 6.20107 22.5 6.83696 22.5 7.5C22.5 8.16304 22.2366 8.79893 21.7678 9.26777C21.299 9.73661 20.6631 10 20 10C19.337 10 18.7011 9.73661 18.2323 9.26777C17.7634 8.79893 17.5 8.16304 17.5 7.5C17.5 6.83696 17.7634 6.20107 18.2323 5.73223C18.7011 5.26339 19.337 5 20 5Z" fill="#13EF93"/>
<path opacity="0.4" d="M10.0001 15H5.00005V32.8359C4.95318 32.8594 4.9063 32.8906 4.86724 32.9219L1.11724 35.4219C0.203176 36.0312 -0.210887 37.1719 0.109426 38.2266C0.429738 39.2812 1.39849 40 2.50005 40H37.5C38.6016 40 39.5704 39.2812 39.8907 38.2266C40.211 37.1719 39.8047 36.0312 38.8829 35.4219L35.1329 32.9219C35.086 32.8906 35.0391 32.8672 34.9922 32.8359V15H30.0001V32.5H26.8751V15H21.8751V32.5H18.1251V15H13.1251V32.5H10.0001V15Z" fill="#13EF93"/>
</g>
<defs>
<clipPath id="clip0_1714_4619">
<rect width="40" height="40" fill="white"/>
</clipPath>
</defs>
</svg>
