<svg width="40" height="40" viewBox="0 0 40 40" fill="none" xmlns="http://www.w3.org/2000/svg">
<g clip-path="url(#clip0_1979_10645)">
<path d="M24.6406 13.042L24.0664 9.57617C23.9502 8.8789 24.1758 8.16796 24.6748 7.66894L28.1748 4.16894C28.7285 3.61523 29.665 3.81347 29.959 4.53808L31.5313 8.46874L35.4619 10.041C36.1934 10.335 36.3848 11.2715 35.8311 11.832L32.3311 15.332C31.832 15.831 31.1211 16.0566 30.4238 15.9404L26.958 15.3662L20.6621 21.6621C20.0195 22.3047 18.9805 22.3047 18.3447 21.6621C17.709 21.0195 17.7022 19.9805 18.3447 19.3447L24.6406 13.0488V13.042Z" fill="#13EF93"/>
<path opacity="0.4" d="M24.9141 19.7275C24.9482 19.9805 24.9688 20.2402 24.9688 20.5C24.9688 23.5215 22.5215 25.9688 19.5 25.9688C16.4785 25.9688 14.0312 23.5215 14.0312 20.5C14.0312 17.4785 16.4785 15.0312 19.5 15.0312C19.7598 15.0312 20.0195 15.0518 20.2725 15.0859L22.4053 12.9531L22.0771 10.998C21.2568 10.7725 20.3887 10.6562 19.5 10.6562C14.0654 10.6562 9.65625 15.0654 9.65625 20.5C9.65625 25.9346 14.0654 30.3438 19.5 30.3438C24.9346 30.3438 29.3438 25.9346 29.3438 20.5C29.3438 19.6045 29.2275 18.7432 29.002 17.9229L27.0469 17.5947L24.9141 19.7275ZM32.4404 18.3057C32.5635 19.0166 32.625 19.748 32.625 20.5C32.625 27.7461 26.7461 33.625 19.5 33.625C12.2539 33.625 6.375 27.7461 6.375 20.5C6.375 13.2539 12.2539 7.375 19.5 7.375C20.2451 7.375 20.9766 7.43652 21.6943 7.55957L22.3301 6.92383L25.2764 3.97754C23.4648 3.3418 21.5234 3 19.5 3C9.83398 3 2 10.834 2 20.5C2 30.166 9.83398 38 19.5 38C29.166 38 37 30.166 37 20.5C37 18.4766 36.6582 16.5352 36.0225 14.7236L33.0762 17.6699L32.4404 18.3057Z" fill="#13EF93"/>
</g>
<defs>
<clipPath id="clip0_1979_10645">
<rect width="35" height="35" fill="white" transform="translate(2 3)"/>
</clipPath>
</defs>
</svg>
