<svg width="40" height="40" viewBox="0 0 40 40" fill="none" xmlns="http://www.w3.org/2000/svg">
<g clip-path="url(#clip0_1979_10772)">
<path d="M13 0C14.3828 0 15.5 1.11719 15.5 2.5V5H25.5V2.5C25.5 1.11719 26.6172 0 28 0C29.3828 0 30.5 1.11719 30.5 2.5V5H34.25C36.3203 5 38 6.67969 38 8.75V12.5H3V8.75C3 6.67969 4.67969 5 6.75 5H10.5V2.5C10.5 1.11719 11.6172 0 13 0ZM3 15H38V36.25C38 38.3203 36.3203 40 34.25 40H6.75C4.67969 40 3 38.3203 3 36.25V15ZM8 21.25V23.75C8 24.4375 8.5625 25 9.25 25H11.75C12.4375 25 13 24.4375 13 23.75V21.25C13 20.5625 12.4375 20 11.75 20H9.25C8.5625 20 8 20.5625 8 21.25ZM18 21.25V23.75C18 24.4375 18.5625 25 19.25 25H21.75C22.4375 25 23 24.4375 23 23.75V21.25C23 20.5625 22.4375 20 21.75 20H19.25C18.5625 20 18 20.5625 18 21.25ZM29.25 20C28.5625 20 28 20.5625 28 21.25V23.75C28 24.4375 28.5625 25 29.25 25H31.75C32.4375 25 33 24.4375 33 23.75V21.25C33 20.5625 32.4375 20 31.75 20H29.25ZM8 31.25V33.75C8 34.4375 8.5625 35 9.25 35H11.75C12.4375 35 13 34.4375 13 33.75V31.25C13 30.5625 12.4375 30 11.75 30H9.25C8.5625 30 8 30.5625 8 31.25ZM19.25 30C18.5625 30 18 30.5625 18 31.25V33.75C18 34.4375 18.5625 35 19.25 35H21.75C22.4375 35 23 34.4375 23 33.75V31.25C23 30.5625 22.4375 30 21.75 30H19.25ZM28 31.25V33.75C28 34.4375 28.5625 35 29.25 35H31.75C32.4375 35 33 34.4375 33 33.75V31.25C33 30.5625 32.4375 30 31.75 30H29.25C28.5625 30 28 30.5625 28 31.25Z" fill="white"/>
</g>
<defs>
<clipPath id="clip0_1979_10772">
<rect width="35" height="40" fill="white" transform="translate(3)"/>
</clipPath>
</defs>
</svg>
