<svg width="40" height="40" viewBox="0 0 40 40" fill="none" xmlns="http://www.w3.org/2000/svg">
<g clip-path="url(#clip0_1979_10776)">
<path d="M14.5 2.5C14.5 1.11719 13.3828 0 12 0C10.6172 0 9.5 1.11719 9.5 2.5V5H5.75C3.67969 5 2 6.67969 2 8.75V15H37V8.75C37 6.67969 35.3203 5 33.25 5H29.5V2.5C29.5 1.11719 28.3828 0 27 0C25.6172 0 24.5 1.11719 24.5 2.5V5H14.5V2.5Z" fill="#13EF93"/>
<path opacity="0.4" d="M2 15H37V36.25C37 38.3203 35.3203 40 33.25 40H5.75C3.67969 40 2 38.3203 2 36.25V15ZM7 21.25V23.75C7 24.4375 7.5625 25 8.25 25H10.75C11.4375 25 12 24.4375 12 23.75V21.25C12 20.5625 11.4375 20 10.75 20H8.25C7.5625 20 7 20.5625 7 21.25ZM18.25 20C17.5625 20 17 20.5625 17 21.25V23.75C17 24.4375 17.5625 25 18.25 25H20.75C21.4375 25 22 24.4375 22 23.75V21.25C22 20.5625 21.4375 20 20.75 20H18.25ZM27 21.25V23.75C27 24.4375 27.5625 25 28.25 25H30.75C31.4375 25 32 24.4375 32 23.75V21.25C32 20.5625 31.4375 20 30.75 20H28.25C27.5625 20 27 20.5625 27 21.25ZM8.25 30C7.5625 30 7 30.5625 7 31.25V33.75C7 34.4375 7.5625 35 8.25 35H10.75C11.4375 35 12 34.4375 12 33.75V31.25C12 30.5625 11.4375 30 10.75 30H8.25ZM17 31.25V33.75C17 34.4375 17.5625 35 18.25 35H20.75C21.4375 35 22 34.4375 22 33.75V31.25C22 30.5625 21.4375 30 20.75 30H18.25C17.5625 30 17 30.5625 17 31.25ZM28.25 30C27.5625 30 27 30.5625 27 31.25V33.75C27 34.4375 27.5625 35 28.25 35H30.75C31.4375 35 32 34.4375 32 33.75V31.25C32 30.5625 31.4375 30 30.75 30H28.25Z" fill="#13EF93"/>
</g>
<defs>
<clipPath id="clip0_1979_10776">
<rect width="35" height="40" fill="white" transform="translate(2)"/>
</clipPath>
</defs>
</svg>
