<svg width="40" height="40" viewBox="0 0 40 40" fill="none" xmlns="http://www.w3.org/2000/svg">
<g clip-path="url(#clip0_1825_5929)">
<path d="M20.0044 35.5C31.0544 35.5 40.0044 28.23 40.0044 19.25C40.0044 10.27 31.0544 3 20.0044 3C8.95444 3 0.00444444 10.27 0.00444444 19.25C0.00444444 22.77 1.39444 26.03 3.73444 28.69C3.58444 30.6 2.84444 32.31 2.06444 33.6C1.63444 34.32 1.19444 34.9 0.874444 35.29C0.714444 35.49 0.584444 35.63 0.494444 35.74C0.444444 35.79 0.414444 35.83 0.394444 35.85L0.374444 35.87H0.364444C0.00444445 36.23 -0.0955556 36.76 0.0944444 37.23C0.284444 37.7 0.744444 38 1.25444 38C3.49444 38 5.75444 37.3 7.62444 36.49C9.41444 35.71 10.9344 34.78 11.8644 34.1C14.3444 35 17.0944 35.5 19.9944 35.5H20.0044ZM9.38444 16.75H20.6344C21.6744 16.75 22.5044 17.59 22.5044 18.62C22.5044 19.65 21.6644 20.49 20.6344 20.49H9.38444C8.34444 20.49 7.51444 19.65 7.51444 18.62C7.51444 17.59 8.35444 16.75 9.38444 16.75ZM26.8844 16.75H30.6344C31.6744 16.75 32.5044 17.59 32.5044 18.62C32.5044 19.65 31.6644 20.49 30.6344 20.49H26.8844C25.8444 20.49 25.0144 19.65 25.0144 18.62C25.0144 17.59 25.8544 16.75 26.8844 16.75ZM9.38444 23H13.1344C14.1744 23 15.0044 23.84 15.0044 24.87C15.0044 25.9 14.1644 26.74 13.1344 26.74H9.38444C8.34444 26.74 7.51444 25.9 7.51444 24.87C7.51444 23.84 8.35444 23 9.38444 23ZM19.3844 23H30.6344C31.6744 23 32.5044 23.84 32.5044 24.87C32.5044 25.9 31.6644 26.74 30.6344 26.74H19.3844C18.3444 26.74 17.5144 25.9 17.5144 24.87C17.5144 23.84 18.3544 23 19.3844 23Z" fill="white"/>
</g>
<defs>
<clipPath id="clip0_1825_5929">
<rect width="40" height="40" fill="white"/>
</clipPath>
</defs>
</svg>
