<svg width="40" height="40" viewBox="0 0 40 40" fill="none" xmlns="http://www.w3.org/2000/svg">
<path d="M9.258 20.85H16.768C17.808 20.85 18.578 20.01 18.578 18.97C18.578 17.93 17.878 17.09 16.768 17.09H9.258C8.218 17.09 7.448 17.93 7.448 18.97C7.448 20.01 8.288 20.85 9.258 20.85ZM23.028 23.35H16.768C15.728 23.35 14.958 24.19 14.958 25.23C14.958 26.27 15.798 27.11 16.768 27.11H23.028C24.068 27.11 24.838 26.27 24.838 25.23C24.838 24.19 24.138 23.35 23.028 23.35ZM10.508 23.35H9.328C8.288 23.35 7.518 24.19 7.518 25.23C7.518 26.27 8.288 27.11 9.258 27.11H10.438C11.478 27.11 12.248 26.27 12.248 25.23C12.248 24.19 11.618 23.35 10.508 23.35ZM30.608 23.35H29.428C28.388 23.35 27.618 24.19 27.618 25.23C27.618 26.27 28.318 27.11 29.358 27.11H30.538C31.578 27.11 32.348 26.27 32.348 25.23C32.348 24.19 31.648 23.35 30.608 23.35ZM23.028 20.85H30.538C31.578 20.85 32.348 20.01 32.348 18.97C32.348 17.93 31.648 17.09 30.608 17.09H23.098C22.058 17.09 21.288 17.93 21.288 18.97C21.288 20.01 22.058 20.85 23.028 20.85Z" fill="#13EF93"/>
<path opacity="0.4" d="M19.978 2C8.908 2 0.00800033 9.29 0.00800033 18.28C0.00800033 22.16 1.678 25.71 4.468 28.51C3.488 32.45 0.218 35.97 0.178 36.01C-0.00199968 36.19 -0.0519997 36.46 0.0580003 36.69C0.158 36.92 0.368 37.06 0.628 37.06C5.808 37.06 9.638 34.57 11.628 33.04C14.178 34 17.028 34.56 20.038 34.56C31.108 34.56 39.998 27.27 39.998 18.35C39.998 9.43 31.038 2 19.978 2ZM9.268 17.1H16.778C17.818 17.1 18.588 17.94 18.588 18.98C18.588 20.02 17.888 20.86 16.778 20.86H9.268C8.228 20.86 7.458 20.02 7.458 18.98C7.458 17.94 8.298 17.1 9.268 17.1ZM10.518 27.12H9.338C8.298 27.12 7.528 26.28 7.528 25.24C7.528 24.2 8.298 23.36 9.268 23.36H10.448C11.488 23.36 12.258 24.2 12.258 25.24C12.258 26.28 11.628 27.12 10.518 27.12ZM23.038 27.12H16.778C15.738 27.12 14.968 26.28 14.968 25.24C14.968 24.2 15.808 23.36 16.778 23.36H23.038C24.078 23.36 24.848 24.2 24.848 25.24C24.848 26.28 24.148 27.12 23.038 27.12ZM30.618 27.12H29.438C28.398 27.12 27.628 26.28 27.628 25.24C27.628 24.2 28.468 23.36 29.438 23.36H30.618C31.658 23.36 32.428 24.2 32.428 25.24C32.428 26.28 31.658 27.12 30.618 27.12ZM30.618 20.86H23.108C22.068 20.86 21.298 20.02 21.298 18.98C21.298 17.94 22.068 17.1 23.038 17.1H30.548C31.588 17.1 32.358 17.94 32.358 18.98C32.358 20.02 31.658 20.86 30.618 20.86Z" fill="#13EF93"/>
</svg>
