<svg width="40" height="40" viewBox="0 0 40 40" fill="none" xmlns="http://www.w3.org/2000/svg">
<path d="M0 15.11C0 13.88 1 12.89 2.22 12.89H5.87L7.42 8.47001C8.36 5.80001 10.88 4.01001 13.71 4.01001H26.29C29.12 4.01001 31.64 5.80001 32.58 8.47001L34.13 12.89H37.78C39.01 12.89 40 13.88 40 15.11C40 16.34 39.01 17.33 37.78 17.33H37.18C37.56 17.98 37.78 18.74 37.78 19.55V29.55H2.22V19.55C2.22 18.74 2.44 17.98 2.81 17.33H2.22C0.99 17.33 0 16.34 0 15.11ZM9.8 15.11H30.2L28.39 9.93001C28.08 9.04001 27.24 8.44001 26.29 8.44001H13.71C12.77 8.44001 11.93 9.04001 11.61 9.93001L9.8 15.11ZM8.89 19.55C7.66 19.55 6.67 20.54 6.67 21.77C6.67 23 7.66 23.99 8.89 23.99C10.12 23.99 11.11 23 11.11 21.77C11.11 20.54 10.12 19.55 8.89 19.55ZM31.11 23.99C32.34 23.99 33.33 23 33.33 21.77C33.33 20.54 32.34 19.55 31.11 19.55C29.88 19.55 28.89 20.54 28.89 21.77C28.89 23 29.88 23.99 31.11 23.99Z" fill="#13EF93"/>
<path opacity="0.4" d="M26.29 8.44C27.23 8.44 28.07 9.04 28.39 9.93L30.2 15.11H9.79997L11.61 9.93C11.92 9.04 12.76 8.44 13.71 8.44H26.29ZM2.21997 29.56H8.88997V32.89C8.88997 34.12 7.89997 35.11 6.66997 35.11H4.44997C3.21997 35.11 2.22997 34.12 2.22997 32.89V29.56H2.21997ZM37.78 32.89C37.78 34.12 36.79 35.11 35.56 35.11H33.34C32.11 35.11 31.12 34.12 31.12 32.89V29.56H37.79V32.89H37.78Z" fill="#13EF93"/>
</svg>
