<svg width="40" height="40" viewBox="0 0 40 40" fill="none" xmlns="http://www.w3.org/2000/svg">
<g clip-path="url(#clip0_1688_4870)">
<path d="M11.61 9.93C11.92 9.04 12.76 8.44 13.71 8.44H26.29C27.23 8.44 28.07 9.04 28.39 9.93L30.2 15.11H9.79998L11.61 9.93ZM2.21998 17.33H2.81998C2.43998 17.98 2.21998 18.74 2.21998 19.55V32.88C2.21998 34.11 3.20998 35.1 4.43998 35.1H6.65998C7.88998 35.1 8.87998 34.11 8.87998 32.88V29.55H31.1V32.88C31.1 34.11 32.09 35.1 33.32 35.1H35.54C36.77 35.1 37.76 34.11 37.76 32.88V19.55C37.76 18.74 37.54 17.98 37.16 17.33H37.76C38.99 17.33 39.98 16.34 39.98 15.11C39.98 13.88 38.99 12.89 37.76 12.89H34.11L32.56 8.47C31.62 5.8 29.1 4 26.27 4H13.69C10.86 4 8.33998 5.79 7.39998 8.47L5.84998 12.89H2.19998C0.96998 12.89 -0.0200195 13.88 -0.0200195 15.11C-0.0200195 16.34 0.96998 17.33 2.19998 17.33H2.21998ZM6.65998 21.77C6.65998 20.54 7.64998 19.55 8.87998 19.55C10.11 19.55 11.1 20.54 11.1 21.77C11.1 23 10.11 23.99 8.87998 23.99C7.64998 23.99 6.65998 23 6.65998 21.77ZM31.1 19.55C32.33 19.55 33.32 20.54 33.32 21.77C33.32 23 32.33 23.99 31.1 23.99C29.87 23.99 28.88 23 28.88 21.77C28.88 20.54 29.87 19.55 31.1 19.55Z" fill="white"/>
</g>
<defs>
<clipPath id="clip0_1688_4870">
<rect width="40" height="40" fill="white"/>
</clipPath>
</defs>
</svg>
