<svg width="40" height="40" viewBox="0 0 40 40" fill="none" xmlns="http://www.w3.org/2000/svg">
<path d="M29.5 8.125H35.4375C37.3375 8.125 39 9.7875 39 11.6875V22.375H1V11.6875C1 9.7875 2.6625 8.125 4.5625 8.125H10.5V5.15625V4.5625C10.5 2.6625 12.1625 1 14.0625 1H14.6562H25.3438H25.9375C27.8375 1 29.5 2.6625 29.5 4.5625V5.15625V8.125ZM25.9375 8.125V5.15625C25.9375 4.82969 25.6703 4.5625 25.3438 4.5625H14.6562C14.3297 4.5625 14.0625 4.82969 14.0625 5.15625V8.125H25.9375Z" fill="#13EF93"/>
<path opacity="0.4" d="M15.25 22.375H1V31.875C1 34.4949 3.13008 36.625 5.75 36.625H34.25C36.8699 36.625 39 34.4949 39 31.875V22.375H24.75V24.75C24.75 26.0637 23.6887 27.125 22.375 27.125H17.625C16.3113 27.125 15.25 26.0637 15.25 24.75V22.375Z" fill="#13EF93"/>
</svg>
