<svg width="40" height="40" viewBox="0 0 40 40" fill="none" xmlns="http://www.w3.org/2000/svg">
<path d="M14.6562 4.5625H25.3438C25.6703 4.5625 25.9375 4.82969 25.9375 5.15625V8.125H14.0625V5.15625C14.0625 4.82969 14.3297 4.5625 14.6562 4.5625ZM10.5 5.15625V8.125H5.75C3.13008 8.125 1 10.2551 1 12.875V20H15.25H24.75H39V12.875C39 10.2551 36.8699 8.125 34.25 8.125H29.5V5.15625C29.5 2.86289 27.6371 1 25.3438 1H14.6562C12.3629 1 10.5 2.86289 10.5 5.15625ZM39 22.375H24.75V24.75C24.75 26.0637 23.6887 27.125 22.375 27.125H17.625C16.3113 27.125 15.25 26.0637 15.25 24.75V22.375H1V31.875C1 34.4949 3.13008 36.625 5.75 36.625H34.25C36.8699 36.625 39 34.4949 39 31.875V22.375Z" fill="white"/>
</svg>
