<svg width="40" height="40" viewBox="0 0 40 40" fill="none" xmlns="http://www.w3.org/2000/svg">
<path fill-rule="evenodd" clip-rule="evenodd" d="M10.75 0C8.13008 0 6 2.13008 6 4.75V33.25C6 35.8699 8.13008 38 10.75 38H29.75C32.3699 38 34.5 35.8699 34.5 33.25V11.875H25C23.6863 11.875 22.625 10.8137 22.625 9.5V0H10.75ZM25 9.5H34.5L25 0V9.5ZM17.5602 16.0339C17.5602 15.6427 17.8103 15.2906 18.1882 15.2068H18.1826C18.7662 15.0726 19.3775 15 20 15C20.6225 15 21.2338 15.0726 21.8174 15.2068C22.1953 15.2906 22.4454 15.6427 22.4454 16.0339V17.023C22.4454 17.4589 22.7122 17.8501 23.0901 18.068C23.4625 18.286 23.9293 18.3195 24.3017 18.1016L25.0686 17.6601C25.4021 17.4645 25.83 17.5092 26.0968 17.7942C26.5192 18.2469 26.8971 18.7554 27.2139 19.3143C27.5307 19.8731 27.7808 20.4543 27.9642 21.0467C28.0754 21.4211 27.9031 21.8123 27.564 22.0079L26.7637 22.4717C26.4025 22.6785 26.208 23.0809 26.208 23.5C26.208 23.9191 26.4025 24.3215 26.7637 24.5283L27.564 24.9921C27.9031 25.1877 28.0809 25.5789 27.9642 25.9533C27.7864 26.5457 27.5363 27.1269 27.2139 27.6857C26.8916 28.2446 26.5192 28.7531 26.0968 29.2058C25.83 29.4908 25.4077 29.5355 25.0686 29.3399L24.3017 28.8984C23.9293 28.6805 23.4625 28.714 23.0901 28.932C22.7122 29.1499 22.4454 29.5411 22.4454 29.977V30.9661C22.4454 31.3573 22.1953 31.7094 21.8174 31.7932C21.2338 31.9273 20.6225 32 20 32C19.3775 32 18.7662 31.9273 18.1826 31.7932C17.8047 31.7094 17.5546 31.3573 17.5546 30.9661V29.9938C17.5546 29.5523 17.2878 29.1555 16.9044 28.9375C16.5264 28.7196 16.0596 28.6861 15.6817 28.904L14.9314 29.3399C14.5979 29.5355 14.17 29.4908 13.9032 29.2058C13.4808 28.7531 13.1029 28.2446 12.7861 27.6857C12.4693 27.1269 12.2192 26.5457 12.0358 25.9533C11.9246 25.5789 12.0969 25.1877 12.436 24.9921L13.214 24.5394C13.5808 24.3271 13.7754 23.9247 13.7754 23.5C13.7754 23.0753 13.5753 22.6729 13.214 22.4606L12.436 22.0079C12.0969 21.8123 11.9191 21.4211 12.0358 21.0467C12.2136 20.4543 12.4637 19.8731 12.7861 19.3143C13.1084 18.7554 13.4864 18.2469 13.9032 17.7942C14.17 17.5092 14.5923 17.4645 14.9314 17.6601L15.6872 18.096C16.0651 18.3139 16.532 18.2804 16.9099 18.0625C17.2878 17.8445 17.5602 17.4477 17.5602 17.0062V16.0339ZM21.8919 21.5976C21.3916 21.0946 20.7131 20.812 20.0056 20.812C19.298 20.812 18.6195 21.0946 18.1192 21.5976C17.6189 22.1007 17.3379 22.783 17.3379 23.4944C17.3379 24.2058 17.6189 24.8881 18.1192 25.3912C18.6195 25.8942 19.298 26.1769 20.0056 26.1769C20.7131 26.1769 21.3916 25.8942 21.8919 25.3912C22.3922 24.8881 22.6733 24.2058 22.6733 23.4944C22.6733 22.783 22.3922 22.1007 21.8919 21.5976Z" fill="white"/>
</svg>
