<svg width="40" height="40" viewBox="0 0 40 40" fill="none" xmlns="http://www.w3.org/2000/svg">
<path d="M22.4829 1L34.2564 12.875H24.8376C23.5352 12.875 22.4829 11.8137 22.4829 10.5V1Z" fill="#13EF93"/>
<path opacity="0.4" d="M10.7094 1C8.11187 1 6 3.13008 6 5.75V34.25C6 36.8699 8.11187 39 10.7094 39H29.547C32.1445 39 34.2564 36.8699 34.2564 34.25V12.875H24.8376C23.5352 12.875 22.4829 11.8137 22.4829 10.5V1H10.7094Z" fill="#13EF93"/>
<path d="M18.1882 15.2068C17.8103 15.2906 17.5602 15.6427 17.5602 16.0339V17.0062C17.5602 17.4477 17.2878 17.8445 16.9099 18.0625C16.532 18.2804 16.0651 18.3139 15.6872 18.096L14.9314 17.6601C14.5923 17.4645 14.17 17.5092 13.9032 17.7942C13.4864 18.2469 13.1084 18.7554 12.7861 19.3143C12.4637 19.8731 12.2136 20.4543 12.0358 21.0467C11.9191 21.4211 12.0969 21.8123 12.436 22.0079L13.214 22.4606C13.5753 22.6729 13.7754 23.0753 13.7754 23.5C13.7754 23.9247 13.5808 24.3271 13.214 24.5394L12.436 24.9921C12.0969 25.1877 11.9246 25.5789 12.0358 25.9533C12.2192 26.5457 12.4693 27.1269 12.7861 27.6857C13.1029 28.2446 13.4808 28.7531 13.9032 29.2058C14.17 29.4908 14.5979 29.5355 14.9314 29.3399L15.6817 28.904C16.0596 28.6861 16.5264 28.7196 16.9044 28.9375C17.2878 29.1555 17.5546 29.5523 17.5546 29.9938V30.9661C17.5546 31.3573 17.8047 31.7094 18.1826 31.7932C18.7662 31.9273 19.3775 32 20 32C20.6225 32 21.2338 31.9273 21.8174 31.7932C22.1953 31.7094 22.4454 31.3573 22.4454 30.9661V29.977C22.4454 29.5411 22.7122 29.1499 23.0901 28.932C23.4625 28.714 23.9293 28.6805 24.3017 28.8984L25.0686 29.3399C25.4077 29.5355 25.83 29.4908 26.0968 29.2058C26.5192 28.7531 26.8916 28.2446 27.2139 27.6857C27.5363 27.1269 27.7864 26.5457 27.9642 25.9533C28.0809 25.5789 27.9031 25.1877 27.564 24.9921L26.7637 24.5283C26.4025 24.3215 26.208 23.9191 26.208 23.5C26.208 23.0809 26.4025 22.6785 26.7637 22.4717L27.564 22.0079C27.9031 21.8123 28.0754 21.4211 27.9642 21.0467C27.7808 20.4543 27.5307 19.8731 27.2139 19.3143C26.8971 18.7554 26.5192 18.2469 26.0968 17.7942C25.83 17.5092 25.4021 17.4645 25.0686 17.6601L24.3017 18.1016C23.9293 18.3195 23.4625 18.286 23.0901 18.068C22.7122 17.8501 22.4454 17.4589 22.4454 17.023V16.0339C22.4454 15.6427 22.1953 15.2906 21.8174 15.2068C21.2338 15.0726 20.6225 15 20 15C19.3775 15 18.7662 15.0726 18.1826 15.2068H18.1882ZM20.0056 20.812C20.7131 20.812 21.3916 21.0946 21.8919 21.5976C22.3922 22.1007 22.6733 22.783 22.6733 23.4944C22.6733 24.2058 22.3922 24.8881 21.8919 25.3912C21.3916 25.8942 20.7131 26.1769 20.0056 26.1769C19.298 26.1769 18.6195 25.8942 18.1192 25.3912C17.6189 24.8881 17.3379 24.2058 17.3379 23.4944C17.3379 22.783 17.6189 22.1007 18.1192 21.5976C18.6195 21.0946 19.298 20.812 20.0056 20.812Z" fill="#13EF93"/>
</svg>
