<svg width="40" height="40" viewBox="0 0 40 40" fill="none" xmlns="http://www.w3.org/2000/svg">
<path d="M34.9286 25.4286C37.1763 25.4286 39 23.6049 39 21.3571V18.6429C39 16.3951 37.1763 14.5714 34.9286 14.5714H5.07143C2.82366 14.5714 1 16.3951 1 18.6429V21.3571C1 23.6049 2.82366 25.4286 5.07143 25.4286H34.9286ZM18.6429 39C20.8906 39 22.7143 37.1763 22.7143 34.9286V32.2143C22.7143 29.9665 20.8906 28.1429 18.6429 28.1429H5.07143C2.82366 28.1429 1 29.9665 1 32.2143V34.9286C1 37.1763 2.82366 39 5.07143 39H18.6429ZM33.5714 7.78571V5.07143C33.5714 2.82366 31.7478 1 29.5 1H5.07143C2.82366 1 1 2.82366 1 5.07143V7.78571C1 10.0335 2.82366 11.8571 5.07143 11.8571H29.5C31.7478 11.8571 33.5714 10.0335 33.5714 7.78571Z" fill="white"/>
</svg>
