<svg width="40" height="40" viewBox="0 0 40 40" fill="none" xmlns="http://www.w3.org/2000/svg">
<path d="M12.5 7.5C11.1172 7.5 10 8.61719 10 10C10 11.3828 11.1172 12.5 12.5 12.5H27.5C28.8828 12.5 30 11.3828 30 10C30 8.61719 28.8828 7.5 27.5 7.5H12.5ZM12.5 15C11.1172 15 10 16.1172 10 17.5C10 18.8828 11.1172 20 12.5 20H22.5C23.8828 20 25 18.8828 25 17.5C25 16.1172 23.8828 15 22.5 15H12.5ZM12.5 22.5C11.1172 22.5 10 23.6172 10 25C10 26.3828 11.1172 27.5 12.5 27.5H32.5C33.8828 27.5 35 26.3828 35 25C35 23.6172 33.8828 22.5 32.5 22.5H12.5Z" fill="#13EF93"/>
<path opacity="0.4" d="M2.5 2.5C3.88281 2.5 5 3.61719 5 5V31.25C5 31.9375 5.5625 32.5 6.25 32.5H37.5C38.8828 32.5 40 33.6172 40 35C40 36.3828 38.8828 37.5 37.5 37.5H6.25C2.79688 37.5 0 34.7031 0 31.25V5C0 3.61719 1.11719 2.5 2.5 2.5Z" fill="#13EF93"/>
</svg>
