<svg width="40" height="40" viewBox="0 0 40 40" fill="none" xmlns="http://www.w3.org/2000/svg">
<path d="M33.5714 7.78571C33.5714 10.0335 31.7478 11.8571 29.5 11.8571H5.07143C2.82366 11.8571 1 10.0335 1 7.78571V5.07143C1 2.82366 2.82366 1 5.07143 1H29.5C31.7478 1 33.5714 2.82366 33.5714 5.07143V7.78571ZM22.7143 34.9286C22.7143 37.1763 20.8906 39 18.6429 39H5.07143C2.82366 39 1 37.1763 1 34.9286V32.2143C1 29.9665 2.82366 28.1429 5.07143 28.1429H18.6429C20.8906 28.1429 22.7143 29.9665 22.7143 32.2143V34.9286Z" fill="#13EF93"/>
<path opacity="0.4" d="M34.9286 25.4286C37.1763 25.4286 39 23.6049 39 21.3571V18.6428C39 16.3951 37.1763 14.5714 34.9286 14.5714H5.07143C2.82366 14.5714 1 16.3951 1 18.6428V21.3571C1 23.6049 2.82366 25.4286 5.07143 25.4286H34.9286Z" fill="#13EF93"/>
</svg>
