<svg width="40" height="40" viewBox="0 0 40 40" fill="none" xmlns="http://www.w3.org/2000/svg">
<g clip-path="url(#clip0_1979_10695)">
<path d="M38.4062 20C38.4062 30.168 30.168 38.4062 20 38.4062C9.83203 38.4062 1.59375 30.168 1.59375 20C1.59375 9.83203 9.83203 1.59375 20 1.59375C30.168 1.59375 38.4062 9.83203 38.4062 20ZM16.7344 11.3906V20H11.4723C10.6781 20 10.2773 20.9648 10.8414 21.5215L19.3691 30.0047C19.718 30.3535 20.2746 30.3535 20.6234 30.0047L29.1512 21.5215C29.7152 20.9574 29.3145 20 28.5203 20H23.2656V11.3906C23.2656 10.9008 22.8648 10.5 22.375 10.5H17.625C17.1352 10.5 16.7344 10.9008 16.7344 11.3906Z" fill="white"/>
</g>
<defs>
<clipPath id="clip0_1979_10695">
<rect width="38" height="38" fill="white" transform="translate(1 1)"/>
</clipPath>
</defs>
</svg>
