<svg width="40" height="40" viewBox="0 0 40 40" fill="none" xmlns="http://www.w3.org/2000/svg">
<g clip-path="url(#clip0_1979_10699)">
<path d="M18.9758 30.2793L11.027 22.8648C10.693 22.5531 10.5 22.1152 10.5 21.6551C10.5 20.7422 11.2422 20 12.1551 20H16.4375V12.875C16.4375 11.5613 17.4988 10.5 18.8125 10.5H21.1875C22.5012 10.5 23.5625 11.5613 23.5625 12.875V20H27.8449C28.7578 20 29.5 20.7422 29.5 21.6551C29.5 22.1152 29.307 22.5531 28.973 22.8648L21.0242 30.2793C20.7422 30.5391 20.3785 30.6875 20 30.6875C19.6215 30.6875 19.2504 30.5391 18.9758 30.2793Z" fill="#13EF93"/>
<path opacity="0.4" d="M20 39C14.9609 39 10.1282 36.9982 6.56497 33.435C3.00178 29.8718 1 25.0391 1 20C1 14.9609 3.00178 10.1282 6.56497 6.56497C10.1282 3.00178 14.9609 1 20 1C25.0391 1 29.8718 3.00178 33.435 6.56497C36.9982 10.1282 39 14.9609 39 20C39 25.0391 36.9982 29.8718 33.435 33.435C29.8718 36.9982 25.0391 39 20 39ZM11.027 22.8648L18.9758 30.2793C19.2578 30.5391 19.6215 30.6875 20 30.6875C20.3785 30.6875 20.7496 30.5391 21.0242 30.2793L28.973 22.8648C29.307 22.5531 29.5 22.1152 29.5 21.6551C29.5 20.7422 28.7578 20 27.8449 20H23.5625V12.875C23.5625 11.5613 22.5012 10.5 21.1875 10.5H18.8125C17.4988 10.5 16.4375 11.5613 16.4375 12.875V20H12.1551C11.2422 20 10.5 20.7422 10.5 21.6551C10.5 22.1152 10.693 22.5531 11.027 22.8648Z" fill="#13EF93"/>
</g>
<defs>
<clipPath id="clip0_1979_10699">
<rect width="38" height="38" fill="white" transform="translate(1 1)"/>
</clipPath>
</defs>
</svg>
