<svg width="40" height="40" viewBox="0 0 40 40" fill="none" xmlns="http://www.w3.org/2000/svg">
<path d="M28.3867 13.9883C29.0843 14.6859 29.0843 15.8141 28.3867 16.5043L18.8867 26.0117C18.189 26.7094 17.0609 26.7094 16.3707 26.0117L11.6207 21.2617C10.923 20.5641 10.923 19.4359 11.6207 18.7457C12.3183 18.0555 13.4464 18.0481 14.1367 18.7457L17.625 22.234L25.8632 13.9883C26.5609 13.2906 27.689 13.2906 28.3792 13.9883H28.3867Z" fill="#13EF93"/>
<path opacity="0.4" d="M20 39C25.0391 39 29.8718 36.9982 33.435 33.435C36.9982 29.8718 39 25.0391 39 20C39 14.9609 36.9982 10.1282 33.435 6.56497C29.8718 3.00178 25.0391 1 20 1C14.9609 1 10.1282 3.00178 6.56497 6.56497C3.00178 10.1282 1 14.9609 1 20C1 25.0391 3.00178 29.8718 6.56497 33.435C10.1282 36.9982 14.9609 39 20 39ZM28.3867 16.5117L18.8867 26.0117C18.1891 26.7094 17.0609 26.7094 16.3707 26.0117L11.6207 21.2617C10.923 20.5641 10.923 19.4359 11.6207 18.7457C12.3184 18.0555 13.4465 18.048 14.1367 18.7457L17.625 22.234L25.8633 13.9883C26.5609 13.2906 27.6891 13.2906 28.3793 13.9883C29.0695 14.6859 29.077 15.8141 28.3793 16.5043L28.3867 16.5117Z" fill="#13EF93"/>
</svg>
