<svg width="40" height="40" viewBox="0 0 40 40" fill="none" xmlns="http://www.w3.org/2000/svg">
<g clip-path="url(#clip0_1979_10677)">
<path d="M16.623 11.4129C16.3336 10.7227 15.584 10.359 14.8641 10.552L11.5984 11.4426C10.9453 11.6207 10.5 12.207 10.5 12.875C10.5 22.0559 17.9441 29.5 27.125 29.5C27.793 29.5 28.3793 29.0547 28.5574 28.409L29.448 25.1434C29.641 24.4234 29.2773 23.6664 28.5871 23.3844L25.0246 21.9C24.416 21.6477 23.7184 21.8258 23.3027 22.3305L21.8035 24.1563C19.191 22.9242 17.0758 20.809 15.8438 18.1965L17.677 16.6973C18.1816 16.2816 18.3598 15.584 18.1074 14.9754L16.623 11.4129Z" fill="#13EF93"/>
<path opacity="0.4" d="M20 39C25.0391 39 29.8718 36.9982 33.435 33.435C36.9982 29.8718 39 25.0391 39 20C39 14.9609 36.9982 10.1282 33.435 6.56497C29.8718 3.00178 25.0391 1 20 1C14.9609 1 10.1282 3.00178 6.56497 6.56497C3.00178 10.1282 1 14.9609 1 20C1 25.0391 3.00178 29.8718 6.56497 33.435C10.1282 36.9982 14.9609 39 20 39ZM14.8566 10.552C15.5766 10.359 16.3336 10.7227 16.6156 11.4129L18.1 14.9754C18.3523 15.584 18.1742 16.2816 17.6695 16.6973L15.8438 18.1965C17.0758 20.809 19.191 22.9242 21.8035 24.1562L23.3027 22.323C23.7184 21.8184 24.416 21.6402 25.0246 21.8926L28.5871 23.377C29.2773 23.6664 29.641 24.416 29.448 25.1359L28.5574 28.4016C28.3793 29.0547 27.793 29.5 27.125 29.5C17.9441 29.5 10.5 22.0559 10.5 12.875C10.5 12.207 10.9453 11.6207 11.591 11.4426L14.8566 10.552Z" fill="#13EF93"/>
</g>
<defs>
<clipPath id="clip0_1979_10677">
<rect width="38" height="38" fill="white" transform="translate(1 1)"/>
</clipPath>
</defs>
</svg>
