<svg width="40" height="40" viewBox="0 0 40 40" fill="none" xmlns="http://www.w3.org/2000/svg">
<path opacity="0.4" d="M1 24.95C1 29.6703 4.82969 33.5 9.55 33.5H31.4C35.5978 33.5 39 30.0978 39 25.9C39 22.2247 36.3875 19.155 32.92 18.4544C33.1634 17.8191 33.3 17.1244 33.3 16.4C33.3 13.2531 30.7469 10.7 27.6 10.7C26.4303 10.7 25.3378 11.0563 24.4353 11.6619C22.7906 8.8119 19.7209 6.90002 16.2 6.90002C10.9512 6.90002 6.7 11.1513 6.7 16.4C6.7 16.5603 6.70594 16.7206 6.71187 16.881C3.38687 18.0506 1 21.2213 1 24.95Z" fill="#13EF93"/>
</svg>
