<svg width="40" height="40" viewBox="0 0 40 40" fill="none" xmlns="http://www.w3.org/2000/svg">
<path d="M17.0387 15.9773C17.7735 15.3168 17.8328 14.1961 17.1723 13.4613C16.5117 12.7265 15.391 12.6672 14.6563 13.3277L8.71877 18.6715C8.34026 19.0129 8.13245 19.4879 8.13245 19.9926C8.13245 20.4973 8.34768 20.9797 8.71877 21.3137L14.6563 26.6574C15.391 27.318 16.5117 27.2586 17.1723 26.5238C17.8328 25.789 17.7735 24.6683 17.0387 24.0078L12.5707 20L17.0387 15.9773ZM22.9688 15.9773L27.4293 20L22.9614 24.0226C22.2266 24.6832 22.1672 25.8039 22.8278 26.5387C23.4883 27.2734 24.609 27.3328 25.3438 26.6723L31.2813 21.3285C31.6598 20.9871 31.8676 20.5121 31.8676 20.0074C31.8676 19.5027 31.6524 19.0203 31.2813 18.6863L25.3438 13.3426C24.609 12.682 23.4883 12.7414 22.8278 13.4762C22.1672 14.2109 22.2266 15.3316 22.9614 15.9922L22.9688 15.9773Z" fill="#13EF93"/>
<path opacity="0.4" d="M1 8.125C1 5.50508 3.13008 3.375 5.75 3.375H34.25C36.8699 3.375 39 5.50508 39 8.125V31.875C39 34.4949 36.8699 36.625 34.25 36.625H5.75C3.13008 36.625 1 34.4949 1 31.875V8.125ZM22.8352 13.4613C22.1746 14.1961 22.234 15.3168 22.9688 15.9773L27.4293 20L22.9613 24.0227C22.2266 24.6832 22.1672 25.8039 22.8277 26.5387C23.4883 27.2734 24.609 27.3328 25.3438 26.6723L31.2812 21.3285C31.6598 20.9871 31.8676 20.5121 31.8676 20.0074C31.8676 19.5027 31.6523 19.0203 31.2812 18.6863L25.3438 13.3426C24.609 12.682 23.4883 12.7414 22.8277 13.4762L22.8352 13.4613ZM17.0387 15.9773C17.7734 15.3168 17.8328 14.1961 17.1723 13.4613C16.5117 12.7266 15.391 12.6672 14.6562 13.3277L8.71875 18.6715C8.34023 19.0129 8.13242 19.4879 8.13242 19.9926C8.13242 20.4973 8.34766 20.9797 8.71875 21.3137L14.6562 26.6574C15.391 27.318 16.5117 27.2586 17.1723 26.5238C17.8328 25.7891 17.7734 24.6684 17.0387 24.0078L12.5707 20L17.0387 15.9773Z" fill="#13EF93"/>
</svg>
