<svg width="40" height="40" viewBox="0 0 40 40" fill="none" xmlns="http://www.w3.org/2000/svg">
<g clip-path="url(#clip0_1979_10888)">
<path d="M31.7919 12.2081L38.4419 18.8581C39.1841 19.6003 39.1841 20.7997 38.4419 21.5419L31.7919 28.1919C31.0497 28.9341 29.8503 28.9341 29.1081 28.1919C28.3659 27.4497 28.3659 26.2503 29.1081 25.5081L34.4103 20.2L29.1081 14.8919C28.3659 14.1497 28.3659 12.9503 29.1081 12.2081C29.8503 11.4659 31.0497 11.4659 31.7919 12.2081ZM10.8919 14.8919L5.58672 20.2L10.8919 25.5081C11.6341 26.2503 11.6341 27.4497 10.8919 28.1919C10.1497 28.9341 8.95031 28.9341 8.20812 28.1919L1.55646 21.5419C0.814513 20.7997 0.814513 19.6003 1.55646 18.8581L8.20812 12.2081C8.95031 11.4659 10.1497 11.4659 10.8919 12.2081C11.6341 12.9503 11.6341 14.1497 10.8919 14.8919Z" fill="#13EF93"/>
<path opacity="0.4" d="M25.6288 7.42188L18.0288 34.0225C17.7379 35.0318 16.6869 35.6137 15.6776 35.3287C14.6682 35.0378 14.0863 33.9868 14.3713 32.9775L21.9713 6.37807C22.2622 5.36905 23.3132 4.7848 24.3226 5.07313C25.3319 5.36139 25.9138 6.4131 25.6288 7.42188Z" fill="#13EF93"/>
</g>
<defs>
<clipPath id="clip0_1979_10888">
<rect width="38" height="30.4" fill="white" transform="translate(1 5)"/>
</clipPath>
</defs>
</svg>
