<svg width="40" height="40" viewBox="0 0 40 40" fill="none" xmlns="http://www.w3.org/2000/svg">
<g clip-path="url(#clip0_1689_4761)">
<path d="M24 10V24H4V10H24ZM4 6C1.79 6 0 7.79 0 10V24C0 26.21 1.79 28 4 28H11.33L10.66 30H6C4.89 30 4 30.89 4 32C4 33.11 4.89 34 6 34H22C23.11 34 24 33.11 24 32C24 30.89 23.11 30 22 30H17.33L16.66 28H24C26.21 28 28 26.21 28 24V10C28 7.79 26.21 6 24 6H4ZM33 6C31.34 6 30 7.34 30 9V31C30 32.66 31.34 34 33 34H37C38.66 34 40 32.66 40 31V9C40 7.34 38.66 6 37 6H33ZM34 10H36C36.55 10 37 10.45 37 11C37 11.55 36.55 12 36 12H34C33.45 12 33 11.55 33 11C33 10.45 33.45 10 34 10ZM33 15C33 14.45 33.45 14 34 14H36C36.55 14 37 14.45 37 15C37 15.55 36.55 16 36 16H34C33.45 16 33 15.55 33 15ZM35 25C36.1 25 37 25.9 37 27C37 28.1 36.1 29 35 29C33.9 29 33 28.1 33 27C33 25.9 33.9 25 35 25Z" fill="white"/>
</g>
<defs>
<clipPath id="clip0_1689_4761">
<rect width="40" height="28" fill="white" transform="translate(0 6)"/>
</clipPath>
</defs>
</svg>
