<svg width="40" height="40" viewBox="0 0 40 40" fill="none" xmlns="http://www.w3.org/2000/svg">
<path d="M25 6C26.66 6 28 7.34 28 9V25C28 26.66 26.66 28 25 28H16.67L17.33 30H22C23.11 30 24 30.89 24 32C24 33.11 23.11 34 22 34H6C4.9 34 4 33.11 4 32C4 30.89 4.9 30 6 30H10.67L11.33 28H3C1.34 28 0 26.66 0 25V9C0 7.34 1.34 6 3 6H25ZM4 10V24H24V10H4Z" fill="#13EF93"/>
<path opacity="0.4" d="M37 6C38.66 6 40 7.34 40 9V31C40 32.66 38.66 34 37 34H33C31.34 34 30 32.66 30 31V9C30 7.34 31.34 6 33 6H37ZM34 10C33.45 10 33 10.45 33 11C33 11.55 33.45 12 34 12H36C36.55 12 37 11.55 37 11C37 10.45 36.55 10 36 10H34ZM34 16H36C36.55 16 37 15.55 37 15C37 14.45 36.55 14 36 14H34C33.45 14 33 14.45 33 15C33 15.55 33.45 16 34 16ZM35 29C36.11 29 37 28.11 37 27C37 25.89 36.11 25 35 25C33.89 25 33 25.89 33 27C33 28.11 33.89 29 35 29Z" fill="#13EF93"/>
</svg>
