<svg width="40" height="40" viewBox="0 0 40 40" fill="none" xmlns="http://www.w3.org/2000/svg">
<path d="M20.5 3C27.0078 3 32.4082 7.7373 33.4473 13.9443C33.5977 14.833 33.9053 15.7012 34.4727 16.4121L37.3438 20.0078C37.7676 20.541 38 21.1973 38 21.8809C38 23.5352 36.6602 24.875 35.0059 24.875H33.625V29.25C33.625 31.6631 31.6631 33.625 29.25 33.625H24.875V35.8125C24.875 37.0225 23.8975 38 22.6875 38H9.5625C8.35254 38 7.375 37.0225 7.375 35.8125V30.8428C7.375 29.7012 6.90332 28.6211 6.20605 27.7119C4.13477 25.0391 3 21.7373 3 18.3262C3 11.3945 7.60742 5.52246 13.9375 3.63574V8.91992C13.9375 9.76758 13.4316 10.5127 12.748 11.0049C10.8203 12.3926 9.5625 14.6621 9.5625 17.2188C9.5625 21.4502 12.9873 24.875 17.2188 24.875C21.4502 24.875 24.875 21.4502 24.875 17.2188C24.875 14.6621 23.6172 12.3926 21.6895 11.0049C21.0059 10.5127 20.5 9.76074 20.5 8.91992V3ZM19.4062 17.2188C19.4062 16.6386 19.1758 16.0822 18.7655 15.672C18.3553 15.2617 17.7989 15.0312 17.2188 15.0312C16.6386 15.0312 16.0822 15.2617 15.672 15.672C15.2617 16.0822 15.0312 16.6386 15.0312 17.2188C15.0312 17.7989 15.2617 18.3553 15.672 18.7655C16.0822 19.1758 16.6386 19.4062 17.2188 19.4062C17.7989 19.4062 18.3553 19.1758 18.7655 18.7655C19.1758 18.3553 19.4062 17.7989 19.4062 17.2188ZM12.8438 17.2188C12.8438 16.0584 13.3047 14.9456 14.1252 14.1252C14.9456 13.3047 16.0584 12.8438 17.2188 12.8438C18.3791 12.8438 19.4919 13.3047 20.3123 14.1252C21.1328 14.9456 21.5938 16.0584 21.5938 17.2188C21.5938 18.3791 21.1328 19.4919 20.3123 20.3123C19.4919 21.1328 18.3791 21.5938 17.2188 21.5938C16.0584 21.5938 14.9456 21.1328 14.1252 20.3123C13.3047 19.4919 12.8438 18.3791 12.8438 17.2188Z" fill="white"/>
</svg>
