<svg width="40" height="40" viewBox="0 0 40 40" fill="none" xmlns="http://www.w3.org/2000/svg">
<path d="M6.74 17.5C7.43 17.5 7.99 16.95 7.99 16.25V15C7.99 8.11 13.6 2.5 20.49 2.5C27.38 2.5 32.99 8.11 32.99 15V16.25C32.99 19.7 30.19 22.5 26.74 22.5H24.24C24.24 21.12 23.12 20 21.74 20H19.24C17.86 20 16.74 21.12 16.74 22.5C16.74 23.88 17.86 25 19.24 25H26.74C31.57 25 35.48 21.08 35.49 16.25V15C35.49 6.73 28.76 0 20.49 0C12.22 0 5.49 6.73 5.49 15V16.25C5.49 16.95 6.05 17.5 6.74 17.5ZM27.58 27.5H13.41C7.66 27.5 3 32.16 3 37.91C3 39.07 3.93 40 5.08 40H35.91C37.07 40 38 39.07 38 37.91C38 32.16 33.34 27.5 27.59 27.5H27.58Z" fill="#13EF93"/>
<path opacity="0.4" d="M19.75 17.5H22.25C24.04 17.5 25.69 18.45 26.57 20H27.25C29.32 20 31 18.32 31 16.32V15C31 9.47 26.53 5 21 5C15.47 5 11 9.47 11 15C11 18.15 12.49 20.94 14.78 22.77C14.77 22.67 14.75 22.6 14.75 22.5C14.75 19.73 16.98 17.5 19.75 17.5Z" fill="#13EF93"/>
</svg>
