<svg width="40" height="40" viewBox="0 0 40 40" fill="none" xmlns="http://www.w3.org/2000/svg">
<g clip-path="url(#clip0_1825_5980)">
<path opacity="0.4" d="M16.8347 25.5405C22.1515 25.5405 26.4617 21.2411 26.4617 15.9377C26.4617 10.6342 22.1515 6.33484 16.8347 6.33484C11.5178 6.33484 7.20764 10.6342 7.20764 15.9377C7.20764 21.2411 11.5178 25.5405 16.8347 25.5405Z" fill="#13EF93"/>
<path d="M13.4073 26.7371C5.99798 26.7371 0 31.825 0 38.1096C0 39.1554 0.997984 40 2.22782 40H31.4415C32.6714 40 33.6694 39.1554 33.6694 38.1096C33.6694 31.825 27.6714 26.7371 20.2621 26.7371H13.3871H13.4073Z" fill="#13EF93"/>
<path d="M33.4778 10.5782C37.0766 10.5782 40 8.21518 40 5.28909C40 2.363 37.0766 0 33.4778 0C29.879 0 26.9556 2.363 26.9556 5.28909C26.9556 6.4354 27.4093 7.4912 28.1754 8.36601C28.125 8.98944 27.883 9.54248 27.631 9.96481C27.4899 10.1961 27.3488 10.3871 27.248 10.5178C27.1976 10.5782 27.1572 10.6285 27.127 10.6586C27.1068 10.6787 27.0968 10.6888 27.0968 10.6988C26.9758 10.8195 26.9455 11.0005 27.006 11.1513C27.0665 11.3022 27.2177 11.4027 27.379 11.4027C28.1149 11.4027 28.8508 11.1815 29.4556 10.91C30.0403 10.6586 30.5343 10.357 30.8367 10.1357C31.6431 10.4274 32.5403 10.5882 33.4879 10.5882L33.4778 10.5782ZM30.0101 4.48467H33.6794C34.0222 4.48467 34.2943 4.75616 34.2943 5.09804C34.2943 5.43992 34.0222 5.71141 33.6794 5.71141H30.0101C29.6673 5.71141 29.3951 5.43992 29.3951 5.09804C29.3951 4.75616 29.6673 4.48467 30.0101 4.48467ZM35.7157 4.48467H36.9355C37.2782 4.48467 37.5504 4.75616 37.5504 5.09804C37.5504 5.43992 37.2782 5.71141 36.9355 5.71141H35.7157C35.373 5.71141 35.1008 5.43992 35.1008 5.09804C35.1008 4.75616 35.373 4.48467 35.7157 4.48467ZM30.0101 6.51584H31.2298C31.5726 6.51584 31.8447 6.78733 31.8447 7.12921C31.8447 7.47109 31.5726 7.74259 31.2298 7.74259H30.0101C29.6673 7.74259 29.3951 7.47109 29.3951 7.12921C29.3951 6.78733 29.6673 6.51584 30.0101 6.51584ZM33.2661 6.51584H36.9355C37.2782 6.51584 37.5504 6.78733 37.5504 7.12921C37.5504 7.47109 37.2782 7.74259 36.9355 7.74259H33.2661C32.9234 7.74259 32.6512 7.47109 32.6512 7.12921C32.6512 6.78733 32.9234 6.51584 33.2661 6.51584Z" fill="#13EF93"/>
</g>
<defs>
<clipPath id="clip0_1825_5980">
<rect width="40" height="40" fill="white"/>
</clipPath>
</defs>
</svg>
