<svg width="40" height="40" viewBox="0 0 40 40" fill="none" xmlns="http://www.w3.org/2000/svg">
<g clip-path="url(#clip0_1825_5978)">
<path d="M16.7 25.39C21.9743 25.39 26.25 21.1143 26.25 15.84C26.25 10.5657 21.9743 6.29 16.7 6.29C11.4257 6.29 7.14999 10.5657 7.14999 15.84C7.14999 21.1143 11.4257 25.39 16.7 25.39Z" fill="white"/>
<path d="M13.3 26.58C5.95 26.58 0 31.64 0 37.89C0 38.93 0.99 39.77 2.21 39.77H31.19C32.41 39.77 33.4 38.93 33.4 37.89C33.4 31.64 27.45 26.58 20.1 26.58H13.28H13.3Z" fill="white"/>
<path d="M33.21 10.51C36.78 10.51 39.68 8.16 39.68 5.25C39.68 2.34 36.78 -0.0100021 33.21 -0.0100021C29.64 -0.0100021 26.74 2.34 26.74 5.25C26.74 6.39 27.19 7.44 27.95 8.31C27.9 8.93 27.66 9.48 27.41 9.9C27.27 10.13 27.13 10.32 27.03 10.45C26.98 10.51 26.94 10.56 26.91 10.59C26.89 10.61 26.88 10.62 26.88 10.63C26.76 10.75 26.73 10.93 26.79 11.08C26.85 11.23 27 11.33 27.16 11.33C27.89 11.33 28.62 11.11 29.22 10.84C29.8 10.59 30.29 10.29 30.59 10.07C31.39 10.36 32.28 10.52 33.22 10.52L33.21 10.51ZM29.77 4.45H33.41C33.75 4.45 34.02 4.72 34.02 5.06C34.02 5.4 33.75 5.67 33.41 5.67H29.77C29.43 5.67 29.16 5.4 29.16 5.06C29.16 4.72 29.43 4.45 29.77 4.45ZM35.43 4.45H36.64C36.98 4.45 37.25 4.72 37.25 5.06C37.25 5.4 36.98 5.67 36.64 5.67H35.43C35.09 5.67 34.82 5.4 34.82 5.06C34.82 4.72 35.09 4.45 35.43 4.45ZM29.77 6.47H30.98C31.32 6.47 31.59 6.74 31.59 7.08C31.59 7.42 31.32 7.69 30.98 7.69H29.77C29.43 7.69 29.16 7.42 29.16 7.08C29.16 6.74 29.43 6.47 29.77 6.47ZM33 6.47H36.64C36.98 6.47 37.25 6.74 37.25 7.08C37.25 7.42 36.98 7.69 36.64 7.69H33C32.66 7.69 32.39 7.42 32.39 7.08C32.39 6.74 32.66 6.47 33 6.47Z" fill="white"/>
</g>
<defs>
<clipPath id="clip0_1825_5978">
<rect width="40" height="40" fill="white"/>
</clipPath>
</defs>
</svg>
