<svg width="40" height="40" viewBox="0 0 40 40" fill="none" xmlns="http://www.w3.org/2000/svg">
<g clip-path="url(#clip0_1714_4633)">
<path d="M20.5 2.5C13.59 2.5 8 8.09 8 15V16.25C8 16.94 7.44 17.5 6.75 17.5C6.06 17.5 5.5 16.94 5.5 16.25V15C5.5 6.72 12.22 0 20.5 0C28.78 0 35.5 6.72 35.5 15V16.25C35.5 21.09 31.59 25 26.75 25H19.25C17.87 25 16.75 23.88 16.75 22.5C16.75 21.12 17.87 20 19.25 20H21.75C23.13 20 24.25 21.12 24.25 22.5H26.75C30.2 22.5 33 19.7 33 16.25V15C33 8.09 27.41 2.5 20.5 2.5ZM10.5 15C10.5 9.48 14.98 5 20.5 5C26.02 5 30.5 9.48 30.5 15C30.5 16.09 30.33 17.13 30.01 18.11C29.36 19.24 28.14 20 26.75 20H26.08C25.21 18.51 23.6 17.5 21.75 17.5H19.25C16.49 17.5 14.25 19.74 14.25 22.5C14.25 22.61 14.25 22.71 14.25 22.81C11.96 20.98 10.49 18.16 10.49 15H10.5ZM20.5 27.5H27.5C33.3 27.5 38 32.2 38 38C38 39.1 37.1 40 36 40H5C3.9 40 3 39.1 3 38C3 32.2 7.7 27.5 13.5 27.5H20.5Z" fill="white"/>
</g>
<defs>
<clipPath id="clip0_1714_4633">
<rect width="35" height="40" fill="white" transform="translate(3)"/>
</clipPath>
</defs>
</svg>
