<svg width="40" height="40" viewBox="0 0 40 40" fill="none" xmlns="http://www.w3.org/2000/svg">
<g clip-path="url(#clip0_1979_10839)">
<path d="M36.25 6.9375V10.5C36.25 13.7805 28.8059 16.4375 19.625 16.4375C10.4441 16.4375 3 13.7805 3 10.5V6.9375C3 3.65703 10.4441 1 19.625 1C28.8059 1 36.25 3.65703 36.25 6.9375ZM32.1828 16.9348C33.7266 16.3855 35.1441 15.6805 36.25 14.8121V22.375C36.25 25.6555 28.8059 28.3125 19.625 28.3125C10.4441 28.3125 3 25.6555 3 22.375V14.8121C4.10586 15.6879 5.52344 16.3855 7.06719 16.9348C10.3996 18.1223 14.8379 18.8125 19.625 18.8125C24.4121 18.8125 28.8504 18.1223 32.1828 16.9348ZM3 26.6871C4.10586 27.5629 5.52344 28.2605 7.06719 28.8098C10.3996 29.9973 14.8379 30.6875 19.625 30.6875C24.4121 30.6875 28.8504 29.9973 32.1828 28.8098C33.7266 28.2605 35.1441 27.5555 36.25 26.6871V33.0625C36.25 36.343 28.8059 39 19.625 39C10.4441 39 3 36.343 3 33.0625V26.6871Z" fill="white"/>
</g>
<defs>
<clipPath id="clip0_1979_10839">
<rect width="33.25" height="38" fill="white" transform="translate(3 1)"/>
</clipPath>
</defs>
</svg>
