<svg width="40" height="40" viewBox="0 0 40 40" fill="none" xmlns="http://www.w3.org/2000/svg">
<g clip-path="url(#clip0_1979_10843)">
<path d="M3 14.8121V10.5C3 13.7805 10.4048 16.4375 19.537 16.4375C28.6693 16.4375 36.0741 13.7805 36.0741 10.5V14.8121C34.9741 15.6879 33.564 16.3855 32.0284 16.9348C28.7136 18.1223 24.2988 18.8125 19.537 18.8125C14.7753 18.8125 10.3605 18.1223 7.04567 16.9348C5.51009 16.3855 4.10001 15.6805 3 14.8121ZM3 26.6871V22.375C3 25.6555 10.4048 28.3125 19.537 28.3125C28.6693 28.3125 36.0741 25.6555 36.0741 22.375V26.6871C34.9741 27.5629 33.564 28.2605 32.0284 28.8098C28.7136 29.9973 24.2988 30.6875 19.537 30.6875C14.7753 30.6875 10.3605 29.9973 7.04567 28.8098C5.51009 28.2605 4.10001 27.5555 3 26.6871Z" fill="#13EF93"/>
<path opacity="0.4" d="M36.0741 6.9375V10.5C36.0741 13.7805 28.6693 16.4375 19.537 16.4375C10.4048 16.4375 3 13.7805 3 10.5V6.9375C3 3.65703 10.4048 1 19.537 1C28.6693 1 36.0741 3.65703 36.0741 6.9375ZM32.0284 16.9348C33.564 16.3855 34.9741 15.6805 36.0741 14.8121V22.375C36.0741 25.6555 28.6693 28.3125 19.537 28.3125C10.4048 28.3125 3 25.6555 3 22.375V14.8121C4.10001 15.6879 5.51009 16.3855 7.04567 16.9348C10.3605 18.1223 14.7753 18.8125 19.537 18.8125C24.2988 18.8125 28.7136 18.1223 32.0284 16.9348ZM3 26.6871C4.10001 27.5629 5.51009 28.2605 7.04567 28.8098C10.3605 29.9973 14.7753 30.6875 19.537 30.6875C24.2988 30.6875 28.7136 29.9973 32.0284 28.8098C33.564 28.2605 34.9741 27.5555 36.0741 26.6871V33.0625C36.0741 36.343 28.6693 39 19.537 39C10.4048 39 3 36.343 3 33.0625V26.6871Z" fill="#13EF93"/>
</g>
<defs>
<clipPath id="clip0_1979_10843">
<rect width="33.0741" height="38" fill="white" transform="translate(3 1)"/>
</clipPath>
</defs>
</svg>
