<svg width="40" height="40" viewBox="0 0 40 40" fill="none" xmlns="http://www.w3.org/2000/svg">
<g clip-path="url(#clip0_1896_7045)">
<path d="M26 14.9628C26 21.0173 20.1812 25.9257 13 25.9257C10.6125 25.9257 8.38125 25.3838 6.45625 24.437C5.9875 24.6861 5.45625 24.9291 4.875 25.1471C3.7375 25.5769 2.3625 25.9257 1 25.9257C0.56875 25.9257 0.18125 25.6454 0.05 25.2343C-0.08125 24.8232 0.0625 24.3747 0.4125 24.1193L0.425 24.1068C0.4375 24.0944 0.4625 24.0819 0.49375 24.057C0.55625 24.0072 0.65 23.9324 0.7625 23.8265C0.9875 23.621 1.29375 23.322 1.59375 22.9358C1.9375 22.4998 2.2625 21.9766 2.48125 21.3973C0.91875 19.5909 0 17.3672 0 14.9628C0 8.90836 5.81875 4 13 4C20.1812 4 26 8.90836 26 14.9628Z" fill="white"/>
<path d="M14.4688 27.8566C21.8063 27.2275 28 21.9579 28 14.9628C28 14.6389 27.9875 14.315 27.9625 13.9974C34.6937 14.4085 40 19.1486 40 24.9291C40 27.3334 39.0813 29.5571 37.525 31.3697C37.7438 31.9552 38.0687 32.4722 38.4125 32.9083C38.7125 33.2944 39.0188 33.5934 39.2438 33.799C39.3563 33.8986 39.45 33.9796 39.5125 34.0295C39.5438 34.0544 39.5687 34.0731 39.5812 34.0793L39.5938 34.0917C39.9438 34.3471 40.0875 34.7956 39.9562 35.2067C39.825 35.6178 39.4375 35.8981 39.0062 35.8981C37.6437 35.8981 36.2687 35.5493 35.125 35.1195C34.55 34.9015 34.0125 34.6586 33.55 34.4094C31.6187 35.35 29.3875 35.8919 27 35.8919C21.025 35.8919 15.9875 32.4909 14.4688 27.8566Z" fill="white"/>
</g>
<defs>
<clipPath id="clip0_1896_7045">
<rect width="40" height="31.8919" fill="white" transform="translate(0 4)"/>
</clipPath>
</defs>
</svg>
