<svg width="40" height="40" viewBox="0 0 40 40" fill="none" xmlns="http://www.w3.org/2000/svg">
<path d="M34.0086 2.78125C34.0086 1.79414 33.2111 1 32.2197 1C31.2283 1 30.4307 1.79414 30.4307 2.78125C30.4307 2.98164 30.4233 3.18203 30.4158 3.375H8.97808C8.96318 3.18203 8.96318 2.98164 8.96318 2.78125C8.96318 1.79414 8.1656 1 7.17422 1C6.18283 1 5.38525 1.79414 5.38525 2.78125C5.38525 6.90781 7.21149 10.3441 9.71603 13.3129C11.7435 15.7176 14.3002 17.9145 16.857 20C14.3002 22.0855 11.7435 24.2824 9.71603 26.6871C7.21149 29.6559 5.38525 33.0922 5.38525 37.2188C5.38525 38.2059 6.18283 39 7.17422 39C8.1656 39 8.96318 38.2059 8.96318 37.2188C8.96318 37.0184 8.97063 36.818 8.97808 36.625H30.4158C30.4307 36.818 30.4307 37.0184 30.4307 37.2188C30.4307 38.2059 31.2283 39 32.2197 39C33.2111 39 34.0086 38.2059 34.0086 37.2188C34.0086 33.0922 32.1824 29.6559 29.6779 26.6871C28.1423 24.8687 26.3086 23.1766 24.4004 21.5512C23.7519 22.0781 23.1109 22.5977 22.4847 23.1023L22.3208 23.2359C22.0673 23.4363 21.8213 23.6441 21.5679 23.8371C22.4027 24.5348 23.2152 25.2324 23.9755 25.9375H15.4034C17.0433 24.4234 18.8845 22.9391 20.7852 21.4102C20.8076 21.3953 20.8225 21.3805 20.8449 21.3656L20.897 21.3211C23.9755 18.8422 27.2106 16.2297 29.6704 13.3129C32.1824 10.3441 34.0086 6.90781 34.0086 2.78125ZM12.0268 29.5H27.3671C28.2914 30.6652 29.0368 31.8453 29.5586 33.0625H9.83529C10.3571 31.8453 11.1025 30.6652 12.0268 29.5ZM9.83529 6.9375H29.5586C29.0368 8.15469 28.2914 9.33477 27.3671 10.5H12.0268C11.1025 9.33477 10.3571 8.15469 9.83529 6.9375ZM23.983 14.0625C22.6562 15.2797 21.2101 16.482 19.6969 17.7066C18.1838 16.482 16.7377 15.2797 15.4109 14.0625H23.983Z" fill="white"/>
</svg>
