<svg width="40" height="40" viewBox="0 0 40 40" fill="none" xmlns="http://www.w3.org/2000/svg">
<g clip-path="url(#clip0_1979_10994)">
<path d="M36.25 3.375C36.25 2.06133 35.1887 1 33.875 1C32.5613 1 31.5 2.06133 31.5 3.375C31.5 5.91328 30.3199 8.19922 28.1305 10.5H11.1195C12.2477 11.6801 13.6281 12.8602 15.2313 14.0625H24.0262C22.2746 15.3762 20.3375 16.675 18.3113 18.0258L18.1926 18.1C14.7117 20.4156 10.9859 22.902 8.15078 25.7371C5.24883 28.6465 3 32.1867 3 36.625C3 37.9387 4.06133 39 5.375 39C6.68867 39 7.75 37.9387 7.75 36.625H31.5C31.5 34.9477 30.9805 33.3891 30.023 31.875H9.22695C9.8207 30.9473 10.5852 30.027 11.5055 29.0992C13.977 26.6277 17.3242 24.3863 20.9387 21.9742L21.0574 21.9C24.5383 19.5844 28.2641 17.098 31.0992 14.2629C34.0012 11.3535 36.25 7.81328 36.25 3.375Z" fill="#13EF93"/>
<path opacity="0.4" d="M33.875 39C35.1887 39 36.25 37.9387 36.25 36.625C36.25 32.1867 34.0012 28.6465 31.0992 25.7445C29.0211 23.6664 26.4605 21.7738 23.8777 20C22.9055 20.668 21.9184 21.3285 20.9461 21.9742L20.6492 22.1746C20.3078 22.4047 19.9664 22.6348 19.625 22.8574C21.1762 23.8965 22.6531 24.9133 24.0262 25.9375H15.2313C13.6281 27.1398 12.2477 28.3199 11.1195 29.5H28.1305C30.3199 31.8008 31.5 34.0867 31.5 36.625C31.5 37.9387 32.5613 39 33.875 39ZM15.3723 20C16.248 19.3988 17.1387 18.8051 18.0145 18.2188L18.3039 18.0258C18.7492 17.7289 19.1871 17.432 19.625 17.1426C16.5227 15.057 13.6801 13.068 11.5055 10.9008C10.5852 9.97305 9.8207 9.05273 9.22695 8.125H30.023C30.9879 6.60352 31.5 5.04492 31.5 3.375H7.75C7.75 2.06133 6.68867 1 5.375 1C4.06133 1 3 2.06133 3 3.375C3 7.81328 5.24883 11.3535 8.15078 14.2555C10.2289 16.3336 12.7895 18.2262 15.3723 20Z" fill="#13EF93"/>
</g>
<defs>
<clipPath id="clip0_1979_10994">
<rect width="33.25" height="38" fill="white" transform="translate(3 1)"/>
</clipPath>
</defs>
</svg>
