<svg width="40" height="40" viewBox="0 0 40 40" fill="none" xmlns="http://www.w3.org/2000/svg">
<path d="M34.31 12.875L22.0975 1V10.5C22.0975 11.8137 23.189 12.875 24.54 12.875H34.31ZM12.3275 17.625C10.9765 17.625 9.88501 18.6863 9.88501 20V24.75C9.88501 26.0637 10.9765 27.125 12.3275 27.125H26.9825C28.3335 27.125 29.425 26.0637 29.425 24.75V20C29.425 18.6863 28.3335 17.625 26.9825 17.625H12.3275ZM12.3275 20H26.9825V24.75H12.3275V20ZM23.3187 31.875C22.6471 31.875 22.0975 32.4094 22.0975 33.0625C22.0975 33.7156 22.6471 34.25 23.3187 34.25H28.2037C28.8754 34.25 29.425 33.7156 29.425 33.0625C29.425 32.4094 28.8754 31.875 28.2037 31.875H23.3187Z" fill="#13EF93"/>
<path opacity="0.4" d="M9.88499 1C7.19061 1 5 3.13008 5 5.75V34.25C5 36.8699 7.19061 39 9.88499 39H29.425C32.1194 39 34.31 36.8699 34.31 34.25V12.875H24.54C23.189 12.875 22.0975 11.8137 22.0975 10.5V1H9.88499ZM9.88499 6.9375C9.88499 6.28438 10.4346 5.75 11.1062 5.75H15.9912C16.6629 5.75 17.2125 6.28438 17.2125 6.9375C17.2125 7.59062 16.6629 8.125 15.9912 8.125H11.1062C10.4346 8.125 9.88499 7.59062 9.88499 6.9375ZM9.88499 11.6875C9.88499 11.0344 10.4346 10.5 11.1062 10.5H15.9912C16.6629 10.5 17.2125 11.0344 17.2125 11.6875C17.2125 12.3406 16.6629 12.875 15.9912 12.875H11.1062C10.4346 12.875 9.88499 12.3406 9.88499 11.6875ZM9.88499 20C9.88499 18.6863 10.9765 17.625 12.3275 17.625H26.9825C28.3335 17.625 29.425 18.6863 29.425 20V24.75C29.425 26.0637 28.3335 27.125 26.9825 27.125H12.3275C10.9765 27.125 9.88499 26.0637 9.88499 24.75V20ZM22.0975 33.0625C22.0975 32.4094 22.647 31.875 23.3187 31.875H28.2037C28.8754 31.875 29.425 32.4094 29.425 33.0625C29.425 33.7156 28.8754 34.25 28.2037 34.25H23.3187C22.647 34.25 22.0975 33.7156 22.0975 33.0625Z" fill="#13EF93"/>
</svg>
