<svg width="40" height="40" viewBox="0 0 40 40" fill="none" xmlns="http://www.w3.org/2000/svg">
<path d="M9.88571 1C7.19094 1 5 3.13008 5 5.75V34.25C5 36.8699 7.19094 39 9.88571 39H29.4286C32.1233 39 34.3143 36.8699 34.3143 34.25V12.875H24.5429C23.1917 12.875 22.1 11.8137 22.1 10.5V1H9.88571ZM24.5429 1V10.5H34.3143L24.5429 1ZM11.1071 5.75H15.9929C16.6646 5.75 17.2143 6.28438 17.2143 6.9375C17.2143 7.59062 16.6646 8.125 15.9929 8.125H11.1071C10.4354 8.125 9.88571 7.59062 9.88571 6.9375C9.88571 6.28438 10.4354 5.75 11.1071 5.75ZM11.1071 10.5H15.9929C16.6646 10.5 17.2143 11.0344 17.2143 11.6875C17.2143 12.3406 16.6646 12.875 15.9929 12.875H11.1071C10.4354 12.875 9.88571 12.3406 9.88571 11.6875C9.88571 11.0344 10.4354 10.5 11.1071 10.5ZM12.3286 17.625H26.9857C28.3369 17.625 29.4286 18.6863 29.4286 20V24.75C29.4286 26.0637 28.3369 27.125 26.9857 27.125H12.3286C10.9774 27.125 9.88571 26.0637 9.88571 24.75V20C9.88571 18.6863 10.9774 17.625 12.3286 17.625ZM12.3286 20V24.75H26.9857V20H12.3286ZM23.3214 31.875H28.2071C28.8789 31.875 29.4286 32.4094 29.4286 33.0625C29.4286 33.7156 28.8789 34.25 28.2071 34.25H23.3214C22.6496 34.25 22.1 33.7156 22.1 33.0625C22.1 32.4094 22.6496 31.875 23.3214 31.875Z" fill="white"/>
</svg>
