<svg width="40" height="40" viewBox="0 0 40 40" fill="none" xmlns="http://www.w3.org/2000/svg">
<g clip-path="url(#clip0_1640_5277)">
<path d="M20 40C25.3043 40 30.3914 37.8929 34.1421 34.1421C37.8929 30.3914 40 25.3043 40 20C40 14.6957 37.8929 9.60859 34.1421 5.85786C30.3914 2.10714 25.3043 0 20 0C14.6957 0 9.60859 2.10714 5.85786 5.85786C2.10714 9.60859 0 14.6957 0 20C0 25.3043 2.10714 30.3914 5.85786 34.1421C9.60859 37.8929 14.6957 40 20 40ZM21.875 9.375V10.6094C22.7188 10.7109 23.5625 10.9531 24.3906 11.1875C24.5547 11.2344 24.7109 11.2812 24.875 11.3203C25.875 11.5937 26.4609 12.6328 26.1875 13.625C25.9141 14.6172 24.875 15.2109 23.8828 14.9297C23.75 14.8906 23.6172 14.8516 23.4766 14.8203C22.8672 14.6484 22.2578 14.4766 21.6406 14.3594C20.5 14.1406 19.1719 14.2422 18.0938 14.7031C17.1328 15.1172 16.3516 16.125 17.4375 16.8203C18.2891 17.3672 19.3281 17.6484 20.3125 17.9141C20.5156 17.9688 20.7187 18.0234 20.9219 18.0781C22.2734 18.4609 24.0078 18.9531 25.3047 19.8438C26.9922 21 27.7812 22.875 27.4062 24.8906C27.0469 26.8359 25.6953 28.1094 24.0703 28.7656C23.3906 29.0391 22.6562 29.2109 21.8828 29.3047V30.625C21.8828 31.6641 21.0469 32.5 20.0078 32.5C18.9688 32.5 18.1328 31.6641 18.1328 30.625V29.1172C16.875 28.8359 15.6406 28.4297 14.4219 28.0312C13.4375 27.7031 12.9062 26.6484 13.2266 25.6641C13.5469 24.6797 14.6094 24.1484 15.5938 24.4688C15.8125 24.5391 16.0312 24.6172 16.25 24.6875C17.2344 25.0234 18.2344 25.3594 19.2422 25.5156C20.7188 25.7344 21.8984 25.6016 22.6719 25.2891C23.7188 24.8672 24.2031 23.6328 23.1875 22.9375C22.3125 22.3359 21.2266 22.0469 20.1875 21.7656C19.9922 21.7109 19.7969 21.6562 19.6016 21.6016C18.2891 21.2344 16.6562 20.7656 15.4219 19.9766C13.7266 18.8984 12.8672 17.0859 13.2344 15.0859C13.5859 13.1875 15.0547 11.9297 16.6172 11.2578C17.0938 11.0547 17.6016 10.8906 18.1406 10.7656V9.375C18.1406 8.33594 18.9766 7.5 20.0156 7.5C21.0547 7.5 21.8906 8.33594 21.8906 9.375H21.875Z" fill="white"/>
</g>
<defs>
<clipPath id="clip0_1640_5277">
<rect width="40" height="40" fill="white"/>
</clipPath>
</defs>
</svg>
