<svg width="40" height="40" viewBox="0 0 40 40" fill="none" xmlns="http://www.w3.org/2000/svg">
<g clip-path="url(#clip0_1979_10797)">
<path d="M38.9852 16.0293C38.8664 14.6859 38.1762 13.4391 37.0777 12.6301L34.25 10.5371V16.4449V19.5324L38.9852 16.0293ZM39 34.25V18.9684L22.85 30.9324C22.0262 31.5484 21.0242 31.875 20 31.875C18.9758 31.875 17.9738 31.5484 17.15 30.9324L1 18.9684V34.25C1 36.8699 3.13008 39 5.75 39H34.25C36.8699 39 39 36.8699 39 34.25ZM5.75 19.5324V16.4449V10.5371L2.92227 12.6301C1.82383 13.4391 1.13359 14.6859 1.01484 16.0293L5.75 19.5324ZM22.4863 1.82383C21.7664 1.28945 20.898 1 20 1C19.102 1 18.2336 1.28945 17.5137 1.81641L15.4133 3.375H24.5867L22.4863 1.82383ZM14.0625 10.5C13.4094 10.5 12.875 11.0344 12.875 11.6875C12.875 12.3406 13.4094 12.875 14.0625 12.875H25.9375C26.5906 12.875 27.125 12.3406 27.125 11.6875C27.125 11.0344 26.5906 10.5 25.9375 10.5H14.0625ZM14.0625 15.25C13.4094 15.25 12.875 15.7844 12.875 16.4375C12.875 17.0906 13.4094 17.625 14.0625 17.625H25.9375C26.5906 17.625 27.125 17.0906 27.125 16.4375C27.125 15.7844 26.5906 15.25 25.9375 15.25H14.0625Z" fill="#13EF93"/>
<path opacity="0.4" d="M8.125 3.375C6.81133 3.375 5.75 4.43633 5.75 5.75V19.5324L18.5676 29.025C18.9832 29.3293 19.4879 29.5 20 29.5C20.5121 29.5 21.0168 29.3367 21.4324 29.025L34.25 19.5324V5.75C34.25 4.43633 33.1887 3.375 31.875 3.375H8.125ZM14.0625 10.5H25.9375C26.5906 10.5 27.125 11.0344 27.125 11.6875C27.125 12.3406 26.5906 12.875 25.9375 12.875H14.0625C13.4094 12.875 12.875 12.3406 12.875 11.6875C12.875 11.0344 13.4094 10.5 14.0625 10.5ZM14.0625 15.25H25.9375C26.5906 15.25 27.125 15.7844 27.125 16.4375C27.125 17.0906 26.5906 17.625 25.9375 17.625H14.0625C13.4094 17.625 12.875 17.0906 12.875 16.4375C12.875 15.7844 13.4094 15.25 14.0625 15.25Z" fill="#13EF93"/>
</g>
<defs>
<clipPath id="clip0_1979_10797">
<rect width="38" height="38" fill="white" transform="translate(1 1)"/>
</clipPath>
</defs>
</svg>
