<svg width="40" height="40" viewBox="0 0 40 40" fill="none" xmlns="http://www.w3.org/2000/svg">
<g clip-path="url(#clip0_1979_10793)">
<path d="M16.9867 8.125H11.6875H9.00078H8.125V8.77813V11.6875V14.6859V21.2914L1.01484 16.0293C1.13359 14.6859 1.82383 13.4391 2.92227 12.6301L4.5625 11.4129V8.125C4.5625 6.1582 6.1582 4.5625 8.125 4.5625H13.8102L17.5137 1.82383C18.2336 1.28945 19.102 1 20 1C20.898 1 21.7664 1.28945 22.4863 1.81641L26.1898 4.5625H31.875C33.8418 4.5625 35.4375 6.1582 35.4375 8.125V11.4129L37.0777 12.6301C38.1762 13.4391 38.8664 14.6859 38.9852 16.0293L31.875 21.2914V14.6859V11.6875V8.77813V8.125H30.9992H28.3125H23.0133H16.9867ZM1 34.25V18.9684L17.15 30.9324C17.9738 31.541 18.9758 31.875 20 31.875C21.0242 31.875 22.0262 31.5484 22.85 30.9324L39 18.9684V34.25C39 36.8699 36.8699 39 34.25 39H5.75C3.13008 39 1 36.8699 1 34.25ZM14.0625 12.875H25.9375C26.5906 12.875 27.125 13.4094 27.125 14.0625C27.125 14.7156 26.5906 15.25 25.9375 15.25H14.0625C13.4094 15.25 12.875 14.7156 12.875 14.0625C12.875 13.4094 13.4094 12.875 14.0625 12.875ZM14.0625 17.625H25.9375C26.5906 17.625 27.125 18.1594 27.125 18.8125C27.125 19.4656 26.5906 20 25.9375 20H14.0625C13.4094 20 12.875 19.4656 12.875 18.8125C12.875 18.1594 13.4094 17.625 14.0625 17.625Z" fill="white"/>
</g>
<defs>
<clipPath id="clip0_1979_10793">
<rect width="38" height="38" fill="white" transform="translate(1 1)"/>
</clipPath>
</defs>
</svg>
