<svg width="40" height="40" viewBox="0 0 40 40" fill="none" xmlns="http://www.w3.org/2000/svg">
<path d="M35 12.5L22.5 0V10C22.5 11.3828 23.6172 12.5 25 12.5H35ZM13.75 20C13.0625 20 12.5 20.5625 12.5 21.25C12.5 21.9375 13.0625 22.5 13.75 22.5H26.25C26.9375 22.5 27.5 21.9375 27.5 21.25C27.5 20.5625 26.9375 20 26.25 20H13.75ZM13.75 25C13.0625 25 12.5 25.5625 12.5 26.25C12.5 26.9375 13.0625 27.5 13.75 27.5H26.25C26.9375 27.5 27.5 26.9375 27.5 26.25C27.5 25.5625 26.9375 25 26.25 25H13.75ZM13.75 30C13.0625 30 12.5 30.5625 12.5 31.25C12.5 31.9375 13.0625 32.5 13.75 32.5H26.25C26.9375 32.5 27.5 31.9375 27.5 31.25C27.5 30.5625 26.9375 30 26.25 30H13.75Z" fill="#13EF93"/>
<path opacity="0.4" d="M5 5C5 2.24219 7.24219 0 10 0H22.5V10C22.5 11.3828 23.6172 12.5 25 12.5H35V35C35 37.7578 32.7578 40 30 40H10C7.24219 40 5 37.7578 5 35V5ZM13.75 20C13.0625 20 12.5 20.5625 12.5 21.25C12.5 21.9375 13.0625 22.5 13.75 22.5H26.25C26.9375 22.5 27.5 21.9375 27.5 21.25C27.5 20.5625 26.9375 20 26.25 20H13.75ZM13.75 25C13.0625 25 12.5 25.5625 12.5 26.25C12.5 26.9375 13.0625 27.5 13.75 27.5H26.25C26.9375 27.5 27.5 26.9375 27.5 26.25C27.5 25.5625 26.9375 25 26.25 25H13.75ZM13.75 30C13.0625 30 12.5 30.5625 12.5 31.25C12.5 31.9375 13.0625 32.5 13.75 32.5H26.25C26.9375 32.5 27.5 31.9375 27.5 31.25C27.5 30.5625 26.9375 30 26.25 30H13.75Z" fill="#13EF93"/>
</svg>
