<svg width="40" height="40" viewBox="0 0 40 40" fill="none" xmlns="http://www.w3.org/2000/svg">
<path d="M35.5899 12.5H25.3933C23.9833 12.5 22.8441 11.3828 22.8441 10V0L35.5899 12.5ZM16.2481 16.8672C17.0049 16.5859 17.7458 17.1797 17.7458 17.9688V26.25C17.7458 26.9375 18.3193 27.5 19.0203 27.5H27.4645C28.269 27.5 28.8745 28.2266 28.5877 28.9688C27.2175 32.4922 23.7363 35 19.6576 35C14.3761 35 10.0983 30.8047 10.0983 25.625C10.0983 21.625 12.6554 18.2109 16.2481 16.8672Z" fill="#13EF93"/>
<path opacity="0.4" d="M5 5C5 2.24219 7.28628 0 10.0983 0H22.8442V10C22.8442 11.3828 23.9833 12.5 25.3933 12.5H35.59V35C35.59 37.7578 33.3037 40 30.4917 40H10.0983C7.28628 40 5 37.7578 5 35V5ZM28.5798 25C29.2808 25 29.8623 24.4375 29.7667 23.75C29.2012 19.5703 25.8235 16.2578 21.5616 15.7031C20.8606 15.6094 20.287 16.1797 20.287 16.8672V23.7422C20.287 24.4297 20.8606 24.9922 21.5616 24.9922H28.5718L28.5798 25ZM17.7458 17.9688C17.7458 17.1797 17.005 16.5859 16.2482 16.8672C12.6555 18.2109 10.0983 21.625 10.0983 25.625C10.0983 30.8047 14.3762 35 19.6577 35C23.7364 35 27.2176 32.4922 28.5878 28.9688C28.8745 28.2266 28.2691 27.5 27.4645 27.5H19.0204C18.3194 27.5 17.7458 26.9375 17.7458 26.25V17.9688Z" fill="#13EF93"/>
</svg>
