<svg width="40" height="40" viewBox="0 0 40 40" fill="none" xmlns="http://www.w3.org/2000/svg">
<path d="M9.98169 0C7.23397 0 5 2.24219 5 5V35C5 37.7578 7.23397 40 9.98169 40H29.9084C32.6561 40 34.8901 37.7578 34.8901 35V12.5H24.9267C23.549 12.5 22.4359 11.3828 22.4359 10V0H9.98169ZM24.9267 0V10H34.8901L24.9267 0ZM13.7179 20H26.1722C26.8571 20 27.4176 20.5625 27.4176 21.25C27.4176 21.9375 26.8571 22.5 26.1722 22.5H13.7179C13.033 22.5 12.4725 21.9375 12.4725 21.25C12.4725 20.5625 13.033 20 13.7179 20ZM13.7179 25H26.1722C26.8571 25 27.4176 25.5625 27.4176 26.25C27.4176 26.9375 26.8571 27.5 26.1722 27.5H13.7179C13.033 27.5 12.4725 26.9375 12.4725 26.25C12.4725 25.5625 13.033 25 13.7179 25ZM13.7179 30H26.1722C26.8571 30 27.4176 30.5625 27.4176 31.25C27.4176 31.9375 26.8571 32.5 26.1722 32.5H13.7179C13.033 32.5 12.4725 31.9375 12.4725 31.25C12.4725 30.5625 13.033 30 13.7179 30Z" fill="white"/>
</svg>
