<svg width="40" height="40" viewBox="0 0 40 40" fill="none" xmlns="http://www.w3.org/2000/svg">
<path d="M10.098 0C7.28615 0 5 2.24219 5 5V35C5 37.7578 7.28615 40 10.098 40H30.4902C33.3021 40 35.5882 37.7578 35.5882 35V12.5H25.3922C23.9822 12.5 22.8431 11.3828 22.8431 10V0H10.098ZM25.3922 0V10H35.5882L25.3922 0ZM28.5784 25H21.5686C20.8676 25 20.2941 24.4375 20.2941 23.75V16.875C20.2941 16.1875 20.8676 15.6172 21.5686 15.7109C25.8303 16.2656 29.2077 19.5781 29.7733 23.7578C29.8689 24.4453 29.2874 25.0078 28.5864 25.0078L28.5784 25ZM17.7451 17.9688V26.25C17.7451 26.9375 18.3186 27.5 19.0196 27.5H27.4632C28.2678 27.5 28.8732 28.2266 28.5864 28.9688C27.2163 32.4922 23.7353 35 19.6569 35C14.3756 35 10.098 30.8047 10.098 25.625C10.098 21.625 12.655 18.2109 16.2475 16.8594C17.0043 16.5781 17.7451 17.1719 17.7451 17.9609V17.9688Z" fill="white"/>
</svg>
