<svg width="40" height="40" viewBox="0 0 40 40" fill="none" xmlns="http://www.w3.org/2000/svg">
<g clip-path="url(#clip0_1658_4990)">
<path d="M19.97 12.82C15.13 12.8 11.86 16.49 11.93 20.7C11.99 24.43 11.64 28.18 10.89 31.81C10.68 32.75 11.33 33.81 12.34 34.02C13.28 34.22 14.34 33.58 14.55 32.57C15.36 28.66 15.73 24.65 15.67 20.71C15.64 18.61 17.15 16.54 19.91 16.56C22.36 16.6 24.37 18.54 24.4 20.89C24.47 24.56 24.19 28.4 23.57 32.08C23.4 33.02 24.1 34.06 25.12 34.23C26.67 34.48 27.21 33.05 27.26 32.68C27.9 28.85 28.21 24.8 28.14 20.9C28.07 16.47 24.4 12.88 19.96 12.82H19.97ZM39.54 15.89C39.32 14.95 38.33 14.23 37.31 14.46C36.37 14.68 35.66 15.69 35.89 16.69C36.26 18.37 36.27 19.61 36.26 21.5C36.26 22.53 37.08 23.38 38.11 23.39C39.13 23.39 39.99 22.56 40 21.53C40.01 19.81 40.03 18.1 39.54 15.9V15.89ZM36.34 8.82C32.54 3.4 26.33 0.0999984 19.71 -1.56939e-06C14.27 -0.0700016 9.23999 1.94 5.49999 5.69C1.87999 9.31 -0.0700099 14.12 -9.92313e-06 19.23V20.91C0.0299901 21.95 0.83999 22.81 1.86999 22.84C1.88999 22.84 1.90999 22.84 1.92999 22.84C2.86999 22.84 3.76999 22.03 3.72999 21.02V19.18C3.74999 15.08 5.29999 11.23 8.19999 8.34C11.23 5.32 15.33 3.69 19.72 3.75C25.13 3.75 30.23 6.53 33.34 10.95C33.93 11.8 35.09 12 35.94 11.41C36.72 10.81 37 9.66 36.33 8.81L36.34 8.82Z" fill="white"/>
<path d="M20.04 19.19C19.01 19.19 18.24 20.03 18.24 20.99C18.33 26.62 17.61 32.06 16.08 37.49C15.8 38.32 16.19 39.94 17.82 39.94C18.64 39.94 19.39 39.4 19.62 38.58C20.67 34.85 21.97 28.8 21.92 21.07C21.92 20.04 21.08 19.2 20.05 19.2L20.04 19.19ZM11.34 11.27C10.53 10.61 9.35998 10.73 8.69998 11.54C6.71998 14 5.62998 17.11 5.67998 20.28C5.72998 23.21 5.48998 26.16 4.97998 29.02C4.78998 29.96 5.46998 31.01 6.47998 31.19C8.04998 31.46 8.59998 30.03 8.58998 29.68C9.14998 26.57 9.40998 23.39 9.34998 20.21C9.38998 17.89 10.14 15.7 11.53 13.91C12.26 13.1 12.14 11.93 11.34 11.27ZM19.8 6.40999C18.67 6.37999 17.46 6.51999 16.3 6.79999C15.3 6.95999 14.67 7.97999 14.91 9.04999C15.15 10.05 16.09 10.67 17.1 10.43C18.03 10.24 18.91 10.14 19.83 10.14C25.71 10.23 30.56 14.94 30.66 20.64C30.7 23.59 30.55 26.5 30.22 29.5C30.1 30.52 30.84 31.38 31.87 31.57C33.18 31.66 33.86 30.64 33.94 29.92C34.3 26.82 34.46 23.7 34.41 20.58C34.28 12.88 27.77 6.51999 19.81 6.39999L19.8 6.40999Z" fill="white"/>
</g>
<defs>
<clipPath id="clip0_1658_4990">
<rect width="40" height="40" fill="white"/>
</clipPath>
</defs>
</svg>
