<svg width="40" height="40" viewBox="0 0 40 40" fill="none" xmlns="http://www.w3.org/2000/svg">
<g clip-path="url(#clip0_1658_5073)">
<path d="M38.28 23.99C39.23 23.99 40 23.22 40 22.27C40 22.08 39.97 21.9 39.89 21.73C39.38 20.58 36.86 15.99 29 15.99C21.14 15.99 18.61 20.58 18.11 21.73C18.03 21.9 18 22.09 18 22.27C18 23.22 18.77 23.99 19.72 23.99H38.28ZM23 19.99C23 19.44 23.45 18.99 24 18.99C24.55 18.99 25 19.44 25 19.99C25 20.54 24.55 20.99 24 20.99C23.45 20.99 23 20.54 23 19.99ZM29 17.99C29.55 17.99 30 18.44 30 18.99C30 19.54 29.55 19.99 29 19.99C28.45 19.99 28 19.54 28 18.99C28 18.44 28.45 17.99 29 17.99ZM33 19.99C33 19.44 33.45 18.99 34 18.99C34.55 18.99 35 19.44 35 19.99C35 20.54 34.55 20.99 34 20.99C33.45 20.99 33 20.54 33 19.99ZM18 27.99C18 29.1 18.89 29.99 20 29.99H38C39.11 29.99 40 29.1 40 27.99C40 26.88 39.11 25.99 38 25.99H20C18.89 25.99 18 26.88 18 27.99ZM18 32.99C18 34.65 19.34 35.99 21 35.99H37C38.66 35.99 40 34.65 40 32.99C40 32.44 39.55 31.99 39 31.99H19C18.45 31.99 18 32.44 18 32.99Z" fill="#13EF93"/>
<path opacity="0.4" d="M12.18 6.7C12.56 5.12 13.97 4 15.59 4H17.51C18.34 4 19.01 4.67 19.01 5.5C19.01 6.33 18.34 7 17.51 7H15.59C15.36 7 15.16 7.16 15.1 7.39L14.02 12H22.01C23.12 12 24.01 12.89 24.01 14C24.01 14.24 23.97 14.48 23.89 14.69C22.73 15.03 21.72 15.48 20.85 16H2C0.89 16 0 15.11 0 14C0 12.89 0.89 12 2 12H10.93L12.18 6.7ZM18.29 18C17.14 19.19 16.54 20.34 16.28 20.94C16.07 21.42 16.01 21.9 16.01 22.28C16.01 23.39 16.5 24.4 17.28 25.08C16.5 25.81 16.01 26.84 16.01 28C16.01 29.04 16.41 30 17.07 30.71C16.42 31.26 16.01 32.08 16.01 33C16.01 34.12 16.39 35.16 17.01 36H6.76C5.2 36 3.9 34.81 3.77 33.25L2.5 18H18.29Z" fill="#13EF93"/>
</g>
<defs>
<clipPath id="clip0_1658_5073">
<rect width="40" height="32" fill="white" transform="translate(0 4)"/>
</clipPath>
</defs>
</svg>
