<svg width="40" height="40" viewBox="0 0 40 40" fill="none" xmlns="http://www.w3.org/2000/svg">
<path opacity="0.4" d="M30 37C35.5228 37 40 32.5228 40 27C40 21.4772 35.5228 17 30 17C24.4772 17 20 21.4772 20 27C20 32.5228 24.4772 37 30 37Z" fill="#13EF93"/>
<path d="M28.0209 24.7824C28.0083 24.7028 28.0398 24.6377 28.0649 24.5871C28.1027 24.522 28.1782 24.4351 28.3292 24.276C28.6501 24.1457 29.1221 24.0444 29.5122 24.0517C29.9715 24.0589 30.5882 24.1819 31.1671 24.3483C31.7082 24.5003 32.2557 24.0589 32.3878 23.5018C32.5262 22.8796 32.1927 22.2574 31.6579 22.0982C31.3055 21.9969 30.928 21.9028 30.5316 21.8377V21.1576C30.5316 20.5209 30.0785 20 29.5248 20C28.971 20 28.518 20.5209 28.518 21.1576V21.845C28.1342 21.9318 27.744 22.0765 27.3287 22.3008C26.6366 22.7566 25.9318 23.632 26.0073 24.9922C26.0702 26.1499 26.7435 26.83 27.3665 27.2134C27.9265 27.5535 28.6124 27.7778 29.1661 27.8935L29.2794 27.9948C29.9212 28.2047 30.3491 28.3711 30.7329 28.5953C31.0224 28.7907 30.9783 28.9065 30.9783 29.0078C31.0412 29.1814 31.0035 29.2755 30.9154 29.3333C30.928 29.3406 30.8588 29.4925 30.6637 29.5793C30.4246 29.7602 29.9778 29.8543 29.5562 29.7747C28.9018 29.8181 28.3921 29.6083 27.6748 29.3478C27.5552 29.3044 27.4357 29.261 27.3098 29.2176C26.775 29.0295 26.2087 29.3695 26.0451 29.9773C25.8815 30.585 26.1772 31.2362 26.7058 31.4243C26.8127 31.4605 26.9134 31.4388 27.0267 31.5401C27.4672 31.7065 27.9768 31.8946 28.518 32.0176V32.8424C28.518 33.4863 28.971 34 29.5248 34C30.0785 34 30.5316 33.4863 30.5316 32.8424V32.061C30.9217 31.9814 31.3181 31.8367 31.6831 31.6124C32.4382 31.1349 33.08 30.2594 32.9919 28.9354C33.0171 27.7705 32.4004 27.0398 31.7586 26.6057C31.1671 26.2005 30.4183 25.9618 29.8331 25.7664H29.8268C29.1661 25.5494 28.6753 25.3902 28.3229 25.1731C28.0209 24.985 28.0209 24.8837 28.0209 24.8548V24.7824Z" fill="#13EF93"/>
<path d="M32.2693 2C33.3289 2 34.2861 2.60067 34.7373 3.54353C35.1954 4.48639 35.0518 5.60202 34.3271 6.40922L27.1008 15.2014C21.6178 16.315 17.4406 21.1001 17.4406 26.8369C17.4406 28.6862 17.9328 30.4409 18.6985 32C18.5823 31.946 18.4798 31.8785 18.3772 31.8043L14.0018 28.5647C13.448 28.1597 13.1267 27.5186 13.1267 26.8369V21.4983L0.618346 6.40922C-0.050961 5.60202 -0.189061 4.48639 0.263525 3.54353C0.71611 2.60067 1.67803 2 2.73497 2H32.2693Z" fill="#13EF93"/>
</svg>
