<svg width="40" height="40" viewBox="0 0 40 40" fill="none" xmlns="http://www.w3.org/2000/svg">
<path fill-rule="evenodd" clip-rule="evenodd" d="M40 27C40 32.5228 35.5228 37 30 37C24.4772 37 20 32.5228 20 27C20 21.4772 24.4772 17 30 17C35.5228 17 40 21.4772 40 27ZM28.0649 24.5871C28.0398 24.6377 28.0083 24.7028 28.0209 24.7824V24.8548C28.0209 24.8837 28.0209 24.985 28.3229 25.1731C28.6684 25.3859 29.1468 25.5431 29.788 25.7536L29.8268 25.7664H29.8331C29.8612 25.7758 29.8898 25.7853 29.9186 25.7949C30.49 25.9851 31.1955 26.22 31.7586 26.6057C32.4004 27.0398 33.0171 27.7705 32.9919 28.9354C33.08 30.2594 32.4382 31.1349 31.6831 31.6124C31.3181 31.8367 30.9217 31.9814 30.5316 32.061V32.8424C30.5316 33.4863 30.0785 34 29.5248 34C28.971 34 28.518 33.4863 28.518 32.8424V32.0176C27.9768 31.8946 27.4672 31.7065 27.0267 31.5401C26.9496 31.4711 26.8784 31.4592 26.8071 31.4472C26.7735 31.4415 26.74 31.4359 26.7058 31.4243C26.1772 31.2362 25.8815 30.585 26.0451 29.9773C26.2087 29.3695 26.775 29.0295 27.3098 29.2176C27.4356 29.261 27.5551 29.3043 27.6746 29.3477L27.6748 29.3478C27.7296 29.3677 27.7831 29.3873 27.8356 29.4065C28.4708 29.6388 28.9518 29.8148 29.5562 29.7747C29.9778 29.8543 30.4246 29.7602 30.6637 29.5793C30.8588 29.4925 30.928 29.3406 30.9154 29.3333C31.0035 29.2755 31.0412 29.1814 30.9783 29.0078C30.9783 28.9962 30.9789 28.9845 30.9795 28.9725C30.984 28.8791 30.9894 28.7685 30.7329 28.5953C30.3491 28.3711 29.9212 28.2047 29.2794 27.9948L29.1661 27.8935C28.6124 27.7778 27.9265 27.5535 27.3665 27.2134C26.7435 26.83 26.0702 26.1499 26.0073 24.9922C25.9318 23.632 26.6366 22.7566 27.3287 22.3008C27.744 22.0765 28.1342 21.9318 28.518 21.845V21.1576C28.518 20.5209 28.971 20 29.5248 20C30.0785 20 30.5316 20.5209 30.5316 21.1576V21.8377C30.928 21.9028 31.3055 21.9969 31.6579 22.0982C32.1927 22.2574 32.5262 22.8796 32.3878 23.5018C32.2557 24.0589 31.7082 24.5003 31.1671 24.3483C30.5882 24.1819 29.9715 24.0589 29.5122 24.0517C29.1221 24.0444 28.6501 24.1457 28.3292 24.276C28.1782 24.4351 28.1027 24.522 28.0649 24.5871Z" fill="white"/>
<path d="M32.2693 2C33.3289 2 34.2861 2.60067 34.7373 3.54353C35.1954 4.48639 35.0518 5.60202 34.3271 6.40922L27.1008 15.2013C21.6178 16.315 17.4406 21.1001 17.4406 26.8369C17.4406 28.6862 17.9328 30.4409 18.6985 32C18.5823 31.946 18.4798 31.8785 18.3772 31.8043L14.0018 28.5647C13.448 28.1597 13.1267 27.5186 13.1267 26.8369V21.4983L0.618346 6.40922C-0.050961 5.60202 -0.189061 4.48639 0.263525 3.54353C0.71611 2.60067 1.67803 2 2.73497 2H32.2693Z" fill="white"/>
</svg>
