<svg width="40" height="40" viewBox="0 0 40 40" fill="none" xmlns="http://www.w3.org/2000/svg">
<g clip-path="url(#clip0_1979_10516)">
<path d="M31 16C31.1688 16 31.3312 16.0062 31.5 16.0125C29.725 9.10625 23.4625 4 16 4C7.1625 4 0 11.1625 0 20C0 28.8375 7.1625 36 16 36C18.4688 36 20.8125 35.4375 22.9 34.4375C21.1 32.4813 20 29.8687 20 27C20 20.925 24.925 16 31 16ZM20 26C20 28.2062 18.2062 30 16 30C13.7937 30 12 28.2062 12 26C12 24.3188 13.0312 22.8813 14.5 22.2938V9.5C14.5 8.66875 15.1687 8 16 8C16.8312 8 17.5 8.66875 17.5 9.5V22.2938C18.9688 22.8875 20 24.325 20 26ZM9 11C9.53043 11 10.0391 11.2107 10.4142 11.5858C10.7893 11.9609 11 12.4696 11 13C11 13.5304 10.7893 14.0391 10.4142 14.4142C10.0391 14.7893 9.53043 15 9 15C8.46957 15 7.96086 14.7893 7.58579 14.4142C7.21071 14.0391 7 13.5304 7 13C7 12.4696 7.21071 11.9609 7.58579 11.5858C7.96086 11.2107 8.46957 11 9 11ZM4 20C4 19.4696 4.21071 18.9609 4.58579 18.5858C4.96086 18.2107 5.46957 18 6 18C6.53043 18 7.03914 18.2107 7.41421 18.5858C7.78929 18.9609 8 19.4696 8 20C8 20.5304 7.78929 21.0391 7.41421 21.4142C7.03914 21.7893 6.53043 22 6 22C5.46957 22 4.96086 21.7893 4.58579 21.4142C4.21071 21.0391 4 20.5304 4 20ZM21 13C21 12.4696 21.2107 11.9609 21.5858 11.5858C21.9609 11.2107 22.4696 11 23 11C23.5304 11 24.0391 11.2107 24.4142 11.5858C24.7893 11.9609 25 12.4696 25 13C25 13.5304 24.7893 14.0391 24.4142 14.4142C24.0391 14.7893 23.5304 15 23 15C22.4696 15 21.9609 14.7893 21.5858 14.4142C21.2107 14.0391 21 13.5304 21 13ZM31 36C33.3869 36 35.6761 35.0518 37.364 33.364C39.0518 31.6761 40 29.3869 40 27C40 24.6131 39.0518 22.3239 37.364 20.636C35.6761 18.9482 33.3869 18 31 18C28.6131 18 26.3239 18.9482 24.636 20.636C22.9482 22.3239 22 24.6131 22 27C22 29.3869 22.9482 31.6761 24.636 33.364C26.3239 35.0518 28.6131 36 31 36ZM33.9938 21.9375C34.2625 22.1688 34.3312 22.5562 34.1562 22.8687L32.275 26.25H34.5C34.825 26.25 35.1125 26.4563 35.2125 26.7625C35.3125 27.0688 35.2062 27.4062 34.95 27.6L28.95 32.1C28.6688 32.3125 28.275 32.3 28.0063 32.0625C27.7375 31.825 27.6688 31.4438 27.8438 31.1313L29.725 27.75H27.5C27.175 27.75 26.8875 27.5437 26.7875 27.2375C26.6875 26.9312 26.7937 26.5938 27.05 26.4L33.05 21.9C33.3312 21.6875 33.725 21.7 33.9938 21.9375Z" fill="white"/>
</g>
<defs>
<clipPath id="clip0_1979_10516">
<rect width="40" height="32" fill="white" transform="translate(0 4)"/>
</clipPath>
</defs>
</svg>
