<svg width="40" height="40" viewBox="0 0 40 40" fill="none" xmlns="http://www.w3.org/2000/svg">
<path d="M22 27C22 24.6131 22.9482 22.3239 24.636 20.636C26.3239 18.9482 28.6131 18 31 18C33.3869 18 35.6761 18.9482 37.364 20.636C39.0518 22.3239 40 24.6131 40 27C40 29.3869 39.0518 31.6761 37.364 33.364C35.6761 35.0518 33.3869 36 31 36C28.6131 36 26.3239 35.0518 24.636 33.364C22.9482 31.6761 22 29.3869 22 27ZM34.1562 22.8625C34.3312 22.55 34.2625 22.1687 33.9938 21.9312C33.725 21.6937 33.3312 21.6812 33.05 21.8937L27.05 26.3937C26.7937 26.5875 26.6875 26.925 26.7875 27.2313C26.8875 27.5375 27.175 27.7437 27.5 27.7437H29.725L27.8438 31.1313C27.6688 31.4438 27.7375 31.825 28.0063 32.0625C28.275 32.3 28.6688 32.3125 28.95 32.1L34.95 27.6C35.2063 27.4063 35.3125 27.0688 35.2125 26.7625C35.1125 26.4563 34.825 26.25 34.5 26.25H32.275L34.1562 22.8625Z" fill="#13EF93"/>
<path opacity="0.4" d="M31.5 16.0125C31.3375 16.0062 31.1688 16 31 16C24.925 16 20 20.925 20 27C20 29.8688 21.1 32.4813 22.9 34.4375C20.8125 35.4375 18.4688 36 16 36C7.1625 36 0 28.8375 0 20C0 11.1625 7.1625 4 16 4C23.4625 4 29.725 9.10625 31.5 16.0125ZM16 30C18.2062 30 20 28.2062 20 26C20 24.3188 18.9688 22.8813 17.5 22.2938V9.5C17.5 8.66875 16.8313 8 16 8C15.1687 8 14.5 8.66875 14.5 9.5V22.2938C13.0312 22.8875 12 24.325 12 26C12 28.2062 13.7938 30 16 30ZM11 13C11 12.4696 10.7893 11.9609 10.4142 11.5858C10.0391 11.2107 9.53043 11 9 11C8.46957 11 7.96086 11.2107 7.58579 11.5858C7.21071 11.9609 7 12.4696 7 13C7 13.5304 7.21071 14.0391 7.58579 14.4142C7.96086 14.7893 8.46957 15 9 15C9.53043 15 10.0391 14.7893 10.4142 14.4142C10.7893 14.0391 11 13.5304 11 13ZM6 22C6.53043 22 7.03914 21.7893 7.41421 21.4142C7.78929 21.0391 8 20.5304 8 20C8 19.4696 7.78929 18.9609 7.41421 18.5858C7.03914 18.2107 6.53043 18 6 18C5.46957 18 4.96086 18.2107 4.58579 18.5858C4.21071 18.9609 4 19.4696 4 20C4 20.5304 4.21071 21.0391 4.58579 21.4142C4.96086 21.7893 5.46957 22 6 22ZM23 15C23.5304 15 24.0391 14.7893 24.4142 14.4142C24.7893 14.0391 25 13.5304 25 13C25 12.4696 24.7893 11.9609 24.4142 11.5858C24.0391 11.2107 23.5304 11 23 11C22.4696 11 21.9609 11.2107 21.5858 11.5858C21.2107 11.9609 21 12.4696 21 13C21 13.5304 21.2107 14.0391 21.5858 14.4142C21.9609 14.7893 22.4696 15 23 15Z" fill="#13EF93"/>
</svg>
