<svg width="40" height="40" viewBox="0 0 40 40" fill="none" xmlns="http://www.w3.org/2000/svg">
<path d="M15.3762 1H23.6887L24.9652 6.81875C26.1379 7.30117 27.2363 7.93945 28.2309 8.70391L33.9086 6.89297L38.0648 14.0922L33.6562 18.1074C33.7379 18.7234 33.7824 19.3543 33.7824 19.9926C33.7824 20.6309 33.7379 21.2617 33.6562 21.8777L38.0648 25.893L33.9086 33.0922L28.2309 31.2812C27.2363 32.0457 26.1379 32.684 24.9652 33.1664L23.6887 39H15.3762L14.0996 33.1813C12.927 32.6988 11.8285 32.0605 10.834 31.2961L5.15625 33.0996L1 25.9004L5.40859 21.8852C5.32695 21.2691 5.28242 20.6383 5.28242 20C5.28242 19.3617 5.32695 18.7309 5.40859 18.1148L1 14.0996L5.15625 6.90039L10.834 8.71133C11.8285 7.94688 12.927 7.30859 14.0996 6.82617L15.3762 1ZM21.8926 13.068L22.0855 11.8953L19.7402 11.502L19.5473 12.6746L17.1723 26.9246L16.9793 28.0973L19.3246 28.4906L19.5176 27.318L21.8926 13.068ZM14.4336 17.8699L15.2723 17.0312L13.5949 15.3539L12.7562 16.1926L9.7875 19.1613L8.94883 20L9.7875 20.8387L12.7562 23.8074L13.5949 24.6461L15.2723 22.9688L14.4336 22.1301L12.3035 20L14.4336 17.8699ZM26.3086 16.1926L25.4699 15.3539L23.7926 17.0312L24.6313 17.8699L26.7613 20L24.6313 22.1301L23.7926 22.9688L25.4699 24.6461L26.3086 23.8074L29.2773 20.8387L30.116 20L29.2773 19.1613L26.3086 16.1926Z" fill="white"/>
</svg>
