<svg width="40" height="40" viewBox="0 0 40 40" fill="none" xmlns="http://www.w3.org/2000/svg">
<path d="M37.3375 15.1906C37.8497 14.7305 38.05 14.0105 37.8125 13.3648C37.486 12.4816 37.0926 11.6355 36.6399 10.8191L36.2911 10.218C35.8012 9.40156 35.252 8.62969 34.6508 7.90234C34.2129 7.36797 33.4856 7.18984 32.8325 7.39766L29.8786 8.33281C29.1364 8.57031 28.3348 8.41445 27.6743 7.99141C27.3106 7.76133 26.9395 7.53867 26.5536 7.3457C25.8633 6.98945 25.329 6.36602 25.1582 5.60898L24.4977 2.58828C24.3493 1.91289 23.8297 1.37852 23.1469 1.26719C22.1301 1.08906 21.0762 1 20 1C18.9239 1 17.87 1.08906 16.8457 1.25977C16.1629 1.37109 15.6434 1.90547 15.495 2.58086L14.8344 5.60156C14.6711 6.35859 14.1293 6.98203 13.4391 7.33828C13.0532 7.53867 12.6821 7.75391 12.3184 7.98398C11.6653 8.40703 10.8563 8.55547 10.1141 8.32539L7.16762 7.39023C6.5145 7.18242 5.78715 7.36797 5.34926 7.89492C4.74809 8.62227 4.19887 9.39414 3.70903 10.2105L3.3602 10.8117C2.90747 11.6281 2.51411 12.4742 2.18754 13.3574C1.95004 14.0031 2.15043 14.723 2.66254 15.1832L4.9559 17.2687C5.52739 17.7957 5.802 18.5676 5.76489 19.3395C5.75747 19.5547 5.75004 19.7699 5.75004 19.9926C5.75004 20.2152 5.75747 20.4305 5.76489 20.6457C5.802 21.425 5.53481 22.1969 4.9559 22.7164L2.66254 24.8094C2.15043 25.2695 1.95004 25.9895 2.18754 26.6352C2.51411 27.5184 2.90747 28.3645 3.3602 29.1809L3.70903 29.782C4.19887 30.5984 4.74809 31.3703 5.34926 32.0977C5.78715 32.632 6.5145 32.8102 7.16762 32.6023L10.1141 31.6672C10.8563 31.4297 11.6579 31.5855 12.3184 32.0086C12.6821 32.2387 13.0532 32.4613 13.4391 32.6543C14.1293 33.0105 14.6637 33.634 14.8344 34.391L15.495 37.4117C15.6434 38.0871 16.1629 38.6215 16.8457 38.7328C17.87 38.9035 18.9239 38.9926 20 38.9926C21.0762 38.9926 22.1301 38.9035 23.1543 38.7328C23.8372 38.6215 24.3567 38.0871 24.5051 37.4117L25.1657 34.391C25.329 33.634 25.8633 33.0105 26.561 32.6543C26.9469 32.4539 27.318 32.2387 27.6817 32.0086C28.3348 31.5855 29.1438 31.4371 29.886 31.6672L32.8325 32.6023C33.4856 32.8102 34.2129 32.6246 34.6508 32.0977C35.252 31.3703 35.8012 30.5984 36.2911 29.782L36.6399 29.1809C37.0926 28.3645 37.4786 27.5184 37.8125 26.6352C38.05 25.9895 37.8497 25.2695 37.3375 24.8094L35.0442 22.7238C34.4727 22.1969 34.1981 21.425 34.2352 20.6531C34.2426 20.4379 34.25 20.2227 34.25 20C34.25 19.7773 34.2426 19.5621 34.2352 19.3469C34.1981 18.5676 34.4653 17.7957 35.0442 17.2762L37.3375 15.1906ZM20 12.875C21.8897 12.875 23.702 13.6257 25.0382 14.9619C26.3744 16.2981 27.125 18.1103 27.125 20C27.125 21.8897 26.3744 23.7019 25.0382 25.0381C23.702 26.3743 21.8897 27.125 20 27.125C18.1104 27.125 16.2981 26.3743 14.9619 25.0381C13.6257 23.7019 12.875 21.8897 12.875 20C12.875 18.1103 13.6257 16.2981 14.9619 14.9619C16.2981 13.6257 18.1104 12.875 20 12.875Z" fill="#13EF93"/>
<path opacity="0.4" d="M15.25 20C15.25 18.7402 15.7504 17.532 16.6412 16.6412C17.532 15.7504 18.7402 15.25 20 15.25C21.2598 15.25 22.468 15.7504 23.3588 16.6412C24.2496 17.532 24.75 18.7402 24.75 20C24.75 21.2598 24.2496 22.468 23.3588 23.3588C22.468 24.2496 21.2598 24.75 20 24.75C18.7402 24.75 17.532 24.2496 16.6412 23.3588C15.7504 22.468 15.25 21.2598 15.25 20Z" fill="#13EF93"/>
</svg>
