<svg width="40" height="40" viewBox="0 0 40 40" fill="none" xmlns="http://www.w3.org/2000/svg">
<path d="M37.8051 13.3648C38.0426 14.0105 37.8422 14.7305 37.3301 15.1906L34.1165 18.1148C34.1981 18.7309 34.2426 19.3617 34.2426 20C34.2426 20.6383 34.1981 21.2691 34.1165 21.8852L37.3301 24.8094C37.8422 25.2695 38.0426 25.9895 37.8051 26.6352C37.4786 27.5184 37.0852 28.3645 36.6325 29.1809L36.2836 29.782C35.7938 30.5984 35.2446 31.3703 34.6434 32.0977C34.2055 32.632 33.4782 32.8102 32.825 32.6023L28.6911 31.2887C27.6965 32.0531 26.5981 32.6914 25.4254 33.1738L24.4977 37.4117C24.3493 38.0871 23.8297 38.6215 23.1469 38.7328C22.1227 38.9035 21.0688 38.9926 19.9926 38.9926C18.9164 38.9926 17.8625 38.9035 16.8383 38.7328C16.1555 38.6215 15.636 38.0871 15.4875 37.4117L14.5598 33.1738C13.3872 32.6914 12.2887 32.0531 11.2942 31.2887L7.16762 32.6098C6.5145 32.8176 5.78715 32.632 5.34926 32.1051C4.74809 31.3777 4.19887 30.6059 3.70903 29.7895L3.3602 29.1883C2.90747 28.3719 2.51411 27.5258 2.18754 26.6426C1.95004 25.9969 2.15043 25.277 2.66254 24.8168L5.87622 21.8926C5.79457 21.2691 5.75004 20.6383 5.75004 20C5.75004 19.3617 5.79457 18.7309 5.87622 18.1148L2.66254 15.1906C2.15043 14.7305 1.95004 14.0105 2.18754 13.3648C2.51411 12.4816 2.90747 11.6355 3.3602 10.8191L3.70903 10.218C4.19887 9.40156 4.74809 8.62969 5.34926 7.90234C5.78715 7.36797 6.5145 7.18984 7.16762 7.39766L11.3016 8.71133C12.2961 7.94688 13.3946 7.30859 14.5672 6.82617L15.495 2.58828C15.6434 1.91289 16.1629 1.37852 16.8457 1.26719C17.87 1.08906 18.9239 1 20 1C21.0762 1 22.1301 1.08906 23.1543 1.25977C23.8372 1.37109 24.3567 1.90547 24.5051 2.58086L25.4329 6.81875C26.6055 7.30117 27.704 7.93945 28.6985 8.70391L32.8325 7.39023C33.4856 7.18242 34.2129 7.36797 34.6508 7.89492C35.252 8.62227 35.8012 9.39414 36.2911 10.2105L36.6399 10.8117C37.0926 11.6281 37.486 12.4742 37.8125 13.3574L37.8051 13.3648ZM20 25.9375C21.5748 25.9375 23.085 25.3119 24.1985 24.1984C25.312 23.0849 25.9375 21.5747 25.9375 20C25.9375 18.4253 25.312 16.9151 24.1985 15.8016C23.085 14.6881 21.5748 14.0625 20 14.0625C18.4253 14.0625 16.9151 14.6881 15.8016 15.8016C14.6881 16.9151 14.0625 18.4253 14.0625 20C14.0625 21.5747 14.6881 23.0849 15.8016 24.1984C16.9151 25.3119 18.4253 25.9375 20 25.9375Z" fill="white"/>
</svg>
