<svg width="40" height="40" viewBox="0 0 40 40" fill="none" xmlns="http://www.w3.org/2000/svg">
<path d="M21.2961 11.7044C21.9419 11.8158 22.3799 12.4245 22.276 13.0703L19.9005 27.3231C19.7892 27.9689 19.1805 28.4069 18.5346 28.303C17.8888 28.1991 17.4508 27.5829 17.5548 26.9371L19.9302 12.6843C20.0416 12.0385 20.6503 11.6005 21.2961 11.7044ZM14.8156 16.1955C15.2758 16.6558 15.2758 17.413 14.8156 17.8732L12.6851 20.0037L14.8156 22.1342C15.2758 22.5945 15.2758 23.3516 14.8156 23.8119C14.3553 24.2721 13.5981 24.2721 13.1379 23.8119L10.1685 20.8425C9.7083 20.3823 9.7083 19.6251 10.1685 19.1649L13.1379 16.1955C13.5981 15.7353 14.3553 15.7353 14.8156 16.1955ZM25.0152 16.1955C25.4754 15.7353 26.2326 15.7353 26.6929 16.1955L29.6622 19.1649C30.1224 19.6251 30.1224 20.3823 29.6622 20.8425L26.6929 23.8119C26.2326 24.2721 25.4754 24.2721 25.0152 23.8119C24.555 23.3516 24.555 22.5945 25.0152 22.1342L27.1457 20.0037L25.0152 17.8732C24.555 17.413 24.555 16.6558 25.0152 16.1955Z" fill="#13EF93"/>
<path opacity="0.4" d="M37.7238 13.3673C37.9614 14.0131 37.761 14.7332 37.2488 15.1934L34.9549 17.2794C34.3834 17.8064 34.1087 18.5784 34.1458 19.3505C34.1532 19.5657 34.1606 19.781 34.1606 20.0037C34.1606 20.2264 34.1532 20.4417 34.1458 20.657C34.1087 21.4364 34.3759 22.2084 34.9549 22.7281L37.2488 24.814C37.761 25.2743 37.9614 25.9943 37.7238 26.6402C37.3972 27.5235 37.0038 28.3698 36.551 29.1864L36.2021 29.7877C35.7121 30.6042 35.1628 31.3762 34.5615 32.1037C34.1235 32.6382 33.396 32.8164 32.7428 32.6085L29.7957 31.6732C29.0534 31.4356 28.2517 31.5915 27.591 32.0147C27.2273 32.2448 26.8561 32.4675 26.4701 32.6605C25.7797 33.0168 25.2452 33.6404 25.0745 34.3975L24.4138 37.4188C24.2654 38.0944 23.7457 38.6288 23.0628 38.7402C22.0384 38.9109 20.9842 39 19.9079 39C18.8315 39 17.7774 38.9109 16.7529 38.7402C16.07 38.6288 15.5504 38.0944 15.4019 37.4188L14.7412 34.3975C14.5779 33.6404 14.036 33.0168 13.3456 32.6605C12.9596 32.4601 12.5885 32.2448 12.2247 32.0147C11.5715 31.5915 10.7623 31.4356 10.02 31.6732L7.08036 32.6159C6.4271 32.8238 5.69962 32.6382 5.26164 32.1112C4.66035 31.3837 4.11103 30.6116 3.62109 29.7951L3.27219 29.1938C2.81937 28.3772 2.42593 27.531 2.09931 26.6476C1.86176 26.0018 2.06219 25.2817 2.5744 24.8214L4.86821 22.7355C5.4398 22.2084 5.71447 21.4364 5.67735 20.6644C5.66993 20.4491 5.6625 20.2338 5.6625 20.0111C5.6625 19.7884 5.66993 19.5732 5.67735 19.3579C5.71447 18.5784 5.44723 17.8064 4.86821 17.2868L2.5744 15.1934C2.06219 14.7332 1.86176 14.0131 2.09931 13.3673C2.42593 12.4839 2.81937 11.6376 3.27219 10.8211L3.62109 10.2198C4.11103 9.4032 4.66035 8.63118 5.26164 7.90369C5.69962 7.36921 6.4271 7.19105 7.08036 7.39891L10.0274 8.33425C10.7698 8.57179 11.5715 8.4159 12.2321 7.99277C12.5959 7.76265 12.9671 7.53995 13.3531 7.34694C14.0434 6.99062 14.5779 6.36706 14.7487 5.60988L15.4093 2.58859C15.5578 1.91307 16.0774 1.37859 16.7604 1.26724C17.7848 1.08908 18.8389 1 19.9153 1C20.9917 1 22.0458 1.08908 23.0702 1.25982C23.7531 1.37117 24.2728 1.90565 24.4212 2.58117L25.0819 5.60246C25.2452 6.35964 25.7797 6.9832 26.4775 7.33952C26.8635 7.53995 27.2347 7.75523 27.5984 7.98535C28.2517 8.40848 29.0608 8.55694 29.8032 8.32682L32.7502 7.39148C33.4035 7.18363 34.131 7.36921 34.5689 7.89627C35.1702 8.62375 35.7195 9.39578 36.2095 10.2123L36.5584 10.8136C37.0112 11.6302 37.4046 12.4765 37.7313 13.3598L37.7238 13.3673ZM22.2685 13.0777C22.3798 12.4319 21.9419 11.8158 21.2886 11.7119C20.6354 11.6079 20.0266 12.0385 19.9227 12.6917L17.5472 26.9445C17.4359 27.5903 17.8739 28.2065 18.5271 28.3104C19.1804 28.4143 19.7891 27.9838 19.893 27.3305L22.2685 13.0777ZM14.8155 17.8732C15.2757 17.413 15.2757 16.6558 14.8155 16.1955C14.3552 15.7353 13.598 15.7353 13.1378 16.1955L10.1685 19.1649C9.70821 19.6251 9.70821 20.3823 10.1685 20.8425L13.1378 23.8119C13.598 24.2721 14.3552 24.2721 14.8155 23.8119C15.2757 23.3516 15.2757 22.5945 14.8155 22.1342L12.685 20.0037L14.8155 17.8732ZM26.6928 16.1955C26.2325 15.7353 25.4754 15.7353 25.0151 16.1955C24.5549 16.6558 24.5549 17.413 25.0151 17.8732L27.1456 20.0037L25.0151 22.1342C24.5549 22.5945 24.5549 23.3516 25.0151 23.8119C25.4754 24.2721 26.2325 24.2721 26.6928 23.8119L29.6621 20.8425C30.1224 20.3823 30.1224 19.6251 29.6621 19.1649L26.6928 16.1955Z" fill="#13EF93"/>
</svg>
