<svg width="40" height="40" viewBox="0 0 40 40" fill="none" xmlns="http://www.w3.org/2000/svg">
<path d="M10 8C10 5.79 11.79 4 14 4C16.21 4 18 5.79 18 8C18 10.21 16.21 12 14 12C11.79 12 10 10.21 10 8ZM32 12C32 9.79 33.79 8 36 8C38.21 8 40 9.79 40 12C40 14.21 38.21 16 36 16C33.79 16 32 14.21 32 12ZM40 32C40 34.21 38.21 36 36 36C33.79 36 32 34.21 32 32C32 29.79 33.79 28 36 28C38.21 28 40 29.79 40 32ZM0 23C0 20.79 1.79 19 4 19C6.21 19 8 20.79 8 23C8 25.21 6.21 27 4 27C1.79 27 0 25.21 0 23Z" fill="white"/>
<path d="M19.1 14.2C19.71 14.07 20.35 13.94 21 13.94C23.26 13.94 25.31 14.83 26.89 16.2L32.02 12.38C32.18 13.88 33.1 15.1 34.38 15.66L29.26 19.42C29.73 20.51 30 21.73 30 22.94C30 23.97 29.84 24.92 29.56 25.8L34.06 28.5C32.85 29.17 32.03 30.46 32 31.93L27.49 29.23C25.85 30.88 23.55 32 21 32C16.72 32 13.13 29.01 12.23 25H7.47C7.81 24.41 8.01 23.73 8.01 23C8.01 22.27 7.82 21.59 7.47 20.94H12.23C12.69 18.93 13.87 17.15 15.48 15.89L13.65 11.98C13.77 11.98 13.88 11.99 14 11.99C15.36 11.99 16.56 11.31 17.27 10.28L19.1 14.19V14.2ZM21 28C23.76 28 26 25.76 26 22.94C26 20.12 23.76 17.94 21 17.94C18.24 17.94 15.94 20.23 15.94 22.94C15.94 25.65 18.23 28 21 28Z" fill="white"/>
</svg>
