<svg width="40" height="40" viewBox="0 0 40 40" fill="none" xmlns="http://www.w3.org/2000/svg">
<g clip-path="url(#clip0_1689_4776)">
<path d="M14.88 5.38L17.6 10H11.87C10.14 10 8.75 8.6 8.75 6.88C8.75 5.16 10.15 3.76 11.87 3.76H12.04C13.2 3.76 14.29 4.38 14.88 5.39V5.38ZM5 6.88C5 8.01 5.27 9.07 5.75 10H2.5C1.12 10 0 11.12 0 12.5V17.5C0 18.88 1.12 20 2.5 20H37.5C38.88 20 40 18.88 40 17.5V12.5C40 11.12 38.88 10 37.5 10H34.25C34.73 9.06 35 8 35 6.88C35 3.08 31.92 0 28.12 0H27.95C25.46 0 23.15 1.32 21.88 3.47L20 6.68L18.12 3.48C16.85 1.32 14.54 0 12.05 0H11.88C8.08 0 5 3.08 5 6.88ZM31.25 6.88C31.25 8.61 29.85 10 28.13 10H22.4L25.12 5.38C25.71 4.37 26.79 3.75 27.96 3.75H28.13C29.86 3.75 31.25 5.15 31.25 6.87V6.88ZM2.5 22.5V36.25C2.5 38.32 4.18 40 6.25 40H17.5V22.5H2.5ZM22.5 40H33.75C35.82 40 37.5 38.32 37.5 36.25V22.5H22.5V40Z" fill="white"/>
</g>
<defs>
<clipPath id="clip0_1689_4776">
<rect width="40" height="40" fill="white"/>
</clipPath>
</defs>
</svg>
