<svg width="40" height="40" viewBox="0 0 40 40" fill="none" xmlns="http://www.w3.org/2000/svg">
<g clip-path="url(#clip0_1689_4778)">
<path d="M21.88 3.47C23.15 1.32 25.46 0 27.95 0H28.12C31.92 0 35 3.08 35 6.88C35 10.68 31.92 13.76 28.12 13.76H22.5V20.01H17.5V13.76H11.88C8.08 13.76 5 10.68 5 6.88C5 3.08 8.08 0 11.88 0H12.05C14.54 0 16.85 1.32 18.12 3.47L20 6.67L21.88 3.47ZM14.88 5.37C14.29 4.36 13.21 3.75 12.04 3.75H11.87C10.14 3.75 8.75 5.15 8.75 6.87C8.75 8.59 10.15 9.99 11.87 9.99H17.6L14.88 5.36V5.37ZM22.4 10H28.13C29.86 10 31.25 8.6 31.25 6.88C31.25 5.16 29.85 3.76 28.13 3.76H27.96C26.8 3.76 25.72 4.38 25.12 5.38L22.4 10.01V10ZM17.5 40V22.5H22.5V40H17.5Z" fill="#13EF93"/>
<path opacity="0.4" d="M11.88 13.75H17.5V20H2.5C1.12 20 0 18.88 0 17.5V12.5C0 11.12 1.12 10 2.5 10H5.75C6.89 12.23 9.2 13.75 11.88 13.75ZM37.5 20H22.5V13.75H28.12C30.79 13.75 33.1 12.23 34.24 10H37.49C38.87 10 39.99 11.12 39.99 12.5V17.5C39.99 18.88 38.87 20 37.49 20H37.5ZM2.5 22.5H17.5V40H6.25C4.18 40 2.5 38.32 2.5 36.25V22.5ZM22.5 40V22.5H37.5V36.25C37.5 38.32 35.82 40 33.75 40H22.5Z" fill="#13EF93"/>
</g>
<defs>
<clipPath id="clip0_1689_4778">
<rect width="40" height="40" fill="white"/>
</clipPath>
</defs>
</svg>
