<svg width="40" height="40" viewBox="0 0 40 40" fill="none" xmlns="http://www.w3.org/2000/svg">
<g clip-path="url(#clip0_1767_6633)">
<path d="M20.0001 2C10.0602 2 2 10.0509 2 19.9826C2 27.9278 7.15759 34.6684 14.3096 37.0462C15.2092 37.2127 15.5395 36.6561 15.5395 36.1811C15.5395 35.7523 15.5228 34.3358 15.515 32.8332C10.5074 33.921 9.45068 30.7114 9.45068 30.7114C8.63187 28.6329 7.45209 28.0802 7.45209 28.0802C5.81894 26.9641 7.57519 26.9871 7.57519 26.9871C9.38272 27.1139 10.3345 28.8402 10.3345 28.8402C11.9399 31.5893 14.5454 30.7945 15.5725 30.335C15.7341 29.1728 16.2006 28.3795 16.7154 27.9304C12.7173 27.4757 8.51443 25.9338 8.51443 19.0434C8.51443 17.0801 9.21759 15.4759 10.3691 14.2166C10.1822 13.7637 9.56604 11.9347 10.5434 9.4577C10.5434 9.4577 12.055 8.9744 15.4947 11.301C16.9306 10.9026 18.4704 10.7027 20.0001 10.6959C21.5299 10.7027 23.0709 10.9026 24.5094 11.301C27.945 8.9744 29.4545 9.4577 29.4545 9.4577C30.4343 11.9347 29.8178 13.7637 29.631 14.2166C30.7851 15.4759 31.4835 17.0801 31.4835 19.0434C31.4835 25.9502 27.2726 27.471 23.2644 27.9161C23.91 28.4742 24.4853 29.5686 24.4853 31.2463C24.4853 33.6524 24.4644 35.5889 24.4644 36.1811C24.4644 36.6597 24.7884 37.2204 25.7008 37.0438C32.849 34.6633 38 27.9251 38 19.9826C38 10.0509 29.9409 2 20.0001 2ZM8.74164 27.6166C8.702 27.7059 8.56131 27.7327 8.43313 27.6714C8.30258 27.6127 8.22925 27.4909 8.27158 27.4013C8.31033 27.3093 8.45132 27.2836 8.58157 27.3453C8.71243 27.404 8.78695 27.5269 8.74164 27.6166ZM9.62705 28.4058C9.5412 28.4853 9.37339 28.4484 9.25952 28.3228C9.14178 28.1974 9.11973 28.0297 9.20676 27.949C9.29529 27.8695 9.45804 27.9067 9.57608 28.0321C9.69382 28.159 9.71677 28.3254 9.62705 28.4058ZM10.2345 29.4157C10.1242 29.4922 9.94385 29.4204 9.83237 29.2605C9.72208 29.1006 9.72208 28.9088 9.83475 28.832C9.94653 28.7552 10.1242 28.8243 10.2372 28.983C10.3471 29.1456 10.3471 29.3374 10.2345 29.4157ZM11.2618 30.5852C11.1631 30.6939 10.9529 30.6647 10.7991 30.5164C10.6418 30.3714 10.5979 30.1656 10.6969 30.0569C10.7968 29.948 11.0081 29.9786 11.1631 30.1257C11.3193 30.2705 11.367 30.4777 11.2618 30.5852ZM12.5894 30.98C12.5459 31.1209 12.3435 31.1849 12.1396 31.1251C11.936 31.0634 11.8028 30.8984 11.8439 30.7561C11.8863 30.6144 12.0895 30.5477 12.2949 30.6117C12.4982 30.673 12.6317 30.8368 12.5894 30.98ZM14.1004 31.1475C14.1054 31.2958 13.9325 31.4188 13.7185 31.4215C13.5033 31.4262 13.3292 31.3062 13.3268 31.1603C13.3268 31.0105 13.4959 30.8887 13.7111 30.8852C13.9251 30.881 14.1004 31.0001 14.1004 31.1475ZM15.5847 31.0907C15.6103 31.2354 15.4616 31.384 15.249 31.4236C15.0401 31.4617 14.8466 31.3724 14.8201 31.2288C14.7942 31.0805 14.9456 30.9319 15.1543 30.8935C15.3671 30.8566 15.5576 30.9436 15.5847 31.0907Z" fill="#13EF93"/>
</g>
<defs>
<clipPath id="clip0_1767_6633">
<rect width="40" height="40" fill="white"/>
</clipPath>
</defs>
</svg>
