<svg width="40" height="40" viewBox="0 0 40 40" fill="none" xmlns="http://www.w3.org/2000/svg">
<g clip-path="url(#clip0_1752_4789)">
<path d="M24.37 21.42C24.37 22.96 24.29 24.44 24.14 25.85H11.3C11.15 24.44 11.07 22.96 11.07 21.42C11.07 19.88 11.15 18.4 11.3 16.99H24.14C24.29 18.4 24.37 19.88 24.37 21.42Z" fill="white"/>
<path d="M26.37 16.99H34.89C35.26 18.41 35.45 19.89 35.45 21.42C35.45 22.95 35.26 24.43 34.89 25.85H26.37C26.52 24.42 26.59 22.94 26.59 21.42C26.59 19.9 26.51 18.41 26.37 16.99Z" fill="white"/>
<path d="M23.84 14.78H11.61C12.03 12.26 12.68 10.03 13.48 8.22C14.21 6.59 15.02 5.4 15.8 4.65C16.58 3.92 17.22 3.69 17.72 3.69C18.22 3.69 18.87 3.91 19.64 4.65C20.42 5.4 21.23 6.58 21.96 8.22C22.76 10.02 23.41 12.25 23.83 14.78H23.84Z" fill="white"/>
<path d="M9.37001 14.78H1.29001C3.37001 9.65 7.77001 5.71 13.2 4.28C11.43 6.65 10.06 10.35 9.37001 14.78Z" fill="white"/>
<path d="M0.56 16.99H9.08C8.93 18.42 8.86 19.9 8.86 21.42C8.86 22.94 8.94 24.43 9.08 25.85H0.56C0.19 24.43 0 22.95 0 21.42C0 19.89 0.19 18.41 0.56 16.99Z" fill="white"/>
<path d="M13.48 34.62C12.68 32.82 12.03 30.59 11.61 28.07H23.84C23.42 30.59 22.77 32.82 21.97 34.62C21.24 36.25 20.43 37.44 19.65 38.19C18.87 38.93 18.23 39.15 17.73 39.15C17.23 39.15 16.58 38.93 15.81 38.19C15.03 37.44 14.22 36.26 13.49 34.62H13.48Z" fill="white"/>
<path d="M9.37001 28.07C10.06 32.49 11.43 36.2 13.2 38.57C7.77001 37.14 3.37001 33.2 1.29001 28.07H9.37001Z" fill="white"/>
<path d="M34.16 28.07C32.08 33.2 27.68 37.13 22.26 38.57C24.03 36.2 25.39 32.5 26.09 28.07H34.16Z" fill="white"/>
<path d="M31.77 13.81C31.51 13.81 31.25 13.75 31.03 13.63C30.46 13.35 30.11 12.77 30.11 12.14V11.46H29.03C27.46 11.46 26.19 10.18 26.19 8.62V5.84C24.96 5.17 23.64 4.64 22.26 4.28C24.03 6.65 25.4 10.35 26.09 14.78H34.16C33.92 14.19 33.65 13.61 33.35 13.05L32.76 13.49C32.47 13.7 32.13 13.82 31.77 13.82V13.81Z" fill="white"/>
<path d="M29.03 0C28.17 0 27.46 0.7 27.46 1.57V8.62C27.46 9.48 28.16 10.19 29.03 10.19H31.38V12.15C31.38 12.3 31.46 12.43 31.6 12.5C31.73 12.57 31.89 12.55 32.01 12.46L35.04 10.19H38.44C39.3 10.19 40.01 9.49 40.01 8.62V1.57C40.01 0.71 39.31 0 38.44 0H29.04H29.03Z" fill="white"/>
</g>
<defs>
<clipPath id="clip0_1752_4789">
<rect width="40" height="40" fill="white"/>
</clipPath>
</defs>
</svg>
