<svg width="40" height="40" viewBox="0 0 40 40" fill="none" xmlns="http://www.w3.org/2000/svg">
<g clip-path="url(#clip0_1753_4862)">
<path d="M24.69 22.0451C24.69 23.6051 24.61 25.1051 24.46 26.5351H11.46C11.31 25.1051 11.23 23.6051 11.23 22.0451C11.23 20.4851 11.31 18.9851 11.46 17.5551H24.46C24.61 18.9851 24.69 20.4851 24.69 22.0451Z" fill="#13EF93"/>
<path opacity="0.4" d="M26.71 17.5551H35.34C35.71 18.9951 35.91 20.4951 35.91 22.0451C35.91 23.5951 35.71 25.0951 35.34 26.5351H26.71C26.86 25.0951 26.93 23.5851 26.93 22.0451C26.93 20.5051 26.85 19.0051 26.71 17.5551Z" fill="#13EF93"/>
<path d="M24.15 15.3151H11.76C12.19 12.7651 12.85 10.5051 13.65 8.67512C14.39 7.01512 15.21 5.82512 16 5.06512C16.79 4.32512 17.44 4.09512 17.95 4.09512C18.46 4.09512 19.11 4.31512 19.9 5.06512C20.69 5.82512 21.51 7.02512 22.25 8.67512C23.06 10.4951 23.72 12.7551 24.14 15.3151H24.15Z" fill="#13EF93"/>
<path opacity="0.4" d="M9.49 15.3151H1.3C3.41 10.1151 7.87 6.13512 13.37 4.68512C11.58 7.08512 10.19 10.8351 9.49 15.3151Z" fill="#13EF93"/>
<path opacity="0.4" d="M0.57 17.5551H9.2C9.05 18.9951 8.98 20.5051 8.98 22.0451C8.98 23.5851 9.06 25.0851 9.2 26.5351H0.57C0.2 25.0951 0 23.5951 0 22.0451C0 20.4951 0.2 18.9951 0.57 17.5551Z" fill="#13EF93"/>
<path d="M13.66 35.4151C12.85 33.5951 12.19 31.3351 11.77 28.7751H24.16C23.73 31.3251 23.07 33.5851 22.27 35.4151C21.53 37.0751 20.71 38.2651 19.92 39.0251C19.13 39.7751 18.48 39.9951 17.97 39.9951C17.46 39.9951 16.81 39.7751 16.02 39.0251C15.23 38.2651 14.41 37.0651 13.67 35.4151H13.66Z" fill="#13EF93"/>
<path opacity="0.4" d="M9.49 28.7851C10.19 33.2651 11.58 37.0151 13.37 39.4151C7.87 37.9651 3.41 33.9751 1.31 28.7851H9.5H9.49Z" fill="#13EF93"/>
<path opacity="0.4" d="M34.61 28.7851C32.51 33.9851 28.04 37.9651 22.55 39.4151C24.34 37.0151 25.72 33.2651 26.43 28.7851H34.61Z" fill="#13EF93"/>
<path d="M33.98 0.00512695C37.12 0.00512695 39.67 2.55513 39.67 5.69513C39.67 6.02513 39.41 6.28513 39.08 6.28513C38.75 6.28513 38.49 6.02513 38.49 5.69513C38.49 3.20513 36.47 1.18513 33.98 1.18513C33.65 1.18513 33.39 0.925127 33.39 0.595127C33.39 0.265127 33.66 0.00512695 33.98 0.00512695Z" fill="#13EF93"/>
<path d="M34.18 6.27512C34.6108 6.27512 34.96 5.9259 34.96 5.49512C34.96 5.06434 34.6108 4.71512 34.18 4.71512C33.7492 4.71512 33.4 5.06434 33.4 5.49512C33.4 5.9259 33.7492 6.27512 34.18 6.27512Z" fill="#13EF93"/>
<path d="M33.39 2.9451C33.39 2.6151 33.65 2.3551 33.98 2.3551C35.82 2.3551 37.32 3.8451 37.32 5.6951C37.32 6.0251 37.06 6.2851 36.73 6.2851C36.4 6.2851 36.14 6.0251 36.14 5.6951C36.14 4.5051 35.17 3.5351 33.98 3.5351C33.65 3.5351 33.39 3.2751 33.39 2.9451Z" fill="#13EF93"/>
<path d="M30 0.0351168C30.48 -0.0948832 30.97 0.145117 31.16 0.605117L32.14 2.95512C32.31 3.35512 32.19 3.81512 31.86 4.09512L30.65 5.08512C31.47 6.81512 32.86 8.20512 34.59 9.02512L35.58 7.81512C35.85 7.47512 36.32 7.36512 36.72 7.53512L39.07 8.51512C39.53 8.70512 39.77 9.20512 39.64 9.67512L39.05 11.8351C38.93 12.2651 38.55 12.5551 38.11 12.5551C32.04 12.5551 27.12 7.63512 27.12 1.56512C27.12 1.12512 27.42 0.735117 27.84 0.615117L30 0.0251168V0.0351168Z" fill="#13EF93"/>
<path d="M33.98 0.00512695C37.12 0.00512695 39.67 2.55513 39.67 5.69513C39.67 6.02513 39.41 6.28513 39.08 6.28513C38.75 6.28513 38.49 6.02513 38.49 5.69513C38.49 3.20513 36.47 1.18513 33.98 1.18513C33.65 1.18513 33.39 0.925127 33.39 0.595127C33.39 0.265127 33.66 0.00512695 33.98 0.00512695Z" fill="#13EF93"/>
<path d="M34.18 6.27512C34.6108 6.27512 34.96 5.9259 34.96 5.49512C34.96 5.06434 34.6108 4.71512 34.18 4.71512C33.7492 4.71512 33.4 5.06434 33.4 5.49512C33.4 5.9259 33.7492 6.27512 34.18 6.27512Z" fill="#13EF93"/>
<path d="M33.39 2.9451C33.39 2.6151 33.65 2.3551 33.98 2.3551C35.82 2.3551 37.32 3.8451 37.32 5.6951C37.32 6.0251 37.06 6.2851 36.73 6.2851C36.4 6.2851 36.14 6.0251 36.14 5.6951C36.14 4.5051 35.17 3.5351 33.98 3.5351C33.65 3.5351 33.39 3.2751 33.39 2.9451Z" fill="#13EF93"/>
<path opacity="0.4" d="M26.29 6.14512C25.11 5.52512 23.86 5.03512 22.55 4.68512C24.34 7.08512 25.73 10.8351 26.43 15.3151H34.61C34.37 14.7151 34.09 14.1251 33.79 13.5651C30.32 12.3451 27.55 9.60512 26.3 6.14512H26.29Z" fill="#13EF93"/>
</g>
<defs>
<clipPath id="clip0_1753_4862">
<rect width="40" height="40" fill="white"/>
</clipPath>
</defs>
</svg>
