<svg width="40" height="40" viewBox="0 0 40 40" fill="none" xmlns="http://www.w3.org/2000/svg">
<path d="M20.7457 9.59453L17.9848 15.25H23.6417L20.7457 9.59453ZM10.125 29.5H32.6875C34.655 29.5 36.25 27.905 36.25 25.9375V4.5625C36.25 2.59496 34.6543 1 32.6875 1H10.125C6.18992 1 3 4.18992 3 8.125V31.875C3 35.8101 6.18992 39 10.125 39H33.875C35.1864 39 36.25 37.9364 36.25 36.6918C36.25 35.3113 35.1887 34.25 33.875 34.25H10.2289C8.98871 34.25 7.88063 33.343 7.76336 32.108C7.62605 30.6949 8.73637 29.5 10.125 29.5ZM12.6262 20.6531L19.7512 6.40313C20.1548 5.59859 21.4723 5.59859 21.8753 6.40313L29.0003 20.6531C29.2937 21.2399 29.056 21.9534 28.4692 22.2466C28.3012 22.3379 28.1156 22.375 27.9375 22.375C27.5015 22.375 27.0825 22.135 26.8739 21.7186L24.8277 17.625H16.7973L14.7488 21.7219C14.4594 22.3082 13.7395 22.5383 13.1531 22.2488C12.5668 21.9594 12.3293 21.2469 12.6262 20.6531Z" fill="white"/>
<path d="M33.7804 35.5L33.7804 26C33.7804 25.4478 32.71 25 31.3902 25C30.0704 25 29 25.4478 29 26L29 36L34 36C33.87 35.8156 33.7804 35.675 33.7804 35.5Z" fill="white"/>
</svg>
