<svg width="41" height="41" viewBox="0 0 41 41" fill="none" xmlns="http://www.w3.org/2000/svg">
<path d="M21 7C20.49 7 19.99 7.09 19.52 7.26L1.98998 13.59C1.38998 13.81 0.999984 14.37 0.999984 15C0.999984 15.63 1.38998 16.19 1.98998 16.41L5.60998 17.72C4.58998 19.33 3.99998 21.24 3.99998 23.24V25C3.99998 26.77 3.32998 28.61 2.60998 30.05C2.19998 30.86 1.73998 31.66 1.19998 32.4C0.999984 32.67 0.939984 33.02 1.05998 33.34C1.16998 33.66 1.42998 33.9 1.75998 33.98L5.75998 34.98C6.01998 35.05 6.29998 35 6.52998 34.86C6.75998 34.72 6.91998 34.48 6.96998 34.21C7.50998 31.54 7.23998 29.14 6.83998 27.42C6.63998 26.53 6.36998 25.63 5.99998 24.8V23.26C5.99998 21.37 6.63998 19.59 7.73998 18.17C8.54998 17.2 9.58998 16.42 10.81 15.94L20.62 12.08C21.13 11.88 21.71 12.13 21.91 12.64C22.11 13.15 21.86 13.73 21.35 13.93L11.54 17.79C10.77 18.1 10.08 18.56 9.52998 19.14L19.5 22.74C19.97 22.91 20.47 23 20.98 23C21.49 23 21.99 22.91 22.46 22.74L40 16.43C40.59 16.22 40.99 15.65 40.99 15.02C40.99 14.39 40.6 13.83 40 13.61L22.48 7.26C22.01 7.09 21.51 7 21 7ZM8.99998 30.5C8.99998 32.71 14.37 35 21 35C27.63 35 33 32.71 33 30.5L32.04 21.41L23.15 24.62C22.46 24.87 21.73 24.99 20.99 24.99C20.25 24.99 19.52 24.87 18.83 24.62L9.93998 21.41L8.97998 30.5H8.99998Z" fill="white"/>
</svg>
