<svg width="41" height="41" viewBox="0 0 41 41" fill="none" xmlns="http://www.w3.org/2000/svg">
<path d="M40 14C40 14.65 39.6 15.23 39 15.44L21.33 21.76C20.47 22.07 19.54 22.07 18.68 21.76L6.77001 17.5C7.63001 16.55 8.70001 15.84 10.07 15.51L20.25 12.96C20.79 12.83 21.11 12.28 20.98 11.75C20.85 11.21 20.29 10.88 19.77 11.02L9.59001 13.57C7.60001 14.07 5.92001 15.23 4.76001 16.78L1.01001 15.44C0.41001 15.22 0.0100098 14.65 0.0100098 14C0.0100098 13.35 0.41001 12.77 1.01001 12.56L18.67 6.23C19.53 5.92 20.46 5.92 21.32 6.23L38.99 12.55C39.6 12.77 40 13.34 40 13.99V14ZM21.94 23.65C21.35 23.88 20.68 24 20 24C19.32 24 18.64 23.88 18 23.65L8.93001 20.4L8.00001 29.32C8.00001 31.9 13.32 33.99 20 33.99C26.68 33.99 32 31.9 32 29.32L31.08 20.39L21.95 23.64L21.94 23.65Z" fill="#13EF93"/>
<path opacity="0.4" d="M20.24 12.97L10.06 15.51C7.60002 16.13 5.77002 18.06 5.20002 20.44C5.67002 20.75 6.00002 21.35 6.00002 22C6.00002 22.65 5.70002 23.16 5.25002 23.52L6.80002 32.83C6.90002 33.44 6.43002 34 5.81002 34H2.17002C1.55002 34 1.08002 33.45 1.18002 32.84L2.73002 23.53C2.28002 23.16 1.98002 22.58 1.98002 22.01C1.98002 21.18 2.48002 20.47 3.20002 20.17C3.89002 16.99 6.30002 14.4 9.56002 13.59L19.74 11.04C20.27 10.9 20.82 11.23 20.95 11.77C21.09 12.3 20.76 12.85 20.22 12.98L20.24 12.97Z" fill="#13EF93"/>
</svg>
