<svg width="40" height="40" viewBox="0 0 40 40" fill="none" xmlns="http://www.w3.org/2000/svg">
<path d="M24 10C24 12.21 22.21 14 20 14C17.79 14 16 12.21 16 10C16 7.79 17.79 6 20 6C22.21 6 24 7.79 24 10ZM24 32C24 33.11 23.11 34 22 34H18C16.89 34 16 33.11 16 32V29.33C13.64 28.21 12 25.8 12 23C12 19.13 15.13 16 19 16H21C24.87 16 28 19.13 28 23C28 25.79 26.36 28.2 24 29.33V32ZM16 20.36C15.38 21.06 15 21.99 15 23C15 24.01 15.38 24.94 16 25.64V20.35V20.36ZM25 23C25 21.99 24.57 21.06 24 20.36V25.65C24.57 24.94 25 24.02 25 23.01V23Z" fill="#13EF93"/>
<path opacity="0.4" d="M4 10C4 7.79 5.79 6 8 6C10.21 6 12 7.79 12 10C12 12.21 10.21 14 8 14C5.79 14 4 12.21 4 10ZM12 28.66V32C12 33.11 11.11 34 10 34H6C4.9 34 4 33.11 4 32V29.33C1.63 28.21 0 25.8 0 23C0 19.13 3.13 16 7 16H9C10.23 16 11.39 16.32 12.4 16.88C10.91 18.49 10 20.64 10 23C10 25.14 10.69 27.11 12 28.66ZM4 25.65V20.36C3.38 21.06 3 21.99 3 23C3 24.01 3.38 24.94 4 25.64V25.65ZM28 28.66C29.25 27.12 30 25.15 30 23C30 20.64 29.09 18.49 27.6 16.88C28.61 16.32 29.77 16 31 16H33C36.87 16 40 19.13 40 23C40 25.79 38.36 28.2 36 29.33V32C36 33.11 35.11 34 34 34H30C28.89 34 28 33.11 28 32V28.66ZM37 23C37 21.99 36.57 21.06 36 20.36V25.65C36.57 24.94 37 24.02 37 23.01V23ZM28 10C28 7.79 29.79 6 32 6C34.21 6 36 7.79 36 10C36 12.21 34.21 14 32 14C29.79 14 28 12.21 28 10Z" fill="#13EF93"/>
</svg>
