<svg width="40" height="40" viewBox="0 0 40 40" fill="none" xmlns="http://www.w3.org/2000/svg">
<path d="M4.5 9.5C4.5 7.57 6.07 6 8 6C9.93 6 11.5 7.57 11.5 9.5C11.5 11.43 9.93 13 8 13C6.07 13 4.5 11.43 4.5 9.5ZM4 19.36C3.38 20.06 3 20.99 3 22C3 23.01 3.38 23.94 4 24.64V19.35V19.36ZM13.02 16.28C11.16 17.92 10 20.33 10 23.01C10 25.15 10.75 27.12 12 28.67V30.01C12 31.12 11.11 32.01 10 32.01H6C4.89 32.01 4 31.12 4 30.01V28.34C1.64 27.22 0 24.81 0 22.01C0 18.14 3.13 15.01 7 15.01H9C10.5 15.01 11.89 15.48 13.02 16.28ZM28 30.01V28.67C29.25 27.13 30 25.16 30 23.01C30 20.34 28.83 17.93 26.98 16.28C28.12 15.48 29.5 15.01 31 15.01H33C36.87 15.01 40 18.14 40 22.01C40 24.8 38.36 27.21 36 28.34V30.01C36 31.12 35.11 32.01 34 32.01H30C28.89 32.01 28 31.12 28 30.01ZM28.5 9.51C28.5 7.58 30.07 6.01 32 6.01C33.93 6.01 35.5 7.58 35.5 9.51C35.5 11.44 33.93 13.01 32 13.01C30.07 13.01 28.5 11.44 28.5 9.51ZM36 19.37V24.66C36.62 23.95 37 23.03 37 22.02C37 21.01 36.62 20.08 36 19.38V19.37ZM20 6C22.21 6 24 7.79 24 10C24 12.21 22.21 14 20 14C17.79 14 16 12.21 16 10C16 7.79 17.79 6 20 6ZM15 23C15 24.01 15.38 24.94 16 25.64V20.35C15.38 21.06 15 21.98 15 22.99V23ZM24 20.36V25.65C24.62 24.94 25 24.02 25 23.01C25 22 24.62 21.07 24 20.37V20.36ZM28 23C28 25.79 26.36 28.2 24 29.33V32C24 33.11 23.11 34 22 34H18C16.89 34 16 33.11 16 32V29.33C13.64 28.21 12 25.8 12 23C12 19.13 15.13 16 19 16H21C24.87 16 28 19.13 28 23Z" fill="white"/>
</svg>
