<svg width="40" height="40" viewBox="0 0 40 40" fill="none" xmlns="http://www.w3.org/2000/svg">
<path d="M20.2125 9.325L14.1625 14.225C13.1562 15.0375 12.9625 16.5 13.725 17.5437C14.5312 18.6562 16.1 18.875 17.1812 18.0312L23.3875 13.2063C23.825 12.8688 24.45 12.9438 24.7938 13.3813C25.1375 13.8188 25.0562 14.4438 24.6187 14.7875L23.3125 15.8L32 23.8V12H31.9562L31.7125 11.8438L27.175 8.9375C26.2188 8.325 25.1 8 23.9625 8C22.6 8 21.275 8.46875 20.2125 9.325ZM21.6375 17.1L18.4062 19.6125C16.4375 21.15 13.5813 20.75 12.1062 18.725C10.7188 16.8188 11.0687 14.1562 12.9 12.675L18.1 8.46875C17.375 8.1625 16.5938 8.00625 15.8 8.00625C14.625 8 13.4812 8.35 12.5 9L8 12V26H9.7625L15.475 31.2125C16.7 32.3312 18.5938 32.2437 19.7125 31.0187C20.0562 30.6375 20.2875 30.1938 20.4062 29.7313L21.4688 30.7062C22.6875 31.825 24.5875 31.7437 25.7062 30.525C25.9875 30.2188 26.1938 29.8625 26.325 29.4937C27.5375 30.3062 29.1875 30.1375 30.2062 29.025C31.325 27.8062 31.2437 25.9062 30.025 24.7875L21.6375 17.1ZM1 12C0.45 12 0 12.45 0 13V26C0 27.1063 0.89375 28 2 28H4C5.10625 28 6 27.1063 6 26V12H1ZM3 24C3.26522 24 3.51957 24.1054 3.70711 24.2929C3.89464 24.4804 4 24.7348 4 25C4 25.2652 3.89464 25.5196 3.70711 25.7071C3.51957 25.8946 3.26522 26 3 26C2.73478 26 2.48043 25.8946 2.29289 25.7071C2.10536 25.5196 2 25.2652 2 25C2 24.7348 2.10536 24.4804 2.29289 24.2929C2.48043 24.1054 2.73478 24 3 24ZM34 12V26C34 27.1063 34.8937 28 36 28H38C39.1063 28 40 27.1063 40 26V13C40 12.45 39.55 12 39 12H34ZM36 25C36 24.7348 36.1054 24.4804 36.2929 24.2929C36.4804 24.1054 36.7348 24 37 24C37.2652 24 37.5196 24.1054 37.7071 24.2929C37.8946 24.4804 38 24.7348 38 25C38 25.2652 37.8946 25.5196 37.7071 25.7071C37.5196 25.8946 37.2652 26 37 26C36.7348 26 36.4804 25.8946 36.2929 25.7071C36.1054 25.5196 36 25.2652 36 25Z" fill="white"/>
</svg>
