<svg width="40" height="40" viewBox="0 0 40 40" fill="none" xmlns="http://www.w3.org/2000/svg">
<path d="M9.7625 26H8V12L12.5 9C13.475 8.35 14.625 8 15.8 8C17.2188 8 18.5938 8.50625 19.6688 9.43125L19.8375 9.575L14.2563 13.5625C12.9063 14.525 12.5937 16.4 13.5562 17.75C14.5187 19.1 16.3937 19.4125 17.7437 18.45L21.3188 15.9L22.1375 16.65L31.025 24.7875C31.3687 25.1 31.625 25.4813 31.7812 25.8813C32.1937 26.9188 32.0125 28.1437 31.2062 29.025C30.0875 30.2437 28.1875 30.3312 26.9688 29.2062L26.4813 28.7625C26.425 29.3938 26.1687 30.0187 25.7062 30.525C24.5875 31.7437 22.6875 31.8312 21.4688 30.7062L20.4062 29.7313C20.2875 30.1938 20.0562 30.6375 19.7125 31.0187C18.5937 32.2437 16.7 32.3312 15.475 31.2125L9.7625 26ZM0 13C0 12.45 0.45 12 1 12H6V26C6 27.1063 5.10625 28 4 28H2C0.89375 28 0 27.1063 0 26V13ZM4 25C4 24.7348 3.89464 24.4804 3.70711 24.2929C3.51957 24.1054 3.26522 24 3 24C2.73478 24 2.48043 24.1054 2.29289 24.2929C2.10536 24.4804 2 24.7348 2 25C2 25.2652 2.10536 25.5196 2.29289 25.7071C2.48043 25.8946 2.73478 26 3 26C3.26522 26 3.51957 25.8946 3.70711 25.7071C3.89464 25.5196 4 25.2652 4 25Z" fill="#13EF93"/>
<path opacity="0.4" d="M32 26V12H31.9062L27.4687 9.04375C26.45 8.3625 25.2562 8 24.0312 8C22.7375 8 21.475 8.40625 20.425 9.15625L14.2625 13.5562C12.9125 14.5187 12.6 16.3937 13.5625 17.7437C14.525 19.0937 16.4 19.4063 17.75 18.4438L21.325 15.8938L31.025 24.7875C31.4 25.1313 31.6687 25.55 31.825 26H32ZM34 26C34 27.1063 34.8937 28 36 28H38C39.1062 28 40 27.1063 40 26V13C40 12.45 39.55 12 39 12H34V26ZM37 24C37.2652 24 37.5195 24.1054 37.7071 24.2929C37.8946 24.4804 38 24.7348 38 25C38 25.2652 37.8946 25.5196 37.7071 25.7071C37.5195 25.8946 37.2652 26 37 26C36.7348 26 36.4804 25.8946 36.2929 25.7071C36.1053 25.5196 36 25.2652 36 25C36 24.7348 36.1053 24.4804 36.2929 24.2929C36.4804 24.1054 36.7348 24 37 24Z" fill="#13EF93"/>
</svg>
