<svg width="40" height="40" viewBox="0 0 40 40" fill="none" xmlns="http://www.w3.org/2000/svg">
<g clip-path="url(#clip0_1665_4807)">
<path d="M28.8889 8.97835V6.40023C28.8889 5.18541 29.882 4.20023 31.1111 4.20023H33.3333C34.5625 4.20023 35.5556 5.18541 35.5556 6.40023V14.7534L39.2431 17.9434C40.1667 18.7477 40.257 20.1365 39.4514 21.0509C38.6389 21.9652 37.2361 22.0546 36.3125 21.2571L20 7.12348L3.68542 21.2571C2.76181 22.0546 1.35834 21.9652 0.549794 21.0509C-0.258331 20.1365 -0.16472 18.7477 0.75903 17.9434L18.5347 2.54459C19.3125 1.8188 20.625 1.8188 21.4653 2.54459L28.8889 8.97835Z" fill="white"/>
<path d="M20 7.12325L35.5625 20.6037L35.5903 34.4431C35.5972 35.9625 34.3541 37.2 32.8125 37.2H27.2222C25.6875 37.2 24.4444 35.9694 24.4444 34.45V28.3794C24.4444 27.1625 23.4514 26.1794 22.2222 26.1794H17.7777C16.5486 26.1794 15.5555 27.1625 15.5555 28.3794V34.45C15.5555 35.9694 14.3125 37.2 12.7777 37.2H7.22913C5.69372 37.2 4.45066 35.9694 4.44997 34.45L4.4458 20.5969L20 7.12325Z" fill="white"/>
</g>
<defs>
<clipPath id="clip0_1665_4807">
<rect width="40" height="35.2" fill="white" transform="translate(0 2)"/>
</clipPath>
</defs>
</svg>
