<svg width="40" height="40" viewBox="0 0 40 40" fill="none" xmlns="http://www.w3.org/2000/svg">
<path d="M22 20C22 18.8937 22.8937 18 24 18H29.1688C30.2313 18 31.25 18.4187 32 19.1687L38.7062 25.8813C39.875 27.05 39.875 28.95 38.7062 30.125L34.1188 34.7125C32.95 35.8813 31.05 35.8813 29.875 34.7125L23.1688 28C22.4188 27.25 22 26.2313 22 25.1688V20ZM27 24.5C27.3978 24.5 27.7794 24.342 28.0607 24.0607C28.342 23.7794 28.5 23.3978 28.5 23C28.5 22.6022 28.342 22.2206 28.0607 21.9393C27.7794 21.658 27.3978 21.5 27 21.5C26.6022 21.5 26.2206 21.658 25.9393 21.9393C25.658 22.2206 25.5 22.6022 25.5 23C25.5 23.3978 25.658 23.7794 25.9393 24.0607C26.2206 24.342 26.6022 24.5 27 24.5Z" fill="white"/>
<path d="M6 12C6 9.87827 6.84285 7.84344 8.34315 6.34315C9.84344 4.84285 11.8783 4 14 4C16.1217 4 18.1566 4.84285 19.6569 6.34315C21.1571 7.84344 22 9.87827 22 12C22 14.1217 21.1571 16.1566 19.6569 17.6569C18.1566 19.1571 16.1217 20 14 20C11.8783 20 9.84344 19.1571 8.34315 17.6569C6.84285 16.1566 6 14.1217 6 12ZM0 34.1437C0 27.9875 4.9875 23 11.1438 23H16.8563C17.95 23 19 23.1562 20 23.45V25.5125C20 26.8313 20.525 28.0875 21.4562 29.0187L27.6562 35.2188C27.3188 35.6875 26.7687 36 26.1437 36H1.85625C0.83125 36 0 35.1687 0 34.1437Z" fill="white"/>
</svg>
