<svg width="40" height="40" viewBox="0 0 40 40" fill="none" xmlns="http://www.w3.org/2000/svg">
<path d="M26.6181 16.125C26.1459 16.2292 25.8334 16.6667 25.8334 17.1528V18.3611C25.8334 18.9097 25.4931 19.4028 25.0209 19.6736C24.5486 19.9444 23.9653 19.9861 23.4931 19.7153L22.5486 19.1736C22.125 18.9306 21.5973 18.9861 21.2639 19.3403C20.7431 19.9028 20.2709 20.5347 19.8681 21.2292C19.4653 21.9236 19.1528 22.6458 18.9306 23.3819C18.7848 23.8472 19.007 24.3333 19.4306 24.5764L20.4028 25.1389C20.8542 25.4028 21.1042 25.9028 21.1042 26.4306C21.1042 26.9583 20.8611 27.4583 20.4028 27.7222L19.4306 28.2847C19.007 28.5278 18.7917 29.0139 18.9306 29.4792C19.1598 30.2153 19.4723 30.9375 19.8681 31.6319C20.2639 32.3264 20.7361 32.9583 21.2639 33.5208C21.5973 33.875 22.132 33.9306 22.5486 33.6875L23.4861 33.1458C23.9584 32.875 24.5417 32.9167 25.0139 33.1875C25.4931 33.4583 25.8264 33.9514 25.8264 34.5V35.7083C25.8264 36.1944 26.1389 36.6319 26.6112 36.7361C27.3403 36.9028 28.1042 36.9931 28.882 36.9931C29.6598 36.9931 30.4236 36.9028 31.1528 36.7361C31.625 36.6319 31.9375 36.1944 31.9375 35.7083V34.4792C31.9375 33.9375 32.2709 33.4514 32.7431 33.1806C33.2084 32.9097 33.7917 32.8681 34.257 33.1389L35.2153 33.6875C35.6389 33.9306 36.1667 33.875 36.5 33.5208C37.0278 32.9583 37.4931 32.3264 37.8959 31.6319C38.2987 30.9375 38.6112 30.2153 38.8334 29.4792C38.9792 29.0139 38.757 28.5278 38.3334 28.2847L37.3334 27.7083C36.882 27.4514 36.6389 26.9514 36.6389 26.4306C36.6389 25.9097 36.882 25.4097 37.3334 25.1528L38.3334 24.5764C38.757 24.3333 38.9723 23.8472 38.8334 23.3819C38.6042 22.6458 38.2917 21.9236 37.8959 21.2292C37.5 20.5347 37.0278 19.9028 36.5 19.3403C36.1667 18.9861 35.632 18.9306 35.2153 19.1736L34.257 19.7222C33.7917 19.9931 33.2084 19.9514 32.7431 19.6806C32.2709 19.4097 31.9375 18.9236 31.9375 18.3819V17.1528C31.9375 16.6667 31.625 16.2292 31.1528 16.125C30.4236 15.9583 29.6598 15.8681 28.882 15.8681C28.1042 15.8681 27.3403 15.9583 26.6112 16.125H26.6181ZM28.8889 23.0903C29.773 23.0903 30.6208 23.4415 31.246 24.0666C31.8711 24.6917 32.2223 25.5396 32.2223 26.4236C32.2223 27.3077 31.8711 28.1555 31.246 28.7806C30.6208 29.4058 29.773 29.7569 28.8889 29.7569C28.0049 29.7569 27.157 29.4058 26.5319 28.7806C25.9068 28.1555 25.5556 27.3077 25.5556 26.4236C25.5556 25.5396 25.9068 24.6917 26.5319 24.0666C27.157 23.4415 28.0049 23.0903 28.8889 23.0903Z" fill="#13EF93"/>
<path opacity="0.4" d="M16.7083 28.6667C16.868 27.7431 17.4375 26.9375 18.1944 26.4583C17.0416 25.7222 16.3403 24.2569 16.8055 22.7569C17.0833 21.8611 17.4583 20.9861 17.9444 20.1458C18.4305 19.3056 19 18.5417 19.6389 17.8542C20.7291 16.6806 22.3889 16.5694 23.6111 17.25V17.1875C23.6111 15.9514 24.3194 14.7153 25.5555 14.1806C25.5278 7.44444 20.0694 2 13.3333 2C6.58331 2 1.11108 7.47222 1.11108 14.2222C1.11108 16.8125 1.91664 19.2153 3.29164 21.1875C3.63886 21.6875 3.99997 22.1806 4.36108 22.6736C5.73608 24.5556 7.11803 26.4514 7.77775 28.6597H16.7083V28.6667ZM17.0555 30.8889H7.77775V32C7.77775 35.0694 10.2639 37.5556 13.3333 37.5556C15.7778 37.5556 17.8541 35.9722 18.5972 33.7778C18.368 33.4514 18.1528 33.1181 17.9444 32.7639C17.5903 32.1528 17.2986 31.5278 17.0555 30.8889ZM13.3333 8.66667C10.2639 8.66667 7.77775 11.1528 7.77775 14.2222C7.77775 14.8333 7.27775 15.3333 6.66664 15.3333C6.05553 15.3333 5.55553 14.8333 5.55553 14.2222C5.55553 9.92361 9.0347 6.44444 13.3333 6.44444C13.9444 6.44444 14.4444 6.94444 14.4444 7.55556C14.4444 8.16667 13.9444 8.66667 13.3333 8.66667Z" fill="#13EF93"/>
</svg>
