<svg width="40" height="40" viewBox="0 0 40 40" fill="none" xmlns="http://www.w3.org/2000/svg">
<g clip-path="url(#clip0_1979_10534)">
<path d="M18.2014 26.4583C17.4375 26.9444 16.875 27.75 16.7153 28.6667H7.77775C7.11108 26.4514 5.72914 24.5625 4.36108 22.6806C3.99997 22.1875 3.63886 21.6944 3.29164 21.1944C1.91664 19.2153 1.11108 16.8125 1.11108 14.2222C1.11108 7.47222 6.58331 2 13.3333 2C20.0694 2 25.5278 7.44444 25.5555 14.1736C24.3194 14.7083 23.6111 15.9514 23.6111 17.1806V17.2431C22.3889 16.5694 20.7291 16.6736 19.6389 17.8472C19 18.5347 18.4305 19.2986 17.9444 20.1389C17.4583 20.9792 17.0833 21.8542 16.8055 22.75C16.3403 24.25 17.0416 25.7153 18.1944 26.4514L18.2014 26.4583ZM7.77775 30.8889H17.0555C17.2986 31.5278 17.5903 32.1597 17.9444 32.7639C18.1458 33.1111 18.3611 33.4514 18.5972 33.7778C17.8541 35.9722 15.7778 37.5556 13.3333 37.5556C10.2639 37.5556 7.77775 35.0694 7.77775 32V30.8889ZM7.77775 14.2222C7.77775 11.1528 10.2639 8.66667 13.3333 8.66667C13.9444 8.66667 14.4444 8.16667 14.4444 7.55556C14.4444 6.94444 13.9444 6.44444 13.3333 6.44444C9.0347 6.44444 5.55553 9.92361 5.55553 14.2222C5.55553 14.8333 6.05553 15.3333 6.66664 15.3333C7.27775 15.3333 7.77775 14.8333 7.77775 14.2222ZM25.8333 17.1528C25.8333 16.6667 26.1458 16.2292 26.618 16.125C27.3472 15.9583 28.1111 15.8681 28.8889 15.8681C29.6666 15.8681 30.4305 15.9583 31.1597 16.125C31.6319 16.2292 31.9444 16.6667 31.9444 17.1528V18.3819C31.9444 18.9236 32.2778 19.4097 32.75 19.6806C33.2222 19.9514 33.7986 19.9931 34.2639 19.7222L35.2222 19.1736C35.6458 18.9306 36.1736 18.9861 36.5069 19.3403C37.0347 19.9028 37.5 20.5347 37.9028 21.2292C38.3055 21.9236 38.618 22.6458 38.8403 23.3819C38.9861 23.8472 38.7639 24.3333 38.3403 24.5764L37.3403 25.1528C36.8889 25.4097 36.6458 25.9097 36.6458 26.4306C36.6458 26.9514 36.8889 27.4514 37.3403 27.7083L38.3403 28.2847C38.7639 28.5278 38.9791 29.0139 38.8403 29.4792C38.6111 30.2153 38.2986 30.9375 37.9028 31.6319C37.5069 32.3264 37.0347 32.9583 36.5069 33.5208C36.1736 33.875 35.6389 33.9306 35.2222 33.6875L34.2639 33.1389C33.7986 32.8681 33.2153 32.9097 32.75 33.1806C32.2778 33.4514 31.9444 33.9375 31.9444 34.4792V35.7083C31.9444 36.1944 31.6319 36.6319 31.1597 36.7361C30.4305 36.9028 29.6666 36.9931 28.8889 36.9931C28.1111 36.9931 27.3472 36.9028 26.618 36.7361C26.1458 36.6319 25.8333 36.1944 25.8333 35.7083V34.4861C25.8333 33.9375 25.493 33.4514 25.0208 33.1736C24.5486 32.9028 23.9653 32.8611 23.493 33.1319L22.5555 33.6736C22.1319 33.9167 21.6041 33.8611 21.2708 33.5069C20.743 32.9444 20.2778 32.3125 19.875 31.6181C19.4722 30.9236 19.1597 30.2014 18.9375 29.4653C18.7916 29 19.0139 28.5139 19.4375 28.2708L20.4097 27.7083C20.8611 27.4444 21.1111 26.9375 21.1111 26.4167C21.1111 25.8958 20.868 25.3889 20.4097 25.125L19.4375 24.5625C19.0139 24.3194 18.7986 23.8333 18.9375 23.3681C19.1666 22.6319 19.4722 21.9097 19.875 21.2153C20.2778 20.5208 20.743 19.8889 21.2708 19.3264C21.6041 18.9722 22.1319 18.9167 22.5555 19.1597L23.5 19.7014C23.9722 19.9722 24.5555 19.9306 25.0278 19.6597C25.5069 19.3889 25.8403 18.8958 25.8403 18.3472V17.1528H25.8333ZM32.2291 26.4236C32.2497 25.9726 32.1787 25.5221 32.0203 25.0993C31.8618 24.6766 31.6194 24.2903 31.3075 23.9639C30.9956 23.6374 30.6208 23.3776 30.2057 23.2001C29.7906 23.0226 29.3438 22.9311 28.8923 22.9311C28.4409 22.9311 27.9941 23.0226 27.579 23.2001C27.1639 23.3776 26.789 23.6374 26.4772 23.9639C26.1653 24.2903 25.9228 24.6766 25.7644 25.0993C25.606 25.5221 25.535 25.9726 25.5555 26.4236C25.535 26.8746 25.606 27.3251 25.7644 27.7479C25.9228 28.1706 26.1653 28.5569 26.4772 28.8833C26.789 29.2098 27.1639 29.4696 27.579 29.6471C27.9941 29.8246 28.4409 29.9162 28.8923 29.9162C29.3438 29.9162 29.7906 29.8246 30.2057 29.6471C30.6208 29.4696 30.9956 29.2098 31.3075 28.8833C31.6194 28.5569 31.8618 28.1706 32.0203 27.7479C32.1787 27.3251 32.2497 26.8746 32.2291 26.4236Z" fill="white"/>
</g>
<defs>
<clipPath id="clip0_1979_10534">
<rect width="40" height="35.5556" fill="white" transform="translate(0 2)"/>
</clipPath>
</defs>
</svg>
