<svg width="40" height="40" viewBox="0 0 40 40" fill="none" xmlns="http://www.w3.org/2000/svg">
<path d="M26.25 30C27 27.5078 28.5547 25.3828 30.0938 23.2656C30.5 22.7109 30.9062 22.1562 31.2969 21.5938C32.8438 19.3672 33.75 16.6719 33.75 13.7578C33.75 6.15625 27.5938 0 20 0C12.4062 0 6.25 6.15625 6.25 13.75C6.25 16.6641 7.15625 19.3672 8.70312 21.5859C9.09375 22.1484 9.5 22.7031 9.90625 23.2578C11.4531 25.375 13.0078 27.5078 13.75 29.9922H26.25V30ZM20 40C23.4531 40 26.25 37.2031 26.25 33.75V32.5H13.75V33.75C13.75 37.2031 16.5469 40 20 40ZM13.75 13.75C13.75 14.4375 13.1875 15 12.5 15C11.8125 15 11.25 14.4375 11.25 13.75C11.25 8.91406 15.1641 5 20 5C20.6875 5 21.25 5.5625 21.25 6.25C21.25 6.9375 20.6875 7.5 20 7.5C16.5469 7.5 13.75 10.2969 13.75 13.75Z" fill="white"/>
</svg>
