<svg width="40" height="40" viewBox="0 0 40 40" fill="none" xmlns="http://www.w3.org/2000/svg">
<path d="M20 40C23.4531 40 26.25 37.2031 26.25 33.75V30H13.75V33.75C13.75 37.2031 16.5469 40 20 40Z" fill="#13EF93"/>
<path opacity="0.4" d="M30.0938 23.2656C28.5469 25.3828 26.9922 27.5156 26.25 30H13.75C13 27.5078 11.4453 25.3828 9.90625 23.2656C9.5 22.7109 9.09375 22.1562 8.70313 21.5937C7.15625 19.3672 6.25 16.6641 6.25 13.75C6.25 6.15625 12.4063 0 20 0C27.5937 0 33.75 6.15625 33.75 13.75C33.75 16.6641 32.8438 19.3672 31.2969 21.5859C30.9063 22.1484 30.5 22.7031 30.0938 23.2578V23.2656ZM13.75 13.75C13.75 10.2969 16.5469 7.5 20 7.5C20.6875 7.5 21.25 6.9375 21.25 6.25C21.25 5.5625 20.6875 5 20 5C15.1641 5 11.25 8.91406 11.25 13.75C11.25 14.4375 11.8125 15 12.5 15C13.1875 15 13.75 14.4375 13.75 13.75Z" fill="#13EF93"/>
</svg>
