<svg width="40" height="40" viewBox="0 0 40 40" fill="none" xmlns="http://www.w3.org/2000/svg">
<path d="M36.77 8.73C37.75 9.71 37.75 11.28 36.77 12.26L26.77 22.26C25.79 23.24 24.22 23.24 23.24 22.26L18.69 17.78L11.78 24.76C10.8 25.74 9.23001 25.74 8.25001 24.76C7.27001 23.78 7.27001 22.21 8.25001 21.23L17 12.48C17.98 11.5 19.55 11.5 20.53 12.48L25.01 16.96L33.24 8.73C34.22 7.75 35.79 7.75 36.77 8.73Z" fill="#13EF93"/>
<path opacity="0.4" d="M2.5 3C3.88 3 5 4.12 5 5.5V31.75C5 32.44 5.56 33 6.25 33H37.5C38.88 33 40 34.12 40 35.5C40 36.88 38.88 38 37.5 38H6.25C2.8 38 0 35.2 0 31.75V5.5C0 4.12 1.12 3 2.5 3Z" fill="#13EF93"/>
</svg>
