<svg width="40" height="40" viewBox="0 0 40 40" fill="none" xmlns="http://www.w3.org/2000/svg">
<path d="M5 5.5C5 4.12 3.88 3 2.5 3C1.12 3 0 4.12 0 5.5V31.75C0 35.2 2.8 38 6.25 38H37.5C38.88 38 40 36.88 40 35.5C40 34.12 38.88 33 37.5 33H6.25C5.56 33 5 32.44 5 31.75V5.5ZM36.77 12.27C37.75 11.29 37.75 9.71 36.77 8.73C35.79 7.75 34.21 7.75 33.23 8.73L25 16.96L20.52 12.48C19.54 11.5 17.96 11.5 16.98 12.48L8.23 21.23C7.25 22.21 7.25 23.79 8.23 24.77C9.21 25.75 10.79 25.75 11.77 24.77L18.75 17.79L23.23 22.27C24.21 23.25 25.79 23.25 26.77 22.27L36.77 12.27Z" fill="white"/>
</svg>
