<svg width="40" height="40" viewBox="0 0 40 40" fill="none" xmlns="http://www.w3.org/2000/svg">
<g clip-path="url(#clip0_1714_4645)">
<path d="M8.125 16.875C8.125 15.8359 8.96094 15 10 15C11.0391 15 11.875 15.8359 11.875 16.875V21.875C11.875 22.9141 11.0391 23.75 10 23.75C8.96094 23.75 8.125 22.9141 8.125 21.875V16.875ZM14.375 9.375C14.375 8.33594 15.2109 7.5 16.25 7.5C17.2891 7.5 18.125 8.33594 18.125 9.375V21.875C18.125 22.9141 17.2891 23.75 16.25 23.75C15.2109 23.75 14.375 22.9141 14.375 21.875V9.375ZM20.625 14.375C20.625 13.3359 21.4609 12.5 22.5 12.5C23.5391 12.5 24.375 13.3359 24.375 14.375V21.875C24.375 22.9141 23.5391 23.75 22.5 23.75C21.4609 23.75 20.625 22.9141 20.625 21.875V14.375ZM35.7344 39.2656L25.8359 29.375C27.1875 28.3828 28.3828 27.1875 29.375 25.8359L39.2656 35.7344C40.2422 36.7109 40.2422 38.2969 39.2656 39.2734C38.2891 40.25 36.7031 40.25 35.7266 39.2734L35.7344 39.2656Z" fill="#13EF93"/>
<path opacity="0.4" d="M16.25 32.5C20.5598 32.5 24.693 30.788 27.7405 27.7405C30.788 24.693 32.5 20.5598 32.5 16.25C32.5 11.9402 30.788 7.80698 27.7405 4.75951C24.693 1.71205 20.5598 0 16.25 0C11.9402 0 7.80698 1.71205 4.75951 4.75951C1.71205 7.80698 0 11.9402 0 16.25C0 20.5598 1.71205 24.693 4.75951 27.7405C7.80698 30.788 11.9402 32.5 16.25 32.5ZM8.125 16.875C8.125 15.8359 8.96094 15 10 15C11.0391 15 11.875 15.8359 11.875 16.875V21.875C11.875 22.9141 11.0391 23.75 10 23.75C8.96094 23.75 8.125 22.9141 8.125 21.875V16.875ZM14.375 9.375C14.375 8.33594 15.2109 7.5 16.25 7.5C17.2891 7.5 18.125 8.33594 18.125 9.375V21.875C18.125 22.9141 17.2891 23.75 16.25 23.75C15.2109 23.75 14.375 22.9141 14.375 21.875V9.375ZM20.625 14.375C20.625 13.3359 21.4609 12.5 22.5 12.5C23.5391 12.5 24.375 13.3359 24.375 14.375V21.875C24.375 22.9141 23.5391 23.75 22.5 23.75C21.4609 23.75 20.625 22.9141 20.625 21.875V14.375Z" fill="#13EF93"/>
</g>
<defs>
<clipPath id="clip0_1714_4645">
<rect width="40" height="40" fill="white"/>
</clipPath>
</defs>
</svg>
