<svg width="40" height="40" viewBox="0 0 40 40" fill="none" xmlns="http://www.w3.org/2000/svg">
<path d="M26.75 10V11.25C26.75 14.7 23.95 17.5 20.5 17.5C17.05 17.5 14.25 14.7 14.25 11.25V10C14.25 9.57 14.3 9.16 14.38 8.75H16.75C19.08 8.75 21.12 7.48 22.19 5.59C23.1 6.75 24.53 7.5 26.13 7.5H26.23C26.57 8.27 26.75 9.11 26.75 10ZM10.5 10V11.25C10.5 16.77 14.98 21.25 20.5 21.25C26.02 21.25 30.5 16.77 30.5 11.25V10C30.5 4.48 26.02 0 20.5 0C14.98 0 10.5 4.48 10.5 10ZM15.6 25C8.64 25 3 30.64 3 37.6C3 38.93 4.08 40 5.4 40H35.6C36.93 40 38 38.92 38 37.6C38 30.64 32.36 25 25.4 25H15.6Z" fill="white"/>
</svg>
