<svg width="40" height="40" viewBox="0 0 40 40" fill="none" xmlns="http://www.w3.org/2000/svg">
<path d="M10.63 8.39C11.4 3.63 15.52 0 20.5 0C25.16 0 29.08 3.19 30.12 7.5H27.38C25.6 7.5 24.04 6.57 23.15 5.17C21.76 7.32 19.45 8.75 16.75 8.75H12.37C11.75 8.75 11.16 8.62 10.62 8.39H10.63ZM25.4 25C32.36 25 38 30.64 38 37.6C38 38.92 36.92 40 35.6 40H5.4C4.07 40 3 38.92 3 37.6C3 30.64 8.64 25 15.6 25H25.4Z" fill="#13EF93"/>
<path opacity="0.4" d="M23.15 5.17C24.03 6.57 25.6 7.5 27.38 7.5H30.12C30.39 8.3 30.5 9.07 30.5 10C30.5 15.52 26.02 20 20.5 20C14.98 20 10.5 15.52 10.5 10C10.5 9.38 10.54 8.91 10.63 8.39C11.17 8.62 11.76 8.75 12.38 8.75H16.76C19.46 8.75 21.77 7.32 23.16 5.17H23.15Z" fill="#13EF93"/>
</svg>
