<svg width="40" height="40" viewBox="0 0 40 40" fill="none" xmlns="http://www.w3.org/2000/svg">
<g clip-path="url(#clip0_1689_4816)">
<path d="M8.36 2.66001C8.78 3.93001 8.09 5.30001 6.83 5.73001L4.85 6.39001V15.55C4.85 19.57 8.11 22.82 12.12 22.82C16.13 22.82 19.39 19.56 19.39 15.55V6.39001L17.41 5.73001C16.14 5.31001 15.46 3.93001 15.88 2.66001C16.3 1.39001 17.68 0.710012 18.95 1.13001L20.93 1.79001C22.91 2.45001 24.24 4.30001 24.24 6.39001V15.55C24.24 21.4 20.1 26.28 14.6 27.42C15.08 31.65 18.67 34.94 23.03 34.94C27.72 34.94 31.51 31.14 31.51 26.46V21.1C29.37 20.17 27.87 18.03 27.87 15.55C27.87 12.2 30.58 9.49001 33.93 9.49001C37.28 9.49001 39.99 12.2 39.99 15.55C39.99 18.03 38.5 20.17 36.35 21.1V26.46C36.35 33.82 30.38 39.79 23.02 39.79C15.66 39.79 10.22 34.34 9.72 27.43C4.18 26.32 0 21.43 0 15.55V6.39001C0 4.31001 1.33 2.45001 3.32 1.79001L5.3 1.12001C6.57 0.700012 7.94 1.39001 8.37 2.65001L8.36 2.66001ZM33.94 17.97C35.28 17.97 36.36 16.88 36.36 15.55C36.36 14.22 35.27 13.13 33.94 13.13C32.61 13.13 31.52 14.22 31.52 15.55C31.52 16.88 32.61 17.97 33.94 17.97Z" fill="white"/>
</g>
<defs>
<clipPath id="clip0_1689_4816">
<rect width="40" height="38.79" fill="white" transform="translate(0 1)"/>
</clipPath>
</defs>
</svg>
