<svg width="40" height="40" viewBox="0 0 40 40" fill="none" xmlns="http://www.w3.org/2000/svg">
<path d="M22.78 1.98661L18.02 1.03661C17.04 0.836606 16.08 1.47661 15.89 2.45661L15.64 3.64661C15.44 4.62661 16.08 5.58661 17.06 5.78661L19.39 6.24661V15.5466C19.39 19.5666 16.14 22.8166 12.12 22.8166C8.1 22.8166 4.84 19.4866 4.84 15.5366V6.25661L7.16 5.79661C8.14 5.59661 8.71 4.64661 8.58 3.66661L8.35 2.47661C8.15 1.49661 7.2 0.856606 6.21 1.05661L1.46 1.97661C0.61 2.15661 0 2.90661 0 3.76661V15.5366C0 22.2166 5.44 27.6566 12.12 27.6566C18.8 27.6566 24.24 22.2166 24.24 15.5366V3.76661C24.17 2.89661 23.63 2.15661 22.78 1.98661ZM33.94 9.47661C30.59 9.47661 27.88 12.1866 27.88 15.5366C27.88 18.8866 30.59 21.5966 33.94 21.5966C37.29 21.5966 40 18.8866 40 15.6066C40 12.3266 37.29 9.47661 33.94 9.47661ZM33.94 17.3566C32.94 17.3566 32.12 16.5366 32.12 15.5366C32.12 14.5366 32.94 13.7166 33.94 13.7166C34.94 13.7166 35.76 14.5366 35.76 15.5366C35.76 16.5366 34.94 17.3566 33.94 17.3566Z" fill="#13EF93"/>
<path opacity="0.4" d="M36.36 21.0966V27.0666C36.36 34.0866 30.38 39.7966 23.03 39.7966C15.68 39.7966 9.90001 34.2766 9.70001 27.4366H9.74001C10.51 27.5966 11.31 27.6766 12.12 27.6766C12.93 27.6766 13.73 27.5866 14.5 27.4366H14.57C14.77 31.6066 18.5 34.9466 23.05 34.9466C27.6 34.9466 31.53 31.4066 31.53 27.0666V21.1066C32.27 21.4366 33.08 21.6166 33.95 21.6166C34.82 21.6166 35.63 21.4266 36.37 21.1066L36.36 21.0966Z" fill="#13EF93"/>
</svg>
