<svg width="40" height="40" viewBox="0 0 40 40" fill="none" xmlns="http://www.w3.org/2000/svg">
<path d="M20 27.94C22.2 27.98 23.99 26.2 23.99 24C23.99 21.8 22.2 20.01 20 20C17.8 20.01 16.01 21.79 16.01 24C16.01 26.21 17.8 27.99 20 27.94ZM21.49 30H18.52C16.03 30 14 32.09 14 34.67C14 35.4 14.58 36 15.3 36H24.69C25.42 36 26 35.4 26 34.67C26 32.09 23.98 30 21.49 30ZM35.49 30H32.52C30.03 30 28 32.09 28 34.67C28 35.4 28.58 36 29.3 36H38.69C39.42 36 40 35.4 40 34.67C40 32.09 37.97 30 35.49 30ZM34 27.94C36.2 27.98 37.99 26.2 37.99 24C37.99 21.8 36.2 20.01 34 20C31.8 20.01 30.01 21.79 30.01 24C30.01 26.21 31.8 27.99 34 27.94ZM6 27.94C8.2 27.98 9.99 26.2 9.99 24C9.99 21.8 8.2 20.01 6 20C3.8 20.01 2.01 21.79 2.01 24C2.01 26.21 3.8 27.99 6 27.94ZM7.49 30H4.52C2.03 30 0 32.09 0 34.67C0 35.4 0.58 36 1.3 36H10.69C11.41 36 11.99 35.4 11.99 34.67C11.99 32.09 9.97 30 7.48 30H7.49Z" fill="white"/>
<path d="M6 8H34V18C35.54 18 36.94 18.6 38 19.56V7.1C38 5.39 36.66 4 35 4H5C3.34 4 2 5.39 2 7.1V19.56C3.06 18.6 4.46 18 6 18V8Z" fill="white"/>
</svg>
