<svg width="40" height="40" viewBox="0 0 40 40" fill="none" xmlns="http://www.w3.org/2000/svg">
<g clip-path="url(#clip0_1759_4765)">
<path d="M23.47 12.96C24.26 12.96 24.98 13.41 25.33 14.11L25.8 15.04H32.04C33.19 15.04 34.12 15.97 34.12 17.12C34.12 18.27 33.19 19.2 32.04 19.2H7.08C5.93 19.2 5 18.27 5 17.12C5 15.97 5.93 15.04 7.08 15.04H13.32L13.79 14.11C14.14 13.41 14.86 12.96 15.65 12.96H23.48H23.47Z" fill="white"/>
<path d="M31.96 36.8C31.96 38.57 30.09 40 27.8 40H11.16C8.86 40 7 38.56 7 36.8V19.2H31.96V36.8ZM14.28 23.2C14.28 22.76 13.81 22.4 13.24 22.4C12.67 22.4 12.2 22.76 12.2 23.2V34.4C12.2 34.84 12.67 35.2 13.24 35.2C13.81 35.2 14.28 34.84 14.28 34.4V23.2ZM20.52 23.2C20.52 22.76 20.05 22.4 19.48 22.4C18.91 22.4 18.44 22.76 18.44 23.2V34.4C18.44 34.84 18.91 35.2 19.48 35.2C20.05 35.2 20.52 34.84 20.52 34.4V23.2ZM26.76 23.2C26.76 22.76 26.29 22.4 25.72 22.4C25.15 22.4 24.68 22.76 24.68 23.2V34.4C24.68 34.84 25.15 35.2 25.72 35.2C26.29 35.2 26.76 34.84 26.76 34.4V23.2Z" fill="white"/>
<path d="M19.9946 0.860011V1.42001C20.3746 1.47001 20.7646 1.57001 21.1446 1.68001C21.2246 1.70001 21.2946 1.72001 21.3646 1.74001C21.8246 1.87001 22.0946 2.34001 21.9646 2.79001C21.8346 3.24001 21.3646 3.51001 20.9146 3.39001C20.8546 3.37001 20.7946 3.35001 20.7246 3.34001C20.4446 3.26001 20.1746 3.19001 19.8846 3.13001C19.3646 3.03001 18.7546 3.08001 18.2646 3.29001C17.8246 3.48001 17.4646 3.94001 17.9646 4.26001C18.3546 4.51001 18.8246 4.64001 19.2846 4.76001C19.3846 4.78001 19.4746 4.81001 19.5646 4.84001C20.1846 5.01001 20.9746 5.24001 21.5646 5.64001C22.3346 6.17001 22.6946 7.02001 22.5246 7.94001C22.3646 8.83001 21.7446 9.41001 21.0046 9.71001C20.6946 9.84001 20.3546 9.92001 20.0046 9.96001V10.56C20.0046 11.03 19.6246 11.42 19.1446 11.42C18.6646 11.42 18.2846 11.04 18.2846 10.56V9.87001C17.7146 9.74001 17.1446 9.56001 16.5846 9.37001C16.1346 9.22001 15.8946 8.74001 16.0446 8.29001C16.1946 7.84001 16.6746 7.60001 17.1246 7.75001C17.2246 7.78001 17.3246 7.82001 17.4246 7.85001C17.8746 8.00001 18.3346 8.16001 18.7946 8.23001C19.4646 8.33001 20.0046 8.27001 20.3646 8.13001C20.8446 7.94001 21.0646 7.37001 20.5946 7.06001C20.1946 6.79001 19.6946 6.65001 19.2246 6.52001C19.1346 6.50001 19.0446 6.47001 18.9546 6.44001C18.3546 6.27001 17.6046 6.06001 17.0446 5.70001C16.2746 5.20001 15.8746 4.38001 16.0446 3.46001C16.2046 2.60001 16.8746 2.02001 17.5946 1.71001C17.8146 1.61001 18.0446 1.54001 18.2846 1.48001V0.840011C18.2846 0.370011 18.6646 -0.019989 19.1446 -0.019989C19.6246 -0.019989 20.0046 0.360011 20.0046 0.840011L19.9946 0.860011Z" fill="white"/>
</g>
<defs>
<clipPath id="clip0_1759_4765">
<rect width="40" height="40" fill="white"/>
</clipPath>
</defs>
</svg>
