<svg width="40" height="40" viewBox="0 0 40 40" fill="none" xmlns="http://www.w3.org/2000/svg">
<path d="M19.998 27.56C19.998 22.04 24.478 17.56 29.998 17.56C35.518 17.56 39.998 22.04 39.998 27.56C39.998 33.08 35.518 37.56 29.998 37.56C24.478 37.56 19.998 33.08 19.998 27.56ZM28.338 25.48C28.328 25.4 28.358 25.34 28.388 25.29C28.428 25.23 28.518 25.14 28.678 24.99C29.028 24.86 29.558 24.77 29.988 24.77C30.498 24.77 31.178 24.89 31.818 25.05C32.418 25.2 33.018 24.77 33.168 24.24C33.318 23.64 32.948 23.05 32.358 22.89C31.968 22.79 31.548 22.7 31.118 22.64V21.99C31.118 21.38 30.618 20.88 30.008 20.88C29.398 20.88 28.898 21.38 28.898 21.99V22.65C28.478 22.73 28.048 22.87 27.588 23.09C26.828 23.53 26.048 24.37 26.128 25.67C26.198 26.78 26.938 27.43 27.628 27.8C28.248 28.13 28.998 28.34 29.618 28.45L29.748 28.55C30.458 28.75 30.928 28.91 31.348 29.13C31.668 29.32 31.618 29.43 31.618 29.53C31.688 29.7 31.648 29.79 31.548 29.84C31.558 29.84 31.488 29.99 31.268 30.08C31.008 30.25 30.508 30.34 30.048 30.27C29.328 30.31 28.768 30.11 27.968 29.86C27.838 29.82 27.708 29.78 27.568 29.73C26.978 29.55 26.348 29.88 26.168 30.46C25.988 31.04 26.318 31.67 26.898 31.85C27.018 31.88 27.128 31.86 27.248 31.96C27.738 32.12 28.298 32.3 28.898 32.42V33.21C28.898 33.83 29.398 34.32 30.008 34.32C30.618 34.32 31.118 33.83 31.118 33.21V32.46C31.548 32.38 31.988 32.24 32.388 32.03C33.218 31.57 33.928 30.73 33.828 29.46C33.858 28.34 33.178 27.64 32.468 27.22C31.818 26.83 30.988 26.6 30.338 26.41C29.608 26.2 29.068 26.05 28.678 25.84C28.348 25.66 28.348 25.56 28.348 25.53V25.46L28.338 25.48Z" fill="#13EF93"/>
<path opacity="0.4" d="M32.778 2C33.858 2 34.828 2.62 35.288 3.59C35.758 4.56 35.608 5.71 34.868 6.54L27.528 15.59C21.958 16.74 17.718 21.66 17.718 27.56C17.718 29.46 18.218 31.27 18.998 32.87C18.878 32.81 18.778 32.75 18.668 32.67L14.228 29.34C13.668 28.92 13.338 28.26 13.338 27.56V22.07L0.627981 6.54C-0.0520192 5.71 -0.192019 4.56 0.267981 3.59C0.727981 2.62 1.69798 2 2.77798 2H32.778Z" fill="#13EF93"/>
</svg>
