<svg width="40" height="40" viewBox="0 0 40 40" fill="none" xmlns="http://www.w3.org/2000/svg">
<path d="M0.268582 3.59C0.728582 2.62 1.69858 2 2.77858 2H32.7786C33.8586 2 34.8286 2.62 35.2886 3.59C35.7486 4.56 35.6086 5.71 34.9286 6.54L27.5286 15.58C21.9586 16.73 17.7786 21.65 17.7786 27.55C17.7786 29.45 18.2186 31.26 18.9986 32.86C18.8886 32.8 18.7786 32.73 18.6686 32.66L14.2286 29.33C13.6686 28.91 13.3386 28.25 13.3386 27.55V22.06L0.618582 6.53C-0.0514185 5.71 -0.191418 4.56 0.268582 3.59ZM39.9986 27.56C39.9986 33.08 35.5186 37.56 29.9986 37.56C24.4786 37.56 19.9986 33.08 19.9986 27.56C19.9986 22.04 24.4786 17.56 29.9986 17.56C35.5186 17.56 39.9986 22.04 39.9986 27.56ZM28.3886 25.3C28.4286 25.24 28.5186 25.15 28.6786 25.06C29.0286 24.87 29.5486 24.78 29.9786 24.78C30.5486 24.78 31.1686 24.91 31.8086 25.06C32.4086 25.21 33.0086 24.84 33.1586 24.25C33.3086 23.66 32.9386 23.05 32.3486 22.9C31.9586 22.8 31.5386 22.71 31.1086 22.64V21.99C31.1086 21.38 30.6086 20.88 29.9986 20.88C29.3886 20.88 28.8886 21.38 28.8886 21.99V22.65C28.4686 22.73 28.0386 22.87 27.6386 23.09C26.8186 23.53 26.0386 24.37 26.1286 25.67C26.1986 26.78 26.9386 27.43 27.6286 27.8C28.2386 28.13 28.9986 28.34 29.6186 28.52L29.7486 28.55C30.4686 28.75 30.9886 28.91 31.3586 29.13C31.6686 29.32 31.6886 29.42 31.6886 29.52C31.6886 29.69 31.6586 29.78 31.6186 29.83C31.5786 29.9 31.4886 29.98 31.3386 30.06C31.0086 30.23 30.5186 30.32 30.0586 30.31C29.3986 30.29 28.7786 30.09 27.9786 29.84C27.8486 29.8 27.7186 29.76 27.5786 29.71C26.9986 29.53 26.3686 29.86 26.1886 30.44C26.0086 31.02 26.3386 31.65 26.9186 31.83C27.0286 31.86 27.1486 31.9 27.2686 31.94C27.7586 32.1 28.3186 32.27 28.9186 32.4V33.19C28.9186 33.8 29.4186 34.3 30.0286 34.3C30.6386 34.3 31.1386 33.8 31.1386 33.19V32.45C31.5686 32.37 32.0086 32.23 32.4086 32.02C33.2486 31.57 33.9586 30.72 33.9186 29.46C33.8886 28.33 33.1986 27.63 32.4986 27.22C31.8486 26.83 31.0286 26.6 30.3786 26.42H30.3686C29.6486 26.22 29.0986 26.06 28.7086 25.85C28.3786 25.67 28.3786 25.57 28.3786 25.54C28.3786 25.4 28.3986 25.33 28.4386 25.28L28.3886 25.3Z" fill="white"/>
</svg>
