<svg width="40" height="40" viewBox="0 0 40 40" fill="none" xmlns="http://www.w3.org/2000/svg">
<g clip-path="url(#clip0_1759_4767)">
<path d="M23.47 12.98C24.26 12.98 24.98 13.43 25.33 14.13L25.8 15.06H32.04C33.19 15.06 34.12 15.99 34.12 17.14C34.12 18.29 33.19 19.22 32.04 19.22H7.08C5.93 19.22 5 18.29 5 17.14C5 15.99 5.93 15.06 7.08 15.06H13.32L13.79 14.13C14.14 13.43 14.86 12.98 15.65 12.98H23.48H23.47Z" fill="#13EF93"/>
<path opacity="0.4" d="M32.04 36.82C32.04 38.59 30.17 40.02 27.88 40.02H11.24C8.93999 40.02 7.07999 38.58 7.07999 36.82V19.22H32.04V36.82ZM14.36 23.22C14.36 22.78 13.89 22.42 13.32 22.42C12.75 22.42 12.28 22.78 12.28 23.22V34.42C12.28 34.86 12.75 35.22 13.32 35.22C13.89 35.22 14.36 34.86 14.36 34.42V23.22ZM20.6 23.22C20.6 22.78 20.13 22.42 19.56 22.42C18.99 22.42 18.52 22.78 18.52 23.22V34.42C18.52 34.86 18.99 35.22 19.56 35.22C20.13 35.22 20.6 34.86 20.6 34.42V23.22ZM26.84 23.22C26.84 22.78 26.37 22.42 25.8 22.42C25.23 22.42 24.76 22.78 24.76 23.22V34.42C24.76 34.86 25.23 35.22 25.8 35.22C26.37 35.22 26.84 34.86 26.84 34.42V23.22Z" fill="#13EF93"/>
<path d="M20.27 0.88V1.44C20.65 1.49 21.04 1.59 21.42 1.7C21.5 1.72 21.57 1.74 21.64 1.76C22.1 1.89 22.37 2.36 22.24 2.81C22.11 3.26 21.64 3.53 21.19 3.41C21.13 3.39 21.07 3.37 21 3.36C20.72 3.28 20.45 3.21 20.16 3.15C19.64 3.05 19.03 3.1 18.54 3.31C18.1 3.5 17.74 3.96 18.24 4.28C18.63 4.53 19.1 4.66 19.56 4.78C19.66 4.8 19.75 4.83 19.84 4.86C20.46 5.03 21.25 5.26 21.84 5.66C22.61 6.19 22.97 7.04 22.8 7.96C22.64 8.85 22.02 9.43 21.28 9.73C20.97 9.86 20.63 9.94 20.28 9.98V10.58C20.28 11.05 19.9 11.44 19.42 11.44C18.94 11.44 18.56 11.06 18.56 10.58V9.89C17.99 9.76 17.42 9.58 16.86 9.39C16.41 9.24 16.17 8.76 16.32 8.31C16.47 7.86 16.95 7.62 17.4 7.77C17.5 7.8 17.6 7.84 17.7 7.87C18.15 8.02 18.61 8.18 19.07 8.25C19.74 8.35 20.28 8.29 20.64 8.15C21.12 7.96 21.34 7.39 20.87 7.08C20.47 6.81 19.97 6.67 19.5 6.54C19.41 6.52 19.32 6.49 19.23 6.46C18.63 6.29 17.88 6.08 17.32 5.72C16.55 5.22 16.15 4.4 16.32 3.48C16.48 2.62 17.15 2.04 17.87 1.73C18.09 1.63 18.32 1.56 18.56 1.5V0.86C18.56 0.39 18.94 0 19.42 0C19.9 0 20.28 0.38 20.28 0.86L20.27 0.88Z" fill="#13EF93"/>
</g>
<defs>
<clipPath id="clip0_1759_4767">
<rect width="40" height="40" fill="white"/>
</clipPath>
</defs>
</svg>
