<svg width="40" height="40" viewBox="0 0 40 40" fill="none" xmlns="http://www.w3.org/2000/svg">
<g clip-path="url(#clip0_1897_7089)">
<g clip-path="url(#clip1_1897_7089)">
<path d="M16.0234 5.72656C15.8203 5.28125 15.375 5 14.8906 5C14.4063 5 13.9609 5.28125 13.7578 5.72656L9.64063 14.6406L0.726563 18.75C0.28125 18.9531 0 19.3984 0 19.8906C0 20.3828 0.28125 20.8203 0.726563 21.0234L9.64063 25.1406L13.75 34.0469C13.9531 34.4922 14.3984 34.7734 14.8828 34.7734C15.3672 34.7734 15.8125 34.4922 16.0156 34.0469L20.1328 25.1328L29.0469 21.0156C29.4922 20.8125 29.7734 20.3672 29.7734 19.8828C29.7734 19.3984 29.4922 18.9531 29.0469 18.75L20.1406 14.6406L16.0234 5.72656Z" fill="#13EF93"/>
<path opacity="0.4" d="M25.5859 6.65625L30 5L31.6563 0.585938C31.7891 0.234375 32.125 0 32.5 0C32.875 0 33.2109 0.234375 33.3437 0.585938L35 5L39.4141 6.65625C39.7656 6.78906 40 7.125 40 7.5C40 7.875 39.7656 8.21094 39.4141 8.34375L35 10L33.3437 14.4141C33.2109 14.7656 32.875 15 32.5 15C32.125 15 31.7891 14.7656 31.6563 14.4141L30 10L25.5859 8.34375C25.2344 8.21094 25 7.875 25 7.5C25 7.125 25.2344 6.78906 25.5859 6.65625ZM25.5859 31.6563L30 30L31.6563 25.5859C31.7891 25.2344 32.125 25 32.5 25C32.875 25 33.2109 25.2344 33.3437 25.5859L35 30L39.4141 31.6563C39.7656 31.7891 40 32.125 40 32.5C40 32.875 39.7656 33.2109 39.4141 33.3437L35 35L33.3437 39.4141C33.2109 39.7656 32.875 40 32.5 40C32.125 40 31.7891 39.7656 31.6563 39.4141L30 35L25.5859 33.3437C25.2344 33.2109 25 32.875 25 32.5C25 32.125 25.2344 31.7891 25.5859 31.6563Z" fill="#13EF93"/>
</g>
</g>
<defs>
<clipPath id="clip0_1897_7089">
<rect width="40" height="40" fill="white"/>
</clipPath>
<clipPath id="clip1_1897_7089">
<rect width="40" height="40" fill="white"/>
</clipPath>
</defs>
</svg>
