<svg width="40" height="40" viewBox="0 0 40 40" fill="none" xmlns="http://www.w3.org/2000/svg">
<g clip-path="url(#clip0_1659_5000)">
<path d="M19.9725 39.0006C17.3508 39.0006 14.6879 38.4543 12.1468 37.3026C2.60554 32.9732 -1.63155 21.6887 2.6979 12.1474C7.02736 2.60804 18.3118 -1.63298 27.8532 2.69844C37.3945 7.0279 41.6315 18.3124 37.3021 27.8537C34.1243 34.8539 27.2027 39.0006 19.9725 39.0006ZM20.0275 1.56646C13.0116 1.56646 6.29628 5.58933 3.2128 12.3812C-0.988913 21.6376 3.12436 32.586 12.3807 36.7877C21.6371 40.9895 32.5855 36.8762 36.7872 27.6198C40.9889 18.3635 36.8756 7.41505 27.6193 3.21334C25.1568 2.09511 22.5706 1.56646 20.0275 1.56646Z" fill="white" stroke="white"/>
<path d="M19.9998 4.89758C11.7674 4.89758 5.0737 11.4831 4.90076 19.6743H35.0989C34.9259 11.4831 28.2323 4.89758 19.9998 4.89758ZM19.6991 14.9381H12.1919C11.4136 14.9381 10.7769 14.3013 10.7769 13.5231C10.7769 12.7448 11.4136 12.1081 12.1919 12.1081H19.6991C20.4774 12.1081 21.1141 12.7448 21.1141 13.5231C21.1141 14.3013 20.4774 14.9381 19.6991 14.9381ZM24.1288 14.8948C23.3604 14.8948 22.7354 14.2718 22.7354 13.5015C22.7354 12.7311 23.3584 12.1081 24.1288 12.1081C24.8992 12.1081 25.5222 12.7311 25.5222 13.5015C25.5222 14.2718 24.8992 14.8948 24.1288 14.8948ZM27.8294 14.8948C27.061 14.8948 26.436 14.2718 26.436 13.5015C26.436 12.7311 27.059 12.1081 27.8294 12.1081C28.5998 12.1081 29.2227 12.7311 29.2227 13.5015C29.2227 14.2718 28.5998 14.8948 27.8294 14.8948Z" fill="white"/>
<path d="M4.90076 20.3268C5.0737 28.518 11.7674 35.1036 19.9998 35.1036C28.2323 35.1036 34.9259 28.518 35.0989 20.3268H4.90076ZM19.7011 27.9953H12.1938C11.4156 27.9953 10.7788 27.3585 10.7788 26.5803C10.7788 25.802 11.4156 25.1653 12.1938 25.1653H19.7011C20.4793 25.1653 21.1161 25.802 21.1161 26.5803C21.1161 27.3585 20.4793 27.9953 19.7011 27.9953ZM24.1308 27.952C23.3624 27.952 22.7374 27.329 22.7374 26.5587C22.7374 25.7883 23.3604 25.1653 24.1308 25.1653C24.9011 25.1653 25.5241 25.7883 25.5241 26.5587C25.5241 27.329 24.9011 27.952 24.1308 27.952ZM27.8313 27.952C27.0629 27.952 26.438 27.329 26.438 26.5587C26.438 25.7883 27.061 25.1653 27.8313 25.1653C28.6017 25.1653 29.2247 25.7883 29.2247 26.5587C29.2247 27.329 28.6017 27.952 27.8313 27.952Z" fill="white"/>
</g>
<defs>
<clipPath id="clip0_1659_5000">
<rect width="40" height="40" fill="white"/>
</clipPath>
</defs>
</svg>
