<svg width="40" height="40" viewBox="0 0 40 40" fill="none" xmlns="http://www.w3.org/2000/svg">
<g clip-path="url(#clip0_1712_4773)">
<path d="M19.9725 39.0006C17.3508 39.0006 14.6879 38.4543 12.1468 37.3026C2.60554 32.9732 -1.63155 21.6887 2.6979 12.1474C7.02736 2.60804 18.3118 -1.63298 27.8532 2.69844C37.3945 7.0279 41.6315 18.3124 37.3021 27.8537C34.1243 34.8539 27.2027 39.0006 19.9725 39.0006ZM20.0275 1.56646C13.0116 1.56646 6.29628 5.58933 3.2128 12.3812C-0.988913 21.6376 3.12436 32.586 12.3807 36.7877C21.6371 40.9895 32.5855 36.8762 36.7872 27.6198C40.9889 18.3635 36.8756 7.41505 27.6193 3.21334C25.1568 2.09511 22.5706 1.56646 20.0275 1.56646Z" fill="#13EF93" stroke="#13EF93"/>
<path opacity="0.4" d="M4.91931 19.6562C5.10175 11.4835 11.7835 4.91574 19.9998 4.91574C28.2161 4.91574 34.8979 11.4835 35.0803 19.6562H4.91931ZM12.1919 14.9562H19.6991C20.4874 14.9562 21.1323 14.3114 21.1323 13.5231C21.1323 12.7348 20.4874 12.0899 19.6991 12.0899H12.1919C11.4036 12.0899 10.7587 12.7348 10.7587 13.5231C10.7587 14.3114 11.4036 14.9562 12.1919 14.9562ZM22.7173 13.5015C22.7173 14.2819 23.3504 14.913 24.1288 14.913C24.9092 14.913 25.5403 14.2819 25.5403 13.5015C25.5403 12.7211 24.9092 12.0899 24.1288 12.0899C23.3484 12.0899 22.7173 12.7211 22.7173 13.5015ZM26.4179 13.5015C26.4179 14.2819 27.051 14.913 27.8294 14.913C28.6098 14.913 29.2409 14.2819 29.2409 13.5015C29.2409 12.7211 28.6098 12.0899 27.8294 12.0899C27.049 12.0899 26.4179 12.7211 26.4179 13.5015Z" fill="#13EF93" stroke="#13EF93" stroke-width="0.0363129"/>
<path opacity="0.4" d="M19.9998 35.0854C11.7835 35.0854 5.10175 28.5177 4.91931 20.345H35.0803C34.8979 28.5177 28.2161 35.0854 19.9998 35.0854ZM12.1938 28.0134H19.7011C20.4894 28.0134 21.1342 27.3685 21.1342 26.5803C21.1342 25.792 20.4894 25.1471 19.7011 25.1471H12.1938C11.4055 25.1471 10.7607 25.792 10.7607 26.5803C10.7607 27.3685 11.4055 28.0134 12.1938 28.0134ZM22.7192 26.5587C22.7192 27.3391 23.3523 27.9702 24.1308 27.9702C24.9112 27.9702 25.5423 27.3391 25.5423 26.5587C25.5423 25.7783 24.9112 25.1471 24.1308 25.1471C23.3504 25.1471 22.7192 25.7783 22.7192 26.5587ZM26.4198 26.5587C26.4198 27.3391 27.0529 27.9702 27.8313 27.9702C28.6118 27.9702 29.2429 27.3391 29.2429 26.5587C29.2429 25.7783 28.6118 25.1471 27.8313 25.1471C27.0509 25.1471 26.4198 25.7783 26.4198 26.5587Z" fill="#13EF93" stroke="#13EF93" stroke-width="0.0363129"/>
<path d="M24.1288 14.8767C23.3704 14.8767 22.7536 14.2618 22.7536 13.5015C22.7536 12.7411 23.3685 12.1262 24.1288 12.1262C24.8892 12.1262 25.504 12.7411 25.504 13.5015C25.504 14.2618 24.8892 14.8767 24.1288 14.8767ZM27.8294 14.8767C27.071 14.8767 26.4542 14.2618 26.4542 13.5015C26.4542 12.7411 27.0691 12.1262 27.8294 12.1262C28.5898 12.1262 29.2046 12.7411 29.2046 13.5015C29.2046 14.2618 28.5898 14.8767 27.8294 14.8767Z" fill="#13EF93" stroke="#13EF93" stroke-width="0.0363129"/>
<path d="M19.6991 14.9199H12.1918C11.4236 14.9199 10.795 14.2913 10.795 13.5231C10.795 12.7549 11.4236 12.1262 12.1918 12.1262H19.6991C20.4673 12.1262 21.0959 12.7549 21.0959 13.5231C21.0959 14.2913 20.4673 14.9199 19.6991 14.9199Z" fill="#13EF93" stroke="#13EF93" stroke-width="0.0363129"/>
<path d="M19.7011 27.9771H12.1938C11.4256 27.9771 10.797 27.3485 10.797 26.5803C10.797 25.8121 11.4256 25.1834 12.1938 25.1834H19.7011C20.4693 25.1834 21.0979 25.8121 21.0979 26.5803C21.0979 27.3485 20.4693 27.9771 19.7011 27.9771ZM24.1307 27.9339C23.3723 27.9339 22.7555 27.319 22.7555 26.5586C22.7555 25.7983 23.3704 25.1834 24.1307 25.1834C24.8911 25.1834 25.506 25.7983 25.506 26.5586C25.506 27.319 24.8911 27.9339 24.1307 27.9339ZM27.8313 27.9339C27.0729 27.9339 26.4561 27.319 26.4561 26.5586C26.4561 25.7983 27.071 25.1834 27.8313 25.1834C28.5917 25.1834 29.2065 25.7983 29.2065 26.5586C29.2065 27.319 28.5917 27.9339 27.8313 27.9339Z" fill="#13EF93" stroke="#13EF93" stroke-width="0.0363129"/>
</g>
<defs>
<clipPath id="clip0_1712_4773">
<rect width="40" height="40" fill="white"/>
</clipPath>
</defs>
</svg>
