<svg width="40" height="40" viewBox="0 0 40 40" fill="none" xmlns="http://www.w3.org/2000/svg">
<path d="M30.85 23.56L25.84 28.29C25.6 28.52 25.24 28.58 24.94 28.45C24.64 28.32 24.44 28.02 24.44 27.69V25.18H15.55V27.69C15.55 28.02 15.35 28.32 15.05 28.46C14.74 28.59 14.39 28.53 14.15 28.3L9.13999 23.57C8.80999 23.26 8.80999 22.67 9.13999 22.36L14.15 17.64C14.39 17.41 14.75 17.35 15.05 17.48C15.36 17.61 15.56 17.91 15.56 18.24V20.74H24.45V18.24C24.45 17.91 24.65 17.61 24.95 17.47C25.26 17.34 25.61 17.4 25.85 17.63L30.86 22.36C31.19 22.68 31.19 23.26 30.86 23.57L30.85 23.56Z" fill="#13EF93"/>
<path opacity="0.4" d="M6.66 10.89C9.12 10.89 11.1 8.9 11.1 6.45C11.1 4 9.11 2 6.66 2C4.21 2 2.21 3.99 2.21 6.44C2.21 8.89 4.2 10.88 6.65 10.88L6.66 10.89ZM8.88 13.11H4.44C1.99 13.11 0 15.1 0 17.55V24.22C0 25.45 1 26.44 2.16 26.44L2.22 35.33C2.22 36.56 3.22 37.55 4.44 37.55H8.88C10.11 37.55 11.1 36.55 11.1 35.33V28.64L7.6 25.34C6.94 24.77 6.65 23.96 6.65 23.12C6.65 22.28 7 21.47 7.6 20.9L12.61 16.17C12.72 16.06 12.87 16.01 13 15.92C12.29 14.28 10.75 13.11 8.88 13.11ZM33.32 10.89C35.78 10.89 37.76 8.9 37.76 6.45C37.76 4 35.77 2.01 33.32 2.01C30.87 2.01 28.88 4 28.88 6.45C28.88 8.9 30.87 10.89 33.32 10.89ZM35.54 13.11H31.1C29.29 13.11 27.63 14.27 26.98 15.92C27.11 16.01 27.26 16.06 27.37 16.17L32.38 20.9C32.98 21.46 33.33 22.28 33.33 23.12C33.33 23.96 32.98 24.77 32.38 25.34L28.88 28.64V35.33C28.88 36.56 29.88 37.55 31.1 37.55H35.54C36.77 37.55 37.76 36.55 37.76 35.33V26.44C38.99 26.44 39.98 25.44 39.98 24.22V17.55C39.98 15.1 37.99 13.11 35.54 13.11Z" fill="#13EF93"/>
</svg>
