<svg width="40" height="40" viewBox="0 0 40 40" fill="none" xmlns="http://www.w3.org/2000/svg">
<path d="M2.83579 7.29C2.83579 4.92 4.75579 3 7.12579 3C9.49579 3 11.4158 4.92 11.4158 7.29C11.4158 9.66 9.49579 11.58 7.12579 11.58C4.75579 11.58 2.83579 9.66 2.83579 7.29ZM0.285791 18.64C0.515791 15.86 2.83579 13.72 5.62579 13.72H8.62579C10.4358 13.72 12.0458 14.62 13.0158 16.01C12.8358 16.14 12.6658 16.28 12.5158 16.43L8.22579 20.72C6.75579 22.19 6.75579 24.56 8.22579 26.03L11.4158 29.22V34.1C11.4158 35.88 9.97579 37.32 8.19579 37.32H6.05579C4.27579 37.32 2.83579 35.88 2.83579 34.1V26.35C1.06579 25.71 -0.154209 23.94 0.0157911 21.95L0.285791 18.65V18.64ZM28.5758 7.29C28.5758 4.92 30.4958 3 32.8658 3C35.2358 3 37.1558 4.92 37.1558 7.29C37.1558 9.66 35.2358 11.58 32.8658 11.58C30.4958 11.58 28.5758 9.66 28.5758 7.29ZM27.4758 16.43C27.3258 16.28 27.1458 16.14 26.9758 16.01C27.9458 14.62 29.5658 13.72 31.3658 13.72H34.3658C37.1558 13.72 39.4758 15.86 39.7058 18.64L39.9758 21.94C40.1458 23.94 38.9258 25.7 37.1458 26.34V34.09C37.1458 35.87 35.7058 37.31 33.9258 37.31H31.7858C30.0058 37.31 28.5658 35.87 28.5658 34.09V29.21L31.7558 26.02C33.2258 24.55 33.2258 22.18 31.7558 20.71L27.4658 16.42L27.4758 16.43ZM16.7758 19.08V21.22H23.2058V19.08C23.2058 18.43 23.5958 17.84 24.1958 17.59C24.7958 17.34 25.4858 17.48 25.9558 17.94L30.2458 22.23C30.8758 22.86 30.8758 23.88 30.2458 24.5L25.9558 28.79C25.4958 29.25 24.8058 29.39 24.1958 29.14C23.5858 28.89 23.2058 28.3 23.2058 27.65V25.51H16.7758V27.65C16.7758 28.3 16.3858 28.89 15.7858 29.14C15.1858 29.39 14.4958 29.25 14.0258 28.79L9.73579 24.5C9.10579 23.87 9.10579 22.85 9.73579 22.23L14.0258 17.94C14.4858 17.48 15.1758 17.34 15.7858 17.59C16.3958 17.84 16.7758 18.43 16.7758 19.08Z" fill="white"/>
</svg>
