<svg width="40" height="40" viewBox="0 0 40 40" fill="none" xmlns="http://www.w3.org/2000/svg">
<g clip-path="url(#clip0_1691_4673)">
<g clip-path="url(#clip1_1691_4673)">
<path d="M20 21.25C23.11 21.25 25.62 18.73 25.62 15.63C25.62 12.53 23.1 10.01 20 10.01C16.9 10.01 14.38 12.53 14.38 15.63C14.38 18.73 16.9 21.25 20 21.25ZM22.5 25H17.5C13.79 25 10.66 27.33 9.40002 30.6C12.12 33.32 15.87 35 20 35C24.13 35 27.88 33.32 30.6 30.6C29.33 27.33 26.21 25 22.5 25Z" fill="#13EF93"/>
<path opacity="0.4" d="M20 0C8.95 0 0 8.95 0 20C0 31.05 8.95 40 20 40C31.05 40 40 31.05 40 20C40 8.95 31.05 0 20 0ZM20 10C23.11 10 25.62 12.52 25.62 15.62C25.62 18.72 23.1 21.24 20 21.24C16.9 21.24 14.38 18.72 14.38 15.62C14.38 12.52 16.9 10 20 10ZM20 35C15.86 35 12.12 33.32 9.4 30.6C10.67 27.33 13.79 25 17.5 25H22.5C26.21 25 29.34 27.33 30.6 30.6C27.88 33.32 24.13 35 20 35Z" fill="#13EF93"/>
</g>
</g>
<defs>
<clipPath id="clip0_1691_4673">
<rect width="40" height="40" fill="white"/>
</clipPath>
<clipPath id="clip1_1691_4673">
<rect width="40" height="40" fill="white"/>
</clipPath>
</defs>
</svg>
