<svg width="40" height="40" viewBox="0 0 40 40" fill="none" xmlns="http://www.w3.org/2000/svg">
<g clip-path="url(#clip0_1691_4671)">
<path d="M31.17 30.02C29.44 27.02 26.2 25 22.5 25H17.5C13.8 25 10.55 27.02 8.83 30.02C11.58 33.08 15.56 35 20 35C24.44 35 28.42 33.07 31.17 30.02ZM0 20C0 8.95 8.95 0 20 0C31.05 0 40 8.95 40 20C40 31.05 31.05 40 20 40C8.95 40 0 31.05 0 20ZM20 21.25C23.11 21.25 25.62 18.73 25.62 15.63C25.62 12.53 23.1 10.01 20 10.01C16.9 10.01 14.38 12.53 14.38 15.63C14.38 18.73 16.9 21.25 20 21.25Z" fill="white"/>
</g>
<defs>
<clipPath id="clip0_1691_4671">
<rect width="40" height="40" fill="white"/>
</clipPath>
</defs>
</svg>
