<svg width="40" height="40" viewBox="0 0 40 40" fill="none" xmlns="http://www.w3.org/2000/svg">
<g clip-path="url(#clip0_1689_4790)">
<path d="M39.62 31.62L39.94 30.24C40.21 29.09 39.61 27.92 38.52 27.44L30.05 23.81C29.05 23.39 27.89 23.67 27.2 24.51L25.87 26.12L39.62 31.62ZM0 4.26C0 23.96 16.03 40 35.74 40C36.88 40 37.87 39.22 38.12 38.11L38.85 34.93L23.75 28.71C18.34 26.05 13.94 21.66 11.29 16.18L5.07 1.15L1.89 1.88C0.78 2.13 0 3.11 0 4.26ZM15.49 12.81C16.33 12.13 16.62 10.96 16.19 9.96L12.56 1.48C12.09 0.390001 10.9 -0.199999 9.69 0.060001L8.38 0.380001L13.87 14.12L15.49 12.8V12.81Z" fill="#13EF93"/>
<path opacity="0.4" d="M38.85 34.93L39.61 31.62L25.93 26.12L23.81 28.71L38.84 34.93H38.85ZM11.29 16.18L13.88 14.13L8.38001 0.379997L5.07001 1.14L11.29 16.17V16.18Z" fill="#13EF93"/>
</g>
<defs>
<clipPath id="clip0_1689_4790">
<rect width="40" height="40" fill="white"/>
</clipPath>
</defs>
</svg>
