<svg width="40" height="40" viewBox="0 0 40 40" fill="none" xmlns="http://www.w3.org/2000/svg">
<g clip-path="url(#clip0_1689_4788)">
<path d="M12.88 1.92C12.28 0.470003 10.69 -0.299997 9.18 0.110003L2.3 1.99C0.94 2.36 0 3.6 0 5.01C0 24.34 15.67 40.01 35 40.01C36.41 40.01 37.64 39.06 38.02 37.71L39.89 30.84C40.3 29.32 39.53 27.74 38.08 27.14L30.58 24.02C29.31 23.49 27.83 23.86 26.96 24.93L23.8 28.78C18.3 26.18 13.85 21.73 11.25 16.23L15.1 13.08C16.17 12.21 16.54 10.74 16.01 9.46L12.89 1.96L12.88 1.92Z" fill="white"/>
</g>
<defs>
<clipPath id="clip0_1689_4788">
<rect width="40" height="40" fill="white"/>
</clipPath>
</defs>
</svg>
