<svg width="40" height="40" viewBox="0 0 40 40" fill="none" xmlns="http://www.w3.org/2000/svg">
<g clip-path="url(#clip0_1658_5009)">
<path d="M20 1.88C20 0.84 20.84 0 21.87 0C31.88 0 40 8.12 40 18.13C40 19.17 39.16 20 38.13 20C37.1 20 36.26 19.16 36.26 18.13C36.26 10.19 29.82 3.76 21.89 3.76C20.85 3.76 20.02 2.92 20.02 1.89L20 1.88ZM20 17.5C20 16.12 21.12 15 22.5 15C23.88 15 25 16.12 25 17.5C25 18.88 23.88 20 22.5 20C21.12 20 20 18.88 20 17.5ZM21.87 7.5C27.74 7.5 32.49 12.26 32.49 18.12C32.49 19.16 31.65 19.99 30.62 19.99C29.59 19.99 28.75 19.15 28.75 18.12C28.75 14.32 25.67 11.25 21.88 11.25C20.84 11.25 20.01 10.41 20.01 9.38C20.01 8.35 20.85 7.51 21.88 7.51L21.87 7.5Z" fill="white"/>
<path d="M12.88 1.91999C12.28 0.469988 10.69 -0.300012 9.18 0.109988L2.3 1.98999C0.94 2.35999 0 3.59999 0 5.00999C0 24.34 15.67 40.01 35 40.01C36.41 40.01 37.64 39.06 38.02 37.71L39.89 30.84C40.3 29.32 39.53 27.74 38.08 27.14L30.58 24.02C29.31 23.49 27.83 23.86 26.96 24.93L23.8 28.78C18.3 26.18 13.85 21.73 11.25 16.23L15.1 13.08C16.17 12.21 16.54 10.74 16.01 9.45999L12.89 1.95999L12.88 1.91999Z" fill="white"/>
</g>
<defs>
<clipPath id="clip0_1658_5009">
<rect width="40" height="40" fill="white"/>
</clipPath>
</defs>
</svg>
