<svg width="40" height="40" viewBox="0 0 40 40" fill="none" xmlns="http://www.w3.org/2000/svg">
<path d="M36.5656 18.3438H20.0764V2.19816C20.0764 1.54561 20.5266 1 21.2573 1C30.3877 1 37.7909 8.24824 37.7909 17.1875C37.7909 17.8379 37.2299 18.3438 36.5656 18.3438ZM38.8537 21.8125C39.5328 21.8125 40.079 22.3762 39.9904 23.041C39.4221 27.0807 37.4292 30.6723 34.5358 33.3244C34.093 33.6713 33.3991 33.7002 32.971 33.2811L21.2573 21.8125H38.8537Z" fill="white"/>
<path d="M0 20.6562C0 11.8904 6.65031 4.63785 15.2123 3.4751C15.9578 3.38404 16.5335 3.91664 16.5335 4.5851V21.8125L28.0848 33.1221C28.5793 33.6062 28.5424 34.4012 27.9741 34.7986C25.0807 36.8148 21.5378 38 17.7145 38C7.9346 38 0 30.2387 0 20.6562Z" fill="white"/>
</svg>
