<svg width="40" height="40" viewBox="0 0 40 40" fill="none" xmlns="http://www.w3.org/2000/svg">
<g clip-path="url(#clip0_1659_5033)">
<g clip-path="url(#clip1_1659_5033)">
<path d="M26.6978 34.6456C27.065 34.6456 27.3835 34.3705 27.4247 33.9961C28.1835 27.3704 27.0613 25.4669 26.932 25.2703L25.7123 26.0826L25.6992 26.0639C25.7086 26.0808 26.6585 27.799 25.969 33.8296C25.9222 34.232 26.2126 34.5951 26.6135 34.64C26.6416 34.6437 26.6697 34.6456 26.6978 34.6456Z" fill="white"/>
<path d="M29.1332 34.6456C29.5004 34.6456 29.8189 34.3705 29.8602 33.9961C30.6189 27.3704 29.4967 25.4669 29.3674 25.2703L28.1477 26.0826L28.1346 26.0639C28.144 26.0808 29.0939 27.799 28.4044 33.8296C28.3576 34.232 28.648 34.5951 29.0489 34.64C29.077 34.6437 29.1051 34.6456 29.1332 34.6456Z" fill="white"/>
<path d="M24.2619 34.6456C24.6291 34.6456 24.9476 34.3705 24.9888 33.9961C25.7476 27.3704 24.6254 25.4669 24.4961 25.2703L23.2764 26.0826L23.2633 26.0639C23.2727 26.0808 24.2225 27.799 23.5331 33.8296C23.4862 34.232 23.7766 34.5951 24.1776 34.64C24.2057 34.6437 24.2338 34.6456 24.2619 34.6456Z" fill="white"/>
<path d="M21.8265 34.6456C22.1937 34.6456 22.5122 34.3705 22.5534 33.9961C23.3122 27.3704 22.1899 25.4669 22.0607 25.2703L20.841 26.0826L20.8279 26.0639C20.8372 26.0808 21.7871 27.799 21.0977 33.8296C21.0508 34.232 21.3412 34.5951 21.7422 34.64C21.7703 34.6437 21.7984 34.6456 21.8265 34.6456Z" fill="white"/>
<path d="M12.1531 34.6456C12.1812 34.6456 12.2093 34.6456 12.2374 34.64C12.6403 34.5932 12.9288 34.2301 12.8819 33.8296C12.1925 27.799 13.1405 26.0808 13.1517 26.0639L13.1386 26.0826L11.9189 25.2703C11.7878 25.465 10.6674 27.3685 11.4262 33.9961C11.4693 34.3705 11.7859 34.6456 12.1531 34.6456Z" fill="white"/>
<path d="M9.71784 34.6456C9.74594 34.6456 9.77404 34.6456 9.80215 34.64C10.205 34.5932 10.4935 34.2301 10.4466 33.8296C9.75718 27.799 10.7052 26.0808 10.7164 26.0639L10.7033 26.0826L9.48364 25.2703C9.3525 25.465 8.23212 27.3685 8.9909 33.9961C9.034 34.3705 9.35062 34.6456 9.71784 34.6456Z" fill="white"/>
<path d="M14.5891 34.6456C14.6172 34.6456 14.6453 34.6456 14.6734 34.64C15.0762 34.5932 15.3647 34.2301 15.3179 33.8296C14.6284 27.799 15.5764 26.0808 15.5876 26.0639L15.5745 26.0826L14.3549 25.2703C14.2237 25.465 13.1033 27.3685 13.8621 33.9961C13.9052 34.3705 14.2218 34.6456 14.5891 34.6456Z" fill="white"/>
<path d="M17.0245 34.6457C17.0339 34.6457 17.0432 34.6457 17.0545 34.6457C17.4592 34.6307 17.7739 34.2901 17.7589 33.8858C17.5154 27.6924 18.0849 25.9423 18.0906 25.9255C18.2329 25.5474 18.0381 25.13 17.6596 24.9878C17.2793 24.8455 16.8559 25.0439 16.7135 25.422C16.6442 25.6092 16.0372 27.4322 16.292 33.9438C16.3069 34.3387 16.6329 34.6476 17.0245 34.6476V34.6457Z" fill="white"/>
<path d="M19.3908 34.6457C19.7767 34.6457 20.099 34.3462 20.1215 33.9569C20.498 27.5726 20.1252 25.6148 20.1084 25.5343C20.0297 25.1375 19.6437 24.8811 19.2447 24.9597C18.8493 25.0383 18.5908 25.422 18.6695 25.8188C18.677 25.8544 19.0161 27.7804 18.6564 33.8708C18.632 34.2751 18.9411 34.6214 19.3458 34.6457C19.3608 34.6457 19.3758 34.6457 19.3889 34.6457H19.3908Z" fill="white"/>
<path d="M32.9761 22.6688C35.6496 22.6688 37.8248 21.3661 39.7695 18.6765C40.163 18.1319 40.0412 17.3719 39.496 16.977C38.9508 16.584 38.1901 16.7056 37.7948 17.2503C35.3442 20.6418 33.0267 20.6923 30.0833 19.6741C29.4482 19.4551 28.755 19.7902 28.5339 20.4265C28.3147 21.061 28.6501 21.7536 29.2871 21.9744C30.621 22.4349 31.8426 22.6688 32.9761 22.6688Z" fill="white"/>
<path fill-rule="evenodd" clip-rule="evenodd" d="M24.5676 5C23.7694 5 23.0538 5.35936 22.5666 5.919L22.5648 5.92087C22.398 6.06686 18.5479 9.60623 23.5727 17.5834L25.4257 16.4173C24.1479 14.3865 23.539 12.7563 23.3029 11.4723C23.6795 11.6782 24.1104 11.7961 24.5676 11.7961H26.2294C27.6851 11.7961 28.8767 10.6057 28.8767 9.15141V7.6447C28.8767 6.19039 27.6851 5 26.2294 5H24.5676ZM22.9337 8.39713C22.9337 9.75852 24.0384 10.8621 25.4012 10.8621C26.7639 10.8621 27.8686 9.75852 27.8686 8.39713C27.8686 7.03574 26.7639 5.93211 25.4012 5.93211C24.0384 5.93211 22.9337 7.03574 22.9337 8.39713Z" fill="white"/>
<path d="M25.1017 8.30916C25.1336 8.19499 25.2385 8.09204 25.364 8.08268C25.4727 8.0752 25.5851 8.1145 25.6525 8.20434C25.6956 8.26049 25.7144 8.32787 25.7144 8.399C25.7144 8.46264 25.6956 8.53938 25.6507 8.58804C25.6469 8.59178 25.6432 8.5974 25.6394 8.60114C25.5888 8.65729 25.5233 8.70596 25.4427 8.71157C25.3603 8.71719 25.2928 8.6966 25.2254 8.65168C25.2197 8.64793 25.216 8.64419 25.2104 8.64232C25.1916 8.6236 25.1729 8.60488 25.1542 8.58617C25.1411 8.56184 25.1279 8.53938 25.113 8.51504C25.083 8.45141 25.0848 8.37467 25.1036 8.31103L25.1017 8.30916Z" fill="white"/>
<path fill-rule="evenodd" clip-rule="evenodd" d="M14.7987 5C14.0005 5 13.2848 5.35936 12.7977 5.919L12.7958 5.92087C12.6291 6.06686 8.77898 9.60623 13.8038 17.5834L15.6567 16.4173C14.379 14.3865 13.7701 12.7563 13.534 11.4723C13.9106 11.6782 14.3415 11.7961 14.7987 11.7961H16.4605C17.9162 11.7961 19.1078 10.6057 19.1078 9.15141V7.6447C19.1078 6.19039 17.9162 5 16.4605 5H14.7987ZM13.1632 8.39713C13.1632 9.75852 14.2679 10.8621 15.6307 10.8621C16.9934 10.8621 18.0981 9.75852 18.0981 8.39713C18.0981 7.03574 16.9934 5.93211 15.6307 5.93211C14.2679 5.93211 13.1632 7.03574 13.1632 8.39713Z" fill="white"/>
<path d="M15.3327 8.30916C15.3645 8.19499 15.4694 8.09204 15.595 8.08268C15.7036 8.0752 15.816 8.1145 15.8835 8.20434C15.9266 8.26049 15.9453 8.32787 15.9453 8.399C15.9453 8.46264 15.9266 8.53938 15.8816 8.58804C15.8779 8.59178 15.8741 8.5974 15.8704 8.60114C15.8198 8.65729 15.7542 8.70596 15.6737 8.71157C15.5912 8.71719 15.5238 8.6966 15.4563 8.65168C15.4507 8.64793 15.447 8.64419 15.4413 8.64232C15.4226 8.6236 15.4039 8.60488 15.3851 8.58617C15.372 8.56184 15.3589 8.53938 15.3439 8.51504C15.3139 8.45141 15.3158 8.37467 15.3345 8.31103L15.3327 8.30916Z" fill="white"/>
<path fill-rule="evenodd" clip-rule="evenodd" d="M3.49193 21.5813V21.5832C3.49193 25.3004 6.5083 28.3138 10.2292 28.3138H28.2545C31.9753 28.3138 34.9917 25.3004 34.9917 21.5832V21.5813C34.9917 17.8641 31.9753 14.8507 28.2545 14.8507H10.2292C6.5083 14.8507 3.49193 17.8641 3.49193 21.5813ZM19.8501 18.8468C19.8295 18.6914 19.955 18.5529 20.1124 18.5529H20.1143H24.0131C24.1705 18.5529 24.296 18.6914 24.2754 18.8468C24.1311 19.9398 23.1962 20.7821 22.0627 20.7821C20.9293 20.7821 19.9944 19.938 19.8501 18.8468Z" fill="white"/>
<path d="M22.4542 20.3892C22.4542 20.3892 21.7535 18.991 20.354 19.341C20.354 19.341 20.7043 20.3892 22.4542 20.3892Z" fill="white"/>
<path d="M1.2172 27.0897C1.7268 27.0897 2.20268 26.7678 2.37317 26.2568C3.61532 22.5341 5.8823 21.7891 7.93383 21.5514C8.60268 21.4747 9.08043 20.8701 9.00361 20.2019C8.9268 19.5337 8.32165 19.0546 7.6528 19.1332C3.76895 19.5824 1.35771 21.602 0.0612259 25.4876C-0.152357 26.1258 0.194247 26.8146 0.831249 27.0261C0.95865 27.0692 1.0898 27.0897 1.2172 27.0897Z" fill="white"/>
</g>
</g>
<defs>
<clipPath id="clip0_1659_5033">
<rect width="40" height="40" fill="white"/>
</clipPath>
<clipPath id="clip1_1659_5033">
<rect width="40" height="29.6457" fill="white" transform="matrix(-1 0 0 1 40 5)"/>
</clipPath>
</defs>
</svg>
