<svg width="40" height="40" viewBox="0 0 40 40" fill="none" xmlns="http://www.w3.org/2000/svg">
<g clip-path="url(#clip0_1712_4746)">
<g clip-path="url(#clip1_1712_4746)">
<circle opacity="0.4" cx="16" cy="8" r="3" fill="#13EF93"/>
<circle opacity="0.4" cx="25" cy="8" r="3" fill="#13EF93"/>
<path d="M25.1017 8.30916C25.1336 8.19499 25.2385 8.09204 25.364 8.08268C25.4727 8.0752 25.5851 8.1145 25.6525 8.20434C25.6956 8.26049 25.7144 8.32787 25.7144 8.399C25.7144 8.46264 25.6956 8.53938 25.6507 8.58804C25.6469 8.59178 25.6432 8.5974 25.6394 8.60114C25.5888 8.65729 25.5233 8.70596 25.4427 8.71157C25.3603 8.71719 25.2928 8.6966 25.2254 8.65168C25.2197 8.64793 25.216 8.64419 25.2104 8.64232C25.1916 8.6236 25.1729 8.60488 25.1542 8.58617C25.1411 8.56184 25.1279 8.53938 25.113 8.51504C25.083 8.45141 25.0848 8.37467 25.1036 8.31103L25.1017 8.30916Z" fill="#13EF93"/>
<path d="M15.3327 8.30916C15.3645 8.19499 15.4694 8.09204 15.595 8.08268C15.7036 8.0752 15.816 8.1145 15.8835 8.20434C15.9266 8.26049 15.9453 8.32787 15.9453 8.399C15.9453 8.46264 15.9266 8.53938 15.8816 8.58804C15.8779 8.59178 15.8741 8.5974 15.8704 8.60114C15.8198 8.65729 15.7542 8.70596 15.6737 8.71157C15.5912 8.71719 15.5238 8.6966 15.4563 8.65168C15.4507 8.64793 15.447 8.64419 15.4413 8.64232C15.4226 8.6236 15.4039 8.60488 15.3851 8.58617C15.372 8.56184 15.3589 8.53938 15.3439 8.51504C15.3139 8.45141 15.3158 8.37467 15.3345 8.31103L15.3327 8.30916Z" fill="#13EF93"/>
<path fill-rule="evenodd" clip-rule="evenodd" d="M3.49193 21.5813V21.5832C3.49193 25.3004 6.5083 28.3138 10.2292 28.3138H28.2545C31.9753 28.3138 34.9917 25.3004 34.9917 21.5832V21.5813C34.9917 17.8641 31.9753 14.8507 28.2545 14.8507H10.2292C6.5083 14.8507 3.49193 17.8641 3.49193 21.5813ZM19.8501 18.8468C19.8295 18.6914 19.955 18.5529 20.1124 18.5529H20.1143H24.0131C24.1705 18.5529 24.296 18.6914 24.2754 18.8468C24.1311 19.9398 23.1962 20.7821 22.0627 20.7821C20.9293 20.7821 19.9944 19.938 19.8501 18.8468Z" fill="#13EF93"/>
<path d="M22.4542 20.3892C22.4542 20.3892 21.7535 18.991 20.354 19.341C20.354 19.341 20.7043 20.3892 22.4542 20.3892Z" fill="#13EF93"/>
<path fill-rule="evenodd" clip-rule="evenodd" d="M22.5666 5.919C23.0538 5.35936 23.7694 5 24.5676 5H26.2294C27.6851 5 28.8767 6.19039 28.8767 7.6447V9.15141C28.8767 10.6057 27.6851 11.7961 26.2294 11.7961H24.5676C24.1104 11.7961 23.6795 11.6782 23.3029 11.4723C23.4749 12.4077 23.8448 13.5268 24.5269 14.8507H22.103C19.4356 8.79033 22.4184 6.04899 22.5648 5.92087L22.5666 5.919ZM25.4012 10.8621C24.0384 10.8621 22.9337 9.75852 22.9337 8.39713C22.9337 7.03574 24.0384 5.93211 25.4012 5.93211C26.7639 5.93211 27.8686 7.03574 27.8686 8.39713C27.8686 9.75852 26.7639 10.8621 25.4012 10.8621Z" fill="#13EF93"/>
<path d="M1.2172 27.0897C1.7268 27.0897 2.20268 26.7678 2.37317 26.2568C3.61532 22.5341 5.8823 21.7891 7.93383 21.5514C8.60268 21.4747 9.08043 20.8701 9.00361 20.2019C8.9268 19.5337 8.32165 19.0546 7.6528 19.1332C3.76895 19.5824 1.35771 21.602 0.0612259 25.4876C-0.152357 26.1258 0.194247 26.8146 0.831249 27.0261C0.95865 27.0692 1.0898 27.0897 1.2172 27.0897Z" fill="#13EF93"/>
<path fill-rule="evenodd" clip-rule="evenodd" d="M12.7977 5.919C13.2848 5.35936 14.0005 5 14.7987 5H16.4605C17.9162 5 19.1078 6.19039 19.1078 7.6447V9.15141C19.1078 10.6057 17.9162 11.7961 16.4605 11.7961H14.7987C14.3415 11.7961 13.9106 11.6782 13.534 11.4723C13.706 12.4077 14.0758 13.5268 14.758 14.8507H12.3341C9.66663 8.79033 12.6495 6.04899 12.7958 5.92087L12.7977 5.919ZM15.6307 10.8621C14.2679 10.8621 13.1632 9.75852 13.1632 8.39713C13.1632 7.03574 14.2679 5.93211 15.6307 5.93211C16.9934 5.93211 18.0981 7.03574 18.0981 8.39713C18.0981 9.75852 16.9934 10.8621 15.6307 10.8621Z" fill="#13EF93"/>
<path opacity="0.4" fill-rule="evenodd" clip-rule="evenodd" d="M30.0477 28.0728C30.1662 29.4072 30.1672 31.3151 29.8602 33.9962C29.8189 34.3705 29.5004 34.6456 29.1332 34.6456C29.1051 34.6456 29.077 34.6438 29.0489 34.64C28.648 34.5951 28.3576 34.232 28.4044 33.8296C28.6952 31.2866 28.6944 29.5105 28.5956 28.3053C29.0959 28.2804 29.5819 28.2009 30.0477 28.0728Z" fill="#13EF93"/>
<path opacity="0.4" fill-rule="evenodd" clip-rule="evenodd" d="M27.6319 28.3138C27.7299 29.6339 27.7137 31.4725 27.4247 33.9962C27.3835 34.3705 27.065 34.6456 26.6978 34.6456C26.6697 34.6456 26.6416 34.6438 26.6135 34.64C26.2126 34.5951 25.9222 34.232 25.969 33.8296C26.259 31.2926 26.259 29.5188 26.1608 28.3138H27.6319Z" fill="#13EF93"/>
<path opacity="0.4" fill-rule="evenodd" clip-rule="evenodd" d="M25.196 28.3138C25.2939 29.6339 25.2778 31.4725 24.9888 33.9962C24.9476 34.3705 24.6291 34.6456 24.2619 34.6456C24.2338 34.6456 24.2057 34.6438 24.1776 34.64C23.7766 34.5951 23.4862 34.232 23.5331 33.8296C23.8231 31.2926 23.823 29.5188 23.7249 28.3138H25.196Z" fill="#13EF93"/>
<path opacity="0.4" fill-rule="evenodd" clip-rule="evenodd" d="M22.7606 28.3138C22.8585 29.6339 22.8424 31.4725 22.5534 33.9962C22.5122 34.3705 22.1937 34.6456 21.8265 34.6456C21.7984 34.6456 21.7703 34.6438 21.7422 34.64C21.3412 34.5951 21.0508 34.232 21.0977 33.8296C21.3877 31.2926 21.3876 29.5188 21.2895 28.3138H22.7606Z" fill="#13EF93"/>
<path opacity="0.4" fill-rule="evenodd" clip-rule="evenodd" d="M20.2852 28.3138C20.3019 29.611 20.2699 31.4399 20.1215 33.957C20.099 34.3463 19.7767 34.6457 19.3908 34.6457H19.3889H19.3458C18.9411 34.6214 18.632 34.2751 18.6564 33.8709C18.8042 31.3676 18.834 29.5679 18.8173 28.3138H20.2852Z" fill="#13EF93"/>
<path opacity="0.4" fill-rule="evenodd" clip-rule="evenodd" d="M17.775 28.3138C17.6961 29.5462 17.6589 31.3409 17.7589 33.8858C17.7739 34.2901 17.4592 34.6307 17.0545 34.6457H17.0245V34.6476C16.6329 34.6476 16.3069 34.3388 16.292 33.9438C16.1934 31.424 16.2238 29.6063 16.3022 28.3138H17.775Z" fill="#13EF93"/>
<path opacity="0.4" fill-rule="evenodd" clip-rule="evenodd" d="M15.1255 28.3138C15.0276 29.5188 15.0278 31.2926 15.3179 33.8296C15.3647 34.2301 15.0762 34.5932 14.6734 34.64C14.6453 34.6456 14.6172 34.6456 14.5891 34.6456H14.5891C14.2219 34.6456 13.9052 34.3705 13.8622 33.9962C13.5732 31.4726 13.5568 29.634 13.6544 28.3138H15.1255Z" fill="#13EF93"/>
<path opacity="0.4" fill-rule="evenodd" clip-rule="evenodd" d="M12.6896 28.3138C12.5917 29.5188 12.5919 31.2926 12.882 33.8296C12.9288 34.2301 12.6403 34.5932 12.2375 34.64C12.2094 34.6456 12.1813 34.6456 12.1532 34.6456H12.1532C11.786 34.6456 11.4693 34.3705 11.4262 33.9962C11.1373 31.4726 11.1209 29.634 11.2185 28.3138H12.6896Z" fill="#13EF93"/>
<path opacity="0.4" fill-rule="evenodd" clip-rule="evenodd" d="M10.2543 28.3137C10.1564 29.5187 10.1566 31.2925 10.4467 33.8295C10.4935 34.2301 10.205 34.5932 9.80218 34.64C9.77408 34.6456 9.74598 34.6456 9.71788 34.6456H9.71787C9.35066 34.6456 9.03403 34.3705 8.99094 33.9961C8.69071 31.3737 8.68468 29.4909 8.79516 28.1609C9.25728 28.261 9.73708 28.3137 10.2292 28.3137H10.2543Z" fill="#13EF93"/>
<path fill-rule="evenodd" clip-rule="evenodd" d="M34.9414 22.4098C34.9746 22.1389 34.9917 21.863 34.9917 21.5832V21.5813C34.9917 21.0008 34.9181 20.4375 34.7798 19.9001C35.7976 19.4782 36.7849 18.6479 37.7948 17.2503C38.1901 16.7056 38.9508 16.584 39.496 16.977C40.0412 17.3719 40.163 18.1319 39.7695 18.6765C38.3241 20.6755 36.7514 21.9084 34.9414 22.4098Z" fill="#13EF93"/>
</g>
</g>
<defs>
<clipPath id="clip0_1712_4746">
<rect width="40" height="40" fill="white"/>
</clipPath>
<clipPath id="clip1_1712_4746">
<rect width="40" height="29.6457" fill="white" transform="matrix(-1 0 0 1 40 5)"/>
</clipPath>
</defs>
</svg>
