<svg width="40" height="40" viewBox="0 0 40 40" fill="none" xmlns="http://www.w3.org/2000/svg">
<path d="M12.25 7.5V20C12.25 24.1406 15.6094 27.5 19.75 27.5C23.8906 27.5 27.25 24.1406 27.25 20H21C20.3125 20 19.75 19.4375 19.75 18.75C19.75 18.0625 20.3125 17.5 21 17.5H27.25V15H21C20.3125 15 19.75 14.4375 19.75 13.75C19.75 13.0625 20.3125 12.5 21 12.5H27.25V10H21C20.3125 10 19.75 9.4375 19.75 8.75C19.75 8.0625 20.3125 7.5 21 7.5H27.25C27.25 3.35938 23.8906 0 19.75 0C15.6094 0 12.25 3.35938 12.25 7.5ZM29.75 18.75V20C29.75 25.5234 25.2734 30 19.75 30C14.2266 30 9.75 25.5234 9.75 20V16.875C9.75 15.8359 8.91406 15 7.875 15C6.83594 15 6 15.8359 6 16.875V20C6 26.9609 11.1719 32.7109 17.875 33.625V36.25H14.125C13.0859 36.25 12.25 37.0859 12.25 38.125C12.25 39.1641 13.0859 40 14.125 40H19.75H25.375C26.4141 40 27.25 39.1641 27.25 38.125C27.25 37.0859 26.4141 36.25 25.375 36.25H21.625V33.625C28.3281 32.7109 33.5 26.9609 33.5 20V16.875C33.5 15.8359 32.6641 15 31.625 15C30.5859 15 29.75 15.8359 29.75 16.875V18.75Z" fill="white"/>
</svg>
