<svg width="40" height="40" viewBox="0 0 40 40" fill="none" xmlns="http://www.w3.org/2000/svg">
<path d="M19.7501 0C15.6095 0 12.2501 3.35938 12.2501 7.5V20C12.2501 24.1406 15.6095 27.5 19.7501 27.5C23.8907 27.5 27.2501 24.1406 27.2501 20H21.0001C20.3126 20 19.7501 19.4375 19.7501 18.75C19.7501 18.0625 20.3126 17.5 21.0001 17.5H27.2501V15H21.0001C20.3126 15 19.7501 14.4375 19.7501 13.75C19.7501 13.0625 20.3126 12.5 21.0001 12.5H27.2501V10H21.0001C20.3126 10 19.7501 9.4375 19.7501 8.75C19.7501 8.0625 20.3126 7.5 21.0001 7.5H27.2501C27.2501 3.35938 23.8907 0 19.7501 0Z" fill="#13EF93"/>
<path opacity="0.4" d="M21 7.5C20.3125 7.5 19.75 8.0625 19.75 8.75C19.75 9.4375 20.3125 10 21 10H27.25V7.5H21ZM21 12.5C20.3125 12.5 19.75 13.0625 19.75 13.75C19.75 14.4375 20.3125 15 21 15H27.25V12.5H21ZM21 17.5C20.3125 17.5 19.75 18.0625 19.75 18.75C19.75 19.4375 20.3125 20 21 20H27.25V17.5H21ZM9.75 16.875C9.75 15.8359 8.91406 15 7.875 15C6.83594 15 6 15.8359 6 16.875V20C6 26.9609 11.1719 32.7109 17.875 33.625V36.25H14.125C13.0859 36.25 12.25 37.0859 12.25 38.125C12.25 39.1641 13.0859 40 14.125 40H19.75H25.375C26.4141 40 27.25 39.1641 27.25 38.125C27.25 37.0859 26.4141 36.25 25.375 36.25H21.625V33.625C28.3281 32.7109 33.5 26.9609 33.5 20V16.875C33.5 15.8359 32.6641 15 31.625 15C30.5859 15 29.75 15.8359 29.75 16.875V20C29.75 25.5234 25.2734 30 19.75 30C14.2266 30 9.75 25.5234 9.75 20V16.875Z" fill="#13EF93"/>
</svg>
