<svg width="40" height="40" viewBox="0 0 40 40" fill="none" xmlns="http://www.w3.org/2000/svg">
<g clip-path="url(#clip0_1689_4804)">
<path d="M6 15.5C6 14.67 6.67 14 7.5 14H12.5C13.33 14 14 14.67 14 15.5V16.5C14 16.61 13.99 16.71 13.97 16.82C17.52 18.35 20 21.89 20 26C20 31.52 15.52 36 10 36C4.48 36 0 31.52 0 26C0 21.89 2.48 18.35 6.03 16.82C6.01 16.71 6 16.61 6 16.5V15.5ZM10 32C13.31 32 16 29.31 16 26C16 22.69 13.31 20 10 20C6.69 20 4 22.63 4 26C4 29.37 6.63 32 10 32ZM21.1 21.43C22.16 19.38 23.91 17.74 26.03 16.82C26.01 16.71 26 16.61 26 16.5V15.5C26 14.67 26.67 14 27.5 14H32.5C33.33 14 34 14.67 34 15.5V16.5C34 16.61 33.99 16.71 33.97 16.82C37.52 18.35 40 21.89 40 26C40 31.52 35.53 36 30 36C26.07 36 22.76 33.79 21.1 30.57C21.68 29.16 22 27.62 22 26C22 24.38 21.68 22.84 21.1 21.43ZM30 20C26.63 20 24 22.63 24 26C24 29.37 26.63 32 30 32C33.37 32 36 29.31 36 26C36 22.69 33.31 20 30 20Z" fill="#13EF93"/>
<path opacity="0.4" d="M15 6C15 4.9 15.89 4 17 4C18.11 4 19 4.9 19 6C19 7.1 18.11 8 17 8C15.89 8 15 7.1 15 6ZM14 9C14 10.1 13.11 11 12 11C10.89 11 10 10.1 10 9C10 7.9 10.89 7 12 7C13.11 7 14 7.9 14 9ZM8 14C8 12.89 8.89 12 10 12C11.11 12 12 12.89 12 14H8ZM28 14C28 12.89 28.89 12 30 12C31.11 12 32 12.89 32 14H28ZM25 6C25 7.1 24.11 8 23 8C21.89 8 21 7.1 21 6C21 4.9 21.89 4 23 4C24.11 4 25 4.9 25 6ZM26 9C26 7.9 26.89 7 28 7C29.11 7 30 7.9 30 9C30 10.1 29.11 11 28 11C26.89 11 26 10.1 26 9Z" fill="#13EF93"/>
</g>
<defs>
<clipPath id="clip0_1689_4804">
<rect width="40" height="32" fill="white" transform="translate(0 4)"/>
</clipPath>
</defs>
</svg>
