<svg width="40" height="40" viewBox="0 0 40 40" fill="none" xmlns="http://www.w3.org/2000/svg">
<path d="M15 6C15 4.9 15.9 4 17 4C18.1 4 19 4.9 19 6C19 7.1 18.1 8 17 8C15.9 8 15 7.1 15 6ZM12 7C13.1 7 14 7.9 14 9C14 10.1 13.1 11 12 11C10.9 11 10 10.1 10 9C10 7.9 10.9 7 12 7ZM10 12C11.11 12 12 12.89 12 14H12.5C13.33 14 14 14.67 14 15.5V16.5C14 16.61 13.99 16.71 13.97 16.82C17.52 18.35 20 21.89 20 26C20 31.52 15.52 36 10 36C4.48 36 0 31.52 0 26C0 21.89 2.48 18.35 6.03 16.82C6 16.72 6 16.61 6 16.5V15.5C6 14.67 6.67 14 7.5 14H8C8 12.89 8.89 12 10 12ZM10 32C13.31 32 16 29.31 16 26C16 22.69 13.31 20 10 20C6.69 20 4 22.69 4 26C4 29.31 6.69 32 10 32ZM22 26C22 24.38 21.68 22.84 21.1 21.43C22.16 19.37 23.9 17.74 26.03 16.81C26.01 16.71 26 16.6 26 16.49V15.5C26 14.67 26.67 14 27.5 14H28C28 12.89 28.89 12 30 12C31.11 12 32 12.89 32 14H32.5C33.33 14 34 14.67 34 15.5V16.5C34 16.61 33.99 16.71 33.97 16.82C37.52 18.35 40 21.89 40 26C40 31.52 35.53 36 30 36C26.12 36 22.76 33.79 21.1 30.57C21.68 29.16 22 27.62 22 26ZM36 26C36 22.69 33.31 20 30 20C26.69 20 24 22.69 24 26C24 29.31 26.69 32 30 32C33.31 32 36 29.31 36 26ZM23 4C24.1 4 25 4.9 25 6C25 7.1 24.1 8 23 8C21.9 8 21 7.1 21 6C21 4.9 21.9 4 23 4ZM28 7C29.1 7 30 7.9 30 9C30 10.1 29.1 11 28 11C26.9 11 26 10.1 26 9C26 7.9 26.9 7 28 7Z" fill="white"/>
</svg>
