<svg width="40" height="40" viewBox="0 0 40 40" fill="none" xmlns="http://www.w3.org/2000/svg">
<path d="M35 37.5H5C2.24219 37.5 0 35.2578 0 32.5V7.5C0 4.74219 2.24219 2.5 5 2.5H15C16.5703 2.5 18.0547 3.24219 19 4.5L20.5 6.5C20.9688 7.13281 21.7109 7.5 22.5 7.5H35C37.7578 7.5 40 9.74219 40 12.5V32.5C40 35.2578 37.7578 37.5 35 37.5ZM26.25 21.25C26.25 17.1094 22.8906 13.75 18.75 13.75C14.6094 13.75 11.25 17.1094 11.25 21.25C11.25 25.3906 14.6094 28.75 18.75 28.75C20.1406 28.75 21.4375 28.375 22.5547 27.7188L25.5469 30.7109C26.2812 31.4453 27.4688 31.4453 28.1953 30.7109C28.9219 29.9766 28.9297 28.7891 28.1953 28.0625L25.2031 25.0703C25.8672 23.9531 26.2422 22.6484 26.2422 21.25H26.25ZM18.75 17.5C19.7446 17.5 20.6984 17.8951 21.4017 18.5983C22.1049 19.3016 22.5 20.2554 22.5 21.25C22.5 22.2446 22.1049 23.1984 21.4017 23.9017C20.6984 24.6049 19.7446 25 18.75 25C17.7554 25 16.8016 24.6049 16.0983 23.9017C15.3951 23.1984 15 22.2446 15 21.25C15 20.2554 15.3951 19.3016 16.0983 18.5983C16.8016 17.8951 17.7554 17.5 18.75 17.5Z" fill="white"/>
</svg>
