<svg width="40" height="40" viewBox="0 0 40 40" fill="none" xmlns="http://www.w3.org/2000/svg">
<g clip-path="url(#clip0_1714_4627)">
<path d="M17.3907 10C15.5391 10 13.8907 11.1641 13.2657 12.9141L13.2344 13.0078C12.8907 13.9844 13.3985 15.0547 14.375 15.3984C15.3516 15.7422 16.4219 15.2344 16.7657 14.2578L16.7969 14.1641C16.8828 13.9141 17.125 13.75 17.3828 13.75H21.9375C22.5938 13.75 23.1172 14.2813 23.1172 14.9297C23.1172 15.3516 22.8907 15.7422 22.5235 15.9531L19.0625 17.9375C18.4766 18.2734 18.1172 18.8906 18.1172 19.5625V20.625C18.1172 21.6641 18.9532 22.5 19.9922 22.5C21.0157 22.5 21.8516 21.6797 21.8672 20.6562L24.3907 19.2109C25.9219 18.3281 26.8672 16.6953 26.8672 14.9297C26.8672 12.2031 24.6563 10 21.9375 10H17.3907ZM20 30C20.6631 30 21.299 29.7366 21.7678 29.2678C22.2366 28.7989 22.5 28.163 22.5 27.5C22.5 26.837 22.2366 26.2011 21.7678 25.7322C21.299 25.2634 20.6631 25 20 25C19.337 25 18.7011 25.2634 18.2323 25.7322C17.7634 26.2011 17.5 26.837 17.5 27.5C17.5 28.163 17.7634 28.7989 18.2323 29.2678C18.7011 29.7366 19.337 30 20 30Z" fill="#13EF93"/>
<path opacity="0.4" d="M20 40C25.3043 40 30.3914 37.8929 34.1421 34.1421C37.8929 30.3914 40 25.3043 40 20C40 14.6957 37.8929 9.60859 34.1421 5.85786C30.3914 2.10714 25.3043 0 20 0C14.6957 0 9.60859 2.10714 5.85786 5.85786C2.10714 9.60859 0 14.6957 0 20C0 25.3043 2.10714 30.3914 5.85786 34.1421C9.60859 37.8929 14.6957 40 20 40ZM13.2656 12.9141C13.8828 11.1719 15.5391 10 17.3906 10H21.9453C24.6719 10 26.875 12.2109 26.875 14.9297C26.875 16.6953 25.9297 18.3281 24.3984 19.2109L21.875 20.6562C21.8594 21.6719 21.0234 22.5 20 22.5C18.9609 22.5 18.125 21.6641 18.125 20.625V19.5703C18.125 18.8984 18.4844 18.2812 19.0703 17.9453L22.5312 15.9609C22.8984 15.75 23.125 15.3594 23.125 14.9375C23.125 14.2812 22.5938 13.7578 21.9453 13.7578H17.3906C17.125 13.7578 16.8906 13.9219 16.8047 14.1719L16.7734 14.2656C16.4297 15.2422 15.3516 15.75 14.3828 15.4062C13.4141 15.0625 12.8984 13.9844 13.2422 13.0156L13.2734 12.9219L13.2656 12.9141ZM17.5 27.5C17.5 26.837 17.7634 26.2011 18.2322 25.7322C18.7011 25.2634 19.337 25 20 25C20.663 25 21.2989 25.2634 21.7678 25.7322C22.2366 26.2011 22.5 26.837 22.5 27.5C22.5 28.163 22.2366 28.7989 21.7678 29.2678C21.2989 29.7366 20.663 30 20 30C19.337 30 18.7011 29.7366 18.2322 29.2678C17.7634 28.7989 17.5 28.163 17.5 27.5Z" fill="#13EF93"/>
</g>
<defs>
<clipPath id="clip0_1714_4627">
<rect width="40" height="40" fill="white"/>
</clipPath>
</defs>
</svg>
