<svg width="40" height="40" viewBox="0 0 40 40" fill="none" xmlns="http://www.w3.org/2000/svg">
<g clip-path="url(#clip0_1825_5960)">
<path opacity="0.4" d="M19.8432 17.8786C24.8208 17.8786 28.8559 13.8764 28.8559 8.93932C28.8559 4.00227 24.8208 0 19.8432 0C14.8657 0 10.8306 4.00227 10.8306 8.93932C10.8306 13.8764 14.8657 17.8786 19.8432 17.8786Z" fill="#13EF93"/>
<path d="M16.6291 18.9903C9.69125 18.9903 4.07801 23.731 4.07801 29.5833C4.07801 30.5572 5.01355 31.3473 6.1714 31.3473H33.5336C34.6915 31.3473 35.627 30.5572 35.627 29.5833C35.627 23.731 30.0045 18.9903 23.0759 18.9903H16.6383H16.6291Z" fill="#13EF93"/>
<path opacity="0.4" d="M3.82004 33.6084C3.74786 33.4652 3.60351 33.3697 3.44712 33.3697C3.29073 33.3697 3.14638 33.4652 3.0742 33.6084L2.23212 35.3146L0.355484 35.589C0.199098 35.6129 0.0667711 35.7203 0.0186523 35.8754C-0.0294666 36.0305 0.0186523 36.1856 0.12692 36.293L1.48628 37.6294L1.16147 39.5146C1.13742 39.6697 1.19756 39.8248 1.32989 39.9203C1.46222 40.0157 1.63063 40.0277 1.77499 39.9441L3.44712 39.0612L5.11925 39.9441C5.26361 40.0157 5.43202 40.0038 5.56435 39.9203C5.69668 39.8368 5.75682 39.6697 5.73276 39.5146L5.40796 37.6294L6.76732 36.293C6.87559 36.1856 6.92371 36.0186 6.87559 35.8754C6.82747 35.7322 6.69514 35.6129 6.53876 35.589L4.66212 35.3146L3.82004 33.6084Z" fill="#13EF93"/>
<path opacity="0.4" d="M12.0965 33.6084C12.0243 33.4652 11.8799 33.3697 11.7236 33.3697C11.5672 33.3697 11.4228 33.4652 11.3506 33.6084L10.5086 35.3146L8.63193 35.589C8.47554 35.6129 8.34321 35.7203 8.2951 35.8754C8.24698 36.0305 8.2951 36.1856 8.40336 36.293L9.76272 37.6294L9.43792 39.5146C9.41386 39.6697 9.47401 39.8248 9.60633 39.9203C9.73866 40.0157 9.90708 40.0277 10.0514 39.9441L11.7236 39.0612L13.3957 39.9441C13.54 40.0157 13.7085 40.0038 13.8408 39.9203C13.9731 39.8368 14.0333 39.6697 14.0092 39.5146L13.6844 37.6294L15.0438 36.293C15.152 36.1856 15.2001 36.0186 15.152 35.8754C15.1039 35.7322 14.9716 35.6129 14.8152 35.589L12.9386 35.3146L12.0965 33.6084Z" fill="#13EF93"/>
<path opacity="0.4" d="M20.3729 33.6084C20.3007 33.4652 20.1564 33.3697 20 33.3697C19.8436 33.3697 19.6993 33.4652 19.6271 33.6084L18.785 35.3146L16.9084 35.589C16.752 35.6129 16.6197 35.7203 16.5715 35.8754C16.5234 36.0305 16.5715 36.1856 16.6798 36.293L18.0392 37.6294L17.7144 39.5146C17.6903 39.6697 17.7505 39.8248 17.8828 39.9203C18.0151 40.0157 18.1835 40.0277 18.3279 39.9441L20 39.0612L21.6721 39.9441C21.8165 40.0157 21.9849 40.0038 22.1172 39.9203C22.2496 39.8368 22.3097 39.6697 22.2857 39.5146L21.9608 37.6294L23.3202 36.293C23.4285 36.1856 23.4766 36.0186 23.4285 35.8754C23.3804 35.7322 23.248 35.6129 23.0916 35.589L21.215 35.3146L20.3729 33.6084Z" fill="#13EF93"/>
<path opacity="0.4" d="M28.6494 33.6084C28.5772 33.4652 28.4328 33.3697 28.2764 33.3697C28.1201 33.3697 27.9757 33.4652 27.9035 33.6084L27.0614 35.3146L25.1848 35.589C25.0284 35.6129 24.8961 35.7203 24.848 35.8754C24.7999 36.0305 24.848 36.1856 24.9562 36.293L26.3156 37.6294L25.9908 39.5146C25.9667 39.6697 26.0269 39.8248 26.1592 39.9203C26.2915 40.0157 26.46 40.0277 26.6043 39.9441L28.2764 39.0612L29.9486 39.9441C30.0929 40.0157 30.2613 40.0038 30.3937 39.9203C30.526 39.8368 30.5861 39.6697 30.5621 39.5146L30.2373 37.6294L31.5966 36.293C31.7049 36.1856 31.753 36.0186 31.7049 35.8754C31.6568 35.7322 31.5245 35.6129 31.3681 35.589L29.4914 35.3146L28.6494 33.6084Z" fill="#13EF93"/>
<path opacity="0.4" d="M36.9258 33.6084C36.8536 33.4652 36.7093 33.3697 36.5529 33.3697C36.3965 33.3697 36.2521 33.4652 36.18 33.6084L35.3379 35.3146L33.4613 35.589C33.3049 35.6129 33.1725 35.7203 33.1244 35.8754C33.0763 36.0305 33.1244 36.1856 33.2327 36.293L34.592 37.6294L34.2672 39.5146C34.2432 39.6697 34.3033 39.8248 34.4357 39.9203C34.568 40.0157 34.7364 40.0277 34.8808 39.9441L36.5529 39.0612L38.225 39.9441C38.3694 40.0157 38.5378 40.0038 38.6701 39.9203C38.8024 39.8368 38.8626 39.6697 38.8385 39.5146L38.5137 37.6294L39.8731 36.293C39.9814 36.1856 40.0295 36.0186 39.9814 35.8754C39.9332 35.7322 39.8009 35.6129 39.6445 35.589L37.7679 35.3146L36.9258 33.6084Z" fill="#13EF93"/>
</g>
<defs>
<clipPath id="clip0_1825_5960">
<rect width="40" height="40" fill="white"/>
</clipPath>
</defs>
</svg>
