<svg width="40" height="40" viewBox="0 0 40 40" fill="none" xmlns="http://www.w3.org/2000/svg">
<path d="M29.89 32.27C34.76 29.16 38 23.71 38 17.5C38 7.84 30.16 0 20.5 0C10.84 0 3 7.84 3 17.5C3 23.71 6.23 29.16 11.11 32.27L6.56 35.45C5.67 36.07 5.28 37.21 5.61 38.25C5.94 39.29 6.91 40 8 40H33C34.09 40 35.05 39.29 35.38 38.25C35.71 37.21 35.33 36.08 34.43 35.45L29.88 32.27H29.89ZM20.5 27.5C26.02 27.5 30.5 23.02 30.5 17.5C30.5 11.98 26.02 7.5 20.5 7.5C14.98 7.5 10.5 11.98 10.5 17.5C10.5 23.02 14.98 27.5 20.5 27.5ZM20.5 5C27.4 5 33 10.6 33 17.5C33 24.4 27.4 30 20.5 30C13.6 30 8 24.4 8 17.5C8 10.6 13.6 5 20.5 5ZM16.75 17.5C16.75 18.19 16.19 18.75 15.5 18.75C14.81 18.75 14.25 18.19 14.25 17.5C14.25 14.05 17.05 11.25 20.5 11.25C21.19 11.25 21.75 11.81 21.75 12.5C21.75 13.19 21.19 13.75 20.5 13.75C18.43 13.75 16.75 15.43 16.75 17.5Z" fill="white"/>
</svg>
