<svg width="40" height="40" viewBox="0 0 40 40" fill="none" xmlns="http://www.w3.org/2000/svg">
<path d="M34.32 34.27L30.48 31.87C35.02 28.71 38 23.47 38 17.51C38 7.83 30.16 0 20.5 0C10.84 0 3 7.84 3 17.5C3 23.46 5.98 28.7 10.51 31.87L6.67 34.27C5.94 34.73 5.5 35.54 5.5 36.39V37.5C5.5 38.88 6.63 39.93 8.01 39.93L33 40C34.38 40 35.5 38.88 35.5 37.5V36.39C35.5 35.53 35.05 34.73 34.32 34.27ZM20.5 30C13.6 30 7.99 24.4 7.99 17.57C7.99 10.74 13.59 5.07 20.42 5.07C27.25 5.07 32.92 10.67 32.92 17.57C32.92 24.47 27.4 30 20.5 30Z" fill="#13EF93"/>
<path opacity="0.4" d="M20.5 7.5C14.98 7.5 10.49 11.98 10.49 17.5C10.49 23.02 14.97 27.5 20.49 27.5C26.01 27.5 30.49 23.03 30.49 17.5C30.49 11.98 26.01 7.5 20.5 7.5ZM20.5 13.75C18.43 13.75 16.76 15.43 16.75 17.5C16.75 18.19 16.19 18.75 15.5 18.75C14.81 18.75 14.25 18.19 14.25 17.5C14.25 14.05 17.06 11.25 20.5 11.25C21.19 11.25 21.75 11.81 21.75 12.5C21.75 13.19 21.2 13.75 20.5 13.75Z" fill="#13EF93"/>
</svg>
