<svg width="40" height="40" viewBox="0 0 40 40" fill="none" xmlns="http://www.w3.org/2000/svg">
<path d="M9.44446 8.66667C6.68057 8.66667 4.44446 10.9028 4.44446 13.6667V32.5556C4.44446 35.3194 6.68057 37.5556 9.44446 37.5556H30.5556C33.3195 37.5556 35.5556 35.3194 35.5556 32.5556V13.6667C35.5556 10.9028 33.3195 8.66667 30.5556 8.66667H9.44446ZM12.2222 28.6667H14.4445C15.0556 28.6667 15.5556 29.1667 15.5556 29.7778C15.5556 30.3889 15.0556 30.8889 14.4445 30.8889H12.2222C11.6111 30.8889 11.1111 30.3889 11.1111 29.7778C11.1111 29.1667 11.6111 28.6667 12.2222 28.6667ZM18.8889 28.6667H21.1111C21.7222 28.6667 22.2222 29.1667 22.2222 29.7778C22.2222 30.3889 21.7222 30.8889 21.1111 30.8889H18.8889C18.2778 30.8889 17.7778 30.3889 17.7778 29.7778C17.7778 29.1667 18.2778 28.6667 18.8889 28.6667ZM25.5556 28.6667H27.7778C28.3889 28.6667 28.8889 29.1667 28.8889 29.7778C28.8889 30.3889 28.3889 30.8889 27.7778 30.8889H25.5556C24.9445 30.8889 24.4445 30.3889 24.4445 29.7778C24.4445 29.1667 24.9445 28.6667 25.5556 28.6667ZM10.5556 19.7778C10.5556 19.0411 10.8482 18.3345 11.3692 17.8136C11.8901 17.2927 12.5966 17 13.3333 17C14.0701 17 14.7766 17.2927 15.2975 17.8136C15.8185 18.3345 16.1111 19.0411 16.1111 19.7778C16.1111 20.5145 15.8185 21.221 15.2975 21.742C14.7766 22.2629 14.0701 22.5556 13.3333 22.5556C12.5966 22.5556 11.8901 22.2629 11.3692 21.742C10.8482 21.221 10.5556 20.5145 10.5556 19.7778ZM26.6667 17C27.4034 17 28.1099 17.2927 28.6309 17.8136C29.1518 18.3345 29.4445 19.0411 29.4445 19.7778C29.4445 20.5145 29.1518 21.221 28.6309 21.742C28.1099 22.2629 27.4034 22.5556 26.6667 22.5556C25.93 22.5556 25.2234 22.2629 24.7025 21.742C24.1816 21.221 23.8889 20.5145 23.8889 19.7778C23.8889 19.0411 24.1816 18.3345 24.7025 17.8136C25.2234 17.2927 25.93 17 26.6667 17Z" fill="#13EF93"/>
<path opacity="0.4" d="M20 2C18.7708 2 17.7778 2.99306 17.7778 4.22222V8.66667H22.2222V4.22222C22.2222 2.99306 21.2292 2 20 2ZM11.1111 29.7778C11.1111 30.3889 11.6111 30.8889 12.2222 30.8889H14.4444C15.0556 30.8889 15.5556 30.3889 15.5556 29.7778C15.5556 29.1667 15.0556 28.6667 14.4444 28.6667H12.2222C11.6111 28.6667 11.1111 29.1667 11.1111 29.7778ZM17.7778 29.7778C17.7778 30.3889 18.2778 30.8889 18.8889 30.8889H21.1111C21.7222 30.8889 22.2222 30.3889 22.2222 29.7778C22.2222 29.1667 21.7222 28.6667 21.1111 28.6667H18.8889C18.2778 28.6667 17.7778 29.1667 17.7778 29.7778ZM24.4444 29.7778C24.4444 30.3889 24.9444 30.8889 25.5556 30.8889H27.7778C28.3889 30.8889 28.8889 30.3889 28.8889 29.7778C28.8889 29.1667 28.3889 28.6667 27.7778 28.6667H25.5556C24.9444 28.6667 24.4444 29.1667 24.4444 29.7778ZM3.33333 17.5556C1.49306 17.5556 0 19.0486 0 20.8889V27.5556C0 29.3958 1.49306 30.8889 3.33333 30.8889H4.44444V17.5556H3.33333ZM36.6667 17.5556H35.5556V30.8889H36.6667C38.5069 30.8889 40 29.3958 40 27.5556V20.8889C40 19.0486 38.5069 17.5556 36.6667 17.5556Z" fill="#13EF93"/>
</svg>
