<svg width="40" height="40" viewBox="0 0 40 40" fill="none" xmlns="http://www.w3.org/2000/svg">
<path d="M20 4C21.1063 4 22 4.88919 22 5.9898V9.96939H29.5C31.9875 9.96939 34 11.9716 34 14.4464V31.3597C34 33.8345 31.9875 35.8367 29.5 35.8367H10.5C8.0125 35.8367 6 33.8345 6 31.3597V14.4464C6 11.9716 8.0125 9.96939 10.5 9.96939H18V5.9898C18 4.88919 18.8937 4 20 4ZM13 27.8776C12.45 27.8776 12 28.3253 12 28.8724C12 29.4196 12.45 29.8673 13 29.8673H15C15.55 29.8673 16 29.4196 16 28.8724C16 28.3253 15.55 27.8776 15 27.8776H13ZM19 27.8776C18.45 27.8776 18 28.3253 18 28.8724C18 29.4196 18.45 29.8673 19 29.8673H21C21.55 29.8673 22 29.4196 22 28.8724C22 28.3253 21.55 27.8776 21 27.8776H19ZM25 27.8776C24.45 27.8776 24 28.3253 24 28.8724C24 29.4196 24.45 29.8673 25 29.8673H27C27.55 29.8673 28 29.4196 28 28.8724C28 28.3253 27.55 27.8776 27 27.8776H25ZM16.5 19.9184C16.5 19.2587 16.2366 18.6261 15.7678 18.1596C15.2989 17.6932 14.663 17.4311 14 17.4311C13.337 17.4311 12.7011 17.6932 12.2322 18.1596C11.7634 18.6261 11.5 19.2587 11.5 19.9184C11.5 20.578 11.7634 21.2107 12.2322 21.6771C12.7011 22.1436 13.337 22.4056 14 22.4056C14.663 22.4056 15.2989 22.1436 15.7678 21.6771C16.2366 21.2107 16.5 20.578 16.5 19.9184ZM26 22.4056C26.663 22.4056 27.2989 22.1436 27.7678 21.6771C28.2366 21.2107 28.5 20.578 28.5 19.9184C28.5 19.2587 28.2366 18.6261 27.7678 18.1596C27.2989 17.6932 26.663 17.4311 26 17.4311C25.337 17.4311 24.7011 17.6932 24.2322 18.1596C23.7634 18.6261 23.5 19.2587 23.5 19.9184C23.5 20.578 23.7634 21.2107 24.2322 21.6771C24.7011 22.1436 25.337 22.4056 26 22.4056ZM3 17.9286H4V29.8673H3C1.34375 29.8673 0 28.5305 0 26.8827V20.9133C0 19.2655 1.34375 17.9286 3 17.9286ZM37 17.9286C38.6562 17.9286 40 19.2655 40 20.9133V26.8827C40 28.5305 38.6562 29.8673 37 29.8673H36V17.9286H37Z" fill="white"/>
</svg>
