<svg width="40" height="40" viewBox="0 0 40 40" fill="none" xmlns="http://www.w3.org/2000/svg">
<g clip-path="url(#clip0_1688_4832)">
<path d="M9.21 10H16.18C22.42 -0.28996 32 -0.66996 37.81 0.41004C38.72 0.58004 39.43 1.28004 39.59 2.19004C40.67 8.00004 40.29 17.58 30 23.82V30.8C30 32.78 28.95 34.63 27.24 35.64L20.33 39.74C19.75 40.08 19.03 40.09 18.45 39.76C17.87 39.43 17.5 38.81 17.5 38.13V29.17C17.5 27.4 16.8 25.71 15.55 24.46C14.3 23.21 12.6 22.51 10.84 22.51H1.88C1.21 22.51 0.579999 22.15 0.249999 21.56C-0.080001 20.97 -0.080001 20.26 0.269999 19.68L4.37 12.77C5.39 11.06 7.22 10.01 9.21 10.01V10ZM33.13 10C33.13 8.27004 31.73 6.88004 30.01 6.88004C28.29 6.88004 26.89 8.28004 26.89 10C26.89 11.72 28.29 13.12 30.01 13.12C31.73 13.12 33.13 11.72 33.13 10ZM13.01 36.72C10.34 39.4 5.16 39.92 2.21 39.99C0.959999 40.02 -0.020001 39.04 0.009999 37.79C0.079999 34.84 0.599999 29.67 3.28 26.99C5.97 24.3 10.32 24.3 13.01 26.99C15.7 29.68 15.7 34.03 13.01 36.72ZM9.36 33.88C10.25 32.99 10.25 31.54 9.36 30.65C8.47 29.76 7.02 29.76 6.13 30.65C5.34 31.44 5.11 32.88 5.06 33.88C5.02 34.5 5.52 35 6.15 34.97C7.15 34.92 8.59 34.68 9.38 33.9L9.36 33.88Z" fill="white"/>
</g>
<defs>
<clipPath id="clip0_1688_4832">
<rect width="40" height="40" fill="white"/>
</clipPath>
</defs>
</svg>
