<svg width="40" height="40" viewBox="0 0 40 40" fill="none" xmlns="http://www.w3.org/2000/svg">
<g clip-path="url(#clip0_1688_4834)">
<path d="M17.48 30.62C17.17 26.18 13.64 22.76 9.25 22.52C10.92 18.78 13.81 12.63 16.19 9.12C22.59 -0.319998 32.12 -0.639998 37.8 0.410002C38.71 0.580002 39.42 1.28 39.58 2.19C40.63 7.88 40.31 17.41 30.88 23.81C27.39 26.17 21.26 28.97 17.47 30.61L17.48 30.62ZM30 6.87C28.27 6.87 26.88 8.27 26.88 9.99C26.88 11.71 28.28 13.11 30 13.11C31.72 13.11 33.12 11.71 33.12 9.99C33.12 8.27 31.72 6.87 30 6.87Z" fill="#13EF93"/>
<path opacity="0.4" d="M1.79998 22.5C1.18998 22.5 0.569976 22.13 0.239976 21.55C-0.0900236 20.96 -0.0800235 20.17 0.269976 19.65L4.38998 12.87C5.40998 11.19 7.22998 10.16 9.19998 10.16H15.51C13.28 13.75 10.77 19.11 9.24998 22.5H1.79998ZM29.77 30.8C29.77 32.77 28.81 34.59 27.13 35.61L20.35 39.73C19.76 40.08 19.05 40.1 18.45 39.76C17.86 39.43 17.43 38.81 17.43 38.13V30.61C20.93 29.13 26.28 26.68 29.77 24.49V30.8ZM13 36.72C9.13998 40.59 0.0399764 39.96 0.0399764 39.96C0.0399764 39.96 -0.580024 30.79 3.27998 26.99C5.96998 24.3 10.32 24.3 13.01 26.99C15.7 29.68 15.7 34.03 13.01 36.72H13ZM9.34998 30.64C8.44998 29.75 7.00998 29.75 6.10998 30.64C4.81998 31.93 5.02998 34.95 5.02998 34.95C5.02998 34.95 8.04998 35.16 9.33998 33.87C10.23 32.98 10.23 31.53 9.33998 30.64H9.34998Z" fill="#13EF93"/>
</g>
<defs>
<clipPath id="clip0_1688_4834">
<rect width="40" height="40" fill="white"/>
</clipPath>
</defs>
</svg>
