<svg width="41" height="40" viewBox="0 0 41 40" fill="none" xmlns="http://www.w3.org/2000/svg">
<path d="M3.77333 11.6313C3.96552 11.25 4.38833 11.0313 4.81755 11.0875L20.5 13L36.1825 11.0875C36.6118 11.0375 37.0346 11.2563 37.2268 11.6313L39.8982 16.8438C40.4747 17.9625 39.8597 19.3188 38.6297 19.6625L28.1619 22.5813C27.2715 22.8313 26.3169 22.4625 25.8429 21.6875L20.5 13L15.1572 21.6875C14.6832 22.4625 13.7286 22.8313 12.8382 22.5813L2.37677 19.6625C1.14036 19.3188 0.531766 17.9625 1.10833 16.8438L3.77333 11.6313ZM20.5705 17L24.0875 22.7125C25.0421 24.2625 26.9447 25 28.7321 24.5L36.9001 22.225V32.6625C36.9001 34.0375 35.9391 35.2375 34.5682 35.575L21.493 38.7625C20.8396 38.925 20.1541 38.925 19.5071 38.7625L6.43192 35.575C5.06099 35.2313 4.10005 34.0313 4.10005 32.6563V22.2188L12.2744 24.5C14.0554 25 15.9644 24.2625 16.919 22.7125L20.4296 17H20.5705Z" fill="white"/>
<path d="M14.4091 3.83703C14.3801 3.54456 14.2556 3.31735 14.0357 3.15541C13.8157 2.99346 13.5172 2.91249 13.1401 2.91249C12.8839 2.91249 12.6676 2.94874 12.4911 3.02126C12.3147 3.09135 12.1793 3.18924 12.0851 3.31493C11.9932 3.44062 11.9473 3.58323 11.9473 3.74276C11.9425 3.8757 11.9703 3.99172 12.0307 4.09082C12.0935 4.18993 12.1793 4.27573 12.2881 4.34825C12.3969 4.41834 12.5226 4.47998 12.6652 4.53315C12.8078 4.58391 12.9601 4.62742 13.122 4.66368L13.7891 4.82321C14.113 4.89572 14.4103 4.9924 14.681 5.11326C14.9518 5.23412 15.1862 5.38277 15.3844 5.55922C15.5826 5.73566 15.7361 5.94354 15.8449 6.18283C15.9561 6.42212 16.0129 6.69646 16.0153 7.00585C16.0129 7.46027 15.8968 7.85426 15.6672 8.18782C15.44 8.51896 15.1113 8.77638 14.681 8.96008C14.2532 9.14136 13.7372 9.23201 13.1329 9.23201C12.5334 9.23201 12.0114 9.14016 11.5666 8.95646C11.1243 8.77276 10.7786 8.50083 10.5297 8.14068C10.2831 7.77812 10.1538 7.32975 10.1417 6.79557H11.6609C11.6778 7.04453 11.7491 7.2524 11.8748 7.41918C12.0029 7.58354 12.1733 7.70802 12.386 7.79262C12.6011 7.8748 12.844 7.91589 13.1148 7.91589C13.3806 7.91589 13.6115 7.87722 13.8073 7.79987C14.0055 7.72252 14.159 7.61496 14.2677 7.47719C14.3765 7.33941 14.4309 7.18109 14.4309 7.00223C14.4309 6.83545 14.3813 6.69525 14.2822 6.58165C14.1855 6.46805 14.0429 6.37136 13.8544 6.2916C13.6683 6.21183 13.4399 6.13932 13.1691 6.07406L12.3606 5.87102C11.7346 5.71874 11.2403 5.48066 10.8777 5.15677C10.5152 4.83288 10.3351 4.39659 10.3375 3.84791C10.3351 3.39832 10.4547 3.00554 10.6964 2.66957C10.9406 2.33359 11.2753 2.07133 11.7008 1.8828C12.1262 1.69427 12.6096 1.6 13.151 1.6C13.7021 1.6 14.1831 1.69427 14.594 1.8828C15.0074 2.07133 15.3288 2.33359 15.5585 2.66957C15.7881 3.00554 15.9065 3.3947 15.9138 3.83703H14.4091Z" fill="white"/>
<path d="M19.9077 9.12686H17.2755V1.70152H19.9294C20.6763 1.70152 21.3193 1.85017 21.8583 2.14747C22.3973 2.44236 22.8118 2.86656 23.1019 3.42008C23.3944 3.9736 23.5406 4.63588 23.5406 5.40694C23.5406 6.18041 23.3944 6.84512 23.1019 7.40105C22.8118 7.95698 22.3949 8.3836 21.851 8.68091C21.3096 8.97821 20.6618 9.12686 19.9077 9.12686ZM18.8454 7.78174H19.8424C20.3065 7.78174 20.6969 7.69956 21.0135 7.5352C21.3326 7.36842 21.5719 7.111 21.7314 6.76293C21.8933 6.41245 21.9743 5.96046 21.9743 5.40694C21.9743 4.85826 21.8933 4.40988 21.7314 4.06182C21.5719 3.71376 21.3338 3.45754 21.0171 3.29318C20.7005 3.12882 20.3101 3.04664 19.846 3.04664H18.8454V7.78174Z" fill="white"/>
<path d="M24.9077 9.12686V1.70152H26.4776V4.97549H26.5755L29.2476 1.70152H31.1293L28.3738 5.02624L31.162 9.12686H29.2839L27.2499 6.07406L26.4776 7.01673V9.12686H24.9077Z" fill="white"/>
</svg>
