<svg width="40" height="40" viewBox="0 0 40 40" fill="none" xmlns="http://www.w3.org/2000/svg">
<g clip-path="url(#clip0_1640_5345)">
<path d="M32 15C34.7578 15 37 17.2422 37 20V35C37 37.7578 34.7578 40 32 40H7C4.23828 40 2 37.7578 2 35V20C2 17.2422 4.23828 15 7 15H32ZM22 25C22 23.6172 20.8828 22.5 19.5 22.5C18.1172 22.5 17 23.6172 17 25V30C17 31.3828 18.1172 32.5 19.5 32.5C20.8828 32.5 22 31.3828 22 30V25Z" fill="white"/>
<path d="M19.5 5C16.0469 5 13.25 7.79844 13.25 11.25V15H8.25V11.25C8.25 5.03672 13.2891 0 19.5 0C25.7109 0 30.75 5.03672 30.75 11.25V15H25.75V11.25C25.75 7.79844 22.9531 5 19.5 5Z" fill="white"/>
</g>
<defs>
<clipPath id="clip0_1640_5345">
<rect width="35" height="40" fill="white" transform="translate(2)"/>
</clipPath>
</defs>
</svg>
