<svg width="40" height="40" viewBox="0 0 40 40" fill="none" xmlns="http://www.w3.org/2000/svg">
<g clip-path="url(#clip0_1899_7104)">
<path d="M8.23517 10.8438C8.58327 10.8438 8.9171 10.7055 9.16325 10.4593C9.40939 10.2132 9.54767 9.87935 9.54767 9.53125C9.54767 9.18315 9.40939 8.84931 9.16325 8.60317C8.9171 8.35703 8.58327 8.21875 8.23517 8.21875C7.88707 8.21875 7.55323 8.35703 7.30709 8.60317C7.06095 8.84931 6.92267 9.18315 6.92267 9.53125C6.92267 9.87935 7.06095 10.2132 7.30709 10.4593C7.55323 10.7055 7.88707 10.8438 8.23517 10.8438ZM14.7977 10.8438C15.1458 10.8438 15.4796 10.7055 15.7257 10.4593C15.9719 10.2132 16.1102 9.87935 16.1102 9.53125C16.1102 9.18315 15.9719 8.84931 15.7257 8.60317C15.4796 8.35703 15.1458 8.21875 14.7977 8.21875C14.4496 8.21875 14.1157 8.35703 13.8696 8.60317C13.6234 8.84931 13.4852 9.18315 13.4852 9.53125C13.4852 9.87935 13.6234 10.2132 13.8696 10.4593C14.1157 10.7055 14.4496 10.8438 14.7977 10.8438Z" fill="#13EF93"/>
<path opacity="0.4" d="M11.5 22C14.2848 22 16.9555 20.8938 18.9246 18.9246C20.8938 16.9555 22 14.2848 22 11.5C22 8.71523 20.8938 6.04451 18.9246 4.07538C16.9555 2.10625 14.2848 1 11.5 1C8.71523 1 6.04451 2.10625 4.07538 4.07538C2.10625 6.04451 1 8.71523 1 11.5C1 14.2848 2.10625 16.9555 4.07538 18.9246C6.04451 20.8938 8.71523 22 11.5 22ZM7.73066 14.3506C8.46484 15.1996 9.71992 16.0938 11.5 16.0938C13.2801 16.0938 14.5352 15.1996 15.2693 14.3506C15.5072 14.0758 15.9215 14.0471 16.1963 14.285C16.4711 14.5229 16.4998 14.9371 16.2619 15.2119C15.3473 16.2619 13.76 17.4062 11.5 17.4062C9.24004 17.4062 7.65273 16.2619 6.73809 15.2119C6.5002 14.9371 6.52891 14.5229 6.80371 14.285C7.07852 14.0471 7.49277 14.0758 7.73066 14.3506ZM6.92266 9.53125C6.92266 9.18315 7.06094 8.84931 7.30708 8.60317C7.55322 8.35703 7.88706 8.21875 8.23516 8.21875C8.58325 8.21875 8.91709 8.35703 9.16323 8.60317C9.40938 8.84931 9.54766 9.18315 9.54766 9.53125C9.54766 9.87935 9.40938 10.2132 9.16323 10.4593C8.91709 10.7055 8.58325 10.8438 8.23516 10.8438C7.88706 10.8438 7.55322 10.7055 7.30708 10.4593C7.06094 10.2132 6.92266 9.87935 6.92266 9.53125ZM14.7977 8.21875C15.1458 8.21875 15.4796 8.35703 15.7257 8.60317C15.9719 8.84931 16.1102 9.18315 16.1102 9.53125C16.1102 9.87935 15.9719 10.2132 15.7257 10.4593C15.4796 10.7055 15.1458 10.8438 14.7977 10.8438C14.4496 10.8438 14.1157 10.7055 13.8696 10.4593C13.6234 10.2132 13.4852 9.87935 13.4852 9.53125C13.4852 9.18315 13.6234 8.84931 13.8696 8.60317C14.1157 8.35703 14.4496 8.21875 14.7977 8.21875Z" fill="#13EF93"/>
</g>
<g clip-path="url(#clip1_1899_7104)">
<path d="M25.2352 27.8438C25.5833 27.8438 25.9171 27.7055 26.1632 27.4593C26.4094 27.2132 26.5477 26.8793 26.5477 26.5312C26.5477 26.1832 26.4094 25.8493 26.1632 25.6032C25.9171 25.357 25.5833 25.2188 25.2352 25.2188C24.8871 25.2188 24.5532 25.357 24.3071 25.6032C24.0609 25.8493 23.9227 26.1832 23.9227 26.5312C23.9227 26.8793 24.0609 27.2132 24.3071 27.4593C24.5532 27.7055 24.8871 27.8438 25.2352 27.8438ZM31.7977 27.8438C32.1458 27.8438 32.4796 27.7055 32.7257 27.4593C32.9719 27.2132 33.1102 26.8793 33.1102 26.5312C33.1102 26.1832 32.9719 25.8493 32.7257 25.6032C32.4796 25.357 32.1458 25.2188 31.7977 25.2188C31.4496 25.2188 31.1157 25.357 30.8696 25.6032C30.6234 25.8493 30.4852 26.1832 30.4852 26.5312C30.4852 26.8793 30.6234 27.2132 30.8696 27.4593C31.1157 27.7055 31.4496 27.8438 31.7977 27.8438Z" fill="#13EF93"/>
<path opacity="0.4" d="M28.5 39C31.2848 39 33.9555 37.8938 35.9246 35.9246C37.8938 33.9555 39 31.2848 39 28.5C39 25.7152 37.8938 23.0445 35.9246 21.0754C33.9555 19.1062 31.2848 18 28.5 18C25.7152 18 23.0445 19.1062 21.0754 21.0754C19.1062 23.0445 18 25.7152 18 28.5C18 31.2848 19.1062 33.9555 21.0754 35.9246C23.0445 37.8938 25.7152 39 28.5 39ZM32.2693 34.1807C31.5352 33.3316 30.2801 32.4375 28.5 32.4375C26.7199 32.4375 25.4648 33.3316 24.7307 34.1807C24.4928 34.4555 24.0785 34.4842 23.8037 34.2463C23.5289 34.0084 23.5002 33.5941 23.7381 33.3193C24.6486 32.2652 26.24 31.125 28.5 31.125C30.76 31.125 32.3473 32.2693 33.2619 33.3193C33.4998 33.5941 33.4711 34.0084 33.1963 34.2463C32.9215 34.4842 32.5072 34.4555 32.2693 34.1807ZM23.9227 26.5312C23.9227 26.1832 24.0609 25.8493 24.3071 25.6032C24.5532 25.357 24.8871 25.2188 25.2352 25.2188C25.5833 25.2188 25.9171 25.357 26.1632 25.6032C26.4094 25.8493 26.5477 26.1832 26.5477 26.5312C26.5477 26.8793 26.4094 27.2132 26.1632 27.4593C25.9171 27.7055 25.5833 27.8438 25.2352 27.8438C24.8871 27.8438 24.5532 27.7055 24.3071 27.4593C24.0609 27.2132 23.9227 26.8793 23.9227 26.5312ZM31.7977 25.2188C32.1458 25.2188 32.4796 25.357 32.7257 25.6032C32.9719 25.8493 33.1102 26.1832 33.1102 26.5312C33.1102 26.8793 32.9719 27.2132 32.7257 27.4593C32.4796 27.7055 32.1458 27.8438 31.7977 27.8438C31.4496 27.8438 31.1157 27.7055 30.8696 27.4593C30.6234 27.2132 30.4852 26.8793 30.4852 26.5312C30.4852 26.1832 30.6234 25.8493 30.8696 25.6032C31.1157 25.357 31.4496 25.2188 31.7977 25.2188Z" fill="#13EF93"/>
</g>
<defs>
<clipPath id="clip0_1899_7104">
<rect width="21" height="21" fill="white" transform="translate(1 1)"/>
</clipPath>
<clipPath id="clip1_1899_7104">
<rect width="21" height="21" fill="white" transform="translate(18 18)"/>
</clipPath>
</defs>
</svg>
