<svg width="40" height="40" viewBox="0 0 40 40" fill="none" xmlns="http://www.w3.org/2000/svg">
<path d="M5.75 3.375C3.13008 3.375 1 5.50508 1 8.125V12.875C1 15.4949 3.13008 17.625 5.75 17.625H34.25C36.8699 17.625 39 15.4949 39 12.875V8.125C39 5.50508 36.8699 3.375 34.25 3.375H5.75ZM26.5312 8.71875C27.0037 8.71875 27.4567 8.90642 27.7908 9.24047C28.1248 9.57451 28.3125 10.0276 28.3125 10.5C28.3125 10.9724 28.1248 11.4255 27.7908 11.7595C27.4567 12.0936 27.0037 12.2812 26.5312 12.2812C26.0588 12.2812 25.6058 12.0936 25.2717 11.7595C24.9377 11.4255 24.75 10.9724 24.75 10.5C24.75 10.0276 24.9377 9.57451 25.2717 9.24047C25.6058 8.90642 26.0588 8.71875 26.5312 8.71875ZM30.0938 10.5C30.0938 10.0276 30.2814 9.57451 30.6155 9.24047C30.9495 8.90642 31.4026 8.71875 31.875 8.71875C32.3474 8.71875 32.8005 8.90642 33.1345 9.24047C33.4686 9.57451 33.6562 10.0276 33.6562 10.5C33.6562 10.9724 33.4686 11.4255 33.1345 11.7595C32.8005 12.0936 32.3474 12.2812 31.875 12.2812C31.4026 12.2812 30.9495 12.0936 30.6155 11.7595C30.2814 11.4255 30.0938 10.9724 30.0938 10.5ZM5.75 22.375C3.13008 22.375 1 24.5051 1 27.125V31.875C1 34.4949 3.13008 36.625 5.75 36.625H34.25C36.8699 36.625 39 34.4949 39 31.875V27.125C39 24.5051 36.8699 22.375 34.25 22.375H5.75ZM26.5312 27.7188C27.0037 27.7188 27.4567 27.9064 27.7908 28.2405C28.1248 28.5745 28.3125 29.0276 28.3125 29.5C28.3125 29.9724 28.1248 30.4255 27.7908 30.7595C27.4567 31.0936 27.0037 31.2812 26.5312 31.2812C26.0588 31.2812 25.6058 31.0936 25.2717 30.7595C24.9377 30.4255 24.75 29.9724 24.75 29.5C24.75 29.0276 24.9377 28.5745 25.2717 28.2405C25.6058 27.9064 26.0588 27.7188 26.5312 27.7188ZM30.6875 29.5C30.6875 29.0276 30.8752 28.5745 31.2092 28.2405C31.5433 27.9064 31.9963 27.7188 32.4688 27.7188C32.9412 27.7188 33.3942 27.9064 33.7283 28.2405C34.0623 28.5745 34.25 29.0276 34.25 29.5C34.25 29.9724 34.0623 30.4255 33.7283 30.7595C33.3942 31.0936 32.9412 31.2812 32.4688 31.2812C31.9963 31.2812 31.5433 31.0936 31.2092 30.7595C30.8752 30.4255 30.6875 29.9724 30.6875 29.5Z" fill="white"/>
</svg>
