<svg width="40" height="40" viewBox="0 0 40 40" fill="none" xmlns="http://www.w3.org/2000/svg">
<g clip-path="url(#clip0_1689_4832)">
<path d="M8.75 0C6.68 0 5 1.68 5 3.75V36.25C5 38.32 6.68 40 8.75 40H16.25V33.75C16.25 31.68 17.93 30 20 30C22.07 30 23.75 31.68 23.75 33.75V40H31.25C33.32 40 35 38.32 35 36.25V3.75C35 1.68 33.32 0 31.25 0H8.75ZM10 18.75C10 18.06 10.56 17.5 11.25 17.5H13.75C14.44 17.5 15 18.06 15 18.75V21.25C15 21.94 14.44 22.5 13.75 22.5H11.25C10.56 22.5 10 21.94 10 21.25V18.75ZM18.75 17.5H21.25C21.94 17.5 22.5 18.06 22.5 18.75V21.25C22.5 21.94 21.94 22.5 21.25 22.5H18.75C18.06 22.5 17.5 21.94 17.5 21.25V18.75C17.5 18.06 18.06 17.5 18.75 17.5ZM25 18.75C25 18.06 25.56 17.5 26.25 17.5H28.75C29.44 17.5 30 18.06 30 18.75V21.25C30 21.94 29.44 22.5 28.75 22.5H26.25C25.56 22.5 25 21.94 25 21.25V18.75ZM11.25 7.5H13.75C14.44 7.5 15 8.06 15 8.75V11.25C15 11.94 14.44 12.5 13.75 12.5H11.25C10.56 12.5 10 11.94 10 11.25V8.75C10 8.06 10.56 7.5 11.25 7.5ZM17.5 8.75C17.5 8.06 18.06 7.5 18.75 7.5H21.25C21.94 7.5 22.5 8.06 22.5 8.75V11.25C22.5 11.94 21.94 12.5 21.25 12.5H18.75C18.06 12.5 17.5 11.94 17.5 11.25V8.75ZM26.25 7.5H28.75C29.44 7.5 30 8.06 30 8.75V11.25C30 11.94 29.44 12.5 28.75 12.5H26.25C25.56 12.5 25 11.94 25 11.25V8.75C25 8.06 25.56 7.5 26.25 7.5Z" fill="white"/>
</g>
<defs>
<clipPath id="clip0_1689_4832">
<rect width="30" height="40" fill="white" transform="translate(5)"/>
</clipPath>
</defs>
</svg>
