<svg width="40" height="40" viewBox="0 0 40 40" fill="none" xmlns="http://www.w3.org/2000/svg">
<g clip-path="url(#clip0_1658_5083)">
<path d="M19.5 0C20.88 0 22 1.12 22 2.5V15.65L33.24 9.1C34.44 8.4 35.97 8.81 36.66 10C37.36 11.19 36.96 12.73 35.76 13.42L24.46 20.01L35.76 26.6C36.96 27.3 37.35 28.83 36.66 30.02C35.97 31.21 34.43 31.61 33.24 30.92L22.01 24.36V37.51C22.01 38.89 20.89 40.01 19.51 40.01C18.13 40.01 17.01 38.89 17.01 37.51V24.36L5.77001 30.91C4.57001 31.61 3.04001 31.2 2.35001 30.01C1.66001 28.82 2.06001 27.28 3.25001 26.59L14.55 20L3.25001 13.41C2.05001 12.71 1.66001 11.18 2.35001 10C3.04001 8.82 4.58001 8.41 5.77001 9.1L17 15.65V2.5C17 1.12 18.12 0 19.5 0Z" fill="#13EF93"/>
<path opacity="0.4" d="M17 4.85V10.15L13.17 6.32C12.44 5.59 12.44 4.4 13.17 3.67C13.9 2.94 15.09 2.94 15.82 3.67L16.99 4.84L17 4.85ZM12.2 12.85L7.60003 10.16L7.19003 8.65C6.92003 7.65 7.52003 6.62 8.52003 6.35C9.52003 6.08 10.55 6.68 10.82 7.68L12.2 12.84V12.85ZM5.22003 14.56L9.78003 17.22L4.49003 18.63C3.49003 18.9 2.46003 18.3 2.19003 17.3C1.92003 16.3 2.52003 15.27 3.52003 15L5.22003 14.55V14.56ZM9.78003 22.77L5.22003 25.43L3.52003 24.98C2.52003 24.71 1.93003 23.68 2.19003 22.68C2.45003 21.68 3.49003 21.09 4.49003 21.35L9.78003 22.76V22.77ZM7.60003 29.83L12.2 27.14L10.82 32.3C10.55 33.3 9.52003 33.89 8.52003 33.63C7.52003 33.37 6.93003 32.33 7.19003 31.33L7.60003 29.82V29.83ZM17 29.85V35.15L15.83 36.32C15.1 37.05 13.91 37.05 13.18 36.32C12.45 35.59 12.45 34.4 13.18 33.67L17.01 29.84L17 29.85ZM22 35.15V29.85L25.83 33.68C26.56 34.41 26.56 35.6 25.83 36.33C25.1 37.06 23.91 37.06 23.18 36.33L22.01 35.16L22 35.15ZM26.8 27.15L31.4 29.84L31.81 31.35C32.08 32.35 31.48 33.38 30.48 33.65C29.48 33.92 28.45 33.32 28.18 32.32L26.8 27.16V27.15ZM33.78 25.44L29.22 22.78L34.51 21.37C35.51 21.1 36.54 21.7 36.81 22.7C37.08 23.7 36.48 24.73 35.48 25L33.78 25.45V25.44ZM29.22 17.22L33.78 14.56L35.48 15.01C36.48 15.28 37.07 16.31 36.81 17.31C36.55 18.31 35.51 18.9 34.51 18.64L29.22 17.23V17.22ZM31.4 10.16L26.8 12.85L28.18 7.69C28.45 6.69 29.48 6.1 30.48 6.36C31.48 6.62 32.07 7.66 31.81 8.66L31.4 10.17V10.16ZM22 10.14V4.84L23.17 3.67C23.9 2.94 25.09 2.94 25.82 3.67C26.55 4.4 26.55 5.59 25.82 6.32L21.99 10.15L22 10.14Z" fill="#13EF93"/>
</g>
<defs>
<clipPath id="clip0_1658_5083">
<rect width="40" height="40" fill="white"/>
</clipPath>
</defs>
</svg>
