<svg width="40" height="40" viewBox="0 0 40 40" fill="none" xmlns="http://www.w3.org/2000/svg">
<g clip-path="url(#clip0_1979_10824)">
<path opacity="0.4" d="M39 18.8125C39 27.3402 30.4945 34.25 20 34.25C17.2465 34.25 14.634 33.775 12.2738 32.9215C11.3906 33.5672 9.95078 34.4504 8.24375 35.1926C6.4625 35.9645 4.31758 36.625 2.1875 36.625C1.70508 36.625 1.27461 36.3355 1.08907 35.8902C0.903519 35.4449 1.00743 34.9402 1.34141 34.5988L1.36368 34.5766C1.38594 34.5543 1.41563 34.5246 1.46016 34.4727C1.5418 34.3836 1.66797 34.2426 1.82383 34.0496C2.12813 33.6785 2.53633 33.1293 2.95196 32.4465C3.69414 31.2145 4.39922 29.5965 4.54024 27.7781C2.31368 25.2547 1 22.1598 1 18.8125C1 10.2848 9.50547 3.375 20 3.375C30.4945 3.375 39 10.2848 39 18.8125Z" fill="#13EF93"/>
</g>
<defs>
<clipPath id="clip0_1979_10824">
<rect width="38" height="38" fill="white" transform="translate(1 1)"/>
</clipPath>
</defs>
</svg>
