<svg width="40" height="40" viewBox="0 0 40 40" fill="none" xmlns="http://www.w3.org/2000/svg">
<path d="M11.5391 5.90156C12.3516 6.96328 12.2734 8.53906 11.2109 9.42187C8.17969 11.9453 6.25 15.75 6.25 20C6.25 27.5937 12.4063 33.75 20 33.75C27.5937 33.75 33.75 27.5937 33.75 20C33.75 15.75 31.8203 11.9453 28.7891 9.42187C27.7266 8.53906 27.5781 6.96328 28.4609 5.90156C29.3437 4.83984 30.9219 4.69531 31.9844 5.57812C36.1094 9.01562 38.75 14.2031 38.75 20C38.75 30.3594 30.3516 38.75 20 38.75C9.64844 38.75 1.25 30.3594 1.25 20C1.25 14.2031 3.88672 9.01562 8.01562 5.57812C9.07812 4.69531 10.6562 4.83984 11.5391 5.90156Z" fill="#13EF93"/>
<path opacity="0.4" d="M20 0C21.3828 0 22.5 1.11953 22.5 2.5V20C22.5 21.3828 21.3828 22.5 20 22.5C18.6172 22.5 17.5 21.3828 17.5 20V2.5C17.5 1.11953 18.6172 0 20 0Z" fill="#13EF93"/>
</svg>
