<svg width="40" height="40" viewBox="0 0 40 40" fill="none" xmlns="http://www.w3.org/2000/svg">
<path d="M11.5391 5.90157C12.3516 6.96329 12.2734 8.53907 11.2109 9.42189C8.17969 11.9453 6.25 15.75 6.25 20C6.25 27.5938 12.4062 33.75 20 33.75C27.5938 33.75 33.75 27.5938 33.75 20C33.75 15.75 31.8203 11.9453 28.7891 9.42189C27.7266 8.53907 27.5781 6.96329 28.4609 5.90157C29.3438 4.83986 30.9219 4.69532 31.9844 5.57814C36.1094 9.01564 38.75 14.2031 38.75 20C38.75 30.3594 30.3516 38.75 20 38.75C9.64844 38.75 1.25 30.3594 1.25 20C1.25 14.2031 3.88672 9.01564 8.01562 5.57814C9.07812 4.69532 10.6562 4.83986 11.5391 5.90157Z" fill="white"/>
<path d="M20 0C21.3828 0 22.5 1.11953 22.5 2.5V20C22.5 21.3828 21.3828 22.5 20 22.5C18.6172 22.5 17.5 21.3828 17.5 20V2.5C17.5 1.11953 18.6172 0 20 0Z" fill="white"/>
</svg>
