<svg width="40" height="40" viewBox="0 0 40 40" fill="none" xmlns="http://www.w3.org/2000/svg">
<path d="M35 6H5C3.35 6 2 7.35 2 9V18.3607H11.2257L13.2418 13.203C13.472 12.6142 14.0623 12.2287 14.6772 12.2497C15.3088 12.2662 15.863 12.6765 16.0625 13.2757L18.9147 21.8535L21.9928 14.5312C22.2193 13.9935 22.7367 13.6357 23.3202 13.614C23.9217 13.5885 24.4468 13.911 24.7115 14.4307L26.7185 18.3615H28.7502C29.5782 18.3615 30.2502 19.0335 30.2502 19.8615C30.2502 20.6895 29.5782 21.3615 28.7502 21.3615H25.7998C25.2358 21.3615 24.7205 21.0457 24.464 20.544L23.5077 18.6697L20.1335 26.6947C19.8988 27.2527 19.3527 27.6135 18.7512 27.6135C18.7317 27.6135 18.7122 27.6135 18.6927 27.612C18.068 27.5887 17.5243 27.18 17.327 26.5867L14.525 18.1605L13.6475 20.4067C13.4225 20.982 12.8682 21.3607 12.2502 21.3607H2V30.7867C2 32.4367 3.35 33.7867 5 33.7867H35C36.65 33.7867 38 32.4367 38 30.7867V8.99925C38 7.35 36.65 6 35 6Z" fill="white"/>
</svg>
