<svg width="40" height="40" viewBox="0 0 40 40" fill="none" xmlns="http://www.w3.org/2000/svg">
<path d="M14 2.5C14 1.1 15.1 0 16.5 0H24C25.4 0 26.5 1.1 26.5 2.5C26.5 3.9 25.4 5 24 5H22.8V7.7C22 7.6 21.2 7.5 20.3 7.5C19.4 7.5 18.6 7.6 17.8 7.7V5H16.5C15.1 5 14 3.9 14 2.5Z" fill="#13EF93"/>
<path d="M32.2 9.5C33.2 8.5 34.8 8.5 35.7 9.5C36.6 10.5 36.7 12.1 35.7 13L33.8 14.9C32.9 13.5 31.8 12.2 30.5 11.2L32.2 9.5Z" fill="#13EF93"/>
<path d="M22.1 25C22.1 26 21.3 26.9 20.2 26.9C19.1 26.9 18.4 26 18.4 25V15C18.4 14 19.2 13.1 20.3 13.1C21.4 13.1 22.2 13.9 22.2 15V25H22.1Z" fill="#13EF93"/>
<path opacity="0.4" d="M4 23.8C4 14.8 11.3 7.60001 20.2 7.60001C29.1 7.60001 36.5 14.8 36.5 23.8C36.5 32.8 29.2 40 20.3 40C11.4 40 4 32.7 4 23.8ZM22.1 15C22.1 14 21.3 13.1 20.2 13.1C19.1 13.1 18.4 14 18.4 15V25C18.4 26 19.2 26.9 20.3 26.9C21.4 26.9 22.2 26.1 22.2 25V15H22.1Z" fill="#13EF93"/>
<path d="M21.5 26.4C20.7 27.1 19.5 27 18.9 26.2C18.3 25.4 18.3 24.2 19.1 23.6L23.3 20.1C24.1 19.4 25.3 19.5 25.9 20.3C26.5 21.1 26.5 22.3 25.7 22.9L21.5 26.4Z" fill="#13EF93"/>
</svg>
