<svg width="40" height="40" viewBox="0 0 40 40" fill="none" xmlns="http://www.w3.org/2000/svg">
<path fill-rule="evenodd" clip-rule="evenodd" d="M14 2.5C14 1.1 15.1 0 16.5 0H24C25.4 0 26.5 1.1 26.5 2.5C26.5 3.9 25.4 5 24 5H22.8V7.6L22.9131 7.82614C25.7441 8.30258 28.3422 9.51119 30.4915 11.2542L30.5393 11.2304C30.5262 11.2202 30.5131 11.2101 30.5 11.2L32.2 9.5C33.2 8.5 34.8 8.5 35.7 9.5C36.6 10.5 36.7 12.1 35.7 13L33.8068 14.8932C35.5054 17.4428 36.5 20.5004 36.5 23.8C36.5 32.8 29.2 40 20.3 40C11.4 40 4 32.7 4 23.8C4 15.6558 9.97765 8.98563 17.7093 7.79069L17.8 7.7V5H16.5C15.1 5 14 3.9 14 2.5ZM20.2 13.1C20.2167 13.1 20.2334 13.1002 20.25 13.1006C20.2666 13.1002 20.2833 13.1 20.3 13.1C21.4 13.1 22.2 13.9 22.2 15L22.2 21.0167L23.3 20.1C24.1 19.4 25.3 19.5 25.9 20.3C26.5 21.1 26.5 22.3 25.7 22.9L21.9011 26.0658C21.5719 26.5797 20.996 26.9 20.3 26.9C20.2833 26.9 20.2666 26.8998 20.25 26.8994C20.2428 26.8996 20.2355 26.8997 20.2283 26.8998C20.2189 26.8999 20.2094 26.9 20.2 26.9C19.1 26.9 18.4 26 18.4 25V15C18.4 14 19.1 13.1 20.2 13.1Z" fill="white"/>
</svg>
