<svg width="40" height="40" viewBox="0 0 40 40" fill="none" xmlns="http://www.w3.org/2000/svg">
<path d="M21.88 17V22H25.48C27.14 22 27.98 24.02 26.8 25.13L21.26 30.67C20.6 31.4 19.41 31.4 18.67 30.67L13.13 25.13C12.02 24.02 12.86 22 14.52 22H18.12V17H5C2.24 17 0 14.76 0 12V7C0 4.24 2.24 2 5 2H35C37.76 2 40 4.24 40 7V12C40 14.76 37.76 17 35 17H21.88Z" fill="#13EF93"/>
<path opacity="0.4" d="M30.01 26.34C31.33 25.09 31.61 23.43 31.17 22H35C37.76 22 40 24.24 40 27V32C40 34.76 37.76 37 35 37H5C2.24 37 0 34.76 0 32V27C0 24.24 2.24 22 5 22H8.76C8.39 23.44 8.6 25.09 9.92 26.34L16.9 33.25C18.61 35.02 21.38 35.02 23.09 33.25L30 26.34H30.01Z" fill="#13EF93"/>
</svg>
