<svg width="40" height="40" viewBox="0 0 40 40" fill="none" xmlns="http://www.w3.org/2000/svg">
<path d="M40 12C40 14.76 37.76 17 35 17H21.88V22H25.48C27.15 22 27.99 24.02 26.81 25.2L21.33 30.67C20.6 31.4 19.41 31.4 18.68 30.67L13.2 25.2C12.02 24.02 12.86 22 14.53 22H18.12V17H5C2.24 17 0 14.76 0 12V7C0 4.24 2.24 2 5 2H35C37.76 2 40 4.24 40 7V12ZM35 32V27H28.54L28.57 26.97C30.01 25.53 30.16 23.56 29.43 22H35C37.76 22 40 24.24 40 27V32C40 34.76 37.76 37 35 37H5C2.24 37 0 34.76 0 32V27C0 24.24 2.24 22 5 22H10.57C9.84 23.55 9.99 25.53 11.43 26.97L11.46 27H5V32H16.46L16.91 32.45C18.62 34.16 21.39 34.16 23.1 32.45L23.55 32H35.01H35Z" fill="white"/>
</svg>
