<svg width="40" height="40" viewBox="0 0 40 40" fill="none" xmlns="http://www.w3.org/2000/svg">
<path d="M2.1875 6.34375C2.1875 5.35664 2.98164 4.5625 3.96875 4.5625H7.53125C8.51836 4.5625 9.3125 5.35664 9.3125 6.34375V9.90625C9.3125 10.8934 8.51836 11.6875 7.53125 11.6875H3.96875C2.98164 11.6875 2.1875 10.8934 2.1875 9.90625V6.34375ZM2.1875 18.2188C2.1875 17.2316 2.98164 16.4375 3.96875 16.4375H7.53125C8.51836 16.4375 9.3125 17.2316 9.3125 18.2188V21.7812C9.3125 22.7684 8.51836 23.5625 7.53125 23.5625H3.96875C2.98164 23.5625 2.1875 22.7684 2.1875 21.7812V18.2188ZM3.96875 28.3125H7.53125C8.51836 28.3125 9.3125 29.1066 9.3125 30.0938V33.6562C9.3125 34.6434 8.51836 35.4375 7.53125 35.4375H3.96875C2.98164 35.4375 2.1875 34.6434 2.1875 33.6562V30.0938C2.1875 29.1066 2.98164 28.3125 3.96875 28.3125Z" fill="#13EF93"/>
<path opacity="0.4" d="M12.875 8.125C12.875 6.81133 13.9363 5.75 15.25 5.75H36.625C37.9387 5.75 39 6.81133 39 8.125C39 9.43867 37.9387 10.5 36.625 10.5H15.25C13.9363 10.5 12.875 9.43867 12.875 8.125ZM12.875 20C12.875 18.6863 13.9363 17.625 15.25 17.625H36.625C37.9387 17.625 39 18.6863 39 20C39 21.3137 37.9387 22.375 36.625 22.375H15.25C13.9363 22.375 12.875 21.3137 12.875 20ZM15.25 29.5H36.625C37.9387 29.5 39 30.5613 39 31.875C39 33.1887 37.9387 34.25 36.625 34.25H15.25C13.9363 34.25 12.875 33.1887 12.875 31.875C12.875 30.5613 13.9363 29.5 15.25 29.5Z" fill="#13EF93"/>
</svg>
