<svg width="40" height="40" viewBox="0 0 40 40" fill="none" xmlns="http://www.w3.org/2000/svg">
<path d="M38.75 15C38.75 16.3828 37.6328 17.5 36.25 17.5H26.25C24.8672 17.5 23.75 16.3828 23.75 15C23.75 13.6172 24.8672 12.5 26.25 12.5H33.75V5C33.75 3.61719 34.8672 2.5 36.25 2.5C37.6328 2.5 38.75 3.61719 38.75 5V15Z" fill="white"/>
<path d="M30.1797 12.5L28.8438 11.1641C23.9609 6.28125 16.0469 6.28125 11.1641 11.1641C6.28125 16.0469 6.28125 23.9609 11.1641 28.8438C16.0469 33.7266 23.9609 33.7266 28.8438 28.8438C29.8203 27.8672 31.4062 27.8672 32.3828 28.8438C33.3594 29.8203 33.3594 31.4062 32.3828 32.3828C25.5469 39.2188 14.4688 39.2188 7.63281 32.3828C0.796875 25.5469 0.796875 14.4688 7.63281 7.63281C14.4688 0.796875 25.5469 0.796875 32.3828 7.63281L33.75 9V12.5H30.1797Z" fill="white"/>
</svg>
