<svg width="40" height="40" viewBox="0 0 40 40" fill="none" xmlns="http://www.w3.org/2000/svg">
<path d="M3 6.74221V18.4219C3 19.75 3.52344 21.0235 4.46094 21.961L18.2109 35.711C20.1641 37.6641 23.3281 37.6641 25.2812 35.711L35.7109 25.2813C37.6641 23.3282 37.6641 20.1641 35.7109 18.211L21.9609 4.46096C21.0234 3.52346 19.75 3.00003 18.4219 3.00003H6.75C4.67969 2.99221 3 4.6719 3 6.74221ZM11.75 9.24222C12.413 9.24222 13.0489 9.50561 13.5178 9.97445C13.9866 10.4433 14.25 11.0792 14.25 11.7422C14.25 12.4053 13.9866 13.0411 13.5178 13.51C13.0489 13.9788 12.413 14.2422 11.75 14.2422C11.087 14.2422 10.4511 13.9788 9.98223 13.51C9.51339 13.0411 9.25 12.4053 9.25 11.7422C9.25 11.0792 9.51339 10.4433 9.98223 9.97445C10.4511 9.50561 11.087 9.24222 11.75 9.24222Z" fill="white"/>
</svg>
