<svg width="40" height="40" viewBox="0 0 40 40" fill="none" xmlns="http://www.w3.org/2000/svg">
<g clip-path="url(#clip0_1657_4974)">
<path d="M25.875 11.4766L25.2109 7.51875C25.0781 6.72266 25.3359 5.91094 25.9063 5.34062L29.9063 1.34062C30.4766 0.706249 31.6172 0.926562 31.9531 1.76016L33.75 6.25L38.2422 7.97656C39.0703 8.38281 39.2266 9.45312 38.6563 10.0937L34.6563 14.0937C34.0859 14.6641 33.2734 14.8516 32.4844 14.7891L28.5234 14.125L21.2578 21.2578C20.5938 22.0547 19.4063 22.0547 18.6719 21.2578C17.9453 20.5938 17.9453 19.4062 18.6719 18.6719L25.875 11.4766Z" fill="white"/>
<path d="M28.625 16.6797L30.8594 17.0547C31.1172 17.9922 31.25 18.9766 31.25 20C31.25 26.2109 26.2109 31.25 20 31.25C13.7891 31.25 8.75 26.2109 8.75 20C8.75 13.7891 13.7891 8.75 20 8.75C21.0234 8.75 22.0078 8.88281 22.9453 9.07031L23.3203 11.375L20.8828 13.8125C20.5937 13.7734 20.2969 13.6797 20 13.6797C16.5469 13.6797 13.75 16.5469 13.75 19.9297C13.75 23.3125 16.5469 26.25 20 26.25C23.4531 26.25 26.25 23.4531 26.25 19.9297C26.25 19.7031 26.2266 19.4062 26.1875 19.1172L28.625 16.6797ZM38.8828 13.3984C39.5391 15.3984 40 17.6875 40 20C40 31.0469 31.0469 40 20 40C8.95312 40 0 31.0469 0 20C0 8.95312 8.95312 0 20 0C22.3125 0 24.5312 0.392188 26.6016 1.11484L22.5078 5.20859C21.6875 5.07109 20.8516 5 20 5C11.6484 5 5 11.6484 5 20C5 28.3516 11.6484 35 20 35C28.3516 35 35 28.2812 35 20C35 19.1484 34.9297 18.3125 34.7891 17.4922L38.8828 13.3984Z" fill="white"/>
</g>
<defs>
<clipPath id="clip0_1657_4974">
<rect width="40" height="40" fill="white"/>
</clipPath>
</defs>
</svg>
