<svg width="40" height="40" viewBox="0 0 40 40" fill="none" xmlns="http://www.w3.org/2000/svg">
<g clip-path="url(#clip0_1979_10932)">
<path d="M8.32886 14.7824C7.60152 14.1145 7.55699 12.9938 8.21753 12.2664C8.87808 11.5391 10.0062 11.4945 10.7335 12.1551L17.8585 18.6863C18.2296 19.0203 18.4375 19.5028 18.4375 20C18.4375 20.4973 18.2296 20.9723 17.8585 21.3137L10.7335 27.8449C10.0062 28.5129 8.87808 28.461 8.21753 27.7336C7.55699 27.0063 7.60152 25.8781 8.32886 25.2176L14.0214 20L8.32886 14.7824ZM19.0312 25.9375H29.7187C30.7058 25.9375 31.5 26.7317 31.5 27.7188C31.5 28.7059 30.7058 29.5 29.7187 29.5H19.0312C18.0441 29.5 17.25 28.7059 17.25 27.7188C17.25 26.7317 18.0441 25.9375 19.0312 25.9375Z" fill="#13EF93"/>
<path opacity="0.4" d="M3 8.125C3 5.50508 5.13008 3.375 7.75 3.375H31.5C34.1199 3.375 36.25 5.50508 36.25 8.125V31.875C36.25 34.4949 34.1199 36.625 31.5 36.625H7.75C5.13008 36.625 3 34.4949 3 31.875V8.125ZM8.21758 12.2664C7.54961 12.9938 7.60156 14.1219 8.32891 14.7824L14.0215 20L8.32891 25.2176C7.60156 25.8855 7.55703 27.0063 8.21758 27.7336C8.87813 28.4609 10.0062 28.5055 10.7336 27.8449L17.8586 21.3137C18.2297 20.9797 18.4375 20.4973 18.4375 20C18.4375 19.5027 18.2297 19.0277 17.8586 18.6863L10.7336 12.1551C10.0062 11.4871 8.87813 11.5391 8.21758 12.2664ZM19.0312 25.9375C18.0441 25.9375 17.25 26.7316 17.25 27.7188C17.25 28.7059 18.0441 29.5 19.0312 29.5H29.7188C30.7059 29.5 31.5 28.7059 31.5 27.7188C31.5 26.7316 30.7059 25.9375 29.7188 25.9375H19.0312Z" fill="#13EF93"/>
</g>
<defs>
<clipPath id="clip0_1979_10932">
<rect width="33.25" height="38" fill="white" transform="translate(3 1)"/>
</clipPath>
</defs>
</svg>
