<svg width="40" height="40" viewBox="0 0 40 40" fill="none" xmlns="http://www.w3.org/2000/svg">
<path d="M22.4829 1L34.2564 12.875H24.8376C23.5352 12.875 22.4829 11.8137 22.4829 10.5V1Z" fill="#13EF93"/>
<path opacity="0.4" d="M10.7094 1C8.11187 1 6 3.13008 6 5.75V34.25C6 36.8699 8.11187 39 10.7094 39H29.547C32.1445 39 34.2564 36.8699 34.2564 34.25V12.875H24.8376C23.5352 12.875 22.4829 11.8137 22.4829 10.5V1H10.7094Z" fill="#13EF93"/>
<path d="M14.3214 18.6696V19.8928C14.3214 20.5694 13.7748 21.116 13.0982 21.116C12.4216 21.116 11.875 20.5694 11.875 19.8928V18.058C11.875 17.045 12.6968 16.2231 13.7098 16.2231H20.4375H27.1652C28.1782 16.2231 29 17.045 29 18.058V19.8928C29 20.5694 28.4534 21.116 27.7768 21.116C27.1002 21.116 26.5536 20.5694 26.5536 19.8928V18.6696H21.6607V30.9017H23.4955C24.1721 30.9017 24.7187 31.4483 24.7187 32.1249C24.7187 32.8015 24.1721 33.3481 23.4955 33.3481H17.3795C16.7029 33.3481 16.1562 32.8015 16.1562 32.1249C16.1562 31.4483 16.7029 30.9017 17.3795 30.9017H19.2143V18.6696H14.3214Z" fill="#13EF93"/>
</svg>
