<svg width="40" height="40" viewBox="0 0 40 40" fill="none" xmlns="http://www.w3.org/2000/svg">
<path fill-rule="evenodd" clip-rule="evenodd" d="M10.75 1C8.13008 1 6 3.13008 6 5.75V34.25C6 36.8699 8.13008 39 10.75 39H29.75C32.3699 39 34.5 36.8699 34.5 34.25V12.875H25C23.6863 12.875 22.625 11.8137 22.625 10.5V1H10.75ZM25 10.5H34.5L25 1V10.5ZM14.3214 19.8928V18.6696H19.2143V30.9017H17.3795C16.7029 30.9017 16.1562 31.4483 16.1562 32.1249C16.1562 32.8015 16.7029 33.3481 17.3795 33.3481H23.4955C24.1721 33.3481 24.7188 32.8015 24.7188 32.1249C24.7188 31.4483 24.1721 30.9017 23.4955 30.9017H21.6607V18.6696H26.5536V19.8928C26.5536 20.5694 27.1002 21.116 27.7768 21.116C28.4534 21.116 29 20.5694 29 19.8928V18.058C29 17.045 28.1782 16.2231 27.1652 16.2231H20.4375H13.7098C12.6968 16.2231 11.875 17.045 11.875 18.058V19.8928C11.875 20.5694 12.4216 21.116 13.0982 21.116C13.7748 21.116 14.3214 20.5694 14.3214 19.8928Z" fill="white"/>
</svg>
