<svg width="40" height="40" viewBox="0 0 40 40" fill="none" xmlns="http://www.w3.org/2000/svg">
<path d="M1 17.625C1 16.3113 2.06133 15.25 3.375 15.25H8.125C9.43867 15.25 10.5 16.3113 10.5 17.625V34.25C10.5 35.5637 9.43867 36.625 8.125 36.625H3.375C2.06133 36.625 1 35.5637 1 34.25V17.625Z" fill="#13EF93"/>
<path opacity="0.4" d="M27.0582 7.63516C27.4441 5.70548 26.1898 3.82774 24.2602 3.44181C22.3305 3.05587 20.4527 4.31016 20.0668 6.23985L19.8961 7.08595C19.4063 9.55001 18.0555 11.7617 16.0961 13.3352L15.5469 13.7731C13.8547 15.1238 12.875 17.1723 12.875 19.3395V21.1875V24.75V27.5926C12.875 29.975 14.0625 32.2016 16.0441 33.5227L18.9016 35.4301C20.0742 36.2094 21.4473 36.625 22.8574 36.625H30.0938C32.0605 36.625 33.6562 35.0293 33.6562 33.0625C33.6562 32.7953 33.6266 32.543 33.5746 32.2906C34.9996 31.8231 36.0312 30.4871 36.0312 28.9063C36.0312 28.2309 35.8457 27.6 35.5191 27.0582C37.1668 26.7465 38.4062 25.2992 38.4062 23.5625C38.4062 22.4418 37.8867 21.4399 37.0777 20.7867C38.2207 20.193 39 18.9981 39 17.625C39 15.6582 37.4043 14.0625 35.4375 14.0625H24.75C25.7668 12.3481 26.4941 10.4629 26.8875 8.48126L27.0582 7.63516Z" fill="#13EF93"/>
</svg>
