<svg width="40" height="40" viewBox="0 0 40 40" fill="none" xmlns="http://www.w3.org/2000/svg">
<path d="M10.1251 29.5H32.6876C34.6551 29.5 36.2501 27.905 36.2501 25.9375V4.5625C36.2501 2.59496 34.6544 1 32.6876 1H10.1251C6.18998 1 3.00006 4.18992 3.00006 8.125V31.875C3.00006 35.8101 6.18998 39 10.1251 39H33.8751C35.1865 39 36.2501 37.9364 36.2501 36.6918C36.2501 35.3113 35.1887 34.25 33.8751 34.25H10.229C8.98877 34.25 7.88069 33.343 7.76342 32.108C7.62612 30.6949 8.73643 29.5 10.1251 29.5ZM13.6208 10.5H27.8708C28.5907 10.5 29.1251 11.0344 29.1251 11.6875C29.1251 12.3406 28.5907 12.875 27.9376 12.875H13.6208C13.0344 12.875 12.5001 12.3406 12.5001 11.6875C12.5001 11.0344 13.0344 10.5 13.6208 10.5ZM13.6208 15.25H27.8708C28.5907 15.25 29.1251 15.7844 29.1251 16.4375C29.1251 17.0906 28.5907 17.625 27.9376 17.625H13.6208C13.0344 17.625 12.5001 17.0906 12.5001 16.4375C12.5001 15.7844 13.0344 15.25 13.6208 15.25Z" fill="#13EF93"/>
<path opacity="0.4" d="M32.6876 29.5H10.1251C8.81362 29.5 7.75006 30.5636 7.75006 31.875C7.75006 33.1864 8.81362 34.25 10.1251 34.25H33.8751V29.2818C33.4372 29.4109 33.1032 29.5 32.6876 29.5Z" fill="#13EF93"/>
</svg>
