<svg width="40" height="40" viewBox="0 0 40 40" fill="none" xmlns="http://www.w3.org/2000/svg">
<path d="M10.2858 0C6.26345 0 3.00006 3.27539 3.00006 7.3125V31.6875C3.00006 35.7246 6.26345 39 10.2858 39H32.1429H34.5715C35.9148 39 37.0001 37.9107 37.0001 36.5625C37.0001 35.2143 35.9148 34.125 34.5715 34.125V29.25C35.9148 29.25 37.0001 28.1607 37.0001 26.8125V2.4375C37.0001 1.08926 35.9148 0 34.5715 0H32.1429H10.2858ZM10.2858 29.25H29.7143V34.125H10.2858C8.94247 34.125 7.8572 33.0357 7.8572 31.6875C7.8572 30.3393 8.94247 29.25 10.2858 29.25ZM12.7143 10.9688C12.7143 10.2984 13.2608 9.75 13.9286 9.75H28.5001C29.1679 9.75 29.7143 10.2984 29.7143 10.9688C29.7143 11.6391 29.1679 12.1875 28.5001 12.1875H13.9286C13.2608 12.1875 12.7143 11.6391 12.7143 10.9688ZM13.9286 14.625H28.5001C29.1679 14.625 29.7143 15.1734 29.7143 15.8438C29.7143 16.5141 29.1679 17.0625 28.5001 17.0625H13.9286C13.2608 17.0625 12.7143 16.5141 12.7143 15.8438C12.7143 15.1734 13.2608 14.625 13.9286 14.625Z" fill="white"/>
</svg>
