<svg width="40" height="40" viewBox="0 0 40 40" fill="none" xmlns="http://www.w3.org/2000/svg">
<path d="M20.0004 7C19.5448 7 19.0948 7.07839 18.6673 7.22958L2.88959 12.9019C2.35523 13.0979 2.00087 13.6019 2.00087 14.1674C2.00087 14.733 2.35523 15.2369 2.88959 15.4329L6.14639 16.6032C5.22391 18.0479 4.7008 19.7558 4.7008 21.5532V23.1267C4.7008 24.717 4.09332 26.3577 3.44646 27.6511C3.08084 28.3791 2.6646 29.0958 2.18086 29.7566C2.00087 29.9974 1.95024 30.3109 2.05149 30.5965C2.15274 30.8821 2.38898 31.0949 2.68147 31.1677L6.28139 32.0636C6.51763 32.1252 6.77075 32.0804 6.97887 31.9516C7.18699 31.8228 7.33324 31.61 7.37824 31.3693C7.86197 28.9726 7.62011 26.8224 7.26011 25.2825C7.08012 24.4874 6.83825 23.6755 6.50076 22.9307V21.5532C6.50076 19.8622 7.07449 18.2663 8.0701 16.9896C8.7957 16.1217 9.73506 15.4217 10.8375 14.9906L19.6686 11.5356C20.1298 11.3565 20.6529 11.5804 20.8329 12.0396C21.0129 12.4988 20.7879 13.0195 20.3267 13.1987L11.4956 16.6536C10.7982 16.928 10.185 17.348 9.68443 17.8631L18.6617 21.0885C19.0892 21.2397 19.5392 21.3181 19.9948 21.3181C20.4504 21.3181 20.9004 21.2397 21.3279 21.0885L37.1113 15.4329C37.6456 15.2425 38 14.733 38 14.1674C38 13.6019 37.6456 13.0979 37.1113 12.9019L21.3335 7.22958C20.906 7.07839 20.456 7 20.0004 7ZM9.20069 28.0543C9.20069 30.031 14.0381 32.086 20.0004 32.086C25.9628 32.086 30.8002 30.031 30.8002 28.0543L29.9396 19.9126L21.941 22.7907C21.3167 23.0147 20.6585 23.1267 20.0004 23.1267C19.3423 23.1267 18.6786 23.0147 18.0599 22.7907L10.0613 19.9126L9.20069 28.0543Z" fill="white"/>
</svg>
