<svg width="40" height="40" viewBox="0 0 40 40" fill="none" xmlns="http://www.w3.org/2000/svg">
<path d="M20.0007 7C19.5451 7 19.0951 7.07875 18.6676 7.23062L2.88983 12.9286C2.35547 13.1255 2.0011 13.6317 2.0011 14.1998C2.0011 14.7679 2.35547 15.2742 2.88983 15.4711L7.24348 17.0404C8.18845 16.0392 9.36968 15.2461 10.714 14.7398L19.6801 11.3761C20.1469 11.2018 20.6644 11.438 20.8388 11.9049C21.0132 12.3717 20.7769 12.8892 20.31 13.0636L11.3496 16.4273C10.5284 16.7366 9.78592 17.181 9.13906 17.7266L18.6732 21.169C19.1007 21.3209 19.5507 21.3997 20.0063 21.3997C20.4619 21.3997 20.9119 21.3209 21.3394 21.169L37.1115 15.4711C37.6459 15.2798 38.0003 14.7679 38.0003 14.1998C38.0003 13.6317 37.6459 13.1255 37.1115 12.9286L21.3338 7.23062C20.9063 7.07875 20.4563 7 20.0007 7ZM9.20093 28.1495C9.20093 30.1351 14.0383 32.1994 20.0007 32.1994C25.963 32.1994 30.8004 30.1351 30.8004 28.1495L29.9398 19.9709L21.9413 22.8621C21.3169 23.0871 20.6588 23.1996 20.0007 23.1996C19.3426 23.1996 18.6788 23.0871 18.0601 22.8621L10.0615 19.9709L9.20093 28.1495Z" fill="#13EF93"/>
<path opacity="0.4" d="M20.3154 13.0636C20.7823 12.8893 21.0185 12.3718 20.8442 11.9049C20.6698 11.4381 20.1523 11.2018 19.6855 11.3762L10.7138 14.7399C7.19824 16.0617 4.8358 19.3635 4.70643 23.0984C4.7008 23.1322 4.7008 23.1659 4.7008 23.1997C4.7008 24.7971 4.09332 26.4508 3.44646 27.7445C3.08084 28.4758 2.6646 29.1958 2.18086 29.8595C2.00087 30.1014 1.95024 30.4164 2.05149 30.7032C2.15274 30.9901 2.38898 31.2038 2.68147 31.277L6.28139 32.1769C6.51763 32.2388 6.77075 32.1938 6.97887 32.0644C7.18699 31.9351 7.33324 31.7213 7.37824 31.4795C7.86198 29.072 7.62011 26.9121 7.26012 25.3652C7.08012 24.5777 6.83825 23.7734 6.50638 23.0309C6.66388 20.0778 8.55384 17.4792 11.3438 16.4329L20.3098 13.0693L20.3154 13.0636Z" fill="#13EF93"/>
</svg>
