<svg width="40" height="40" viewBox="0 0 40 40" fill="none" xmlns="http://www.w3.org/2000/svg">
<path d="M14 4C16.1217 4 18.1566 4.85182 19.6569 6.36807C21.1571 7.88432 22 9.9408 22 12.0851C22 14.2294 21.1571 16.2859 19.6569 17.8021C18.1566 19.3184 16.1217 20.1702 14 20.1702C11.8783 20.1702 9.84344 19.3184 8.34315 17.8021C6.84285 16.2859 6 14.2294 6 12.0851C6 9.9408 6.84285 7.88432 8.34315 6.36807C9.84344 4.85182 11.8783 4 14 4ZM11.1438 23.2021H16.8563C17.5938 23.2021 18.3188 23.2779 19.0125 23.4106C18.8813 24.5791 19.475 25.6592 20.375 26.2404C19.3375 26.9099 18.7062 28.2364 19.125 29.607C19.375 30.4219 19.7125 31.2178 20.15 31.982C20.5875 32.7463 21.1 33.4412 21.675 34.0665C22.6562 35.134 24.15 35.2287 25.25 34.616V34.6729C25.25 35.254 25.4187 35.8414 25.7437 36.3341H1.85625C0.83125 36.3404 0 35.5003 0 34.4644C0 28.2427 4.9875 23.2021 11.1438 23.2021ZM27.25 17.7826C27.25 17.3404 27.5312 16.9425 27.9562 16.8477C28.6125 16.6961 29.3 16.614 30 16.614C30.7 16.614 31.3875 16.6961 32.0438 16.8477C32.4688 16.9425 32.75 17.3404 32.75 17.7826V19.7154C33.2438 19.9302 33.7125 20.2018 34.1437 20.5239L35.7 19.6207C36.0812 19.3996 36.5563 19.4501 36.8563 19.7723C37.3312 20.2839 37.75 20.8587 38.1125 21.4904C38.475 22.122 38.7562 22.7789 38.9562 23.4485C39.0875 23.8717 38.8875 24.3138 38.5062 24.5349L36.9437 25.4445C36.9688 25.6971 36.9875 25.9561 36.9875 26.2214C36.9875 26.4867 36.975 26.7394 36.9437 26.9983L38.5062 27.9079C38.8875 28.129 39.0812 28.5711 38.9562 28.9944C38.75 29.6639 38.4688 30.3208 38.1125 30.9525C37.7562 31.5841 37.3312 32.1589 36.8563 32.6705C36.5563 32.9927 36.075 33.0432 35.7 32.8221L34.1437 31.9189C33.7125 32.241 33.25 32.5126 32.75 32.7274V34.6602C32.75 35.1024 32.4688 35.5003 32.0438 35.5951C31.3875 35.7467 30.7 35.8288 30 35.8288C29.3 35.8288 28.6125 35.7467 27.9562 35.5951C27.5312 35.5003 27.25 35.1024 27.25 34.6602V32.7274C26.75 32.5126 26.275 32.241 25.8438 31.9126L24.3 32.8158C23.9187 33.0369 23.4437 32.9864 23.1437 32.6642C22.6687 32.1526 22.25 31.5778 21.8875 30.9461C21.525 30.3145 21.2438 29.6576 21.0438 28.988C20.9125 28.5648 21.1125 28.1227 21.4937 27.9016L23.0438 26.9983C23.0188 26.7394 23 26.4804 23 26.2151C23 25.9498 23.0125 25.6908 23.0438 25.4318L21.4875 24.5286C21.1062 24.3075 20.9125 23.8654 21.0375 23.4422C21.2437 22.7726 21.5188 22.1157 21.8813 21.484C22.2437 20.8524 22.6625 20.2776 23.1375 19.766C23.4375 19.4438 23.9125 19.3933 24.2938 19.6144L25.8438 20.5176C26.275 20.1955 26.75 19.9239 27.25 19.7028V17.7826ZM33.0062 26.2151C33.0248 25.8049 32.9608 25.3951 32.8183 25.0106C32.6757 24.626 32.4575 24.2747 32.1768 23.9778C31.8961 23.6809 31.5588 23.4445 31.1852 23.2831C30.8116 23.1216 30.4094 23.0384 30.0031 23.0384C29.5968 23.0384 29.1947 23.1216 28.8211 23.2831C28.4475 23.4445 28.1102 23.6809 27.8295 23.9778C27.5488 24.2747 27.3306 24.626 27.188 25.0106C27.0454 25.3951 26.9815 25.8049 27 26.2151C26.9815 26.6253 27.0454 27.0351 27.188 27.4196C27.3306 27.8042 27.5488 28.1555 27.8295 28.4524C28.1102 28.7493 28.4475 28.9856 28.8211 29.1471C29.1947 29.3086 29.5968 29.3918 30.0031 29.3918C30.4094 29.3918 30.8116 29.3086 31.1852 29.1471C31.5588 28.9856 31.8961 28.7493 32.1768 28.4524C32.4575 28.1555 32.6757 27.8042 32.8183 27.4196C32.9608 27.0351 33.0248 26.6253 33.0062 26.2151Z" fill="white"/>
</svg>
