<svg width="40" height="40" viewBox="0 0 40 40" fill="none" xmlns="http://www.w3.org/2000/svg">
<path d="M28.9562 16.7125C28.5312 16.8062 28.2499 17.2 28.2499 17.6375V18.725C28.2499 19.2187 27.9437 19.6625 27.5187 19.9062C27.0937 20.15 26.5687 20.1875 26.1437 19.9437L25.2937 19.4562C24.9124 19.2375 24.4374 19.2875 24.1374 19.6062C23.6687 20.1125 23.2437 20.6812 22.8812 21.3062C22.5187 21.9312 22.2374 22.5812 22.0374 23.2437C21.9062 23.6625 22.1062 24.1 22.4874 24.3187L23.3624 24.825C23.7687 25.0625 23.9937 25.5125 23.9937 25.9875C23.9937 26.4625 23.7749 26.9125 23.3624 27.15L22.4874 27.6562C22.1062 27.875 21.9124 28.3125 22.0374 28.7312C22.2437 29.3937 22.5249 30.0437 22.8812 30.6687C23.2374 31.2937 23.6624 31.8625 24.1374 32.3687C24.4374 32.6875 24.9187 32.7375 25.2937 32.5187L26.1374 32.0312C26.5624 31.7875 27.0874 31.825 27.5124 32.0687C27.9437 32.3125 28.2437 32.7562 28.2437 33.25V34.3375C28.2437 34.775 28.5249 35.1687 28.9499 35.2625C29.6062 35.4125 30.2937 35.4937 30.9937 35.4937C31.6937 35.4937 32.3812 35.4125 33.0374 35.2625C33.4624 35.1687 33.7437 34.775 33.7437 34.3375V33.2312C33.7437 32.7437 34.0437 32.3062 34.4687 32.0625C34.8874 31.8187 35.4124 31.7812 35.8312 32.025L36.6937 32.5187C37.0749 32.7375 37.5499 32.6875 37.8499 32.3687C38.3249 31.8625 38.7437 31.2937 39.1062 30.6687C39.4687 30.0437 39.7499 29.3937 39.9499 28.7312C40.0812 28.3125 39.8812 27.875 39.4999 27.6562L38.5999 27.1375C38.1937 26.9062 37.9749 26.4562 37.9749 25.9875C37.9749 25.5187 38.1937 25.0687 38.5999 24.8375L39.4999 24.3187C39.8812 24.1 40.0749 23.6625 39.9499 23.2437C39.7437 22.5812 39.4625 21.9312 39.1062 21.3062C38.7499 20.6812 38.3249 20.1125 37.8499 19.6062C37.5499 19.2875 37.0687 19.2375 36.6937 19.4562L35.8312 19.95C35.4124 20.1937 34.8874 20.1562 34.4687 19.9125C34.0437 19.6687 33.7437 19.2312 33.7437 18.7437V17.6375C33.7437 17.2 33.4624 16.8062 33.0374 16.7125C32.3812 16.5625 31.6937 16.4812 30.9937 16.4812C30.2937 16.4812 29.6062 16.5625 28.9499 16.7125H28.9562ZM30.9999 22.9812C31.7956 22.9812 32.5587 23.2973 33.1213 23.8599C33.6839 24.4225 33.9999 25.1856 33.9999 25.9812C33.9999 26.7769 33.6839 27.54 33.1213 28.1026C32.5587 28.6652 31.7956 28.9812 30.9999 28.9812C30.2043 28.9812 29.4412 28.6652 28.8786 28.1026C28.316 27.54 27.9999 26.7769 27.9999 25.9812C27.9999 25.1856 28.316 24.4225 28.8786 23.8599C29.4412 23.2973 30.2043 22.9812 30.9999 22.9812Z" fill="#13EF93"/>
<path opacity="0.4" d="M7 12C7 9.87827 7.84285 7.84344 9.34315 6.34315C10.8434 4.84285 12.8783 4 15 4C17.1217 4 19.1566 4.84285 20.6569 6.34315C22.1571 7.84344 23 9.87827 23 12C23 14.1217 22.1571 16.1566 20.6569 17.6569C19.1566 19.1571 17.1217 20 15 20C12.8783 20 10.8434 19.1571 9.34315 17.6569C7.84285 16.1566 7 14.1217 7 12ZM1 34.1437C1 27.9875 5.9875 23 12.1438 23H17.8563C18.5938 23 19.3188 23.075 20.0125 23.2062C19.8813 24.3625 20.475 25.4312 21.375 26.0063C20.3375 26.6688 19.7062 27.9812 20.125 29.3375C20.375 30.1437 20.7125 30.9312 21.15 31.6875C21.5875 32.4438 22.1 33.1313 22.675 33.75C23.6562 34.8062 25.15 34.9 26.25 34.2938V34.35C26.25 34.925 26.4187 35.5063 26.7437 35.9937H2.85625C1.83125 36 1 35.1687 1 34.1437Z" fill="#13EF93"/>
</svg>
