<svg width="40" height="40" viewBox="0 0 40 40" fill="none" xmlns="http://www.w3.org/2000/svg">
<path d="M38.82 9.55001C39.54 9.94001 40 10.69 40 11.51V29.33C40 30.15 39.55 30.9 38.82 31.29C38.09 31.68 37.22 31.64 36.53 31.18L26.63 24.58V16.25L36.53 9.65001C37.21 9.20001 38.09 9.15001 38.82 9.54001V9.55001Z" fill="#13EF93"/>
<path opacity="0.4" d="M22.27 7H4.46C1.99681 7 0 8.99681 0 11.46V29.27C0 31.7332 1.99681 33.73 4.46 33.73H22.27C24.7332 33.73 26.73 31.7332 26.73 29.27V11.46C26.73 8.99681 24.7332 7 22.27 7Z" fill="#13EF93"/>
<path d="M9.95 14.19C9.52 13.93 8.99 13.92 8.56 14.16C8.13 14.4 7.86 14.86 7.86 15.36V25.47C7.86 25.97 8.13 26.43 8.56 26.67C8.99 26.91 9.53 26.9 9.95 26.64L18.22 21.58C18.63 21.33 18.88 20.88 18.88 20.4C18.88 19.92 18.63 19.47 18.22 19.22L9.95 14.16V14.19Z" fill="#13EF93"/>
</svg>
