<svg width="40" height="40" viewBox="0 0 40 40" fill="none" xmlns="http://www.w3.org/2000/svg">
<mask id="mask0_1979_11017" style="mask-type:alpha" maskUnits="userSpaceOnUse" x="13" y="11" width="15" height="16">
<path d="M13.3333 11.7778H27.7778V26.2223H13.3333V11.7778Z" fill="#D9D9D9"/>
</mask>
<g mask="url(#mask0_1979_11017)">
<path d="M17.3126 16.8041C17.3126 15.9888 17.6334 15.2068 18.2044 14.6302C18.7753 14.0537 19.5497 13.7298 20.3572 13.7298C21.1646 13.7298 21.939 14.0537 22.51 14.6302C23.081 15.2068 23.4017 15.9888 23.4017 16.8041C23.4017 17.6195 23.081 18.4014 22.51 18.978C21.939 19.5545 21.1646 19.8784 20.3572 19.8784C19.5497 19.8784 18.7753 19.5545 18.2044 18.978C17.6334 18.4014 17.3126 17.6195 17.3126 16.8041ZM19.8498 36.2748V44.473C19.8498 45.6067 18.9427 46.5226 17.8201 46.5226C16.6974 46.5226 15.7904 45.6067 15.7904 44.473V30.1838L13.9763 33.2325C13.3991 34.1997 12.1496 34.5135 11.1918 33.9307C10.2341 33.3478 9.92327 32.0861 10.5005 31.1189L14.1983 24.9062C15.302 23.0552 17.2809 21.9216 19.4184 21.9216H21.3023C23.4398 21.9216 25.4187 23.0552 26.5224 24.9062L30.2202 31.1189C30.7974 32.0861 30.4866 33.3478 29.5289 33.9307C28.5711 34.5135 27.3216 34.1997 26.7444 33.2325L24.924 30.1838V44.473C24.924 45.6067 24.017 46.5226 22.8943 46.5226C21.7716 46.5226 20.8646 45.6067 20.8646 44.473V36.2748H19.8498Z" fill="#13EF93"/>
</g>
<g opacity="0.4">
<path d="M8 6.93451C5.79375 6.93451 4 8.74072 4 10.9623V27.0734H8V10.9623H32V27.0734H36V10.9623C36 8.74072 34.2062 6.93451 32 6.93451H8ZM1.2 29.0873C0.5375 29.0873 0 29.6285 0 30.2956C0 32.964 2.15 35.129 4.8 35.129H35.2C37.85 35.129 40 32.964 40 30.2956C40 29.6285 39.4625 29.0873 38.8 29.0873H1.2Z" fill="#13EF93"/>
</g>
</svg>
