<svg width="40" height="40" viewBox="0 0 40 40" fill="none" xmlns="http://www.w3.org/2000/svg">
<g clip-path="url(#clip0_1747_4779)">
<path d="M38.82 9.55C38.09 9.16 37.21 9.21 36.53 9.66L26.73 16.2V11.46C26.73 9 24.73 7 22.27 7H4.46C2 7 0 9 0 11.46V29.28C0 31.74 2 33.74 4.46 33.74H22.28C24.74 33.74 26.74 31.74 26.74 29.28V24.66L36.54 31.2C37.23 31.66 38.11 31.7 38.83 31.31C39.55 30.92 40.01 30.17 40.01 29.35V11.52C40.01 10.7 39.56 9.95 38.83 9.56L38.82 9.55ZM18.22 21.6L9.95 26.66C9.52 26.92 8.99 26.93 8.56 26.69C8.13 26.45 7.86 25.99 7.86 25.49V15.38C7.86 14.88 8.13 14.42 8.56 14.18C8.99 13.94 9.53 13.94 9.95 14.21L18.22 19.27C18.63 19.52 18.88 19.97 18.88 20.45C18.88 20.93 18.63 21.38 18.22 21.63V21.6Z" fill="white"/>
</g>
<defs>
<clipPath id="clip0_1747_4779">
<rect width="40" height="40" fill="white"/>
</clipPath>
</defs>
</svg>
