<svg width="40" height="40" viewBox="0 0 40 40" fill="none" xmlns="http://www.w3.org/2000/svg">
<g clip-path="url(#clip0_1825_6023)">
<path d="M15.88 3.71002C16.5 3.71002 17.01 4.22002 17.01 4.84002V8.24002H21.55C24.05 8.24002 26.09 10.27 26.09 12.78V21.85C26.09 24.35 24.06 26.39 21.55 26.39H10.21C7.71 26.39 5.67 24.36 5.67 21.85V12.78C5.67 10.28 7.7 8.24002 10.21 8.24002H14.75V4.84002C14.75 4.22002 15.26 3.71002 15.88 3.71002ZM1.13 13.92C1.13 13.3 1.64 12.79 2.26 12.79C2.88 12.79 3.39 13.3 3.39 13.92V20.72C3.39 21.34 2.88 21.85 2.26 21.85C1.64 21.85 1.13 21.34 1.13 20.72V13.92ZM29.48 12.79C30.1 12.79 30.61 13.3 30.61 13.92V20.72C30.61 21.34 30.1 21.85 29.48 21.85C28.86 21.85 28.35 21.34 28.35 20.72V13.92C28.35 13.3 28.86 12.79 29.48 12.79ZM11.33 17.33C12.58 17.33 13.6 16.31 13.6 15.06C13.6 13.81 12.58 12.79 11.33 12.79C10.08 12.79 9.06 13.81 9.06 15.06C9.06 16.31 10.08 17.33 11.33 17.33ZM22.67 15.06C22.67 13.81 21.65 12.79 20.4 12.79C19.15 12.79 18.13 13.81 18.13 15.06C18.13 16.31 19.15 17.33 20.4 17.33C21.65 17.33 22.67 16.31 22.67 15.06ZM11.33 20.73C10.7 20.73 10.2 21.24 10.2 21.86C10.2 22.48 10.71 22.99 11.33 22.99C11.95 22.99 12.46 22.48 12.46 21.86C12.46 21.24 11.95 20.73 11.33 20.73ZM14.73 21.86C14.73 22.49 15.24 22.99 15.86 22.99C16.48 22.99 16.99 22.48 16.99 21.86C16.99 21.24 16.48 20.73 15.86 20.73C15.24 20.73 14.73 21.24 14.73 21.86ZM20.4 20.73C19.77 20.73 19.27 21.24 19.27 21.86C19.27 22.48 19.78 22.99 20.4 22.99C21.02 22.99 21.53 22.48 21.53 21.86C21.53 21.24 21.02 20.73 20.4 20.73ZM6.79 28.67H24.94C28.7 28.67 31.74 31.72 31.74 35.47V37.74C31.74 38.99 30.73 40.01 29.47 40.01H24.93V35.47C24.93 34.22 23.92 33.2 22.66 33.2H9.05C7.8 33.2 6.78 34.21 6.78 35.47V40.01H2.27C1.02 40.01 0 39 0 37.74V35.47C0 31.71 3.05 28.67 6.8 28.67H6.79ZM12.46 36.61V40.01H10.19V36.61C10.19 35.99 10.7 35.48 11.32 35.48C11.94 35.48 12.45 35.99 12.45 36.61H12.46ZM15.86 35.48C16.48 35.48 16.99 35.99 16.99 36.61V40.01H14.72V36.61C14.72 35.99 15.23 35.48 15.85 35.48H15.86ZM21.53 36.61V40.01H19.26V36.61C19.26 35.99 19.77 35.48 20.39 35.48C21.01 35.48 21.52 35.99 21.52 36.61H21.53Z" fill="white"/>
<path d="M34.58 5.34998C36.53 7.27998 37.59 9.75998 37.76 12.3C37.8 12.92 38.34 13.38 38.95 13.34C39.56 13.3 40.03 12.76 39.99 12.15C39.78 9.08998 38.5 6.07998 36.15 3.75998C33.8 1.43998 30.79 0.179983 27.73 -1.66413e-05C27.11 -0.0300166 26.58 0.429983 26.55 1.04998C26.52 1.66998 26.98 2.19998 27.6 2.22998C30.14 2.36998 32.63 3.40998 34.58 5.33998V5.34998Z" fill="white"/>
<path d="M27.53 7.46999C28.76 7.58999 29.96 8.11999 30.91 9.05999C31.86 9.99999 32.4 11.19 32.53 12.42C32.6 13.03 33.15 13.48 33.76 13.41C34.37 13.34 34.82 12.79 34.75 12.18C34.56 10.45 33.8 8.77999 32.47 7.46999C31.14 6.15999 29.47 5.40999 27.74 5.23999C27.13 5.17999 26.57 5.62999 26.51 6.23999C26.45 6.84999 26.9 7.40999 27.51 7.46999H27.53Z" fill="white"/>
</g>
<defs>
<clipPath id="clip0_1825_6023">
<rect width="40" height="40" fill="white"/>
</clipPath>
</defs>
</svg>
