<svg width="40" height="40" viewBox="0 0 40 40" fill="none" xmlns="http://www.w3.org/2000/svg">
<g clip-path="url(#clip0_1825_6025)">
<g opacity="0.4">
<path d="M34.59 5.33998C36.53 7.25998 37.59 9.73998 37.76 12.27C37.8 12.88 38.33 13.35 38.95 13.31C39.57 13.27 40.03 12.74 39.99 12.12C39.78 9.06998 38.5 6.06998 36.16 3.74998C33.82 1.42998 30.81 0.179983 27.76 -1.66413e-05C27.14 -0.0300166 26.62 0.429983 26.58 1.04998C26.54 1.66998 27.01 2.18998 27.63 2.22998C30.16 2.36998 32.65 3.40998 34.59 5.32998V5.33998Z" fill="#13EF93"/>
<path d="M27.56 7.44998C28.79 7.56998 29.98 8.09998 30.93 9.03998C31.88 9.97998 32.42 11.17 32.55 12.39C32.62 13 33.17 13.45 33.78 13.38C34.39 13.31 34.84 12.76 34.77 12.15C34.58 10.43 33.82 8.75998 32.5 7.44998C31.18 6.13998 29.5 5.39998 27.78 5.22998C27.17 5.16998 26.62 5.61998 26.56 6.22998C26.5 6.83998 26.95 7.38998 27.56 7.44998Z" fill="#13EF93"/>
</g>
<path d="M5.67 12.77C5.67 10.27 7.7 8.23004 10.21 8.23004H21.55C24.05 8.23004 26.09 10.26 26.09 12.77V21.85C26.09 24.35 24.06 26.39 21.55 26.39H10.21C7.71 26.39 5.67 24.36 5.67 21.85V12.77ZM13.61 15.04C13.61 13.79 12.59 12.77 11.34 12.77C10.09 12.77 9.07 13.79 9.07 15.04C9.07 16.29 10.09 17.31 11.34 17.31C12.59 17.31 13.61 16.29 13.61 15.04ZM20.42 17.31C21.67 17.31 22.69 16.29 22.69 15.04C22.69 13.79 21.67 12.77 20.42 12.77C19.17 12.77 18.15 13.79 18.15 15.04C18.15 16.29 19.17 17.31 20.42 17.31ZM10.21 21.85C10.21 22.48 10.72 22.98 11.34 22.98C11.96 22.98 12.47 22.47 12.47 21.85C12.47 21.23 11.96 20.72 11.34 20.72C10.72 20.72 10.21 21.23 10.21 21.85ZM15.88 20.72C15.25 20.72 14.75 21.23 14.75 21.85C14.75 22.47 15.26 22.98 15.88 22.98C16.5 22.98 17.01 22.47 17.01 21.85C17.01 21.23 16.5 20.72 15.88 20.72ZM19.28 21.85C19.28 22.48 19.79 22.98 20.41 22.98C21.03 22.98 21.54 22.47 21.54 21.85C21.54 21.23 21.03 20.72 20.41 20.72C19.79 20.72 19.28 21.23 19.28 21.85ZM0 35.46C0 31.7 3.05 28.65 6.81 28.65H24.96C28.72 28.65 31.77 31.7 31.77 35.46V37.73C31.77 38.98 30.76 40 29.5 40H24.96V35.46C24.96 34.21 23.95 33.19 22.69 33.19H9.08C7.83 33.19 6.81 34.2 6.81 35.46V40H2.27C1.02 40 0 38.99 0 37.73V35.46Z" fill="#13EF93"/>
<path opacity="0.4" d="M17.02 4.83001C17.02 4.21001 16.51 3.70001 15.89 3.70001C15.27 3.70001 14.76 4.21001 14.76 4.83001V8.23001H17.03V4.83001H17.02ZM3.4 12.77C2.15 12.77 1.13 13.78 1.13 15.04V19.58C1.13 20.83 2.14 21.85 3.4 21.85H5.67V12.77H3.4ZM12.47 36.59C12.47 35.97 11.96 35.46 11.34 35.46C10.72 35.46 10.21 35.97 10.21 36.59V39.99H12.48V36.59H12.47ZM17.01 36.59C17.01 35.97 16.5 35.46 15.88 35.46C15.26 35.46 14.75 35.97 14.75 36.59V39.99H17.02V36.59H17.01ZM20.41 35.46C19.79 35.46 19.28 35.97 19.28 36.59V39.99H21.55V36.59C21.55 35.97 21.04 35.46 20.42 35.46H20.41ZM30.62 15.04C30.62 13.79 29.61 12.77 28.35 12.77H26.08V21.85H28.35C29.6 21.85 30.62 20.84 30.62 19.58V15.04Z" fill="#13EF93"/>
</g>
<defs>
<clipPath id="clip0_1825_6025">
<rect width="40" height="40" fill="white"/>
</clipPath>
</defs>
</svg>
