<svg width="40" height="40" viewBox="0 0 40 40" fill="none" xmlns="http://www.w3.org/2000/svg">
<path d="M30.942 11C27.622 11 24.572 12.83 23.012 15.76C21.452 18.69 21.622 22.25 23.462 25H16.482C18.772 21.57 18.432 17.01 15.672 13.95C12.902 10.9 8.39202 10.12 4.76202 12.06C1.13202 14 -0.737979 18.18 0.272021 22.19C1.27202 26.19 4.87202 28.95 8.99202 28.95H30.992C35.962 29.01 39.992 24.98 39.992 20.01C39.992 15.04 35.972 11 30.942 11ZM4.00202 20C4.00202 17.24 6.24202 15 9.00202 15C11.762 15 14.002 17.24 14.002 20C14.002 22.76 11.762 24.94 9.00202 24.94C6.24202 24.94 4.00202 22.75 4.00202 20ZM30.942 25C28.182 25 25.942 22.76 25.942 20.06C25.942 17.36 28.182 15.06 30.942 15.06C33.702 15.06 35.942 17.3 35.942 20.06C35.942 22.82 33.752 25 30.942 25Z" fill="#13EF93"/>
<path opacity="0.4" d="M9 17C7.34 17 6 18.34 6 20C6 21.66 7.34 23 9 23C10.66 23 12 21.66 12 20C12 18.34 10.66 17 9 17ZM31 17C29.34 17 28 18.34 28 20C28 21.66 29.34 23 31 23C32.66 23 34 21.66 34 20C34 18.34 32.66 17 31 17Z" fill="#13EF93"/>
</svg>
