<svg width="40" height="40" viewBox="0 0 40 40" fill="none" xmlns="http://www.w3.org/2000/svg">
<g clip-path="url(#clip0_1745_4764)">
<path d="M9 25C6.24 25 4 22.76 4 20C4 17.24 6.24 15 9 15C11.76 15 14 17.24 14 20C14 22.76 11.76 25 9 25ZM16.49 25C17.45 23.57 18 21.85 18 20C18 15.03 13.97 11 9 11C4.03 11 0 15.03 0 20C0 24.97 4.03 29 9 29H31C35.97 29 40 24.97 40 20C40 15.03 35.97 11 31 11C26.03 11 22 15.03 22 20C22 21.85 22.56 23.57 23.51 25H16.48H16.49ZM31 15C33.76 15 36 17.24 36 20C36 22.76 33.76 25 31 25C28.24 25 26 22.76 26 20C26 17.24 28.24 15 31 15Z" fill="white"/>
</g>
<defs>
<clipPath id="clip0_1745_4764">
<rect width="40" height="18" fill="white" transform="translate(0 11)"/>
</clipPath>
</defs>
</svg>
