<svg width="40" height="40" viewBox="0 0 40 40" fill="none" xmlns="http://www.w3.org/2000/svg">
<path d="M8.52 21.25C7.54 21.25 6.75 20.46 6.75 19.48C6.75 19.01 6.94 18.56 7.27 18.23L7.57 17.93C9.45 16.05 10.5 13.51 10.5 10.79V10C10.5 4.48 14.98 0 20.5 0C26.02 0 30.48 4.46 30.5 9.97V10.79C30.5 13.51 31.55 16.06 33.43 17.93L33.73 18.23C34.06 18.56 34.25 19.01 34.25 19.48C34.25 20.46 33.46 21.25 32.48 21.25H8.52ZM13 8.75V12.5C13 16.64 16.29 20 20.5 20C24.71 20 28 16.64 28 12.5V7.5H27.38C25.6 7.5 24.04 6.57 23.15 5.17C21.76 7.32 19.45 8.75 16.75 8.75H13ZM25.4 25C32.36 25 38 30.64 38 37.6C38 38.92 36.92 40 35.6 40H5.4C4.07 40 3 38.92 3 37.6C3 30.64 8.64 25 15.6 25H25.4Z" fill="#13EF93"/>
<path opacity="0.4" d="M27.38 7.50001H28V12.5C28 16.64 24.64 20 20.5 20C16.36 20 13 16.64 13 12.5V8.75001H16.75C19.45 8.75001 21.76 7.32001 23.15 5.17001C24.03 6.57001 25.6 7.50001 27.38 7.50001Z" fill="#13EF93"/>
</svg>
