<svg width="40" height="40" viewBox="0 0 40 40" fill="none" xmlns="http://www.w3.org/2000/svg">
<path d="M26.75 10C26.75 9.11 26.56 8.27 26.23 7.5H26.13C24.53 7.5 23.11 6.75 22.19 5.59C21.12 7.48 19.08 8.75 16.75 8.75H14.38C14.3 9.16 14.25 9.57 14.25 10V11.25C14.25 14.7 17.05 17.5 20.5 17.5C23.95 17.5 26.75 14.7 26.75 11.25V10ZM10.5 10C10.5 4.48 14.98 0 20.5 0C26.02 0 30.5 4.48 30.5 10V10.86C30.5 13.51 31.55 16.06 33.43 17.93L33.73 18.23C34.06 18.56 34.25 19.01 34.25 19.48C34.25 20.46 33.46 21.25 32.48 21.25H8.52C7.54 21.25 6.75 20.46 6.75 19.48C6.75 19.01 6.94 18.56 7.27 18.23L7.57 17.93C9.45 16.05 10.5 13.51 10.5 10.86V10ZM15.6 25H25.4C32.36 25 38 30.64 38 37.6C38 38.93 36.92 40 35.6 40H5.4C4.08 40 3 38.92 3 37.6C3 30.64 8.64 25 15.6 25Z" fill="white"/>
</svg>
