<svg width="1440" height="506" viewBox="0 0 1440 506" fill="none" xmlns="http://www.w3.org/2000/svg">
<g clip-path="url(#clip0_1622_48746)">
<rect width="1440" height="506" fill="black"/>
<g opacity="0.8">
<g opacity="0.8" filter="url(#filter0_f_1622_48746)">
<mask id="mask0_1622_48746" style="mask-type:alpha" maskUnits="userSpaceOnUse" x="-131" y="229" width="1701" height="292">
<rect x="-130.026" y="229.327" width="1699.39" height="290.746" fill="#D9D9D9"/>
</mask>
<g mask="url(#mask0_1622_48746)">
<g filter="url(#filter1_f_1622_48746)">
<ellipse cx="227.662" cy="249.692" rx="227.366" ry="106.232" fill="#B80042"/>
<ellipse cx="-176.774" cy="253.064" rx="227.366" ry="106.232" fill="#E61A32"/>
<ellipse cx="457.596" cy="251.715" rx="227.366" ry="106.232" fill="#CB37FF"/>
<ellipse cx="752.396" cy="251.715" rx="227.366" ry="106.232" fill="#7622FF"/>
<ellipse cx="1047.2" cy="251.715" rx="227.366" ry="106.232" fill="#4131FF"/>
<ellipse cx="1197.27" cy="248.344" rx="227.366" ry="106.232" fill="#53E0FF"/>
<ellipse cx="1341.99" cy="251.715" rx="227.366" ry="106.232" fill="#38EDAC"/>
<ellipse cx="1569.36" cy="251.715" rx="227.366" ry="106.232" fill="#04E896"/>
</g>
</g>
</g>
<g style="mix-blend-mode:overlay" filter="url(#filter2_f_1622_48746)">
<ellipse cx="455.283" cy="76.6508" rx="455.283" ry="76.6508" transform="matrix(1 -8.74228e-08 -8.74228e-08 -1 587.538 443.174)" fill="white"/>
</g>
<g style="mix-blend-mode:overlay" filter="url(#filter3_f_1622_48746)">
<ellipse cx="455.283" cy="173.215" rx="455.283" ry="173.215" transform="matrix(1 -1.97558e-07 -3.86861e-08 -1 -58.7705 430.738)" fill="white"/>
</g>
<g style="mix-blend-mode:overlay" filter="url(#filter4_f_1622_48746)">
<ellipse cx="455.283" cy="173.215" rx="455.283" ry="173.215" transform="matrix(1 -1.98698e-07 -3.84641e-08 -1 318.969 457.209)" fill="white" fill-opacity="0.5"/>
</g>
<rect width="2128.4" height="601.238" transform="matrix(1 -1.97558e-07 -3.86861e-08 -1 -344.198 381.099)" fill="url(#paint0_linear_1622_48746)"/>
</g>
<g style="mix-blend-mode:overlay">
<ellipse cx="1.31759" cy="1.31828" rx="1.31759" ry="1.31828" transform="matrix(0.96009 0.279691 0.279585 -0.960121 1060.68 422.309)" fill="white"/>
<ellipse cx="1.31759" cy="1.31828" rx="1.31759" ry="1.31828" transform="matrix(0.96009 0.279691 0.279585 -0.960121 974.291 399.887)" fill="white"/>
<ellipse cx="1.31823" cy="1.31759" rx="1.31823" ry="1.31759" transform="matrix(0.518411 -0.855099 -0.854931 -0.518794 1131.65 435.31)" fill="white"/>
<ellipse cx="1.31823" cy="1.31759" rx="1.31823" ry="1.31759" transform="matrix(0.518411 -0.855099 -0.854931 -0.518794 1103.77 363.316)" fill="white"/>
<ellipse cx="1.31823" cy="1.31759" rx="1.31823" ry="1.31759" transform="matrix(0.518411 -0.855099 -0.854931 -0.518794 1031.27 242.05)" fill="white"/>
<ellipse cx="1.31823" cy="1.31759" rx="1.31823" ry="1.31759" transform="matrix(0.518411 -0.855099 -0.854931 -0.518794 1158.44 292.106)" fill="white"/>
<ellipse cx="1.31823" cy="1.31759" rx="1.31823" ry="1.31759" transform="matrix(0.518411 -0.855099 -0.854931 -0.518794 1148.72 200.717)" fill="white"/>
<ellipse cx="1.31823" cy="1.31759" rx="1.31823" ry="1.31759" transform="matrix(0.518411 -0.855099 -0.854931 -0.518794 987.247 319.752)" fill="white"/>
<circle cx="1.31828" cy="1.31828" r="1.31828" transform="matrix(-0.501213 -0.865388 -0.864971 0.501713 1429.08 439.214)" fill="white"/>
<ellipse cx="1.31828" cy="1.31828" rx="1.31828" ry="1.31828" transform="matrix(-0.501213 -0.865388 -0.864971 0.501713 1352.57 429.171)" fill="white"/>
<ellipse cx="1.31828" cy="1.31828" rx="1.31828" ry="1.31828" transform="matrix(-0.501213 -0.865388 -0.864971 0.501713 1211.44 434.678)" fill="white"/>
<ellipse cx="1.31828" cy="1.31828" rx="1.31828" ry="1.31828" transform="matrix(-0.501213 -0.865388 -0.864971 0.501713 1316.36 347.029)" fill="white"/>
<ellipse cx="1.31828" cy="1.31828" rx="1.31828" ry="1.31828" transform="matrix(-0.501213 -0.865388 -0.864971 0.501713 1231.56 311.741)" fill="white"/>
</g>
<g style="mix-blend-mode:overlay">
<ellipse cx="1.31759" cy="1.31828" rx="1.31759" ry="1.31828" transform="matrix(0.96009 0.279691 0.279585 -0.960121 1060.68 422.309)" fill="white"/>
<ellipse cx="1.31759" cy="1.31828" rx="1.31759" ry="1.31828" transform="matrix(0.96009 0.279691 0.279585 -0.960121 974.291 399.887)" fill="white"/>
<ellipse cx="1.31823" cy="1.31759" rx="1.31823" ry="1.31759" transform="matrix(0.518411 -0.855099 -0.854931 -0.518794 1131.65 435.31)" fill="white"/>
<ellipse cx="1.31823" cy="1.31759" rx="1.31823" ry="1.31759" transform="matrix(0.518411 -0.855099 -0.854931 -0.518794 1103.77 363.316)" fill="white"/>
<ellipse cx="1.31823" cy="1.31759" rx="1.31823" ry="1.31759" transform="matrix(0.518411 -0.855099 -0.854931 -0.518794 1031.27 242.05)" fill="white"/>
<ellipse cx="1.31823" cy="1.31759" rx="1.31823" ry="1.31759" transform="matrix(0.518411 -0.855099 -0.854931 -0.518794 1158.44 292.106)" fill="white"/>
<ellipse cx="1.31823" cy="1.31759" rx="1.31823" ry="1.31759" transform="matrix(0.518411 -0.855099 -0.854931 -0.518794 1148.72 200.717)" fill="white"/>
<ellipse cx="1.31823" cy="1.31759" rx="1.31823" ry="1.31759" transform="matrix(0.518411 -0.855099 -0.854931 -0.518794 987.247 319.752)" fill="white"/>
<circle cx="1.31828" cy="1.31828" r="1.31828" transform="matrix(-0.501213 -0.865388 -0.864971 0.501713 1429.08 439.214)" fill="white"/>
<ellipse cx="1.31828" cy="1.31828" rx="1.31828" ry="1.31828" transform="matrix(-0.501213 -0.865388 -0.864971 0.501713 1352.57 429.171)" fill="white"/>
<ellipse cx="1.31828" cy="1.31828" rx="1.31828" ry="1.31828" transform="matrix(-0.501213 -0.865388 -0.864971 0.501713 1211.44 434.678)" fill="white"/>
<ellipse cx="1.31828" cy="1.31828" rx="1.31828" ry="1.31828" transform="matrix(-0.501213 -0.865388 -0.864971 0.501713 1316.36 347.029)" fill="white"/>
<ellipse cx="1.31828" cy="1.31828" rx="1.31828" ry="1.31828" transform="matrix(-0.501213 -0.865388 -0.864971 0.501713 1231.56 311.741)" fill="white"/>
</g>
<g opacity="0.5">
<g style="mix-blend-mode:overlay">
<ellipse cx="1.31759" cy="1.31828" rx="1.31759" ry="1.31828" transform="matrix(0.192072 -0.981381 -0.981402 -0.191964 763.514 492.626)" fill="white"/>
<ellipse cx="1.31759" cy="1.31828" rx="1.31759" ry="1.31828" transform="matrix(0.192072 -0.981381 -0.981402 -0.191964 900.227 495.764)" fill="white"/>
<ellipse cx="1.31759" cy="1.31828" rx="1.31759" ry="1.31828" transform="matrix(0.192072 -0.981381 -0.981402 -0.191964 859.576 413.38)" fill="white"/>
<ellipse cx="1.31823" cy="1.31759" rx="1.31823" ry="1.31759" transform="matrix(-0.89832 -0.439279 -0.439676 0.898187 770.07 420.782)" fill="white"/>
<ellipse cx="1.31823" cy="1.31759" rx="1.31823" ry="1.31759" transform="matrix(-0.89832 -0.439279 -0.439676 0.898187 700.879 455.031)" fill="white"/>
<ellipse cx="1.31823" cy="1.31759" rx="1.31823" ry="1.31759" transform="matrix(-0.89832 -0.439279 -0.439676 0.898187 625.034 406.996)" fill="white"/>
<ellipse cx="1.31823" cy="1.31759" rx="1.31823" ry="1.31759" transform="matrix(-0.89832 -0.439279 -0.439676 0.898187 534.892 424.904)" fill="white"/>
<circle cx="1.31828" cy="1.31828" r="1.31828" transform="matrix(-0.816722 0.577126 0.577587 0.816262 747.166 124.203)" fill="white"/>
<ellipse cx="1.31828" cy="1.31828" rx="1.31828" ry="1.31828" transform="matrix(-0.816722 0.577126 0.577587 0.816262 744.055 201.308)" fill="white"/>
<ellipse cx="1.31828" cy="1.31828" rx="1.31828" ry="1.31828" transform="matrix(-0.816722 0.577126 0.577587 0.816262 762.252 341.37)" fill="white"/>
<ellipse cx="1.31828" cy="1.31828" rx="1.31828" ry="1.31828" transform="matrix(-0.816722 0.577126 0.577587 0.816262 665.509 244.768)" fill="white"/>
<ellipse cx="1.31828" cy="1.31828" rx="1.31828" ry="1.31828" transform="matrix(-0.816722 0.577126 0.577587 0.816262 638.003 332.405)" fill="white"/>
<ellipse cx="1.31828" cy="1.31828" rx="1.31828" ry="1.31828" transform="matrix(-0.816722 0.577126 0.577587 0.816262 833.617 287.713)" fill="white"/>
</g>
<g style="mix-blend-mode:overlay">
<ellipse cx="1.31759" cy="1.31828" rx="1.31759" ry="1.31828" transform="matrix(0.192072 -0.981381 -0.981402 -0.191964 763.514 492.626)" fill="white"/>
<ellipse cx="1.31759" cy="1.31828" rx="1.31759" ry="1.31828" transform="matrix(0.192072 -0.981381 -0.981402 -0.191964 900.227 495.764)" fill="white"/>
<ellipse cx="1.31759" cy="1.31828" rx="1.31759" ry="1.31828" transform="matrix(0.192072 -0.981381 -0.981402 -0.191964 859.576 413.38)" fill="white"/>
<ellipse cx="1.31823" cy="1.31759" rx="1.31823" ry="1.31759" transform="matrix(-0.89832 -0.439279 -0.439676 0.898187 770.07 420.782)" fill="white"/>
<ellipse cx="1.31823" cy="1.31759" rx="1.31823" ry="1.31759" transform="matrix(-0.89832 -0.439279 -0.439676 0.898187 700.879 455.031)" fill="white"/>
<ellipse cx="1.31823" cy="1.31759" rx="1.31823" ry="1.31759" transform="matrix(-0.89832 -0.439279 -0.439676 0.898187 625.034 406.996)" fill="white"/>
<ellipse cx="1.31823" cy="1.31759" rx="1.31823" ry="1.31759" transform="matrix(-0.89832 -0.439279 -0.439676 0.898187 534.892 424.904)" fill="white"/>
<circle cx="1.31828" cy="1.31828" r="1.31828" transform="matrix(-0.816722 0.577126 0.577587 0.816262 747.166 124.203)" fill="white"/>
<ellipse cx="1.31828" cy="1.31828" rx="1.31828" ry="1.31828" transform="matrix(-0.816722 0.577126 0.577587 0.816262 744.055 201.308)" fill="white"/>
<ellipse cx="1.31828" cy="1.31828" rx="1.31828" ry="1.31828" transform="matrix(-0.816722 0.577126 0.577587 0.816262 762.252 341.37)" fill="white"/>
<ellipse cx="1.31828" cy="1.31828" rx="1.31828" ry="1.31828" transform="matrix(-0.816722 0.577126 0.577587 0.816262 665.509 244.768)" fill="white"/>
<ellipse cx="1.31828" cy="1.31828" rx="1.31828" ry="1.31828" transform="matrix(-0.816722 0.577126 0.577587 0.816262 638.003 332.405)" fill="white"/>
<ellipse cx="1.31828" cy="1.31828" rx="1.31828" ry="1.31828" transform="matrix(-0.816722 0.577126 0.577587 0.816262 833.617 287.713)" fill="white"/>
</g>
</g>
<g style="mix-blend-mode:overlay">
<circle cx="1.31828" cy="1.31828" r="1.31828" transform="matrix(0.299691 -0.954036 -0.953842 -0.300308 303.904 452.975)" fill="white"/>
<circle cx="1.31828" cy="1.31828" r="1.31828" transform="matrix(0.299691 -0.954036 -0.953842 -0.300308 439.357 471.327)" fill="white"/>
<circle cx="1.31828" cy="1.31828" r="1.31828" transform="matrix(0.299691 -0.954036 -0.953842 -0.300308 408.127 384.887)" fill="white"/>
<circle cx="1.31828" cy="1.31828" r="1.31828" transform="matrix(-0.843775 -0.536998 -0.536352 0.843803 318.396 382.274)" fill="white"/>
<circle cx="1.31828" cy="1.31828" r="1.31828" transform="matrix(-0.843775 -0.536998 -0.536352 0.843803 245.863 408.616)" fill="white"/>
<circle cx="1.31828" cy="1.31828" r="1.31828" transform="matrix(-0.843775 -0.536998 -0.536352 0.843803 123.15 478.533)" fill="white"/>
<circle cx="1.31828" cy="1.31828" r="1.31828" transform="matrix(-0.843775 -0.536998 -0.536352 0.843803 175.859 352.406)" fill="white"/>
<circle cx="1.31828" cy="1.31828" r="1.31828" transform="matrix(-0.843775 -0.536998 -0.536352 0.843803 84.3281 360.167)" fill="white"/>
<circle cx="1.31828" cy="1.31828" r="1.31828" transform="matrix(-0.875361 0.4828 0.483086 0.875942 328.584 84.8474)" fill="white"/>
<circle cx="1.31828" cy="1.31828" r="1.31828" transform="matrix(-0.875361 0.4828 0.483086 0.875942 316.93 161.163)" fill="white"/>
<circle cx="1.31828" cy="1.31828" r="1.31828" transform="matrix(-0.875361 0.4828 0.483086 0.875942 319.45 302.447)" fill="white"/>
<circle cx="1.31828" cy="1.31828" r="1.31828" transform="matrix(-0.875361 0.4828 0.483086 0.875942 234.081 195.621)" fill="white"/>
<circle cx="1.31828" cy="1.31828" r="1.31828" transform="matrix(-0.875361 0.4828 0.483086 0.875942 197.025 279.69)" fill="white"/>
<circle cx="1.31828" cy="1.31828" r="1.31828" transform="matrix(-0.875361 0.4828 0.483086 0.875942 396.299 257.05)" fill="white"/>
</g>
<g style="mix-blend-mode:overlay">
<circle cx="1.31828" cy="1.31828" r="1.31828" transform="matrix(0.299691 -0.954036 -0.953842 -0.300308 303.904 452.975)" fill="white"/>
<circle cx="1.31828" cy="1.31828" r="1.31828" transform="matrix(0.299691 -0.954036 -0.953842 -0.300308 439.357 471.327)" fill="white"/>
<circle cx="1.31828" cy="1.31828" r="1.31828" transform="matrix(0.299691 -0.954036 -0.953842 -0.300308 408.127 384.887)" fill="white"/>
<circle cx="1.31828" cy="1.31828" r="1.31828" transform="matrix(-0.843775 -0.536998 -0.536352 0.843803 318.396 382.274)" fill="white"/>
<circle cx="1.31828" cy="1.31828" r="1.31828" transform="matrix(-0.843775 -0.536998 -0.536352 0.843803 245.863 408.616)" fill="white"/>
<circle cx="1.31828" cy="1.31828" r="1.31828" transform="matrix(-0.843775 -0.536998 -0.536352 0.843803 123.15 478.533)" fill="white"/>
<circle cx="1.31828" cy="1.31828" r="1.31828" transform="matrix(-0.843775 -0.536998 -0.536352 0.843803 175.859 352.406)" fill="white"/>
<circle cx="1.31828" cy="1.31828" r="1.31828" transform="matrix(-0.843775 -0.536998 -0.536352 0.843803 84.3281 360.167)" fill="white"/>
<circle cx="1.31828" cy="1.31828" r="1.31828" transform="matrix(-0.875361 0.4828 0.483086 0.875942 328.584 84.8474)" fill="white"/>
<circle cx="1.31828" cy="1.31828" r="1.31828" transform="matrix(-0.875361 0.4828 0.483086 0.875942 316.93 161.163)" fill="white"/>
<circle cx="1.31828" cy="1.31828" r="1.31828" transform="matrix(-0.875361 0.4828 0.483086 0.875942 319.45 302.447)" fill="white"/>
<circle cx="1.31828" cy="1.31828" r="1.31828" transform="matrix(-0.875361 0.4828 0.483086 0.875942 234.081 195.621)" fill="white"/>
<circle cx="1.31828" cy="1.31828" r="1.31828" transform="matrix(-0.875361 0.4828 0.483086 0.875942 197.025 279.69)" fill="white"/>
<circle cx="1.31828" cy="1.31828" r="1.31828" transform="matrix(-0.875361 0.4828 0.483086 0.875942 396.299 257.05)" fill="white"/>
</g>
<g style="mix-blend-mode:overlay">
<circle cx="1.31828" cy="1.31828" r="1.31828" transform="matrix(0.573626 -0.819117 -0.818746 -0.574156 789.272 463.678)" fill="white"/>
<circle cx="1.31828" cy="1.31828" r="1.31828" transform="matrix(0.573626 -0.819117 -0.818746 -0.574156 724.903 337.872)" fill="white"/>
<circle cx="1.31828" cy="1.31828" r="1.31828" transform="matrix(0.573626 -0.819117 -0.818746 -0.574156 848.503 396.246)" fill="white"/>
<circle cx="1.31828" cy="1.31828" r="1.31828" transform="matrix(0.573626 -0.819117 -0.818746 -0.574156 844.814 304.411)" fill="white"/>
<circle cx="1.31828" cy="1.31828" r="1.31828" transform="matrix(0.573626 -0.819117 -0.818746 -0.574156 675.868 412.488)" fill="white"/>
<circle cx="1.31828" cy="1.31828" r="1.31828" transform="matrix(-0.642382 -0.766595 -0.765988 0.642604 760.055 274.841)" fill="white"/>
<circle cx="1.31828" cy="1.31828" r="1.31828" transform="matrix(-0.642382 -0.766595 -0.765988 0.642604 682.955 278.066)" fill="white"/>
<circle cx="1.31828" cy="1.31828" r="1.31828" transform="matrix(-0.642382 -0.766595 -0.765988 0.642604 544.863 307.691)" fill="white"/>
<circle cx="1.31828" cy="1.31828" r="1.31828" transform="matrix(-0.642382 -0.766595 -0.765988 0.642604 633.177 203.351)" fill="white"/>
<circle cx="1.31828" cy="1.31828" r="1.31828" transform="matrix(-0.642382 -0.766595 -0.765988 0.642604 543.572 183.128)" fill="white"/>
<circle cx="1.31828" cy="1.31828" r="1.31828" transform="matrix(-0.642382 -0.766595 -0.765988 0.642604 604.211 374.413)" fill="white"/>
<circle cx="1.31828" cy="1.31828" r="1.31828" transform="matrix(-0.980249 0.196126 0.196223 0.980889 825.385 63.5961)" fill="white"/>
<circle cx="1.31828" cy="1.31828" r="1.31828" transform="matrix(-0.980249 0.196126 0.196223 0.980889 785.15 199.054)" fill="white"/>
<circle cx="1.31828" cy="1.31828" r="1.31828" transform="matrix(-0.980249 0.196126 0.196223 0.980889 735.999 71.4456)" fill="white"/>
<circle cx="1.31828" cy="1.31828" r="1.31828" transform="matrix(-0.980249 0.196126 0.196223 0.980889 675.301 140.412)" fill="white"/>
<circle cx="1.31828" cy="1.31828" r="1.31828" transform="matrix(-0.980249 0.196126 0.196223 0.980889 872.116 178.965)" fill="white"/>
</g>
<g style="mix-blend-mode:overlay">
<circle cx="1.31828" cy="1.31828" r="1.31828" transform="matrix(0.573626 -0.819117 -0.818746 -0.574156 789.272 463.678)" fill="white"/>
<circle cx="1.31828" cy="1.31828" r="1.31828" transform="matrix(0.573626 -0.819117 -0.818746 -0.574156 724.903 337.872)" fill="white"/>
<circle cx="1.31828" cy="1.31828" r="1.31828" transform="matrix(0.573626 -0.819117 -0.818746 -0.574156 848.503 396.246)" fill="white"/>
<circle cx="1.31828" cy="1.31828" r="1.31828" transform="matrix(0.573626 -0.819117 -0.818746 -0.574156 844.814 304.411)" fill="white"/>
<circle cx="1.31828" cy="1.31828" r="1.31828" transform="matrix(0.573626 -0.819117 -0.818746 -0.574156 675.868 412.488)" fill="white"/>
<circle cx="1.31828" cy="1.31828" r="1.31828" transform="matrix(-0.642382 -0.766595 -0.765988 0.642604 760.055 274.841)" fill="white"/>
<circle cx="1.31828" cy="1.31828" r="1.31828" transform="matrix(-0.642382 -0.766595 -0.765988 0.642604 682.955 278.066)" fill="white"/>
<circle cx="1.31828" cy="1.31828" r="1.31828" transform="matrix(-0.642382 -0.766595 -0.765988 0.642604 544.863 307.691)" fill="white"/>
<circle cx="1.31828" cy="1.31828" r="1.31828" transform="matrix(-0.642382 -0.766595 -0.765988 0.642604 633.177 203.351)" fill="white"/>
<circle cx="1.31828" cy="1.31828" r="1.31828" transform="matrix(-0.642382 -0.766595 -0.765988 0.642604 543.572 183.128)" fill="white"/>
<circle cx="1.31828" cy="1.31828" r="1.31828" transform="matrix(-0.642382 -0.766595 -0.765988 0.642604 604.211 374.413)" fill="white"/>
<circle cx="1.31828" cy="1.31828" r="1.31828" transform="matrix(-0.980249 0.196126 0.196223 0.980889 825.385 63.5961)" fill="white"/>
<circle cx="1.31828" cy="1.31828" r="1.31828" transform="matrix(-0.980249 0.196126 0.196223 0.980889 785.15 199.054)" fill="white"/>
<circle cx="1.31828" cy="1.31828" r="1.31828" transform="matrix(-0.980249 0.196126 0.196223 0.980889 735.999 71.4456)" fill="white"/>
<circle cx="1.31828" cy="1.31828" r="1.31828" transform="matrix(-0.980249 0.196126 0.196223 0.980889 675.301 140.412)" fill="white"/>
<circle cx="1.31828" cy="1.31828" r="1.31828" transform="matrix(-0.980249 0.196126 0.196223 0.980889 872.116 178.965)" fill="white"/>
</g>
<rect y="190.409" width="1440" height="472.23" fill="url(#paint1_linear_1622_48746)"/>
<path d="M263.625 445.539V445.914H264H419.318V515.601V515.976H419.693H501.691H502.067V515.601V445.914H555.665H556.04V445.539V377.034V376.659H555.665H502.067V178.785V178.409H501.691H404.124H403.938L403.825 178.557L263.702 362.275L263.625 362.376V362.502V445.539ZM601.748 466.505L601.749 466.507C624.133 499.822 661.614 524.279 716.236 524.279C771.375 524.279 808.857 499.823 831.241 466.507L831.242 466.505C854.655 431.125 860.886 389.001 860.886 347.452C860.886 305.903 854.655 263.779 831.242 228.399C808.856 194.56 771.372 170.625 716.236 170.625C661.617 170.625 624.133 194.561 601.748 228.399C578.335 263.779 572.104 305.903 572.104 347.452C572.104 389.001 578.335 431.125 601.748 466.505ZM884.491 445.539V445.914H884.867H1040.18V515.601V515.976H1040.56H1122.56H1122.93V515.601V445.914H1176.53H1176.91V445.539V377.034V376.659H1176.53H1122.93V178.785V178.409H1122.56H1024.99H1024.8L1024.69 178.557L884.568 362.275L884.491 362.376V362.502V445.539ZM419.318 376.659H335.857L419.318 267.085V376.659ZM654.853 347.452C654.853 320.483 657.966 294.084 667.27 274.44C671.92 265.142 677.979 257.415 685.956 252.012C693.931 246.609 703.846 243.513 716.236 243.513C728.886 243.513 738.8 246.61 746.708 252.011C754.62 257.414 760.551 265.141 765.203 274.444C775.023 294.085 778.138 320.481 778.138 347.452C778.138 374.423 775.023 400.819 765.203 420.46C760.551 429.763 754.62 437.49 746.708 442.893C738.8 448.294 728.886 451.391 716.236 451.391C703.846 451.391 693.931 448.295 685.956 442.893C677.979 437.489 671.92 429.762 667.27 420.464C657.966 400.82 654.853 374.421 654.853 347.452ZM1040.18 376.659H956.724L1040.18 267.085V376.659Z" fill="black"/>
<path d="M263.625 445.539V445.914H264H419.318V515.601V515.976H419.693H501.691H502.067V515.601V445.914H555.665H556.04V445.539V377.034V376.659H555.665H502.067V178.785V178.409H501.691H404.124H403.938L403.825 178.557L263.702 362.275L263.625 362.376V362.502V445.539ZM601.748 466.505L601.749 466.507C624.133 499.822 661.614 524.279 716.236 524.279C771.375 524.279 808.857 499.823 831.241 466.507L831.242 466.505C854.655 431.125 860.886 389.001 860.886 347.452C860.886 305.903 854.655 263.779 831.242 228.399C808.856 194.56 771.372 170.625 716.236 170.625C661.617 170.625 624.133 194.561 601.748 228.399C578.335 263.779 572.104 305.903 572.104 347.452C572.104 389.001 578.335 431.125 601.748 466.505ZM884.491 445.539V445.914H884.867H1040.18V515.601V515.976H1040.56H1122.56H1122.93V515.601V445.914H1176.53H1176.91V445.539V377.034V376.659H1176.53H1122.93V178.785V178.409H1122.56H1024.99H1024.8L1024.69 178.557L884.568 362.275L884.491 362.376V362.502V445.539ZM419.318 376.659H335.857L419.318 267.085V376.659ZM654.853 347.452C654.853 320.483 657.966 294.084 667.27 274.44C671.92 265.142 677.979 257.415 685.956 252.012C693.931 246.609 703.846 243.513 716.236 243.513C728.886 243.513 738.8 246.61 746.708 252.011C754.62 257.414 760.551 265.141 765.203 274.444C775.023 294.085 778.138 320.481 778.138 347.452C778.138 374.423 775.023 400.819 765.203 420.46C760.551 429.763 754.62 437.49 746.708 442.893C738.8 448.294 728.886 451.391 716.236 451.391C703.846 451.391 693.931 448.295 685.956 442.893C677.979 437.489 671.92 429.762 667.27 420.464C657.966 400.82 654.853 374.421 654.853 347.452ZM1040.18 376.659H956.724L1040.18 267.085V376.659Z" fill="url(#paint2_radial_1622_48746)" fill-opacity="0.1"/>
<path d="M263.625 445.539V445.914H264H419.318V515.601V515.976H419.693H501.691H502.067V515.601V445.914H555.665H556.04V445.539V377.034V376.659H555.665H502.067V178.785V178.409H501.691H404.124H403.938L403.825 178.557L263.702 362.275L263.625 362.376V362.502V445.539ZM601.748 466.505L601.749 466.507C624.133 499.822 661.614 524.279 716.236 524.279C771.375 524.279 808.857 499.823 831.241 466.507L831.242 466.505C854.655 431.125 860.886 389.001 860.886 347.452C860.886 305.903 854.655 263.779 831.242 228.399C808.856 194.56 771.372 170.625 716.236 170.625C661.617 170.625 624.133 194.561 601.748 228.399C578.335 263.779 572.104 305.903 572.104 347.452C572.104 389.001 578.335 431.125 601.748 466.505ZM884.491 445.539V445.914H884.867H1040.18V515.601V515.976H1040.56H1122.56H1122.93V515.601V445.914H1176.53H1176.91V445.539V377.034V376.659H1176.53H1122.93V178.785V178.409H1122.56H1024.99H1024.8L1024.69 178.557L884.568 362.275L884.491 362.376V362.502V445.539ZM419.318 376.659H335.857L419.318 267.085V376.659ZM654.853 347.452C654.853 320.483 657.966 294.084 667.27 274.44C671.92 265.142 677.979 257.415 685.956 252.012C693.931 246.609 703.846 243.513 716.236 243.513C728.886 243.513 738.8 246.61 746.708 252.011C754.62 257.414 760.551 265.141 765.203 274.444C775.023 294.085 778.138 320.481 778.138 347.452C778.138 374.423 775.023 400.819 765.203 420.46C760.551 429.763 754.62 437.49 746.708 442.893C738.8 448.294 728.886 451.391 716.236 451.391C703.846 451.391 693.931 448.295 685.956 442.893C677.979 437.489 671.92 429.762 667.27 420.464C657.966 400.82 654.853 374.421 654.853 347.452ZM1040.18 376.659H956.724L1040.18 267.085V376.659Z" fill="url(#paint3_radial_1622_48746)" fill-opacity="0.1"/>
<path d="M263.625 445.539V445.914H264H419.318V515.601V515.976H419.693H501.691H502.067V515.601V445.914H555.665H556.04V445.539V377.034V376.659H555.665H502.067V178.785V178.409H501.691H404.124H403.938L403.825 178.557L263.702 362.275L263.625 362.376V362.502V445.539ZM601.748 466.505L601.749 466.507C624.133 499.822 661.614 524.279 716.236 524.279C771.375 524.279 808.857 499.823 831.241 466.507L831.242 466.505C854.655 431.125 860.886 389.001 860.886 347.452C860.886 305.903 854.655 263.779 831.242 228.399C808.856 194.56 771.372 170.625 716.236 170.625C661.617 170.625 624.133 194.561 601.748 228.399C578.335 263.779 572.104 305.903 572.104 347.452C572.104 389.001 578.335 431.125 601.748 466.505ZM884.491 445.539V445.914H884.867H1040.18V515.601V515.976H1040.56H1122.56H1122.93V515.601V445.914H1176.53H1176.91V445.539V377.034V376.659H1176.53H1122.93V178.785V178.409H1122.56H1024.99H1024.8L1024.69 178.557L884.568 362.275L884.491 362.376V362.502V445.539ZM419.318 376.659H335.857L419.318 267.085V376.659ZM654.853 347.452C654.853 320.483 657.966 294.084 667.27 274.44C671.92 265.142 677.979 257.415 685.956 252.012C693.931 246.609 703.846 243.513 716.236 243.513C728.886 243.513 738.8 246.61 746.708 252.011C754.62 257.414 760.551 265.141 765.203 274.444C775.023 294.085 778.138 320.481 778.138 347.452C778.138 374.423 775.023 400.819 765.203 420.46C760.551 429.763 754.62 437.49 746.708 442.893C738.8 448.294 728.886 451.391 716.236 451.391C703.846 451.391 693.931 448.295 685.956 442.893C677.979 437.489 671.92 429.762 667.27 420.464C657.966 400.82 654.853 374.421 654.853 347.452ZM1040.18 376.659H956.724L1040.18 267.085V376.659Z" fill="url(#paint4_radial_1622_48746)" fill-opacity="0.1"/>
<path d="M263.625 445.539V445.914H264H419.318V515.601V515.976H419.693H501.691H502.067V515.601V445.914H555.665H556.04V445.539V377.034V376.659H555.665H502.067V178.785V178.409H501.691H404.124H403.938L403.825 178.557L263.702 362.275L263.625 362.376V362.502V445.539ZM601.748 466.505L601.749 466.507C624.133 499.822 661.614 524.279 716.236 524.279C771.375 524.279 808.857 499.823 831.241 466.507L831.242 466.505C854.655 431.125 860.886 389.001 860.886 347.452C860.886 305.903 854.655 263.779 831.242 228.399C808.856 194.56 771.372 170.625 716.236 170.625C661.617 170.625 624.133 194.561 601.748 228.399C578.335 263.779 572.104 305.903 572.104 347.452C572.104 389.001 578.335 431.125 601.748 466.505ZM884.491 445.539V445.914H884.867H1040.18V515.601V515.976H1040.56H1122.56H1122.93V515.601V445.914H1176.53H1176.91V445.539V377.034V376.659H1176.53H1122.93V178.785V178.409H1122.56H1024.99H1024.8L1024.69 178.557L884.568 362.275L884.491 362.376V362.502V445.539ZM419.318 376.659H335.857L419.318 267.085V376.659ZM654.853 347.452C654.853 320.483 657.966 294.084 667.27 274.44C671.92 265.142 677.979 257.415 685.956 252.012C693.931 246.609 703.846 243.513 716.236 243.513C728.886 243.513 738.8 246.61 746.708 252.011C754.62 257.414 760.551 265.141 765.203 274.444C775.023 294.085 778.138 320.481 778.138 347.452C778.138 374.423 775.023 400.819 765.203 420.46C760.551 429.763 754.62 437.49 746.708 442.893C738.8 448.294 728.886 451.391 716.236 451.391C703.846 451.391 693.931 448.295 685.956 442.893C677.979 437.489 671.92 429.762 667.27 420.464C657.966 400.82 654.853 374.421 654.853 347.452ZM1040.18 376.659H956.724L1040.18 267.085V376.659Z" stroke="url(#paint5_linear_1622_48746)" stroke-width="0.750437" style="mix-blend-mode:overlay"/>
<path d="M263.625 445.539V445.914H264H419.318V515.601V515.976H419.693H501.691H502.067V515.601V445.914H555.665H556.04V445.539V377.034V376.659H555.665H502.067V178.785V178.409H501.691H404.124H403.938L403.825 178.557L263.702 362.275L263.625 362.376V362.502V445.539ZM601.748 466.505L601.749 466.507C624.133 499.822 661.614 524.279 716.236 524.279C771.375 524.279 808.857 499.823 831.241 466.507L831.242 466.505C854.655 431.125 860.886 389.001 860.886 347.452C860.886 305.903 854.655 263.779 831.242 228.399C808.856 194.56 771.372 170.625 716.236 170.625C661.617 170.625 624.133 194.561 601.748 228.399C578.335 263.779 572.104 305.903 572.104 347.452C572.104 389.001 578.335 431.125 601.748 466.505ZM884.491 445.539V445.914H884.867H1040.18V515.601V515.976H1040.56H1122.56H1122.93V515.601V445.914H1176.53H1176.91V445.539V377.034V376.659H1176.53H1122.93V178.785V178.409H1122.56H1024.99H1024.8L1024.69 178.557L884.568 362.275L884.491 362.376V362.502V445.539ZM419.318 376.659H335.857L419.318 267.085V376.659ZM654.853 347.452C654.853 320.483 657.966 294.084 667.27 274.44C671.92 265.142 677.979 257.415 685.956 252.012C693.931 246.609 703.846 243.513 716.236 243.513C728.886 243.513 738.8 246.61 746.708 252.011C754.62 257.414 760.551 265.141 765.203 274.444C775.023 294.085 778.138 320.481 778.138 347.452C778.138 374.423 775.023 400.819 765.203 420.46C760.551 429.763 754.62 437.49 746.708 442.893C738.8 448.294 728.886 451.391 716.236 451.391C703.846 451.391 693.931 448.295 685.956 442.893C677.979 437.489 671.92 429.762 667.27 420.464C657.966 400.82 654.853 374.421 654.853 347.452ZM1040.18 376.659H956.724L1040.18 267.085V376.659Z" stroke="url(#paint6_radial_1622_48746)" stroke-width="0.750437"/>
<path d="M263.625 445.539V445.914H264H419.318V515.601V515.976H419.693H501.691H502.067V515.601V445.914H555.665H556.04V445.539V377.034V376.659H555.665H502.067V178.785V178.409H501.691H404.124H403.938L403.825 178.557L263.702 362.275L263.625 362.376V362.502V445.539ZM601.748 466.505L601.749 466.507C624.133 499.822 661.614 524.279 716.236 524.279C771.375 524.279 808.857 499.823 831.241 466.507L831.242 466.505C854.655 431.125 860.886 389.001 860.886 347.452C860.886 305.903 854.655 263.779 831.242 228.399C808.856 194.56 771.372 170.625 716.236 170.625C661.617 170.625 624.133 194.561 601.748 228.399C578.335 263.779 572.104 305.903 572.104 347.452C572.104 389.001 578.335 431.125 601.748 466.505ZM884.491 445.539V445.914H884.867H1040.18V515.601V515.976H1040.56H1122.56H1122.93V515.601V445.914H1176.53H1176.91V445.539V377.034V376.659H1176.53H1122.93V178.785V178.409H1122.56H1024.99H1024.8L1024.69 178.557L884.568 362.275L884.491 362.376V362.502V445.539ZM419.318 376.659H335.857L419.318 267.085V376.659ZM654.853 347.452C654.853 320.483 657.966 294.084 667.27 274.44C671.92 265.142 677.979 257.415 685.956 252.012C693.931 246.609 703.846 243.513 716.236 243.513C728.886 243.513 738.8 246.61 746.708 252.011C754.62 257.414 760.551 265.141 765.203 274.444C775.023 294.085 778.138 320.481 778.138 347.452C778.138 374.423 775.023 400.819 765.203 420.46C760.551 429.763 754.62 437.49 746.708 442.893C738.8 448.294 728.886 451.391 716.236 451.391C703.846 451.391 693.931 448.295 685.956 442.893C677.979 437.489 671.92 429.762 667.27 420.464C657.966 400.82 654.853 374.421 654.853 347.452ZM1040.18 376.659H956.724L1040.18 267.085V376.659Z" stroke="url(#paint7_radial_1622_48746)" stroke-width="0.750437"/>
<path d="M263.625 445.539V445.914H264H419.318V515.601V515.976H419.693H501.691H502.067V515.601V445.914H555.665H556.04V445.539V377.034V376.659H555.665H502.067V178.785V178.409H501.691H404.124H403.938L403.825 178.557L263.702 362.275L263.625 362.376V362.502V445.539ZM601.748 466.505L601.749 466.507C624.133 499.822 661.614 524.279 716.236 524.279C771.375 524.279 808.857 499.823 831.241 466.507L831.242 466.505C854.655 431.125 860.886 389.001 860.886 347.452C860.886 305.903 854.655 263.779 831.242 228.399C808.856 194.56 771.372 170.625 716.236 170.625C661.617 170.625 624.133 194.561 601.748 228.399C578.335 263.779 572.104 305.903 572.104 347.452C572.104 389.001 578.335 431.125 601.748 466.505ZM884.491 445.539V445.914H884.867H1040.18V515.601V515.976H1040.56H1122.56H1122.93V515.601V445.914H1176.53H1176.91V445.539V377.034V376.659H1176.53H1122.93V178.785V178.409H1122.56H1024.99H1024.8L1024.69 178.557L884.568 362.275L884.491 362.376V362.502V445.539ZM419.318 376.659H335.857L419.318 267.085V376.659ZM654.853 347.452C654.853 320.483 657.966 294.084 667.27 274.44C671.92 265.142 677.979 257.415 685.956 252.012C693.931 246.609 703.846 243.513 716.236 243.513C728.886 243.513 738.8 246.61 746.708 252.011C754.62 257.414 760.551 265.141 765.203 274.444C775.023 294.085 778.138 320.481 778.138 347.452C778.138 374.423 775.023 400.819 765.203 420.46C760.551 429.763 754.62 437.49 746.708 442.893C738.8 448.294 728.886 451.391 716.236 451.391C703.846 451.391 693.931 448.295 685.956 442.893C677.979 437.489 671.92 429.762 667.27 420.464C657.966 400.82 654.853 374.421 654.853 347.452ZM1040.18 376.659H956.724L1040.18 267.085V376.659Z" stroke="url(#paint8_radial_1622_48746)" stroke-width="0.750437"/>
<path d="M263.625 445.539V445.914H264H419.318V515.601V515.976H419.693H501.691H502.067V515.601V445.914H555.665H556.04V445.539V377.034V376.659H555.665H502.067V178.785V178.409H501.691H404.124H403.938L403.825 178.557L263.702 362.275L263.625 362.376V362.502V445.539ZM601.748 466.505L601.749 466.507C624.133 499.822 661.614 524.279 716.236 524.279C771.375 524.279 808.857 499.823 831.241 466.507L831.242 466.505C854.655 431.125 860.886 389.001 860.886 347.452C860.886 305.903 854.655 263.779 831.242 228.399C808.856 194.56 771.372 170.625 716.236 170.625C661.617 170.625 624.133 194.561 601.748 228.399C578.335 263.779 572.104 305.903 572.104 347.452C572.104 389.001 578.335 431.125 601.748 466.505ZM884.491 445.539V445.914H884.867H1040.18V515.601V515.976H1040.56H1122.56H1122.93V515.601V445.914H1176.53H1176.91V445.539V377.034V376.659H1176.53H1122.93V178.785V178.409H1122.56H1024.99H1024.8L1024.69 178.557L884.568 362.275L884.491 362.376V362.502V445.539ZM419.318 376.659H335.857L419.318 267.085V376.659ZM654.853 347.452C654.853 320.483 657.966 294.084 667.27 274.44C671.92 265.142 677.979 257.415 685.956 252.012C693.931 246.609 703.846 243.513 716.236 243.513C728.886 243.513 738.8 246.61 746.708 252.011C754.62 257.414 760.551 265.141 765.203 274.444C775.023 294.085 778.138 320.481 778.138 347.452C778.138 374.423 775.023 400.819 765.203 420.46C760.551 429.763 754.62 437.49 746.708 442.893C738.8 448.294 728.886 451.391 716.236 451.391C703.846 451.391 693.931 448.295 685.956 442.893C677.979 437.489 671.92 429.762 667.27 420.464C657.966 400.82 654.853 374.421 654.853 347.452ZM1040.18 376.659H956.724L1040.18 267.085V376.659Z" stroke="url(#paint9_radial_1622_48746)" stroke-width="0.750437" style="mix-blend-mode:overlay"/>
<path d="M263.625 445.539V445.914H264H419.318V515.601V515.976H419.693H501.691H502.067V515.601V445.914H555.665H556.04V445.539V377.034V376.659H555.665H502.067V178.785V178.409H501.691H404.124H403.938L403.825 178.557L263.702 362.275L263.625 362.376V362.502V445.539ZM601.748 466.505L601.749 466.507C624.133 499.822 661.614 524.279 716.236 524.279C771.375 524.279 808.857 499.823 831.241 466.507L831.242 466.505C854.655 431.125 860.886 389.001 860.886 347.452C860.886 305.903 854.655 263.779 831.242 228.399C808.856 194.56 771.372 170.625 716.236 170.625C661.617 170.625 624.133 194.561 601.748 228.399C578.335 263.779 572.104 305.903 572.104 347.452C572.104 389.001 578.335 431.125 601.748 466.505ZM884.491 445.539V445.914H884.867H1040.18V515.601V515.976H1040.56H1122.56H1122.93V515.601V445.914H1176.53H1176.91V445.539V377.034V376.659H1176.53H1122.93V178.785V178.409H1122.56H1024.99H1024.8L1024.69 178.557L884.568 362.275L884.491 362.376V362.502V445.539ZM419.318 376.659H335.857L419.318 267.085V376.659ZM654.853 347.452C654.853 320.483 657.966 294.084 667.27 274.44C671.92 265.142 677.979 257.415 685.956 252.012C693.931 246.609 703.846 243.513 716.236 243.513C728.886 243.513 738.8 246.61 746.708 252.011C754.62 257.414 760.551 265.141 765.203 274.444C775.023 294.085 778.138 320.481 778.138 347.452C778.138 374.423 775.023 400.819 765.203 420.46C760.551 429.763 754.62 437.49 746.708 442.893C738.8 448.294 728.886 451.391 716.236 451.391C703.846 451.391 693.931 448.295 685.956 442.893C677.979 437.489 671.92 429.762 667.27 420.464C657.966 400.82 654.853 374.421 654.853 347.452ZM1040.18 376.659H956.724L1040.18 267.085V376.659Z" stroke="url(#paint10_radial_1622_48746)" stroke-width="0.750437" style="mix-blend-mode:overlay"/>
<path d="M263.625 445.539V445.914H264H419.318V515.601V515.976H419.693H501.691H502.067V515.601V445.914H555.665H556.04V445.539V377.034V376.659H555.665H502.067V178.785V178.409H501.691H404.124H403.938L403.825 178.557L263.702 362.275L263.625 362.376V362.502V445.539ZM601.748 466.505L601.749 466.507C624.133 499.822 661.614 524.279 716.236 524.279C771.375 524.279 808.857 499.823 831.241 466.507L831.242 466.505C854.655 431.125 860.886 389.001 860.886 347.452C860.886 305.903 854.655 263.779 831.242 228.399C808.856 194.56 771.372 170.625 716.236 170.625C661.617 170.625 624.133 194.561 601.748 228.399C578.335 263.779 572.104 305.903 572.104 347.452C572.104 389.001 578.335 431.125 601.748 466.505ZM884.491 445.539V445.914H884.867H1040.18V515.601V515.976H1040.56H1122.56H1122.93V515.601V445.914H1176.53H1176.91V445.539V377.034V376.659H1176.53H1122.93V178.785V178.409H1122.56H1024.99H1024.8L1024.69 178.557L884.568 362.275L884.491 362.376V362.502V445.539ZM419.318 376.659H335.857L419.318 267.085V376.659ZM654.853 347.452C654.853 320.483 657.966 294.084 667.27 274.44C671.92 265.142 677.979 257.415 685.956 252.012C693.931 246.609 703.846 243.513 716.236 243.513C728.886 243.513 738.8 246.61 746.708 252.011C754.62 257.414 760.551 265.141 765.203 274.444C775.023 294.085 778.138 320.481 778.138 347.452C778.138 374.423 775.023 400.819 765.203 420.46C760.551 429.763 754.62 437.49 746.708 442.893C738.8 448.294 728.886 451.391 716.236 451.391C703.846 451.391 693.931 448.295 685.956 442.893C677.979 437.489 671.92 429.762 667.27 420.464C657.966 400.82 654.853 374.421 654.853 347.452ZM1040.18 376.659H956.724L1040.18 267.085V376.659Z" stroke="url(#paint11_radial_1622_48746)" stroke-width="0.750437" style="mix-blend-mode:overlay"/>
<path d="M263.625 445.539V445.914H264H419.318V515.601V515.976H419.693H501.691H502.067V515.601V445.914H555.665H556.04V445.539V377.034V376.659H555.665H502.067V178.785V178.409H501.691H404.124H403.938L403.825 178.557L263.702 362.275L263.625 362.376V362.502V445.539ZM601.748 466.505L601.749 466.507C624.133 499.822 661.614 524.279 716.236 524.279C771.375 524.279 808.857 499.823 831.241 466.507L831.242 466.505C854.655 431.125 860.886 389.001 860.886 347.452C860.886 305.903 854.655 263.779 831.242 228.399C808.856 194.56 771.372 170.625 716.236 170.625C661.617 170.625 624.133 194.561 601.748 228.399C578.335 263.779 572.104 305.903 572.104 347.452C572.104 389.001 578.335 431.125 601.748 466.505ZM884.491 445.539V445.914H884.867H1040.18V515.601V515.976H1040.56H1122.56H1122.93V515.601V445.914H1176.53H1176.91V445.539V377.034V376.659H1176.53H1122.93V178.785V178.409H1122.56H1024.99H1024.8L1024.69 178.557L884.568 362.275L884.491 362.376V362.502V445.539ZM419.318 376.659H335.857L419.318 267.085V376.659ZM654.853 347.452C654.853 320.483 657.966 294.084 667.27 274.44C671.92 265.142 677.979 257.415 685.956 252.012C693.931 246.609 703.846 243.513 716.236 243.513C728.886 243.513 738.8 246.61 746.708 252.011C754.62 257.414 760.551 265.141 765.203 274.444C775.023 294.085 778.138 320.481 778.138 347.452C778.138 374.423 775.023 400.819 765.203 420.46C760.551 429.763 754.62 437.49 746.708 442.893C738.8 448.294 728.886 451.391 716.236 451.391C703.846 451.391 693.931 448.295 685.956 442.893C677.979 437.489 671.92 429.762 667.27 420.464C657.966 400.82 654.853 374.421 654.853 347.452ZM1040.18 376.659H956.724L1040.18 267.085V376.659Z" stroke="url(#paint12_radial_1622_48746)" stroke-width="0.750437" style="mix-blend-mode:overlay"/>
</g>
<defs>
<filter id="filter0_f_1622_48746" x="-410.026" y="-50.6732" width="2259.39" height="689.969" filterUnits="userSpaceOnUse" color-interpolation-filters="sRGB">
<feFlood flood-opacity="0" result="BackgroundImageFix"/>
<feBlend mode="normal" in="SourceGraphic" in2="BackgroundImageFix" result="shape"/>
<feGaussianBlur stdDeviation="140" result="effect1_foregroundBlur_1622_48746"/>
</filter>
<filter id="filter1_f_1622_48746" x="-504.14" y="42.1125" width="2400.87" height="417.183" filterUnits="userSpaceOnUse" color-interpolation-filters="sRGB">
<feFlood flood-opacity="0" result="BackgroundImageFix"/>
<feBlend mode="normal" in="SourceGraphic" in2="BackgroundImageFix" result="shape"/>
<feGaussianBlur stdDeviation="50" result="effect1_foregroundBlur_1622_48746"/>
</filter>
<filter id="filter2_f_1622_48746" x="387.538" y="89.8719" width="1310.57" height="553.302" filterUnits="userSpaceOnUse" color-interpolation-filters="sRGB">
<feFlood flood-opacity="0" result="BackgroundImageFix"/>
<feBlend mode="normal" in="SourceGraphic" in2="BackgroundImageFix" result="shape"/>
<feGaussianBlur stdDeviation="100" result="effect1_foregroundBlur_1622_48746"/>
</filter>
<filter id="filter3_f_1622_48746" x="-258.771" y="-115.693" width="1310.57" height="746.431" filterUnits="userSpaceOnUse" color-interpolation-filters="sRGB">
<feFlood flood-opacity="0" result="BackgroundImageFix"/>
<feBlend mode="normal" in="SourceGraphic" in2="BackgroundImageFix" result="shape"/>
<feGaussianBlur stdDeviation="100" result="effect1_foregroundBlur_1622_48746"/>
</filter>
<filter id="filter4_f_1622_48746" x="118.969" y="-89.2217" width="1310.57" height="746.431" filterUnits="userSpaceOnUse" color-interpolation-filters="sRGB">
<feFlood flood-opacity="0" result="BackgroundImageFix"/>
<feBlend mode="normal" in="SourceGraphic" in2="BackgroundImageFix" result="shape"/>
<feGaussianBlur stdDeviation="100" result="effect1_foregroundBlur_1622_48746"/>
</filter>
<linearGradient id="paint0_linear_1622_48746" x1="1064.2" y1="0" x2="1064.2" y2="601.238" gradientUnits="userSpaceOnUse">
<stop stop-opacity="0"/>
<stop offset="1"/>
</linearGradient>
<linearGradient id="paint1_linear_1622_48746" x1="720" y1="190.409" x2="720" y2="662.639" gradientUnits="userSpaceOnUse">
<stop stop-opacity="0"/>
<stop offset="1"/>
</linearGradient>
<radialGradient id="paint2_radial_1622_48746" cx="0" cy="0" r="1" gradientUnits="userSpaceOnUse" gradientTransform="translate(493.838 187.422) rotate(128.804) scale(117.332 264.08)">
<stop stop-color="white"/>
<stop offset="1" stop-color="white" stop-opacity="0"/>
</radialGradient>
<radialGradient id="paint3_radial_1622_48746" cx="0" cy="0" r="1" gradientUnits="userSpaceOnUse" gradientTransform="translate(621.095 179.881) rotate(71.7229) scale(108.208 106.961)">
<stop stop-color="white"/>
<stop offset="1" stop-color="white" stop-opacity="0"/>
</radialGradient>
<radialGradient id="paint4_radial_1622_48746" cx="0" cy="0" r="1" gradientUnits="userSpaceOnUse" gradientTransform="translate(996.27 213.816) rotate(56.6115) scale(99.35 98.2049)">
<stop stop-color="white"/>
<stop offset="1" stop-color="white" stop-opacity="0"/>
</radialGradient>
<linearGradient id="paint5_linear_1622_48746" x1="720.266" y1="146.085" x2="720.266" y2="372.319" gradientUnits="userSpaceOnUse">
<stop stop-color="white"/>
<stop offset="1" stop-color="white" stop-opacity="0"/>
</linearGradient>
<radialGradient id="paint6_radial_1622_48746" cx="0" cy="0" r="1" gradientUnits="userSpaceOnUse" gradientTransform="translate(508.808 171) rotate(44.766) scale(69.1644 178.844)">
<stop stop-color="white"/>
<stop offset="1" stop-color="white" stop-opacity="0"/>
</radialGradient>
<radialGradient id="paint7_radial_1622_48746" cx="0" cy="0" r="1" gradientUnits="userSpaceOnUse" gradientTransform="translate(614.912 196.03) rotate(157.443) scale(61.7198 159.594)">
<stop stop-color="white"/>
<stop offset="1" stop-color="white" stop-opacity="0"/>
</radialGradient>
<radialGradient id="paint8_radial_1622_48746" cx="0" cy="0" r="1" gradientUnits="userSpaceOnUse" gradientTransform="translate(991.099 178.492) rotate(166.13) scale(73.1615 189.179)">
<stop stop-color="white"/>
<stop offset="1" stop-color="white" stop-opacity="0"/>
</radialGradient>
<radialGradient id="paint9_radial_1622_48746" cx="0" cy="0" r="1" gradientUnits="userSpaceOnUse" gradientTransform="translate(1176.53 330.333) rotate(130.208) scale(110.228 67.1017)">
<stop stop-color="white"/>
<stop offset="1" stop-color="white" stop-opacity="0"/>
</radialGradient>
<radialGradient id="paint10_radial_1622_48746" cx="0" cy="0" r="1" gradientUnits="userSpaceOnUse" gradientTransform="translate(1176.53 330.333) rotate(130.208) scale(110.228 67.1017)">
<stop stop-color="white"/>
<stop offset="1" stop-color="white" stop-opacity="0"/>
</radialGradient>
<radialGradient id="paint11_radial_1622_48746" cx="0" cy="0" r="1" gradientUnits="userSpaceOnUse" gradientTransform="translate(544.829 378.461) rotate(108.048) scale(104.38 63.5419)">
<stop stop-color="white"/>
<stop offset="1" stop-color="white" stop-opacity="0"/>
</radialGradient>
<radialGradient id="paint12_radial_1622_48746" cx="0" cy="0" r="1" gradientUnits="userSpaceOnUse" gradientTransform="translate(544.829 378.461) rotate(108.048) scale(104.38 63.5419)">
<stop stop-color="white"/>
<stop offset="1" stop-color="white" stop-opacity="0"/>
</radialGradient>
<clipPath id="clip0_1622_48746">
<rect width="1440" height="506" fill="white"/>
</clipPath>
</defs>
</svg>
