<svg viewBox="0 0 42 42" fill="none" xmlns="http://www.w3.org/2000/svg">
<path d="M20.56 8.76151C26.8477 8.54162 32.1403 12.9968 32.3821 18.714C32.3871 18.8423 32.3897 18.9706 32.3897 19.1012C32.3922 21.9598 31.0898 24.6901 28.7924 26.6417C28.606 26.8021 28.5052 27.0288 28.5178 27.2625C28.5606 27.9725 28.5455 28.6643 28.4951 29.4431C28.4851 29.5828 28.6035 29.7019 28.7546 29.7088C28.8151 29.7134 28.8755 29.6973 28.9259 29.6676C32.7726 27.2854 35.075 23.3295 35.075 19.0989C35.0675 12.0279 28.7571 6.30144 20.9807 6.30831C20.8043 6.30831 20.628 6.3106 20.4517 6.31747C13.0078 6.5786 7.03498 12.1584 6.94178 18.9339C6.88132 23.2242 9.19133 27.2556 13.0909 29.6699C13.2143 29.7477 13.3856 29.718 13.4713 29.6034C13.5065 29.5576 13.5242 29.5026 13.5191 29.4454C13.4637 28.7193 13.4536 27.9909 13.4965 27.2625C13.5091 27.0288 13.4083 26.8021 13.2219 26.6417C10.8464 24.6237 9.53644 21.7765 9.62965 18.8217C9.80851 13.3816 14.5797 8.99057 20.56 8.76151ZM20.9379 7.73138e-05C9.50873 0.0275642 0.142744 8.45916 0.0016746 18.8538C-0.114203 27.2716 5.79559 34.4732 14.0507 37.1119C14.1968 37.16 14.358 37.089 14.4109 36.9539C14.426 36.9149 14.431 36.8737 14.4235 36.8325C14.3152 36.1797 14.2119 35.5246 14.1187 34.8763C14.0884 34.6496 13.9272 34.4526 13.6955 34.3609C6.95689 31.6856 2.62657 25.6155 2.68955 18.9294C2.78527 9.88847 10.9068 2.51512 20.8522 2.44412C31.0168 2.36853 39.3172 9.86786 39.3172 19.0943C39.3071 25.7209 34.9868 31.713 28.3062 34.3632C28.077 34.4549 27.9158 34.6518 27.883 34.8786C27.7898 35.5314 27.6865 36.1819 27.5782 36.8325C27.5555 36.9722 27.6588 37.1028 27.8125 37.1234C27.8603 37.1302 27.9057 37.1257 27.9485 37.1119C36.123 34.4984 42 27.4068 42 19.092C42.0025 8.5462 32.5484 -0.0297006 20.9379 7.73138e-05ZM16.1113 17.539C16.1113 19.9922 18.3004 21.9827 21.0008 21.9827C23.6988 21.9827 25.8879 19.9922 25.8879 17.539C25.8879 15.0835 23.6988 13.093 21.0008 13.093C18.3004 13.093 16.1113 15.0835 16.1113 17.539ZM25.3236 25.1941C24.4268 24.3351 22.8524 23.7831 20.9958 23.7831C19.1367 23.7831 17.5623 24.3328 16.6655 25.1941C16.207 25.6132 15.9274 26.1676 15.8745 26.7585C15.7233 28.0252 15.8065 29.1201 15.9702 30.8655C16.1264 32.5308 16.4211 34.7503 16.8065 37.0111C17.0811 38.6191 17.3053 39.4872 17.5094 40.1103C17.8369 41.1158 19.0687 42 20.9933 42C22.9179 42 24.1497 41.1181 24.4797 40.1103C24.6812 39.4895 24.9054 38.6214 25.18 37.0111C25.568 34.7503 25.8627 32.5331 26.0189 30.8655C26.1801 29.1201 26.2657 28.0275 26.1146 26.7585C26.0642 26.1676 25.7821 25.6132 25.3236 25.1941Z" fill="currentColor"/>
</svg>
