<svg viewBox="0 0 19 18" fill="none" xmlns="http://www.w3.org/2000/svg">
<g clip-path="url(#clip0_1440_43886)">
<path d="M7.26323 4.83044C6.82378 4.39099 6.11011 4.39099 5.67065 4.83044L1.17065 9.33044C0.731201 9.7699 0.731201 10.4836 1.17065 10.923L5.67065 15.423C6.11011 15.8625 6.82378 15.8625 7.26323 15.423C7.70269 14.9836 7.70269 14.2699 7.26323 13.8304L3.56128 10.125L7.26323 6.41951C7.70269 5.98005 7.70269 5.26638 7.26323 4.82693V4.83044Z" fill="currentColor"/>
<path opacity="0.4" d="M16.5937 2.25C16.5937 1.62773 17.0964 1.125 17.7187 1.125C18.341 1.125 18.8437 1.62773 18.8437 2.25V7.875C18.8437 9.73828 17.332 11.25 15.4687 11.25H4.68628L3.56128 10.125L4.68628 9H15.4687C16.091 9 16.5937 8.49727 16.5937 7.875V2.25Z" fill="currentColor"/>
</g>
<defs>
<clipPath id="clip0_1440_43886">
<rect width="18" height="18" fill="currentColor" transform="translate(0.843689)"/>
</clipPath>
</defs>
</svg>
