<svg viewBox="0 0 14 18" fill="none" xmlns="http://www.w3.org/2000/svg">
<g clip-path="url(#clip0_1440_43895)">
<path d="M12.7441 9.00002C12.4562 9.00002 12.1682 8.89016 11.9489 8.67043L7.11909 3.8426L2.28967 8.66956C1.85022 9.10901 1.13831 9.10901 0.698853 8.66956C0.259399 8.2301 0.259399 7.51819 0.698853 7.07874L6.32385 1.45374C6.76331 1.01428 7.47522 1.01428 7.91467 1.45374L13.5397 7.07874C13.9791 7.51819 13.9791 8.2301 13.5397 8.66956C13.3206 8.89104 13.0324 9.00002 12.7441 9.00002Z" fill="currentColor"/>
<path opacity="0.4" d="M8.24408 4.96753V15.75C8.24408 16.3719 7.74029 16.8433 7.15072 16.8433C6.56115 16.8433 5.99408 16.3722 5.99408 15.75V4.96753L7.11908 3.84253L8.24408 4.96753Z" fill="currentColor"/>
</g>
<defs>
<clipPath id="clip0_1440_43895">
<rect width="13.5" height="18" fill="currentColor" transform="translate(0.36908)"/>
</clipPath>
</defs>
</svg>
