<svg viewBox="0 0 15 18" fill="none" xmlns="http://www.w3.org/2000/svg">
<g clip-path="url(#clip0_1440_43892)">
<path d="M7.61909 16.875C7.33123 16.875 7.04323 16.7651 6.82385 16.5454L1.19885 10.9204C0.759399 10.481 0.759399 9.76904 1.19885 9.32959C1.63831 8.89014 2.35022 8.89014 2.78967 9.32959L7.61909 14.1609L12.4496 9.33047C12.889 8.89102 13.6009 8.89102 14.0404 9.33047C14.4798 9.76992 14.4798 10.4818 14.0404 10.9213L8.41538 16.5463C8.19565 16.766 7.90737 16.875 7.61909 16.875Z" fill="currentColor"/>
<path opacity="0.4" d="M6.49408 13.0359V2.24998C6.49408 1.62806 6.99787 1.15662 7.58744 1.15662C8.17701 1.15662 8.74408 1.62806 8.74408 2.24998V13.0359L7.61908 14.1609L6.49408 13.0359Z" fill="currentColor"/>
</g>
<defs>
<clipPath id="clip0_1440_43892">
<rect width="13.5" height="18" fill="currentColor" transform="translate(0.86908)"/>
</clipPath>
</defs>
</svg>
