<svg viewBox="0 0 17 22" fill="none" xmlns="http://www.w3.org/2000/svg">
  <path d="M9.625 0H1C0.447715 0 0 0.447715 0 1V21C0 21.5523 0.447715 22 1 22H15.5C16.0523 22 16.5 21.5523 16.5 21V6.875H9.625V0ZM11 0V5.5H16.5L11 0ZM10.9141 19.25L10.2266 18.0469C11.5156 17.3594 12.375 16.0273 12.375 14.4375C12.375 12.8906 11.5156 11.5586 10.2266 10.8711L10.9141 9.66797C12.5898 10.5703 13.75 12.375 13.75 14.4375C13.75 16.543 12.5898 18.3477 10.9141 19.25ZM9.58203 16.8438L8.89453 15.6406C9.32422 15.4258 9.625 14.9531 9.625 14.4375C9.625 13.9219 9.32422 13.4922 8.89453 13.2344L9.58203 12.0312C10.3984 12.5039 11 13.4062 11 14.4375C11 15.5117 10.3984 16.3711 9.58203 16.8438ZM2.75 16.1562V12.7188H5.15625L6.875 11H7.5625V17.875H6.875L5.15625 16.1562H2.75Z" fill="currentColor"/>
</svg>
