<svg viewBox="0 0 24 28" fill="none" xmlns="http://www.w3.org/2000/svg">
<path d="M8.625 18.7852H13.125V9.78516H8.625V18.7852ZM6.375 5.28516H4.125C3.49219 5.28516 3 5.77734 3 6.41016V8.66016H7.5V6.41016C7.5 5.77734 6.97266 5.28516 6.375 5.28516ZM8.625 22.125C8.625 22.7578 9.11719 23.25 9.75 23.25H12C12.5977 23.25 13.0898 22.7578 13.125 22.1602V19.9102H8.625V22.125ZM3 22.125C3 22.7578 3.49219 23.25 4.125 23.25H6.375C6.97266 23.25 7.5 22.7578 7.5 22.125V19.9102H3V22.125ZM3 18.7852H7.5V9.78516H3V18.7852ZM17.7305 9.36328L13.4062 10.5234L15.7266 19.1719L20.0859 18.0117L17.7305 9.36328ZM20.9297 21.2812L20.3672 19.1016L16.0078 20.2617L16.6055 22.4414C16.7461 23.0391 17.3789 23.3906 17.9766 23.2148L20.1562 22.6523C20.7539 22.4766 21.1055 21.8789 20.9297 21.2812ZM16.8867 6.09375C16.7109 5.49609 16.0781 5.14453 15.4805 5.32031L13.3359 5.88281C13.2305 5.91797 13.125 5.98828 13.0195 6.02344C12.8789 5.60156 12.457 5.28516 12 5.28516H9.75C9.11719 5.28516 8.625 5.77734 8.625 6.41016V8.66016H12.9141L13.125 9.43359L17.4492 8.27344L16.8867 6.09375Z" fill="currentColor"/>
</svg>
