<svg viewBox="0 0 24 28" fill="none" xmlns="http://www.w3.org/2000/svg">
<path d="M8.76562 12.8789L12 7.53516L3.17578 6.41016C2.92969 6.375 2.71875 6.48047 2.61328 6.72656L0.785156 10.3125C0.644531 10.6641 0.820312 11.0508 1.13672 11.1211L8.09766 13.125C8.34375 13.1953 8.625 13.0898 8.76562 12.8789ZM23.1797 10.3125L21.3516 6.72656C21.2461 6.48047 21.0352 6.375 20.7891 6.41016L12 7.53516L15.1992 12.8789C15.3398 13.0898 15.6211 13.1953 15.8672 13.125L22.8281 11.1211C23.1797 11.0508 23.3203 10.6641 23.1797 10.3125ZM15.6914 14.3203C15.0938 14.3203 14.5312 14.0039 14.25 13.5117L12 9.75L9.71484 13.5117C9.43359 14.0039 8.87109 14.3203 8.27344 14.3203C8.09766 14.3203 7.95703 14.2852 7.81641 14.25L3 12.8789V19.1016C3 19.6289 3.35156 20.0508 3.84375 20.1914L11.4375 22.0898C11.7891 22.1602 12.1758 22.1602 12.5273 22.0898L20.1211 20.1914C20.6484 20.0508 21 19.6289 21 19.1016V12.8789L16.1836 14.25C16.0078 14.2852 15.8672 14.3203 15.6914 14.3203Z" fill="white"/>
</svg>
