<svg fill="none" xmlns="http://www.w3.org/2000/svg">
<path d="M7.625 18.875C7.625 19.2266 7.89844 19.5 8.25 19.5C8.5625 19.5 8.875 19.2266 8.875 18.875C8.875 18.5625 8.5625 18.25 8.25 18.25C7.89844 18.25 7.625 18.5625 7.625 18.875ZM16.375 10.125C16.375 9.8125 16.0625 9.5 15.75 9.5C15.3984 9.5 15.125 9.8125 15.125 10.125C15.125 10.4766 15.3984 10.75 15.75 10.75C16.0625 10.75 16.375 10.4766 16.375 10.125ZM9.1875 4.5C8.05469 4.5 7.15625 5.35938 7.03906 6.45312C5.94531 6.72656 5.125 7.70312 5.125 8.875C5.125 9.10938 5.16406 9.34375 5.24219 9.57812C4.10938 9.8125 3.25 10.7891 3.25 12C3.25 12.5859 3.44531 13.1328 3.79688 13.5625C2.74219 14.0703 2 15.125 2 16.375C2 17.7031 2.85938 18.8359 4.03125 19.3047C3.95312 19.5391 3.875 19.8125 3.875 20.125C3.875 21.4922 5.00781 22.625 6.375 22.625C6.60938 22.625 6.80469 22.5859 7.03906 22.5469C7.11719 23.6406 8.05469 24.5 9.1875 24.5C10.3984 24.5 11.375 23.5234 11.375 22.3125V15.125H9.5C9.14844 15.125 8.875 15.4375 8.875 15.75V17.4688C9.42188 17.7031 9.8125 18.25 9.8125 18.875C9.8125 19.7734 9.10938 20.4375 8.25 20.4375C7.35156 20.4375 6.6875 19.7734 6.6875 18.875C6.6875 18.25 7.03906 17.7031 7.625 17.4688V15.75C7.625 14.7344 8.44531 13.875 9.5 13.875H11.375V10.75H9.65625C9.42188 11.3359 8.875 11.6875 8.25 11.6875C7.35156 11.6875 6.6875 11.0234 6.6875 10.125C6.6875 9.26562 7.35156 8.5625 8.25 8.5625C8.875 8.5625 9.42188 8.95312 9.65625 9.5H11.375V6.6875C11.375 5.47656 10.3984 4.5 9.1875 4.5ZM7.625 10.125C7.625 10.4766 7.89844 10.75 8.25 10.75C8.5625 10.75 8.875 10.4766 8.875 10.125C8.875 9.8125 8.5625 9.5 8.25 9.5C7.89844 9.5 7.625 9.8125 7.625 10.125ZM22 16.375C22 15.125 21.2578 14.0703 20.2031 13.5625C20.5547 13.1328 20.75 12.5859 20.75 12C20.75 10.7891 19.8906 9.8125 18.7578 9.57812C18.8359 9.34375 18.875 9.10938 18.875 8.875C18.875 7.70312 18.0547 6.72656 16.9609 6.45312C16.8438 5.35938 15.9453 4.5 14.8125 4.5C13.6016 4.5 12.625 5.47656 12.625 6.6875V13.875H14.5C14.8125 13.875 15.125 13.6016 15.125 13.25V11.5703C14.5391 11.3359 14.1875 10.7891 14.1875 10.125C14.1875 9.26562 14.8516 8.5625 15.75 8.5625C16.6094 8.5625 17.3125 9.26562 17.3125 10.125C17.3125 10.7891 16.9219 11.3359 16.375 11.5703V13.25C16.375 14.3047 15.5156 15.125 14.5 15.125H12.625V18.25H14.3047C14.5391 17.7031 15.0859 17.3125 15.75 17.3125C16.6094 17.3125 17.3125 18.0156 17.3125 18.875C17.3125 19.7734 16.6094 20.4375 15.75 20.4375C15.0859 20.4375 14.5391 20.0859 14.3047 19.5H12.625V22.3125C12.625 23.5234 13.6016 24.5 14.8125 24.5C15.9453 24.5 16.8828 23.6406 16.9609 22.5469C17.1953 22.5859 17.3906 22.625 17.625 22.625C18.9922 22.625 20.125 21.4922 20.125 20.125C20.125 19.8125 20.0469 19.5391 19.9688 19.3047C21.1406 18.8359 22 17.7031 22 16.375ZM16.375 18.875C16.375 18.5625 16.0625 18.25 15.75 18.25C15.3984 18.25 15.125 18.5625 15.125 18.875C15.125 19.2266 15.3984 19.5 15.75 19.5C16.0625 19.5 16.375 19.2266 16.375 18.875Z" fill="currentColor"/>
</svg>
