<svg viewBox="0 0 24 28" fill="none" xmlns="http://www.w3.org/2000/svg">
<path d="M11.2578 12.1172L13.6016 9.8125C13.0938 9.61719 12.5469 9.53906 12 9.53906C9.22656 9.53906 7 11.7656 7 14.5391C7 17.2734 9.22656 19.5391 12 19.5391C14.7344 19.5391 16.9609 17.2734 16.9609 14.5391C16.9609 13.9531 16.8828 13.4062 16.6875 12.8984L14.3828 15.2422C14.0703 16.2578 13.0938 17.0391 12 17.0391C10.5938 17.0391 9.46094 15.9062 9.46094 14.5391C9.46094 13.4062 10.2422 12.4297 11.2578 12.1172ZM20.1641 12.7031C19.8125 13.0938 19.3438 13.2891 18.875 13.2891C18.7969 13.2891 18.7578 13.25 18.7188 13.25C18.7969 13.6797 18.8359 14.0703 18.8359 14.5391C18.8359 18.3281 15.7891 21.375 12 21.375C8.17188 21.375 5.125 18.3281 5.125 14.5391C5.125 10.7109 8.17188 7.66406 12 7.66406C12.4297 7.66406 12.8203 7.70312 13.25 7.78125C13.2109 7.23438 13.4062 6.6875 13.7969 6.33594L14.5781 5.51562C13.7578 5.28125 12.8984 5.16406 12 5.16406C6.80469 5.16406 2.625 9.34375 2.625 14.5391C2.625 19.6953 6.80469 23.875 12 23.875C17.1562 23.875 21.375 19.6953 21.375 14.5391C21.375 13.6016 21.2188 12.7422 20.9844 11.9219L20.1641 12.7031ZM21.9609 8.71875C21.8828 8.48438 21.6875 8.32812 21.4922 8.28906L18.875 7.66406L18.2109 5.00781C18.1719 4.8125 18.0156 4.61719 17.7812 4.53906C17.5469 4.46094 17.3125 4.53906 17.1562 4.69531L14.6562 7.19531C14.5 7.35156 14.4609 7.54688 14.5 7.78125L14.9688 10.2031L11.6484 13.5625C11.2578 13.9141 11.2578 14.5 11.6484 14.8516C11.8047 15.0469 12.0391 15.1641 12.3125 15.1641C12.5469 15.1641 12.7812 15.0469 12.9375 14.8516L16.2969 11.5312L18.7188 12C18.7578 12 18.7969 12.0391 18.875 12.0391C19.0312 12.0391 19.1875 11.9609 19.3047 11.8438L21.8047 9.34375C21.9609 9.1875 22.0391 8.95312 21.9609 8.71875Z" fill="currentColor"/>
</svg>
