<svg width="42" height="42" viewBox="0 0 42 42" fill="none" xmlns="http://www.w3.org/2000/svg">
<g clip-path="url(#clip0_4435_2562)">
<path d="M30.4991 14.1258C31.3933 15.0199 31.3933 16.4801 30.4991 17.3742L19.9991 27.8742C19.105 28.7684 17.6448 28.7684 16.7507 27.8742L11.5007 22.6242C10.6065 21.7301 10.6065 20.2699 11.5007 19.3758C12.3948 18.4817 13.855 18.4817 14.7491 19.3758L18.3749 23.0016L27.2507 14.1258C28.1448 13.2317 29.605 13.2317 30.4991 14.1258Z" fill="url(#paint0_linear_4435_2562)"/>
<path opacity="0.3" d="M0 21C0 9.40078 9.40078 0 21 0C32.5992 0 42 9.40078 42 21C42 32.5992 32.5992 42 21 42C9.40078 42 0 32.5992 0 21ZM30.4992 17.3742C31.3934 16.4801 31.3934 15.0199 30.4992 14.1258C29.6051 13.2316 28.1449 13.2316 27.2508 14.1258L18.375 23.0016L14.7492 19.3758C13.8551 18.4816 12.3949 18.4816 11.5008 19.3758C10.6066 20.2699 10.6066 21.7301 11.5008 22.6242L16.7508 27.8742C17.6449 28.7684 19.1051 28.7684 19.9992 27.8742L30.4992 17.3742Z" fill="url(#paint1_linear_4435_2562)"/>
</g>
<defs>
<linearGradient id="paint0_linear_4435_2562" x1="-10.5728" y1="53.3262" x2="40.4803" y2="44.1209" gradientUnits="userSpaceOnUse">
<stop offset="0.0622324" stop-color="#201CFF"/>
<stop offset="0.801798" stop-color="#13EFA0"/>
</linearGradient>
<linearGradient id="paint1_linear_4435_2562" x1="-44.1955" y1="110.976" x2="62.7396" y2="96.6711" gradientUnits="userSpaceOnUse">
<stop offset="0.0622324" stop-color="#201CFF"/>
<stop offset="0.801798" stop-color="#13EFA0"/>
</linearGradient>
<clipPath id="clip0_4435_2562">
<rect width="42" height="42" fill="white"/>
</clipPath>
</defs>
</svg>
