<svg width="19" height="19" viewBox="0 0 19 19" fill="none" xmlns="http://www.w3.org/2000/svg">
<g clip-path="url(#clip0_1452_10560)">
<path d="M13.0801 7.0186C13.4633 7.40181 13.4633 8.02759 13.0801 8.41079L8.58006 12.9108C8.19686 13.294 7.57108 13.294 7.18788 12.9108L4.93788 10.6608C4.55467 10.2776 4.55467 9.65181 4.93788 9.2686C5.32108 8.8854 5.94686 8.8854 6.33006 9.2686L7.88397 10.8225L11.6879 7.0186C12.0711 6.6354 12.6969 6.6354 13.0801 7.0186Z" fill="white"/>
<path opacity="0.2" d="M0.00897217 9.9646C0.00897217 4.99351 4.03788 0.9646 9.00897 0.9646C13.9801 0.9646 18.009 4.99351 18.009 9.9646C18.009 14.9357 13.9801 18.9646 9.00897 18.9646C4.03788 18.9646 0.00897217 14.9357 0.00897217 9.9646ZM13.0801 8.41069C13.4633 8.02749 13.4633 7.40171 13.0801 7.01851C12.6969 6.6353 12.0711 6.6353 11.6879 7.01851L7.88397 10.8224L6.33007 9.26851C5.94686 8.8853 5.32108 8.8853 4.93788 9.26851C4.55468 9.65171 4.55468 10.2775 4.93788 10.6607L7.18788 12.9107C7.57108 13.2939 8.19686 13.2939 8.58007 12.9107L13.0801 8.41069Z" fill="white"/>
</g>
<defs>
<clipPath id="clip0_1452_10560">
<rect width="18" height="18" fill="white" transform="translate(0.00897217 0.9646)"/>
</clipPath>
</defs>
</svg>
