<svg width="19" height="19" viewBox="0 0 19 19" fill="none" xmlns="http://www.w3.org/2000/svg">
<g clip-path="url(#clip0_1452_10594)">
<path d="M9.42552 8.7729L11.1095 7.11704C11.44 6.79009 11.9743 6.79009 12.2732 7.11704C12.6318 7.44751 12.6318 7.98188 12.2732 8.28071L10.649 9.93306L12.2732 11.617C12.6318 11.9475 12.6318 12.4819 12.2732 12.7807C11.9743 13.1393 11.44 13.1393 11.1095 12.7807L9.42552 11.1565L7.77318 12.7807C7.47435 13.1393 6.93997 13.1393 6.6095 12.7807C6.28255 12.4819 6.28255 11.9475 6.6095 11.617L8.26536 9.93306L6.6095 8.28071C6.28255 7.98188 6.28255 7.44751 6.6095 7.11704C6.93997 6.79009 7.47435 6.79009 7.77318 7.11704L9.42552 8.7729Z" fill="url(#paint0_linear_1452_10594)"/>
<path opacity="0.2" d="M0.457153 9.9646C0.457153 4.99351 4.48606 0.9646 9.45715 0.9646C14.4282 0.9646 18.4572 4.99351 18.4572 9.9646C18.4572 14.9357 14.4282 18.9646 9.45715 18.9646C4.48606 18.9646 0.457153 14.9357 0.457153 9.9646ZM6.6095 8.28062L8.26536 9.93296L6.6095 11.6169C6.28254 11.9474 6.28254 12.4818 6.6095 12.7806C6.93997 13.1392 7.47434 13.1392 7.77317 12.7806L9.42551 11.1564L11.1095 12.7806C11.44 13.1392 11.9743 13.1392 12.2732 12.7806C12.6318 12.4818 12.6318 11.9474 12.2732 11.6169L10.6489 9.93296L12.2732 8.28062C12.6318 7.98179 12.6318 7.44741 12.2732 7.11694C11.9743 6.78999 11.44 6.78999 11.1095 7.11694L9.42551 8.7728L7.77317 7.11694C7.47434 6.78999 6.93997 6.78999 6.6095 7.11694C6.28254 7.44741 6.28254 7.98179 6.6095 8.28062Z" fill="url(#paint1_linear_1452_10594)"/>
</g>
<defs>
<linearGradient id="paint0_linear_1452_10594" x1="-0.136486" y1="23.1954" x2="17.8292" y2="20.7964" gradientUnits="userSpaceOnUse">
<stop offset="0.149178" stop-color="#FB1668"/>
<stop offset="0.559854" stop-color="#FB164D"/>
<stop offset="1" stop-color="#AE29FF"/>
</linearGradient>
<linearGradient id="paint1_linear_1452_10594" x1="-18.4838" y1="48.5256" x2="33.8619" y2="41.5358" gradientUnits="userSpaceOnUse">
<stop offset="0.149178" stop-color="#FB1668"/>
<stop offset="0.559854" stop-color="#FB164D"/>
<stop offset="1" stop-color="#AE29FF"/>
</linearGradient>
<clipPath id="clip0_1452_10594">
<rect width="18" height="18" fill="white" transform="translate(0.457153 0.9646)"/>
</clipPath>
</defs>
</svg>
