<svg viewBox="0 0 18 19" fill="none" xmlns="http://www.w3.org/2000/svg">
<g clip-path="url(#clip0_1083_9119)">
<path d="M13.0711 7.01885C13.4543 7.40205 13.4543 8.02783 13.0711 8.41104L8.57107 12.911C8.18787 13.2942 7.56209 13.2942 7.17888 12.911L4.92888 10.661C4.54568 10.2778 4.54568 9.65205 4.92888 9.26885C5.31208 8.88564 5.93787 8.88564 6.32107 9.26885L7.87498 10.8228L11.6789 7.01885C12.0621 6.63564 12.6879 6.63564 13.0711 7.01885Z" fill="#6CE9A6"/>
<path opacity="0.2" d="M0 9.96484C0 4.99375 4.02891 0.964844 9 0.964844C13.9711 0.964844 18 4.99375 18 9.96484C18 14.9359 13.9711 18.9648 9 18.9648C4.02891 18.9648 0 14.9359 0 9.96484ZM13.0711 8.41094C13.4543 8.02773 13.4543 7.40195 13.0711 7.01875C12.6879 6.63555 12.0621 6.63555 11.6789 7.01875L7.875 10.8227L6.32109 9.26875C5.93789 8.88555 5.31211 8.88555 4.92891 9.26875C4.5457 9.65195 4.5457 10.2777 4.92891 10.6609L7.17891 12.9109C7.56211 13.2941 8.18789 13.2941 8.57109 12.9109L13.0711 8.41094Z" fill="#6CE9A6"/>
</g>
<defs>
<clipPath id="clip0_1083_9119">
<rect width="18" height="18" fill="white" transform="translate(0 0.964844)"/>
</clipPath>
</defs>
</svg>
