<svg viewBox="0 0 21 21" fill="none" xmlns="http://www.w3.org/2000/svg">
<g clip-path="url(#clip0_5810_13803)">
<g clip-path="url(#clip1_5810_13803)">
<path d="M10.4293 15.6396L6.45488 11.9324C6.28789 11.7766 6.19141 11.5576 6.19141 11.3275C6.19141 10.8711 6.5625 10.5 7.01895 10.5H9.16016V6.9375C9.16016 6.28066 9.69082 5.75 10.3477 5.75H11.5352C12.192 5.75 12.7227 6.28066 12.7227 6.9375V10.5H14.8639C15.3203 10.5 15.6914 10.8711 15.6914 11.3275C15.6914 11.5576 15.5949 11.7766 15.4279 11.9324L11.4535 15.6396C11.3125 15.7695 11.1307 15.8438 10.9414 15.8438C10.7521 15.8438 10.5666 15.7695 10.4293 15.6396Z" />
<path opacity="0.4" d="M10.9414 20C8.42185 20 6.00549 18.9991 4.22389 17.2175C2.4423 15.4359 1.44141 13.0196 1.44141 10.5C1.44141 7.98044 2.4423 5.56408 4.22389 3.78249C6.00549 2.00089 8.42185 1 10.9414 1C13.461 1 15.8773 2.00089 17.6589 3.78249C19.4405 5.56408 20.4414 7.98044 20.4414 10.5C20.4414 13.0196 19.4405 15.4359 17.6589 17.2175C15.8773 18.9991 13.461 20 10.9414 20ZM6.45488 11.9324L10.4293 15.6396C10.5703 15.7695 10.7521 15.8438 10.9414 15.8438C11.1307 15.8438 11.3162 15.7695 11.4535 15.6396L15.4279 11.9324C15.5949 11.7766 15.6914 11.5576 15.6914 11.3275C15.6914 10.8711 15.3203 10.5 14.8639 10.5H12.7227V6.9375C12.7227 6.28066 12.192 5.75 11.5352 5.75H10.3477C9.69082 5.75 9.16016 6.28066 9.16016 6.9375V10.5H7.01895C6.5625 10.5 6.19141 10.8711 6.19141 11.3275C6.19141 11.5576 6.28789 11.7766 6.45488 11.9324Z" />
</g>
</g>
<defs>
<clipPath id="clip0_5810_13803">
<rect width="20" height="20" fill="white" transform="translate(0.941406 0.5)"/>
</clipPath>
<clipPath id="clip1_5810_13803">
<rect width="19" height="19" fill="white" transform="translate(1.44141 1)"/>
</clipPath>
</defs>
</svg>
