<svg viewBox="0 0 21 21" fill="none" xmlns="http://www.w3.org/2000/svg">
<g clip-path="url(#clip0_5810_13799)">
<g clip-path="url(#clip1_5810_13799)">
<path d="M11.4828 5.36035L15.4572 9.06758C15.6242 9.22344 15.7207 9.44238 15.7207 9.67246C15.7207 10.1289 15.3496 10.5 14.8932 10.5L12.752 10.5L12.752 14.0625C12.752 14.7193 12.2213 15.25 11.5645 15.25L10.377 15.25C9.72012 15.25 9.18945 14.7193 9.18945 14.0625L9.18945 10.5L7.04824 10.5C6.5918 10.5 6.2207 10.1289 6.2207 9.67246C6.2207 9.44238 6.31719 9.22344 6.48418 9.06758L10.4586 5.36035C10.5996 5.23047 10.7814 5.15625 10.9707 5.15625C11.16 5.15625 11.3455 5.23047 11.4828 5.36035Z" />
<path opacity="0.4" d="M10.9707 0.999999C13.4903 0.999999 15.9066 2.00089 17.6882 3.78249C19.4698 5.56408 20.4707 7.98044 20.4707 10.5C20.4707 13.0196 19.4698 15.4359 17.6882 17.2175C15.9066 18.9991 13.4903 20 10.9707 20C8.45115 20 6.03478 18.9991 4.25319 17.2175C2.47159 15.4359 1.4707 13.0196 1.4707 10.5C1.4707 7.98044 2.47159 5.56408 4.25319 3.78248C6.03478 2.00089 8.45115 0.999999 10.9707 0.999999ZM15.4572 9.06758L11.4828 5.36035C11.3418 5.23047 11.16 5.15625 10.9707 5.15625C10.7814 5.15625 10.5959 5.23047 10.4586 5.36035L6.48418 9.06758C6.31719 9.22344 6.2207 9.44238 6.2207 9.67246C6.2207 10.1289 6.5918 10.5 7.04824 10.5L9.18945 10.5L9.18945 14.0625C9.18945 14.7193 9.72012 15.25 10.377 15.25L11.5645 15.25C12.2213 15.25 12.752 14.7193 12.752 14.0625L12.752 10.5L14.8932 10.5C15.3496 10.5 15.7207 10.1289 15.7207 9.67246C15.7207 9.44238 15.6242 9.22344 15.4572 9.06758Z" />
</g>
</g>
<defs>
<clipPath id="clip0_5810_13799">
<rect width="20" height="20" fill="white" transform="translate(20.9707 20.5) rotate(-180)"/>
</clipPath>
<clipPath id="clip1_5810_13799">
<rect width="19" height="19" fill="white" transform="translate(20.4707 20) rotate(-180)"/>
</clipPath>
</defs>
</svg>
