<svg width="16" height="16" viewBox="0 0 16 16" fill="none" xmlns="http://www.w3.org/2000/svg">
<g clip-path="url(#clip0_1548_4519)">
<path d="M8 6.10352e-05C10.1217 6.10352e-05 12.1566 0.842916 13.6569 2.34321C15.1571 3.8435 16 5.87833 16 8.00006C16 10.1218 15.1571 12.1566 13.6569 13.6569C12.1566 15.1572 10.1217 16.0001 8 16.0001C5.87827 16.0001 3.84344 15.1572 2.34315 13.6569C0.842855 12.1566 0 10.1218 0 8.00006C0 5.87833 0.842855 3.8435 2.34315 2.34321C3.84344 0.842916 5.87827 6.10352e-05 8 6.10352e-05ZM7.25 3.75006V8.00006C7.25 8.25006 7.375 8.48444 7.58437 8.62506L10.5844 10.6251C10.9281 10.8563 11.3938 10.7626 11.625 10.4157C11.8562 10.0688 11.7625 9.60631 11.4156 9.37506L8.75 7.60006V3.75006C8.75 3.33444 8.41562 3.00006 8 3.00006C7.58437 3.00006 7.25 3.33444 7.25 3.75006Z" fill="url(#paint0_linear_1548_4519)"/>
</g>
<defs>
<linearGradient id="paint0_linear_1548_4519" x1="-14.6405" y1="6.2534e-05" x2="16" y2="6.33588e-05" gradientUnits="userSpaceOnUse">
<stop stop-color="#201CFF"/>
<stop offset="0.895833" stop-color="#13EF95"/>
</linearGradient>
<clipPath id="clip0_1548_4519">
<rect width="16" height="16" fill="white"/>
</clipPath>
</defs>
</svg>
