<?xml version="1.0" encoding="UTF-8" standalone="no"?>
<svg
   xmlns:rdf="http://www.w3.org/1999/02/22-rdf-syntax-ns#"
   xmlns:svg="http://www.w3.org/2000/svg"
   xmlns="http://www.w3.org/2000/svg"
   width="37"
   height="42"
   viewBox="0 0 37 42"
   style="fill:none"
>
  <g id="g3787">
    <path
       d="m 36.130762,20.846712 c 0.0784,-5.3933 -1.9222,-10.4867 -5.6425,-14.3400009 -3.7202,-3.8533 -8.6827,-5.97330001 -13.9721,-5.97330001 H 0.64786321 c -0.1111,0 -0.1961,0.0866 -0.1961,0.2 V 21.846712 c 0,0.1133 0.085,0.2 0.1961,0.2 H 8.4610632 c 0.1111,0 0.1961,-0.0867 0.1961,-0.2 V 8.9000111 h 7.8589988 c 3.1056,0 6.0151,1.2533999 8.1858,3.5334009 2.1707,2.28 3.3149,5.28 3.2233,8.4533 -0.183,6.22 -5.3875,11.2867 -11.5988,11.2867 H 8.6048632 c -0.1765,0 -0.34,0.0733 -0.4642,0.2 l -7.40779999,7.5933 c -0.2027,0.2133 -0.0588,0.5667 0.2288,0.5667 H 16.182662 c 10.8338,0 19.7846,-8.8334 19.9481,-19.6934 z"
       id="path3785"
       fill="white"
      />
  </g>
</svg>
