<svg width="39" height="40" viewBox="0 0 39 40" fill="none" xmlns="http://www.w3.org/2000/svg">
<path d="M18.4147 40H2.18268C1.63927 40 1.36756 39.3477 1.74917 38.9655L12.2052 28.5082C12.3212 28.3929 12.4769 28.3292 12.6387 28.3292H18.5399C23.1008 28.3292 26.9596 24.7827 27.097 20.2533C27.2374 15.5449 23.4244 11.6739 18.72 11.6739H12.3975V19.4172C12.3975 19.7509 12.1228 20.0239 11.787 20.0239H1.26377C0.927955 20.0239 0.653198 19.7509 0.653198 19.4172V0.60675C0.653198 0.273038 0.927955 0 1.26377 0H18.72C29.9209 0 39.0153 9.14069 38.8444 20.311C38.6765 31.284 29.4599 40 18.4147 40Z" fill="white"/>
</svg>
