<svg width="14" height="12" viewBox="0 0 14 12" fill="none" xmlns="http://www.w3.org/2000/svg">
<path d="M11 10C11.3542 10 11.6667 10.3125 11.6667 10.6667C11.6667 11.0417 11.3542 11.3333 11 11.3333H3C2.625 11.3333 2.33333 11.0417 2.33333 10.6667C2.33333 10.3125 2.625 10 3 10H11ZM12.6667 0.666666C13.2083 0.666666 13.6667 1.125 13.6667 1.66667V8.33333C13.6667 8.89583 13.2083 9.33333 12.6667 9.33333H1.33333C0.770833 9.33333 0.333333 8.89583 0.333333 8.33333V1.66667C0.333333 1.125 0.770833 0.666666 1.33333 0.666666H12.6667ZM12.3333 8V2H1.66667V8H12.3333Z" fill="currentColor"/>
</svg>
