<svg width="16" height="16" viewBox="0 0 16 16" fill="none" xmlns="http://www.w3.org/2000/svg">
<path d="M1.5 2.00006C0.671875 2.00006 0 2.67194 0 3.50006C0 3.97194 0.221875 4.41569 0.6 4.70006L7.4 9.80006C7.75625 10.0657 8.24375 10.0657 8.6 9.80006L15.4 4.70006C15.7781 4.41569 16 3.97194 16 3.50006C16 2.67194 15.3281 2.00006 14.5 2.00006H1.5ZM0 5.50006V12.0001C0 13.1032 0.896875 14.0001 2 14.0001H14C15.1031 14.0001 16 13.1032 16 12.0001V5.50006L9.2 10.6001C8.4875 11.1344 7.5125 11.1344 6.8 10.6001L0 5.50006Z" fill="#A9A9AD"/>
</svg>
