<svg viewBox="0 0 25 18" fill="none" xmlns="http://www.w3.org/2000/svg">
<rect opacity="0.3" x="0.933289" width="24" height="18" rx="4" fill="currentColor"/>
<path d="M7.66632 11.625C7.14331 11.625 6.69312 11.5191 6.31575 11.3072C5.94059 11.0932 5.6515 10.7908 5.44848 10.4002C5.24545 10.0074 5.14394 9.54288 5.14394 9.00662C5.14394 8.48361 5.24545 8.02459 5.44848 7.62957C5.6515 7.23455 5.93728 6.9267 6.30582 6.70602C6.67657 6.48534 7.11131 6.375 7.61005 6.375C7.94548 6.375 8.25774 6.42907 8.54684 6.5372C8.83814 6.64313 9.09192 6.80312 9.30819 7.01718C9.52666 7.23124 9.69658 7.50047 9.81796 7.82487C9.93933 8.14707 10 8.52443 10 8.95697V9.34426H5.70667V8.47037H8.67262C8.67262 8.26734 8.62849 8.08748 8.54022 7.9308C8.45194 7.77412 8.32947 7.65164 8.17278 7.56337C8.01831 7.47289 7.83845 7.42765 7.63322 7.42765C7.41916 7.42765 7.22937 7.4773 7.06386 7.57661C6.90056 7.67371 6.77256 7.80501 6.67988 7.97052C6.58719 8.13383 6.53974 8.31589 6.53754 8.51671V9.34757C6.53754 9.59915 6.58388 9.81652 6.67657 9.99969C6.77146 10.1829 6.90497 10.3241 7.0771 10.4234C7.24923 10.5227 7.45336 10.5724 7.68949 10.5724C7.84617 10.5724 7.98962 10.5503 8.11982 10.5061C8.25002 10.462 8.36146 10.3958 8.45415 10.3075C8.54684 10.2193 8.61745 10.1111 8.666 9.98313L9.97023 10.0692C9.90403 10.3826 9.76831 10.6562 9.56307 10.8901C9.36005 11.1218 9.09744 11.3028 8.77524 11.433C8.45525 11.561 8.08561 11.625 7.66632 11.625Z" fill="currentColor"/>
<path d="M15.1507 7.89108L13.8597 7.97052C13.8377 7.86018 13.7902 7.76088 13.7174 7.6726C13.6446 7.58213 13.5486 7.5104 13.4294 7.45744C13.3124 7.40227 13.1723 7.37468 13.009 7.37468C12.7905 7.37468 12.6063 7.42103 12.4562 7.51371C12.3061 7.60419 12.2311 7.72557 12.2311 7.87784C12.2311 7.99921 12.2797 8.10183 12.3768 8.18569C12.4739 8.26955 12.6405 8.33685 12.8766 8.38761L13.7968 8.57298C14.2912 8.6745 14.6597 8.8378 14.9024 9.06289C15.1452 9.28799 15.2666 9.5837 15.2666 9.95003C15.2666 10.2833 15.1684 10.5757 14.972 10.8272C14.7778 11.0788 14.5107 11.2752 14.1709 11.4165C13.8333 11.5555 13.4437 11.625 13.0024 11.625C12.3293 11.625 11.7931 11.4849 11.3936 11.2046C10.9964 10.9221 10.7636 10.5381 10.6952 10.0526L12.0821 9.97982C12.1241 10.1851 12.2256 10.3417 12.3867 10.4499C12.5478 10.5558 12.7541 10.6088 13.0057 10.6088C13.2529 10.6088 13.4515 10.5613 13.6015 10.4664C13.7538 10.3693 13.831 10.2446 13.8333 10.0924C13.831 9.96438 13.777 9.85955 13.671 9.7779C13.5651 9.69404 13.4018 9.63004 13.1811 9.58591L12.3006 9.41047C11.8041 9.31116 11.4344 9.13903 11.1917 8.89407C10.9512 8.64912 10.8309 8.33685 10.8309 7.95728C10.8309 7.63067 10.9192 7.34931 11.0957 7.11318C11.2745 6.87705 11.5249 6.69499 11.8471 6.56699C12.1715 6.439 12.5511 6.375 12.9858 6.375C13.628 6.375 14.1334 6.51072 14.5019 6.78216C14.8727 7.05359 15.0889 7.42323 15.1507 7.89108Z" fill="currentColor"/>
<path d="M18.4518 11.625C17.931 11.625 17.483 11.5147 17.1079 11.294C16.7349 11.0711 16.448 10.7621 16.2472 10.3671C16.0486 9.9721 15.9493 9.5175 15.9493 9.00331C15.9493 8.4825 16.0497 8.02569 16.2505 7.63288C16.4536 7.23786 16.7415 6.93001 17.1145 6.70933C17.4874 6.48644 17.931 6.375 18.4452 6.375C18.8888 6.375 19.2772 6.45555 19.6104 6.61665C19.9436 6.77774 20.2073 7.00394 20.4015 7.29524C20.5957 7.58654 20.7028 7.92859 20.7226 8.32141H19.3919C19.3544 8.06762 19.2551 7.86349 19.094 7.70902C18.9351 7.55233 18.7266 7.47399 18.4684 7.47399C18.2499 7.47399 18.059 7.53357 17.8957 7.65274C17.7346 7.7697 17.6088 7.94073 17.5183 8.16583C17.4279 8.39092 17.3826 8.66346 17.3826 8.98345C17.3826 9.30785 17.4268 9.5837 17.515 9.811C17.6055 10.0383 17.7324 10.2115 17.8957 10.3307C18.059 10.4499 18.2499 10.5095 18.4684 10.5095C18.6295 10.5095 18.774 10.4764 18.902 10.4102C19.0322 10.3439 19.1392 10.248 19.2231 10.1222C19.3092 9.99417 19.3654 9.84079 19.3919 9.66204H20.7226C20.7006 10.0504 20.5946 10.3925 20.4049 10.6882C20.2173 10.9817 19.958 11.2112 19.627 11.3767C19.2959 11.5422 18.9042 11.625 18.4518 11.625Z" fill="currentColor"/>
</svg>
