<svg viewBox="0 0 24 28" fill="none" xmlns="http://www.w3.org/2000/svg">
<path d="M13.25 9.5V4.5H6.375C5.32031 4.5 4.5 5.35938 4.5 6.375V22.625C4.5 23.6797 5.32031 24.5 6.375 24.5H17.625C18.6406 24.5 19.5 23.6797 19.5 22.625V10.75H14.5C13.7969 10.75 13.25 10.2031 13.25 9.5ZM9.8125 21.6484C8.67969 21.2188 7.78125 20.3203 7.35156 19.1875C6.17969 16.1797 8.01562 13.2891 10.75 12.7422V18.25H16.2578C15.7109 20.9844 12.8203 22.8203 9.8125 21.6484ZM16.6875 17H12V12.3125C14.5781 12.3125 16.6875 14.4219 16.6875 17ZM14.5 4.5V9.5H19.5L14.5 4.5Z" fill="currentColor"/>
</svg>
