<svg width="18" height="25" viewBox="0 0 18 25" fill="none" xmlns="http://www.w3.org/2000/svg">
<g clip-path="url(#clip0_1605_8604)">
<path d="M3 0.820923C1.34531 0.820923 0 2.16624 0 3.82092V21.8209C0 23.4756 1.34531 24.8209 3 24.8209H15C16.6547 24.8209 18 23.4756 18 21.8209V8.32092H12C11.1703 8.32092 10.5 7.65061 10.5 6.82092V0.820923H3ZM12 0.820923V6.82092H18L12 0.820923ZM12.0938 11.4287C13.8328 12.4787 15 14.3865 15 16.5709C15 18.7553 13.8328 20.6631 12.0938 21.7131C11.7375 21.9287 11.2781 21.8115 11.0625 21.46C10.8469 21.1084 10.9641 20.6444 11.3156 20.4287C12.6281 19.6412 13.5 18.2069 13.5 16.5709C13.5 14.935 12.6281 13.5006 11.3203 12.7131C10.9641 12.4975 10.8516 12.0381 11.0672 11.6819C11.2828 11.3256 11.7422 11.2131 12.0984 11.4287H12.0938ZM7.78594 12.8772C8.06719 12.9944 8.25 13.2662 8.25 13.5709V19.5709C8.25 19.8756 8.06719 20.1475 7.78594 20.2647C7.50469 20.3819 7.18125 20.3162 6.97031 20.1006L5.31563 18.4459H3.75C3.3375 18.4459 3 18.1084 3 17.6959V15.4459C3 15.0334 3.3375 14.6959 3.75 14.6959H5.31563L6.97031 13.0412C7.18594 12.8256 7.50938 12.7647 7.78594 12.8772ZM10.1766 14.5131C10.4859 14.2365 10.9594 14.2647 11.2359 14.574C11.7094 15.099 12 15.8022 12 16.5709C12 17.3397 11.7094 18.0428 11.2359 18.5725C10.9594 18.8819 10.4859 18.9053 10.1766 18.6334C9.86719 18.3615 9.84375 17.8834 10.1156 17.574C10.3547 17.3069 10.4953 16.96 10.4953 16.5756C10.4953 16.1912 10.35 15.8397 10.1156 15.5772C9.83906 15.2678 9.86719 14.7944 10.1766 14.5178V14.5131Z" fill="white"/>
</g>
<defs>
<clipPath id="clip0_1605_8604">
<rect width="18" height="24" fill="white" transform="translate(0 0.820923)"/>
</clipPath>
</defs>
</svg>
