<svg viewBox="0 0 24 28" fill="none" xmlns="http://www.w3.org/2000/svg">
<path d="M14.5 4.5V9.5H19.5L14.5 4.5ZM13.25 9.5V4.5H6.375C5.32031 4.5 4.5 5.35938 4.5 6.375V22.625C4.5 23.6797 5.32031 24.5 6.375 24.5H17.625C18.6406 24.5 19.5 23.6797 19.5 22.625V10.75H14.5C13.7969 10.75 13.25 10.2031 13.25 9.5ZM9.5 21.5312C9.5 21.7656 9.22656 22 8.99219 22H7.46875C7.23438 22 7 21.7656 7 21.5312V18.7578C7 18.5234 7.23438 18.25 7.46875 18.25H8.99219C9.22656 18.25 9.5 18.5234 9.5 18.7578V21.5312ZM13.25 21.5312C13.25 21.7656 12.9766 22 12.7422 22H11.2188C10.9844 22 10.75 21.7656 10.75 21.5312V13.7578C10.75 13.5234 10.9844 13.25 11.2188 13.25H12.7422C12.9766 13.25 13.25 13.5234 13.25 13.7578V21.5312ZM14.9688 15.75H16.4922C16.7266 15.75 17 16.0234 17 16.2578V21.5312C17 21.7656 16.7266 22 16.4922 22H14.9688C14.7344 22 14.5 21.7656 14.5 21.5312V16.2578C14.5 16.0234 14.7344 15.75 14.9688 15.75Z" fill="currentColor"/>
</svg>
