<svg width="39" height="49" viewBox="0 0 39 49" fill="none" xmlns="http://www.w3.org/2000/svg">
<path d="M32.9812 33.7273C32.9809 33.8262 33.0001 33.9159 32.9979 34.0159C32.9156 37.2523 31.6031 40.3554 29.4469 42.7273L9.42188 42.794C7.24406 40.3086 6 37.0836 6 33.7273C6 33.1425 6.09008 32.6379 6.14719 32.1045C12.2962 29.0979 18.0722 29.2826 23.1441 31.8053C27.375 33.8304 30.7687 33.7273 32.9812 33.7273Z" fill="white"/>
<path opacity="0.3" d="M28.4156 16.571V6.72729H29.1653C30.4084 6.72729 31.4153 5.71948 31.4153 4.47729V2.97729C31.4153 1.73417 30.4084 0.727295 29.1653 0.727295H9.66562C8.4225 0.727295 7.41562 1.73417 7.41562 2.97729V4.47729C7.41562 5.71948 8.4225 6.72729 9.66562 6.72729H10.4149V16.4867C4.27688 19.7492 0 26.2179 0 33.7273C0 38.7664 1.91062 43.3648 5.06156 46.8335C6.17531 48.0617 7.7925 48.7273 9.38437 48.7273H29.3625C31.05 48.7273 32.6906 48.0242 33.8156 46.7698C36.8381 43.4182 38.7131 39.012 38.8303 34.1604C39.1594 26.6773 34.8 19.9554 28.4156 16.571ZM29.4469 42.7273L9.42188 42.7939C7.24406 40.3085 6 37.0835 6 33.7273C6 25.6676 11.685 22.646 16.4156 20.1242V6.72729H22.4147V20.1617C25.8909 22.0292 33.1022 25.2757 32.9147 34.0179C32.9156 37.2523 31.6031 40.3554 29.4469 42.7273Z" fill="#A9A9AD"/>
<defs>
<linearGradient id="gradient-red-1" x1="8.14286" y1="52.8289" x2="50.5711" y2="49.6203" gradientUnits="userSpaceOnUse">
<stop offset="0.149178" stop-color="#EE028B"/>
<stop offset="1" stop-color="#AE29FF"/>
</linearGradient>
<linearGradient id="gradient-red-2" x1="-6.42857" y1="32.3445" x2="62.7859" y2="20.8659" gradientUnits="userSpaceOnUse">
<stop offset="0.149178" stop-color="#EE028B"/>
<stop offset="1" stop-color="#AE29FF"/>
</linearGradient>
</defs>
</svg>
