<svg width="712" height="35" viewBox="0 0 712 35" fill="none" xmlns="http://www.w3.org/2000/svg">
<line x1="4.5" y1="15.8181" x2="4.5" y2="19.1818" stroke="currentColor" stroke-width="8" stroke-linecap="round"/>
<line x1="14.5" y1="12.1819" x2="14.5" y2="22.8182" stroke="currentColor" stroke-width="8" stroke-linecap="round"/>
<line x1="24.5" y1="9.90918" x2="24.5" y2="25.091" stroke="currentColor" stroke-width="8" stroke-linecap="round"/>
<line x1="34.5" y1="4" x2="34.5" y2="31" stroke="currentColor" stroke-width="8" stroke-linecap="round"/>
<line x1="44.5" y1="6.95459" x2="44.5" y2="28.0455" stroke="currentColor" stroke-width="8" stroke-linecap="round"/>
<line x1="54.5" y1="9.90918" x2="54.5" y2="25.091" stroke="currentColor" stroke-width="8" stroke-linecap="round"/>
<line x1="64.5" y1="4" x2="64.5" y2="31" stroke="currentColor" stroke-width="8" stroke-linecap="round"/>
<line x1="74.5" y1="9.90918" x2="74.5" y2="25.091" stroke="currentColor" stroke-width="8" stroke-linecap="round"/>
<line x1="84.5" y1="4" x2="84.5" y2="31" stroke="currentColor" stroke-width="8" stroke-linecap="round"/>
<line x1="94.5" y1="14.4546" x2="94.5" y2="20.5455" stroke="currentColor" stroke-width="8" stroke-linecap="round"/>
<line x1="104.5" y1="12.6365" x2="104.5" y2="22.3637" stroke="currentColor" stroke-width="8" stroke-linecap="round"/>
<line x1="114.5" y1="16.9546" x2="114.5" y2="18.0455" stroke="currentColor" stroke-width="8" stroke-linecap="round"/>
<line x1="124.5" y1="14.4546" x2="124.5" y2="20.5455" stroke="currentColor" stroke-width="8" stroke-linecap="round"/>
<line x1="134.5" y1="4" x2="134.5" y2="31" stroke="currentColor" stroke-width="8" stroke-linecap="round"/>
<line x1="144.5" y1="9.90918" x2="144.5" y2="25.091" stroke="currentColor" stroke-width="8" stroke-linecap="round"/>
<line x1="154.5" y1="6.95459" x2="154.5" y2="28.0455" stroke="currentColor" stroke-width="8" stroke-linecap="round"/>
<line x1="164.5" y1="5.81836" x2="164.5" y2="29.182" stroke="currentColor" stroke-width="8" stroke-linecap="round"/>
<line x1="174.5" y1="14.2273" x2="174.5" y2="20.7727" stroke="currentColor" stroke-width="8" stroke-linecap="round"/>
<line x1="184.5" y1="12.6362" x2="184.5" y2="22.3635" stroke="currentColor" stroke-width="8" stroke-linecap="round"/>
<line x1="4" y1="-4" x2="16.0177" y2="-4" transform="matrix(-0.0420217 0.999117 -0.999925 -0.0122802 191.341 7.5)" stroke="currentColor" stroke-width="8" stroke-linecap="round"/>
<line x1="205.341" y1="15.8184" x2="205.341" y2="19.182" stroke="currentColor" stroke-width="8" stroke-linecap="round"/>
<line x1="215.341" y1="12.1816" x2="215.341" y2="22.818" stroke="currentColor" stroke-width="8" stroke-linecap="round"/>
<line x1="225.341" y1="9.90918" x2="225.341" y2="25.091" stroke="currentColor" stroke-width="8" stroke-linecap="round"/>
<line x1="235.341" y1="4" x2="235.341" y2="31" stroke="currentColor" stroke-width="8" stroke-linecap="round"/>
<line x1="245.341" y1="6.95459" x2="245.341" y2="28.0455" stroke="currentColor" stroke-width="8" stroke-linecap="round"/>
<line x1="255.341" y1="9.90918" x2="255.341" y2="25.091" stroke="currentColor" stroke-width="8" stroke-linecap="round"/>
<line x1="265.341" y1="4" x2="265.341" y2="31" stroke="currentColor" stroke-width="8" stroke-linecap="round"/>
<line x1="275.341" y1="9.90918" x2="275.341" y2="25.091" stroke="currentColor" stroke-width="8" stroke-linecap="round"/>
<line x1="285.341" y1="15.8184" x2="285.341" y2="19.182" stroke="currentColor" stroke-width="8" stroke-linecap="round"/>
<line x1="295.341" y1="6.95459" x2="295.341" y2="28.0455" stroke="currentColor" stroke-width="8" stroke-linecap="round"/>
<line x1="305.341" y1="5.81836" x2="305.341" y2="29.182" stroke="currentColor" stroke-width="8" stroke-linecap="round"/>
<line x1="315.341" y1="14.2273" x2="315.341" y2="20.7727" stroke="currentColor" stroke-width="8" stroke-linecap="round"/>
<line x1="325.341" y1="12.6362" x2="325.341" y2="22.3635" stroke="currentColor" stroke-width="8" stroke-linecap="round"/>
<line x1="4" y1="-4" x2="16.0177" y2="-4" transform="matrix(-0.0420217 0.999117 -0.999925 -0.0122802 332.183 7.5)" stroke="currentColor" stroke-width="8" stroke-linecap="round"/>
<line x1="346.183" y1="15.8184" x2="346.183" y2="19.182" stroke="currentColor" stroke-width="8" stroke-linecap="round"/>
<line x1="356.183" y1="12.1816" x2="356.183" y2="22.818" stroke="currentColor" stroke-width="8" stroke-linecap="round"/>
<line x1="366.183" y1="9.90918" x2="366.183" y2="25.091" stroke="currentColor" stroke-width="8" stroke-linecap="round"/>
<line x1="376.183" y1="4" x2="376.183" y2="31" stroke="currentColor" stroke-width="8" stroke-linecap="round"/>
<line x1="386.183" y1="6.95459" x2="386.183" y2="28.0455" stroke="currentColor" stroke-width="8" stroke-linecap="round"/>
<line x1="396.183" y1="9.90918" x2="396.183" y2="25.091" stroke="currentColor" stroke-width="8" stroke-linecap="round"/>
<line x1="406.183" y1="4" x2="406.183" y2="31" stroke="currentColor" stroke-width="8" stroke-linecap="round"/>
<line x1="416.183" y1="9.90918" x2="416.183" y2="25.091" stroke="currentColor" stroke-width="8" stroke-linecap="round"/>
<line x1="426.183" y1="15.8184" x2="426.183" y2="19.182" stroke="currentColor" stroke-width="8" stroke-linecap="round"/>
<line x1="436.183" y1="6.95459" x2="436.183" y2="28.0455" stroke="currentColor" stroke-width="8" stroke-linecap="round"/>
<line x1="446.183" y1="5.81836" x2="446.183" y2="29.182" stroke="currentColor" stroke-width="8" stroke-linecap="round"/>
<line x1="456.183" y1="14.2273" x2="456.183" y2="20.7727" stroke="currentColor" stroke-width="8" stroke-linecap="round"/>
<line x1="466.183" y1="12.6362" x2="466.183" y2="22.3635" stroke="currentColor" stroke-width="8" stroke-linecap="round"/>
<line x1="4" y1="-4" x2="16.0177" y2="-4" transform="matrix(-0.0420217 0.999117 -0.999925 -0.0122802 473.024 7.5)" stroke="currentColor" stroke-width="8" stroke-linecap="round"/>
<line x1="487.024" y1="15.8184" x2="487.024" y2="19.182" stroke="currentColor" stroke-width="8" stroke-linecap="round"/>
<line x1="497.024" y1="12.1816" x2="497.024" y2="22.818" stroke="currentColor" stroke-width="8" stroke-linecap="round"/>
<line x1="507.024" y1="9.90918" x2="507.024" y2="25.091" stroke="currentColor" stroke-width="8" stroke-linecap="round"/>
<line x1="517.024" y1="4" x2="517.024" y2="31" stroke="currentColor" stroke-width="8" stroke-linecap="round"/>
<line x1="527.024" y1="6.95459" x2="527.024" y2="28.0455" stroke="currentColor" stroke-width="8" stroke-linecap="round"/>
<line x1="537.024" y1="9.90918" x2="537.024" y2="25.091" stroke="currentColor" stroke-width="8" stroke-linecap="round"/>
<line x1="547.024" y1="4" x2="547.024" y2="31" stroke="currentColor" stroke-width="8" stroke-linecap="round"/>
<line x1="557.024" y1="9.90918" x2="557.024" y2="25.091" stroke="currentColor" stroke-width="8" stroke-linecap="round"/>
<line x1="567.024" y1="15.8184" x2="567.024" y2="19.182" stroke="currentColor" stroke-width="8" stroke-linecap="round"/>
<line x1="577.024" y1="6.95459" x2="577.024" y2="28.0455" stroke="currentColor" stroke-width="8" stroke-linecap="round"/>
<line x1="587.024" y1="5.81836" x2="587.024" y2="29.182" stroke="currentColor" stroke-width="8" stroke-linecap="round"/>
<line x1="597.024" y1="14.2273" x2="597.024" y2="20.7727" stroke="currentColor" stroke-width="8" stroke-linecap="round"/>
<line x1="607.024" y1="12.6362" x2="607.024" y2="22.3635" stroke="currentColor" stroke-width="8" stroke-linecap="round"/>
<line x1="4" y1="-4" x2="16.0177" y2="-4" transform="matrix(-0.0420217 0.999117 -0.999925 -0.0122802 613.865 7.5)" stroke="currentColor" stroke-width="8" stroke-linecap="round"/>
<line x1="627.865" y1="15.8184" x2="627.865" y2="19.182" stroke="currentColor" stroke-width="8" stroke-linecap="round"/>
<line x1="637.865" y1="12.1816" x2="637.865" y2="22.818" stroke="currentColor" stroke-width="8" stroke-linecap="round"/>
<line x1="647.865" y1="9.90918" x2="647.865" y2="25.091" stroke="currentColor" stroke-width="8" stroke-linecap="round"/>
<line x1="657.865" y1="4" x2="657.865" y2="31" stroke="currentColor" stroke-width="8" stroke-linecap="round"/>
<line x1="667.865" y1="6.95459" x2="667.865" y2="28.0455" stroke="currentColor" stroke-width="8" stroke-linecap="round"/>
<line x1="677.865" y1="9.90918" x2="677.865" y2="25.091" stroke="currentColor" stroke-width="8" stroke-linecap="round"/>
<line x1="687.865" y1="4" x2="687.865" y2="31" stroke="currentColor" stroke-width="8" stroke-linecap="round"/>
<line x1="697.865" y1="9.90918" x2="697.865" y2="25.091" stroke="currentColor" stroke-width="8" stroke-linecap="round"/>
<line x1="707.865" y1="15.8184" x2="707.865" y2="19.182" stroke="currentColor" stroke-width="8" stroke-linecap="round"/>
</svg>
