<svg viewBox="0 0 19 18" fill="none" xmlns="http://www.w3.org/2000/svg">
<path d="M9.62781 0C7.24086 0 4.95167 0.948211 3.26385 2.63604C1.57602 4.32387 0.627808 6.61305 0.627808 9C0.627808 11.3869 1.57602 13.6761 3.26385 15.364C4.95167 17.0518 7.24086 18 9.62781 18C12.0148 18 14.3039 17.0518 15.9918 15.364C17.6796 13.6761 18.6278 11.3869 18.6278 9C18.6278 6.61305 17.6796 4.32387 15.9918 2.63604C14.3039 0.948211 12.0148 0 9.62781 0ZM9.71931 3.85725C10.0568 3.85725 10.3943 3.89025 10.7258 3.95625L9.71931 6.06075C8.09931 6.06 6.78006 7.38 6.78006 9C6.78006 10.62 8.10006 11.94 9.72006 11.94C10.4228 11.94 11.1031 11.6865 11.6348 11.2267L12.7471 13.1558C11.9802 13.7145 11.0736 14.0501 10.1278 14.1254C9.18194 14.2008 8.23369 14.013 7.38798 13.5828C6.54227 13.1526 5.83209 12.4968 5.33602 11.688C4.83996 10.8792 4.57737 9.94884 4.57731 9C4.57731 7.63626 5.11905 6.32837 6.08336 5.36406C7.04768 4.39974 8.35556 3.85725 9.71931 3.85725ZM12.3428 4.22475C12.3493 4.22468 12.3558 4.22468 12.3623 4.22475C12.6826 4.22475 12.9563 4.3095 13.1881 4.47975C13.4206 4.6515 13.5376 4.88925 13.5376 5.18925C13.5376 5.6685 13.2676 5.96175 12.7613 6.22125L12.4786 6.3645C12.1763 6.5175 12.0271 6.65325 11.9858 6.894H13.5233V7.5315H11.1976V7.4235C11.1976 7.029 11.2748 6.7035 11.4331 6.444C11.5913 6.18525 11.8651 5.9565 12.2596 5.75625L12.4411 5.6685C12.7613 5.5065 12.8446 5.36775 12.8446 5.19975C12.8446 5.00025 12.6736 4.85625 12.3946 4.85625C12.0646 4.85625 11.8148 5.02725 11.6416 5.37675L11.1976 4.9305C11.2951 4.72125 11.4511 4.554 11.6618 4.42425C11.8654 4.29465 12.1015 4.22547 12.3428 4.22475ZM10.7723 8.26575H13.3178L14.5906 10.4685L13.3178 12.6735L12.0451 10.4685H9.50031L10.7723 8.26575Z" fill="currentColor"/>
</svg>
