<svg viewBox="0 0 24 28" fill="none" xmlns="http://www.w3.org/2000/svg">
<g clip-path="url(#clip0_9964_2098)">
<path d="M11.7656 12.9766L10.6328 12.3125C10.7109 12.0391 10.75 11.7266 10.75 11.375C10.75 11.0625 10.7109 10.75 10.6328 10.4375L11.7656 9.8125C11.9219 9.69531 12.0391 9.5 11.9609 9.30469C11.6875 8.44531 11.2188 7.70312 10.6328 7.03906C10.5547 6.92188 10.4375 6.88281 10.3594 6.88281C10.2812 6.88281 10.2031 6.92188 10.125 6.96094L8.99219 7.625C8.52344 7.23438 7.97656 6.88281 7.39062 6.6875V5.35938C7.39062 5.16406 7.23438 5.00781 7.03906 4.96875C6.60938 4.85156 6.17969 4.8125 5.75 4.8125C5.28125 4.8125 4.85156 4.85156 4.42188 4.96875C4.22656 5.00781 4.07031 5.16406 4.07031 5.35938V6.6875C3.48438 6.88281 2.9375 7.23438 2.46875 7.625L1.33594 6.96094C1.25781 6.92188 1.17969 6.88281 1.10156 6.88281C1.02344 6.88281 0.90625 6.92188 0.828125 7.03906C0.242188 7.70312 -0.226562 8.44531 -0.5 9.30469C-0.578125 9.5 -0.460938 9.69531 -0.304688 9.8125L0.828125 10.4375C0.75 10.75 0.75 11.0625 0.75 11.375C0.75 11.7266 0.75 12.0391 0.828125 12.3125L-0.304688 12.9766C-0.460938 13.0547 -0.578125 13.2891 -0.5 13.4453C-0.226562 14.3047 0.242188 15.0859 0.828125 15.75C0.90625 15.8281 1.02344 15.8672 1.10156 15.8672C1.17969 15.8672 1.25781 15.8672 1.33594 15.8281L2.46875 15.1641C2.9375 15.5547 3.48438 15.8672 4.07031 16.1016V17.4297C4.07031 17.5859 4.22656 17.7812 4.42188 17.8203C4.85156 17.8984 5.28125 17.9766 5.75 17.9766C6.17969 17.9766 6.60938 17.8984 7.03906 17.8203C7.23438 17.7812 7.39062 17.5859 7.39062 17.4297V16.1016C7.97656 15.8672 8.52344 15.5547 8.99219 15.1641L10.125 15.8281C10.2031 15.8672 10.2812 15.8672 10.3594 15.8672C10.4375 15.8672 10.5547 15.8281 10.6328 15.75C11.2188 15.0859 11.6875 14.3047 11.9609 13.4453C12.0391 13.2891 11.9219 13.0547 11.7656 12.9766ZM5.75 13.25C4.69531 13.25 3.875 12.4297 3.875 11.375C3.875 10.3594 4.69531 9.5 5.75 9.5C6.76562 9.5 7.625 10.3594 7.625 11.375C7.625 12.4297 6.76562 13.25 5.75 13.25ZM24.0312 16.9609C23.9922 16.7656 23.7969 16.6094 23.6406 16.6094H22.2734C22.0781 16.0234 21.7656 15.4766 21.375 15.0078L22.0391 13.875C22.0781 13.7969 22.0781 13.7188 22.0781 13.6406C22.0781 13.5625 22.0391 13.4453 21.9609 13.3672C21.2969 12.7812 20.5156 12.3125 19.6562 12.0391C19.5 11.9609 19.2656 12.0781 19.1875 12.2344L18.5234 13.3672C18.2109 13.2891 17.8984 13.25 17.5859 13.25C17.2734 13.25 16.9609 13.2891 16.6484 13.3672L16.0234 12.2344C15.9062 12.0781 15.7109 11.9609 15.5156 12.0391C14.6562 12.3125 13.875 12.7812 13.25 13.3672C13.1328 13.4453 13.0938 13.5625 13.0938 13.6406C13.0938 13.7188 13.1328 13.7969 13.1719 13.875L13.8359 15.0078C13.4062 15.4766 13.0938 16.0234 12.8984 16.6094H11.5703C11.375 16.6094 11.2188 16.7656 11.1797 16.9609C11.0625 17.3906 11.0234 17.8203 11.0234 18.25C11.0234 18.7188 11.0625 19.1484 11.1797 19.5781C11.2188 19.7734 11.375 19.9297 11.5703 19.9297H12.8984C13.0938 20.5156 13.4062 21.0625 13.8359 21.5312L13.1719 22.6641C13.1328 22.7422 13.0938 22.8203 13.0938 22.8984C13.0938 22.9766 13.1328 23.0938 13.25 23.1719C13.875 23.7578 14.6562 24.2266 15.5156 24.5C15.7109 24.5781 15.9062 24.4609 16.0234 24.3047L16.6484 23.1719C16.9609 23.25 17.2734 23.25 17.5859 23.25C17.8984 23.25 18.2109 23.25 18.5234 23.1719L19.1875 24.3047C19.2656 24.4609 19.5 24.5781 19.6562 24.5C20.5156 24.2266 21.2969 23.7578 21.9609 23.1719C22.0391 23.0938 22.0781 22.9766 22.0781 22.8984C22.0781 22.8203 22.0781 22.7422 22.0391 22.6641L21.375 21.5312C21.7656 21.0625 22.0781 20.5156 22.2734 19.9297H23.6406C23.7969 19.9297 23.9922 19.7734 24.0312 19.5781C24.1094 19.1484 24.1875 18.7188 24.1875 18.25C24.1875 17.8203 24.1094 17.3906 24.0312 16.9609ZM17.5859 20.125C16.5703 20.125 15.7109 19.3047 15.7109 18.25C15.7109 17.2344 16.5703 16.375 17.5859 16.375C18.6406 16.375 19.4609 17.2344 19.4609 18.25C19.4609 19.3047 18.6406 20.125 17.5859 20.125Z" fill="currentColor"/>
</g>
<defs>
<clipPath id="clip0_9964_2098">
<rect width="24" height="28" fill="currentColor"/>
</clipPath>
</defs>
</svg>
