<svg viewBox="0 0 512 512" xmlns="http://www.w3.org/2000/svg"><path d="m200 0h112l17.2 78.4c15.8 6.5 30.6 15.1 44 25.4l76.5-24.4 56 97-59.4 54.1c1.1 8.3 1.7 16.8 1.7 25.4s-.6 17.1-1.7 25.4l59.4 54.1-56 97-76.5-24.4c-13.4 10.3-28.2 18.9-44 25.4l-17.2 78.6h-112l-17.2-78.4c-15.8-6.5-30.6-15.1-44-25.4l-76.5 24.3-56-97 59.4-54.1c-1.1-8.3-1.7-16.8-1.7-25.4s.6-17.1 1.7-25.4l-59.4-54.1 56-97 76.5 24.4c13.4-10.3 28.2-18.9 44-25.4zm87.8 162.6 2.6-15.8-31.6-5.3-2.6 15.8-32 192-2.6 15.8 31.6 5.3 2.6-15.8zm-100.5 64.7 11.3-11.3-22.6-22.6-11.3 11.3-40 40-11.3 11.3 11.3 11.3 40 40 11.3 11.3 22.6-22.6-11.3-11.3-28.7-28.7zm160-22.6-11.3-11.3-22.6 22.6 11.3 11.3 28.7 28.7-28.7 28.7-11.3 11.3 22.6 22.6 11.3-11.3 40-40 11.3-11.3-11.3-11.3z" fill="currentColor"/></svg>