<svg width="42" height="42" viewBox="0 0 42 42" fill="none" xmlns="http://www.w3.org/2000/svg">
<path d="M5.25 19.5681V22.4318C5.25 23.8816 4.07474 25.0568 2.625 25.0568C1.17526 25.0568 0 23.8816 0 22.4318V19.5681C0 18.1184 1.17526 16.9431 2.625 16.9431C4.07474 16.9431 5.25 18.1184 5.25 19.5681Z" fill="currentColor"/>
<path d="M36.7511 19.6428C36.7504 19.6179 36.75 19.593 36.75 19.5681C36.75 18.1184 37.9253 16.9431 39.375 16.9431C40.8247 16.9431 42 18.1184 42 19.5681C42 19.5931 41.9997 19.618 41.9989 19.6428H42V22.5064H41.9989C41.9596 23.9216 40.7998 25.0568 39.375 25.0568C37.9502 25.0568 36.7905 23.9216 36.7511 22.5064H36.75V19.6427L36.7511 19.6428Z" fill="currentColor"/>
<path d="M14.3181 28.1591V31.0227C14.3181 32.4725 13.143 33.6478 11.6931 33.6478C10.2433 33.6478 9.06814 32.4725 9.06814 31.0227V28.159C9.06814 26.7094 10.2434 25.534 11.6931 25.534C13.1429 25.534 14.3181 26.7095 14.3181 28.1591ZM14.3181 10.9773V20.3438C14.2865 21.7659 13.1229 22.9091 11.6931 22.9091C10.2633 22.9091 9.10055 21.7659 9.06888 20.3438L9.06814 10.9773C9.06814 9.52752 10.2434 8.35226 11.6931 8.35226C13.1429 8.35226 14.3181 9.52752 14.3181 10.9773Z" fill="currentColor"/>
<path d="M27.6819 13.8409C27.6819 15.2906 28.857 16.4659 30.3069 16.4659C31.7567 16.4659 32.9319 15.2906 32.9319 13.8409V10.9773C32.9319 9.52752 31.7566 8.35226 30.3069 8.35226C28.8571 8.35226 27.6819 9.52752 27.6819 10.9773V13.8409Z" fill="currentColor"/>
<path d="M18.375 5.48871C18.375 6.93837 19.5503 8.11371 21 8.11371C22.4497 8.11371 23.625 6.93837 23.625 5.48871V2.625C23.625 1.17526 22.4497 0 21 0C19.5503 0 18.375 1.17526 18.375 2.625V5.48871ZM18.375 36.5113C18.375 35.0616 19.5503 33.8863 21 33.8863C22.4497 33.8863 23.625 35.0616 23.625 36.5113V39.375C23.625 40.8247 22.4497 42 21 42C19.5503 42 18.375 40.8247 18.375 39.375V36.5113Z" fill="currentColor"/>
<path d="M27.6819 21.7159C27.6819 20.2662 28.857 19.0909 30.3069 19.0909C31.7567 19.0909 32.9319 20.2662 32.9319 21.7159V31.0227C32.9319 32.4725 31.7566 33.6477 30.3069 33.6477C28.8571 33.6477 27.6819 32.4725 27.6819 31.0227V21.7159Z" fill="currentColor"/>
<path d="M23.625 13.3637V28.6363C23.625 30.0861 22.4497 31.2613 21 31.2613C19.5503 31.2613 18.375 30.0861 18.375 28.6363V13.3637C18.375 11.9139 19.5503 10.7387 21 10.7387C22.4497 10.7387 23.625 11.9139 23.625 13.3637Z" fill="currentColor"/>
</svg>
