<svg width="46" height="41" viewBox="0 0 46 41" fill="none" xmlns="http://www.w3.org/2000/svg">
<path d="M30.2725 32.8903L25.6704 40.8903H13.6179C12.5426 40.8903 11.5496 40.3146 11.015 39.3816L1.26618 22.3845C0.736958 21.4603 0.736958 20.3249 1.26618 19.4008L4.97624 12.9348L9.55534 20.8915L16.4585 32.8903H30.2725Z" fill="white" fill-opacity="0.5"/>
<path d="M45.4671 22.3844L35.7183 39.3842C35.1841 40.3175 34.1908 40.8931 33.1155 40.8926H25.6677L30.2698 32.8926L37.178 20.8914L30.2698 8.89258H39.4384L45.4645 19.4007C45.9984 20.3234 45.9994 21.4608 45.4671 22.3844Z" fill="white" fill-opacity="0.8"/>
<path d="M39.4407 8.89258H16.4585L9.55536 20.8914L4.97626 12.9325L11.015 2.4013C11.5491 1.46788 12.5424 0.892138 13.6179 0.892578H33.1182C34.1931 0.893549 35.1856 1.46892 35.7206 2.4013L39.4407 8.89258Z" fill="white"/>
<path d="M23.3666 26.8922C26.6808 26.8922 29.3674 24.2055 29.3674 20.8914C29.3674 17.5773 26.6808 14.8906 23.3666 14.8906C20.0525 14.8906 17.3659 17.5773 17.3659 20.8914C17.3659 24.2055 20.0525 26.8922 23.3666 26.8922Z" fill="white"/>
</svg>
