<svg viewBox="0 0 24 28" fill="none" xmlns="http://www.w3.org/2000/svg">
<path d="M22.6523 10.0664L12.7383 6.51562C12.2461 6.33984 11.7188 6.33984 11.2266 6.51562L1.3125 10.0664C0.960938 10.207 0.75 10.5234 0.75 10.875C0.75 11.2617 0.960938 11.5781 1.3125 11.7188L3.42188 12.457C3 13.0195 2.68359 13.6523 2.54297 14.3555C2.15625 14.5312 1.875 14.918 1.875 15.375C1.875 15.7266 2.01562 16.043 2.26172 16.2539L1.41797 21.4922C1.34766 21.8438 1.62891 22.125 1.94531 22.125H4.01953C4.37109 22.125 4.61719 21.8438 4.54688 21.4922L3.70312 16.2539C3.94922 16.043 4.125 15.7266 4.125 15.375C4.125 15.0234 3.91406 14.707 3.66797 14.5312C3.80859 13.8984 4.125 13.3359 4.54688 12.8789L11.2266 15.2695C11.7188 15.4453 12.2461 15.4453 12.7383 15.2695L22.6523 11.7188C23.0039 11.5781 23.25 11.2617 23.25 10.875C23.25 10.5234 23.0039 10.207 22.6523 10.0664ZM13.0898 16.3242C12.7383 16.4648 12.3516 16.5 12 16.5C11.6133 16.5 11.2266 16.4648 10.8398 16.3242L5.74219 14.4961L5.25 19.5234C5.25 20.9648 8.23828 22.125 12 22.125C15.6914 22.125 18.75 20.9648 18.75 19.5234L18.2227 14.4961L13.0898 16.3242Z" fill="currentColor"/>
</svg>
