<svg width="1200" height="471" viewBox="0 0 1200 471" fill="none" xmlns="http://www.w3.org/2000/svg">
<g clip-path="url(#clip0_1_2)">
<g opacity="0.6">
<mask id="mask0_1_2" style="mask-type:alpha" maskUnits="userSpaceOnUse" x="0" y="0" width="1200" height="471">
<path d="M0 471L1200 471V0L0 0V471Z" fill="#D9D9D9"/>
</mask>
<g mask="url(#mask0_1_2)">
<g opacity="0.2" filter="url(#filter0_f_1_2)">
<path d="M802.5 378.474C645.099 378.474 517.5 464.478 517.5 570.569C517.5 676.66 645.099 762.664 802.5 762.664C959.901 762.664 1087.5 676.66 1087.5 570.569C1087.5 464.478 959.901 378.474 802.5 378.474Z" fill="#14B5F2"/>
</g>
<g opacity="0.2" filter="url(#filter1_f_1_2)">
<path d="M397.501 362.664C240.1 362.664 112.501 448.668 112.501 554.759C112.501 660.85 240.1 746.854 397.501 746.854C554.902 746.854 682.501 660.85 682.501 554.759C682.501 448.668 554.902 362.664 397.501 362.664Z" fill="#14F0A0"/>
</g>
<g style="mix-blend-mode:overlay">
<path d="M1038.04 471.364H160.545" stroke="url(#paint0_linear_1_2)"/>
</g>
<g style="mix-blend-mode:overlay">
<path d="M1038.04 471.364H160.545" stroke="url(#paint1_linear_1_2)"/>
</g>
</g>
</g>
</g>
<defs>
<filter id="filter0_f_1_2" x="317.5" y="178.474" width="970" height="784.19" filterUnits="userSpaceOnUse" color-interpolation-filters="sRGB">
<feFlood flood-opacity="0" result="BackgroundImageFix"/>
<feBlend mode="normal" in="SourceGraphic" in2="BackgroundImageFix" result="shape"/>
<feGaussianBlur stdDeviation="100" result="effect1_foregroundBlur_1_2"/>
</filter>
<filter id="filter1_f_1_2" x="-87.499" y="162.664" width="970" height="784.19" filterUnits="userSpaceOnUse" color-interpolation-filters="sRGB">
<feFlood flood-opacity="0" result="BackgroundImageFix"/>
<feBlend mode="normal" in="SourceGraphic" in2="BackgroundImageFix" result="shape"/>
<feGaussianBlur stdDeviation="100" result="effect1_foregroundBlur_1_2"/>
</filter>
<linearGradient id="paint0_linear_1_2" x1="-nan" y1="-nan" x2="-nan" y2="-nan" gradientUnits="userSpaceOnUse">
<stop stop-color="white" stop-opacity="0"/>
<stop offset="0.510417" stop-color="white"/>
<stop offset="1" stop-color="white" stop-opacity="0"/>
</linearGradient>
<linearGradient id="paint1_linear_1_2" x1="-nan" y1="-nan" x2="-nan" y2="-nan" gradientUnits="userSpaceOnUse">
<stop stop-color="white" stop-opacity="0"/>
<stop offset="0.510417" stop-color="white"/>
<stop offset="1" stop-color="white" stop-opacity="0"/>
</linearGradient>
<clipPath id="clip0_1_2">
<rect width="1200" height="471" fill="white"/>
</clipPath>
</defs>
</svg>
