<svg width="54" height="43" viewBox="0 0 54 43" fill="none" xmlns="http://www.w3.org/2000/svg">
<path d="M52.4719 31.496C54.1406 30.2679 54.4969 27.9242 53.2688 26.2554C52.0406 24.5867 49.6969 24.2304 48.0281 25.4585L36.8063 33.7273H25.5C24.675 33.7273 24 33.0523 24 32.2273C24 31.4023 24.675 30.7273 25.5 30.7273H27H33C34.6594 30.7273 36 29.3867 36 27.7273C36 26.0679 34.6594 24.7273 33 24.7273H27H25.5H18.1594C15.4312 24.7273 12.7875 25.6554 10.6594 27.3523L6.45 30.7273H3C1.34062 30.7273 0 32.0679 0 33.7273V39.7273C0 41.3867 1.34062 42.7273 3 42.7273H18H33.0469C35.7656 42.7273 38.4188 41.8554 40.6125 40.2429L52.4812 31.496H52.4719ZM18.15 30.7179C18.1541 30.7246 18.1565 30.7323 18.1568 30.7402C18.1572 30.7481 18.1556 30.7559 18.1521 30.763C18.1486 30.7701 18.1434 30.7762 18.137 30.7807C18.1305 30.7853 18.123 30.7881 18.1152 30.789C18.1073 30.7898 18.0994 30.7887 18.0921 30.7857C18.0848 30.7827 18.0784 30.7779 18.0735 30.7717C18.0685 30.7656 18.0652 30.7583 18.0638 30.7505C18.0625 30.7428 18.0631 30.7348 18.0656 30.7273C18.0615 30.7206 18.0592 30.7129 18.0588 30.705C18.0584 30.6971 18.0601 30.6893 18.0635 30.6822C18.067 30.6751 18.0722 30.669 18.0787 30.6645C18.0851 30.66 18.0926 30.6571 18.1004 30.6563C18.1083 30.6554 18.1162 30.6565 18.1235 30.6595C18.1308 30.6625 18.1372 30.6673 18.1422 30.6735C18.1471 30.6796 18.1504 30.6869 18.1518 30.6947C18.1531 30.7025 18.1525 30.7104 18.15 30.7179Z" fill="white"/>
<path opacity="0.3" d="M1.52802 11.9585C-0.140728 13.1867 -0.496978 15.5304 0.731147 17.1992C1.95927 18.8679 4.30302 19.2242 5.97177 17.996L17.1936 9.72729H28.4999C29.3249 9.72729 29.9999 10.4023 29.9999 11.2273C29.9999 12.0523 29.3249 12.7273 28.4999 12.7273H26.9999H20.9999C19.3405 12.7273 17.9999 14.0679 17.9999 15.7273C17.9999 17.3867 19.3405 18.7273 20.9999 18.7273H26.9999H28.4999H35.8405C38.5686 18.7273 41.2124 17.7992 43.3405 16.1023L47.5499 12.7273H50.9999C52.6593 12.7273 53.9999 11.3867 53.9999 9.72729V3.72729C53.9999 2.06792 52.6593 0.727295 50.9999 0.727295H35.9999H20.953C18.2343 0.727295 15.5811 1.59917 13.3874 3.21167L1.52802 11.9585ZM35.8499 12.7367C35.8458 12.7299 35.8434 12.7223 35.8431 12.7144C35.8427 12.7065 35.8443 12.6987 35.8478 12.6916C35.8513 12.6845 35.8565 12.6784 35.8629 12.6739C35.8694 12.6693 35.8769 12.6665 35.8847 12.6656C35.8926 12.6648 35.9005 12.6659 35.9078 12.6689C35.9151 12.6719 35.9215 12.6767 35.9264 12.6829C35.9314 12.689 35.9347 12.6963 35.9361 12.7041C35.9374 12.7118 35.9368 12.7198 35.9343 12.7273C35.9384 12.734 35.9407 12.7417 35.9411 12.7496C35.9415 12.7574 35.9398 12.7653 35.9364 12.7724C35.9329 12.7795 35.9277 12.7856 35.9212 12.7901C35.9148 12.7946 35.9073 12.7975 35.8995 12.7983C35.8916 12.7992 35.8837 12.7981 35.8764 12.7951C35.8691 12.7921 35.8627 12.7873 35.8577 12.7811C35.8528 12.775 35.8495 12.7677 35.8481 12.7599C35.8467 12.7521 35.8474 12.7441 35.8499 12.7367Z" fill="#A9A9AD"/>
<defs>
<linearGradient id="gradient-red-1" x1="8.14286" y1="52.8289" x2="50.5711" y2="49.6203" gradientUnits="userSpaceOnUse">
<stop offset="0.149178" stop-color="#EE028B"/>
<stop offset="1" stop-color="#AE29FF"/>
</linearGradient>
<linearGradient id="gradient-red-2" x1="-6.42857" y1="32.3445" x2="62.7859" y2="20.8659" gradientUnits="userSpaceOnUse">
<stop offset="0.149178" stop-color="#EE028B"/>
<stop offset="1" stop-color="#AE29FF"/>
</linearGradient>
</defs>
</svg>
