<?xml version="1.0" encoding="UTF-8"?> <svg xmlns="http://www.w3.org/2000/svg" width="36" height="36" viewBox="0 0 36 36" fill="none"><path fill-rule="evenodd" clip-rule="evenodd" d="M36 0H0V36H36V0ZM27.5197 28.1617C25.8511 28.1617 24.9077 27.3784 24.1825 26.3128L21.4334 27.7503C22.4265 29.5163 24.4562 30.8638 27.5979 30.8638C30.8111 30.8638 33.2037 29.362 33.2037 26.6209C33.2037 24.0783 31.5808 22.9474 28.7065 21.838L27.8608 21.512C26.4094 20.9463 25.7808 20.5765 25.7808 19.6631C25.7808 18.9241 26.4088 18.3584 27.3997 18.3584C28.3711 18.3584 28.9968 18.7271 29.5768 19.6631L32.2111 18.1408C31.0968 16.3768 29.5505 15.7031 27.3997 15.7031C24.3785 15.7031 22.4454 17.4414 22.4454 19.7248C22.4454 22.2037 24.0671 23.3763 26.5082 24.3123L27.3539 24.6388C28.8968 25.2462 29.8168 25.616 29.8168 26.66C29.8168 27.5312 28.9214 28.1617 27.5197 28.1617ZM14.4094 28.1427C13.2471 28.1427 12.7637 27.4252 12.2322 26.5767L9.47852 28.0771C10.2762 29.5966 11.8448 30.8581 14.5534 30.8581C17.5511 30.8581 19.6048 29.4232 19.6048 26.2707V15.877H16.2219V26.2295C16.2219 27.7513 15.5208 28.1427 14.4094 28.1427Z" fill="#AAB8CD"></path></svg> 