<svg viewBox="0 0 24 28" fill="none" xmlns="http://www.w3.org/2000/svg">
<g clip-path="url(#clip0_9964_1889)">
<path d="M4.5 8.25H19.5V18.25H22V7.625C22 6.60938 21.1406 5.75 20.125 5.75H3.875C2.82031 5.75 2 6.60938 2 7.625V18.25H4.5V8.25ZM23.875 19.5H0.125C-0.226562 19.5 -0.5 19.8125 -0.5 20.125V20.75C-0.5 22.1562 0.59375 23.25 2 23.25H22C23.3672 23.25 24.5 22.1562 24.5 20.75V20.125C24.5 19.8125 24.1875 19.5 23.875 19.5ZM13.7578 15.7109C13.9141 15.8672 14.1094 15.9453 14.3438 15.9453C14.5391 15.9453 14.7344 15.8672 14.8906 15.7109L16.7656 13.8359C17.0391 13.5234 17.0391 13.0156 16.7656 12.7031L14.8906 10.8281C14.5781 10.5547 14.0703 10.5547 13.7578 10.8281C13.4844 11.1406 13.4844 11.6484 13.7578 11.9609L15.0859 13.2891L13.7578 14.5781C13.4844 14.8906 13.4844 15.3984 13.7578 15.7109ZM10.2031 10.8281C9.89062 10.5547 9.38281 10.5547 9.07031 10.8281L7.19531 12.7031C6.92188 13.0156 6.92188 13.5234 7.19531 13.8359L9.07031 15.7109C9.22656 15.8672 9.42188 15.9453 9.65625 15.9453C9.85156 15.9453 10.0469 15.8672 10.2031 15.7109C10.4766 15.3984 10.4766 14.8906 10.2031 14.5781L8.875 13.2891L10.2031 11.9609C10.4766 11.6484 10.4766 11.1406 10.2031 10.8281Z" fill="currentColor"/>
</g>
<defs>
<clipPath id="clip0_9964_1889">
<rect width="24" height="28" fill="currentColor"/>
</clipPath>
</defs>
</svg>
