<svg width="40" height="44" viewBox="0 0 40 44" fill="none" xmlns="http://www.w3.org/2000/svg">
<path d="M39.9975 22.3147C40.0855 16.39 37.8426 10.7948 33.6721 6.56186C29.5016 2.32887 23.9384 0 18.0088 0H0.219887C0.0952845 0 0 0.0951966 0 0.219696V23.4133C0 23.5378 0.0952845 23.6329 0.219887 23.6329H8.97873C9.10334 23.6329 9.19862 23.5378 9.19862 23.4133V9.19099H18.0088C21.4903 9.19099 24.752 10.5678 27.1854 13.0725C29.6188 15.5771 30.9015 18.8727 30.7989 22.3587C30.5937 29.1915 24.7593 34.7574 17.7962 34.7574H9.13998C8.94209 34.7574 8.75885 34.8379 8.61958 34.9771L0.315172 43.3185C0.0879549 43.5529 0.249206 43.941 0.571707 43.941H17.635C29.7801 43.941 39.8143 34.2374 39.9975 22.3074V22.3147Z" fill="url(#paint0_linear_2039_5198)"/>
<defs>
<linearGradient id="paint0_linear_2039_5198" x1="-4.28571" y1="48.7471" x2="42.8838" y2="45.3646" gradientUnits="userSpaceOnUse">
<stop offset="0.149178" stop-color="#EE028B"/>
<stop offset="1" stop-color="#AE29FF"/>
</linearGradient>
</defs>
</svg>
