<svg width="130" height="29" viewBox="0 0 130 29" fill="none" xmlns="http://www.w3.org/2000/svg">
<path fill-rule="evenodd" clip-rule="evenodd" d="M14.8062 4.66618C16.64 6.52749 17.6262 8.98778 17.5875 11.593V11.5897C17.507 16.8356 13.0948 21.1024 7.75438 21.1024H0.251389C0.10958 21.1024 0.0386752 20.9317 0.138586 20.8287L3.79017 17.1608C3.8514 17.0996 3.93198 17.0642 4.019 17.0642H7.82528C10.8871 17.0642 13.4525 14.6168 13.5428 11.6123C13.5879 10.0794 13.0239 8.63033 11.9539 7.529C10.8838 6.42767 9.44964 5.82225 7.91875 5.82225H4.04478V12.076C4.04478 12.1308 4.00288 12.1726 3.94809 12.1726H0.096688C0.0418981 12.1726 0 12.1308 0 12.076V1.87743C0 1.82268 0.0418981 1.78082 0.096688 1.78082H7.91875C10.5261 1.78082 12.9723 2.80486 14.8062 4.66618ZM25.8029 6.96264C21.0845 6.96264 18.9316 10.5758 18.9316 14.1052L18.9284 14.1084C18.9284 17.6121 21.3585 21.3057 26.0769 21.3057C29.4545 21.3057 32.078 19.4251 32.6774 16.4882C32.6903 16.427 32.642 16.369 32.5807 16.369H29.0194C28.9775 16.369 28.9421 16.398 28.9292 16.4399C28.6037 17.5799 27.5917 18.1627 26.0769 18.1627C24.1463 18.1627 22.9055 16.9487 22.6283 14.9908H32.5292C32.5807 14.9908 32.6227 14.9553 32.6259 14.9038C32.6517 14.6076 32.6742 14.2243 32.6742 13.7477C32.6742 10.5758 30.5213 6.96264 25.8029 6.96264ZM25.8029 9.77393C27.6529 9.77393 28.7293 11.0137 28.8389 12.5595H22.6831C23.0151 10.6273 24.0658 9.77393 25.8029 9.77393ZM34.3562 14.1052C34.3562 10.5758 36.5091 6.96264 41.2275 6.96264C45.9459 6.96264 48.0988 10.5758 48.0988 13.7477C48.0988 14.2243 48.0762 14.6076 48.0505 14.9038C48.0472 14.9553 48.0053 14.9908 47.9538 14.9908H38.0529C38.3301 16.9487 39.5709 18.1627 41.5015 18.1627C43.0162 18.1627 44.0282 17.5799 44.3538 16.4399C44.3666 16.398 44.4021 16.369 44.444 16.369H48.0053C48.0666 16.369 48.1149 16.427 48.102 16.4882C47.5026 19.4251 44.8791 21.3057 41.5015 21.3057C36.7831 21.3057 34.353 17.6121 34.353 14.1084L34.3562 14.1052ZM44.2635 12.5595C44.1539 11.0137 43.0775 9.77393 41.2275 9.77393C39.4903 9.77393 38.4397 10.6273 38.1077 12.5595H44.2635ZM53.9747 7.18484H50.3327V7.17839C50.2779 7.17839 50.236 7.22026 50.236 7.27501V26.6063C50.236 26.661 50.2779 26.7029 50.3327 26.7029H53.9747C54.0294 26.7029 54.0713 26.661 54.0713 26.6063V19.8373C54.8158 20.7744 56.1695 21.2993 57.7423 21.2993C61.7451 21.2993 64.4492 18.459 64.4492 14.131C64.4492 9.80292 61.9643 6.96264 58.0452 6.96264C56.25 6.96264 54.8996 7.62601 54.0713 8.70158V7.28144C54.0713 7.2267 54.0294 7.18484 53.9747 7.18484ZM60.6397 14.1342C60.6397 16.4495 59.2893 17.9953 57.2459 17.9953C55.2058 17.9953 53.8522 16.4753 53.8522 14.1342C53.8522 11.793 55.2058 10.2473 57.2459 10.2473C59.286 10.2473 60.6397 11.8188 60.6397 14.1342ZM70.0568 23.7948C70.118 23.7336 70.1986 23.7014 70.2856 23.7014H74.1983C75.3843 23.7014 76.2126 22.7643 76.2126 21.4955V19.6761C75.4939 20.6969 74.0307 21.3023 72.4031 21.3023C68.2906 21.3023 65.8348 18.462 65.8348 14.134C65.8348 9.80595 68.2906 6.96568 72.3483 6.96568C74.0597 6.96568 75.4101 7.60008 76.2126 8.56615V7.28449C76.2126 7.22974 76.2545 7.18787 76.3093 7.18787H79.9512C80.006 7.18787 80.0479 7.22974 80.0479 7.28449V21.9141C80.0479 24.7834 77.9788 26.7123 74.8332 26.7123H67.5397C67.3947 26.7123 67.3238 26.5385 67.4269 26.4386L70.0568 23.8012V23.7948ZM73.0122 17.9919C75.1104 17.9919 76.435 16.4751 76.435 14.1308C76.435 11.7864 75.1104 10.2439 73.0122 10.2439C70.9141 10.2439 69.6185 11.7896 69.6185 14.1308C69.6185 16.4719 70.9721 17.9919 73.0122 17.9919ZM86.71 20.9831V14.3236H86.7132C86.7132 11.9503 87.5673 10.3788 89.4721 10.3788H91.6669C91.7217 10.3788 91.7636 10.3369 91.7636 10.2822V7.27767C91.7636 7.22293 91.7217 7.18106 91.6669 7.18106H90.2166C88.5052 7.18106 87.4545 7.75749 86.71 9.49643V7.27767C86.71 7.22293 86.6681 7.18106 86.6133 7.18106H82.9714C82.9166 7.18106 82.8747 7.22293 82.8747 7.27767V20.9831C82.8747 21.0379 82.9166 21.0797 82.9714 21.0797H86.6133C86.6681 21.0797 86.71 21.0379 86.71 20.9831ZM92.9914 17.1383C92.9914 14.4075 95.0347 12.7523 98.0965 12.7523H100.414C101.104 12.7523 101.461 12.3111 101.461 11.7315C101.461 10.5722 100.578 9.77357 99.0054 9.77357C97.4326 9.77357 96.4851 10.7686 96.4141 11.8893C96.4141 11.9408 96.3722 11.9794 96.3207 11.9794H93.0945C93.0365 11.9794 92.9914 11.9311 92.9946 11.8732C93.1848 9.13596 95.4376 6.95905 99.1988 6.95905C102.731 6.95905 105.297 9.0007 105.297 12.1437V20.9801C105.297 21.0348 105.255 21.0767 105.2 21.0767H101.558C101.503 21.0767 101.461 21.0348 101.461 20.9801V19.1478C100.991 20.4423 99.4469 21.2989 97.5422 21.2989C94.8639 21.2989 92.9882 19.5052 92.9882 17.1351L92.9914 17.1383ZM98.5381 18.5166C100.388 18.5166 101.464 17.1383 101.464 15.3736V15.1804H98.6767C97.4906 15.1804 96.6881 15.8985 96.6881 16.9741C96.6881 17.8854 97.4616 18.5198 98.5381 18.5198V18.5166ZM111.375 7.18484H107.733L107.739 7.18162C107.685 7.18162 107.643 7.22348 107.643 7.27823V20.9837C107.643 21.0384 107.685 21.0803 107.739 21.0803H111.381C111.436 21.0803 111.478 21.0384 111.478 20.9837V13.1939C111.478 11.4002 112.497 10.2151 114.098 10.2151C115.587 10.2151 116.554 11.4002 116.554 13.1939V20.9837C116.554 21.0384 116.596 21.0803 116.651 21.0803H120.293C120.348 21.0803 120.389 21.0384 120.389 20.9837V13.1939C120.389 11.4002 121.408 10.2151 123.01 10.2151C124.499 10.2151 125.466 11.4002 125.466 13.1939V20.9837C125.466 21.0384 125.507 21.0803 125.562 21.0803H129.204C129.259 21.0803 129.301 21.0384 129.301 20.9837V11.9798C129.301 9.1975 127.341 6.96264 124.334 6.96264C122.101 6.96264 120.36 8.1477 119.671 9.50021C119.007 7.84499 117.598 6.96264 115.42 6.96264C113.541 6.96264 112.216 7.87397 111.472 9.14276V7.28144C111.472 7.2267 111.43 7.18484 111.375 7.18484Z" fill="white"/>
</svg>
