<svg viewBox="0 0 24 28" fill="none" xmlns="http://www.w3.org/2000/svg">
<g clip-path="url(#clip0_9964_1970)">
<path d="M18.25 12.125C18.25 13.918 17.668 15.5742 16.6875 16.918L21.6328 21.8672C22.1211 22.3555 22.1211 23.1484 21.6328 23.6367C21.1445 24.125 20.3516 24.125 19.8633 23.6367L14.918 18.6875C13.5742 19.6719 11.918 20.25 10.125 20.25C5.63672 20.25 2 16.6133 2 12.125C2 7.63672 5.63672 4 10.125 4C14.6133 4 18.25 7.63672 18.25 12.125ZM6.0625 12.4375V14.9375C6.0625 15.457 6.48047 15.875 7 15.875C7.51953 15.875 7.9375 15.457 7.9375 14.9375V12.4375C7.9375 11.918 7.51953 11.5 7 11.5C6.48047 11.5 6.0625 11.918 6.0625 12.4375ZM9.1875 8.6875V14.9375C9.1875 15.457 9.60547 15.875 10.125 15.875C10.6445 15.875 11.0625 15.457 11.0625 14.9375V8.6875C11.0625 8.16797 10.6445 7.75 10.125 7.75C9.60547 7.75 9.1875 8.16797 9.1875 8.6875ZM12.3125 11.1875V14.9375C12.3125 15.457 12.7305 15.875 13.25 15.875C13.7695 15.875 14.1875 15.457 14.1875 14.9375V11.1875C14.1875 10.668 13.7695 10.25 13.25 10.25C12.7305 10.25 12.3125 10.668 12.3125 11.1875Z" fill="currentColor"/>
</g>
<defs>
<clipPath id="clip0_9964_1970">
<rect width="20" height="20" fill="currentColor" transform="translate(2 4)"/>
</clipPath>
</defs>
</svg>
