<svg width="42" height="43" viewBox="0 0 42 43" fill="none" xmlns="http://www.w3.org/2000/svg">
<g clip-path="url(#clip0_1440_43910)">
<path d="M41.259 36.8973L31.4398 27.0781C30.2069 28.9074 28.6295 30.4857 26.7993 31.7186L36.6185 41.5378C37.8998 42.8191 39.9777 42.8199 41.259 41.5378C42.5387 40.2605 42.5387 38.177 41.259 36.8973ZM23.8438 15.5938H10.6449C9.62773 15.5938 8.75 16.4715 8.75 17.5625C8.75 18.6535 9.6302 19.5312 10.6449 19.5312H23.7699C24.9348 19.5312 25.8125 18.6535 25.8125 17.5625C25.8125 16.4715 24.9348 15.5938 23.8438 15.5938Z" fill="#88888C"/>
<path opacity="0.3" d="M17.0625 0.5C7.63957 0.5 0 8.13957 0 17.5625C0 26.9854 7.63957 34.625 17.0625 34.625C26.4854 34.625 34.125 26.9879 34.125 17.5625C34.125 8.13711 26.4879 0.5 17.0625 0.5ZM23.625 19.5312H10.4262C9.40898 19.5312 8.53125 18.6535 8.53125 17.5625C8.53125 16.4715 9.41227 15.5938 10.4262 15.5938H23.5512C24.716 15.5938 25.5938 16.4715 25.5938 17.5625C25.5938 18.6535 24.716 19.5312 23.625 19.5312Z" fill="#88888C"/>
</g>
<defs>
<clipPath id="clip0_1440_43910">
<rect width="42" height="42" fill="white" transform="translate(0 0.5)"/>
</clipPath>
</defs>
</svg>
