<svg viewBox="0 0 24 28" fill="none" xmlns="http://www.w3.org/2000/svg">
<path d="M12 18.25C14.0703 18.25 15.75 16.6094 15.75 14.5H12.625C12.2734 14.5 12 14.2266 12 13.875C12 13.5625 12.2734 13.25 12.625 13.25H15.75V12H12.625C12.2734 12 12 11.7266 12 11.375C12 11.0625 12.2734 10.75 12.625 10.75H15.75V9.5H12.625C12.2734 9.5 12 9.22656 12 8.875C12 8.5625 12.2734 8.25 12.625 8.25H15.75C15.75 6.17969 14.0703 4.5 12 4.5C9.89062 4.5 8.25 6.17969 8.25 8.25V14.5C8.25 16.6094 9.89062 18.25 12 18.25ZM17.9375 12C17.3906 12 17 12.4297 17 12.9375V14.5C17 17.3906 14.5781 19.6953 11.6484 19.5C9.07031 19.3438 7 16.9219 7 14.3047V12.9375C7 12.4297 6.57031 12 6.0625 12C5.51562 12 5.125 12.4297 5.125 12.9375V14.2266C5.125 17.7031 7.58594 20.8281 11.0625 21.2969V22.625H9.5C8.75781 22.625 8.21094 23.25 8.25 23.9531C8.25 24.2656 8.52344 24.5 8.875 24.5H15.125C15.4375 24.5 15.7109 24.2656 15.7109 23.9531C15.75 23.25 15.2031 22.625 14.5 22.625H12.9375V21.3359C16.2578 20.8672 18.875 17.9766 18.875 14.5V12.9375C18.875 12.4297 18.4453 12 17.9375 12Z" fill="currentColor"/>
</svg>
