<svg viewBox="0 0 24 28" fill="none" xmlns="http://www.w3.org/2000/svg">
<path d="M13.2891 6.88281C12.3516 7.82031 11.9609 9.07031 12 10.2812L16.2188 14.5C17.4297 14.5391 18.6797 14.1484 19.6172 13.2109L19.6953 13.1328L13.3672 6.80469L13.2891 6.88281ZM2.23438 21.0625C1.88281 21.4531 1.88281 22.0781 2.27344 22.4688L4.03125 24.2266C4.42188 24.6172 5.04688 24.6172 5.4375 24.2656L10.75 19.5781V23.875C10.75 24.2266 11.0234 24.5 11.375 24.5H12.625C12.9375 24.5 13.25 24.2266 13.25 23.875V17.3906L15.4375 15.4375L11.0625 11.0625L2.23438 21.0625ZM20.6719 5.82812C18.9141 4.07031 16.1016 4.07031 14.3438 5.82812L14.2656 5.90625L20.5938 12.2344L20.6719 12.1562C22.4297 10.3984 22.4297 7.58594 20.6719 5.82812Z" fill="white"/>
</svg>
