<?xml version="1.0" encoding="UTF-8"?> <svg xmlns="http://www.w3.org/2000/svg" width="36" height="36" viewBox="0 0 36 36" fill="none"><path fill-rule="evenodd" clip-rule="evenodd" d="M0 0H36V36H0V0ZM16.1533 24.0709H14.0625L8.55426 15.3809C8.41489 15.161 8.29957 14.9328 8.20849 14.6965H8.16021C8.2031 14.9494 8.22455 15.4908 8.22455 16.3207V24.0709H6.375V12.2478H8.60244L13.9258 20.7317C14.151 21.0836 14.2958 21.3254 14.3601 21.4573H14.3922C14.3387 21.144 14.3118 20.6136 14.3118 19.866V12.2478H16.1533V24.0709ZM3.29857 24.2524C2.97692 24.2524 2.70352 24.1453 2.47836 23.9309C2.2532 23.711 2.14062 23.4499 2.14062 23.1477C2.14062 22.8398 2.2532 22.576 2.47836 22.3562C2.70352 22.1363 2.97692 22.0264 3.29857 22.0264C3.62559 22.0264 3.90167 22.1363 4.12683 22.3562C4.35735 22.576 4.47261 22.8398 4.47261 23.1477C4.47261 23.4499 4.35735 23.711 4.12683 23.9309C3.90167 24.1453 3.62559 24.2524 3.29857 24.2524ZM25.1607 24.0709H18.6875V12.2478H24.9035V13.9133H20.6014V17.2606H24.5658V18.9179H20.6014V22.4137H25.1607V24.0709ZM34.3756 13.9133H31.0626V24.0709H29.1487V13.9133H25.8438V12.2478H34.3756V13.9133Z" fill="#ABB9CE"></path></svg> 