<svg width="40" height="41" viewBox="0 0 40 41" fill="none" xmlns="http://www.w3.org/2000/svg">
<path opacity="0.8" d="M37.0938 17.261C37.541 15.9141 37.6957 14.4873 37.5475 13.0759C37.3993 11.6645 36.9516 10.3009 36.2343 9.07635C35.1709 7.22539 33.5472 5.75995 31.5973 4.89129C29.6473 4.02263 27.4719 3.79563 25.3846 4.24303C24.1988 2.92397 22.6868 1.94015 21.0004 1.39039C19.3141 0.840625 17.5127 0.74427 15.7773 1.111C14.0419 1.47773 12.4336 2.29464 11.1138 3.47967C9.79403 4.6647 8.80931 6.17614 8.25853 7.86218C6.86798 8.14733 5.5543 8.72599 4.4053 9.5595C3.2563 10.393 2.29843 11.4622 1.59572 12.6955C0.520779 14.5434 0.0613572 16.6852 0.283873 18.8114C0.506389 20.9376 1.39931 22.9379 2.83355 24.5231C2.38466 25.8694 2.22842 27.2959 2.3753 28.7074C2.52217 30.1188 2.96877 31.4827 3.68521 32.7076C4.74994 34.5592 6.37507 36.025 8.32638 36.8937C10.2777 37.7623 12.4544 37.989 14.5428 37.5411C15.4849 38.602 16.6425 39.4497 17.9383 40.0277C19.2342 40.6056 20.6383 40.9004 22.0572 40.8924C24.1965 40.8944 26.2812 40.2165 28.0103 38.9566C29.7393 37.6966 31.0233 35.9199 31.6768 33.8828C33.0672 33.5971 34.3807 33.0182 35.5296 32.1848C36.6785 31.3513 37.6365 30.2823 38.3396 29.0493C39.4018 27.2041 39.8534 25.0703 39.6296 22.9531C39.4058 20.8358 38.5182 18.8433 37.0938 17.261ZM22.0572 38.2744C20.305 38.2772 18.6078 37.6631 17.2632 36.5398L17.4997 36.4058L25.4635 31.8088C25.6617 31.6925 25.8263 31.5267 25.941 31.3276C26.0557 31.1286 26.1167 30.9031 26.118 30.6733V19.4451L29.4846 21.3928C29.5013 21.4012 29.5157 21.4135 29.5267 21.4285C29.5377 21.4436 29.545 21.4611 29.548 21.4795V30.7838C29.5437 32.7692 28.7532 34.672 27.3493 36.0759C25.9454 37.4797 24.0425 38.2702 22.0572 38.2744ZM5.95604 31.3988C5.07733 29.8815 4.76183 28.1029 5.06504 26.376L5.30171 26.518L13.2733 31.1149C13.4706 31.2307 13.6952 31.2917 13.9238 31.2917C14.1525 31.2917 14.3771 31.2307 14.5743 31.1149L24.3123 25.5008V29.3881C24.3114 29.4083 24.306 29.4279 24.2964 29.4457C24.2868 29.4634 24.2733 29.4788 24.257 29.4906L16.1907 34.1428C14.4692 35.1345 12.4246 35.4025 10.5057 34.888C8.58682 34.3735 6.95051 33.1186 5.95604 31.3988ZM3.85871 14.0518C4.74351 12.5248 6.14009 11.3601 7.8012 10.7638V20.2258C7.7982 20.4544 7.85661 20.6796 7.97033 20.8779C8.08404 21.0763 8.2489 21.2404 8.4477 21.3533L18.1383 26.9438L14.7715 28.8913C14.7533 28.901 14.733 28.906 14.7123 28.906C14.6917 28.906 14.6714 28.901 14.6532 28.8913L6.6027 24.2471C4.88448 23.2512 3.63096 21.6149 3.11666 19.6966C2.60235 17.7783 2.86918 15.7344 3.85871 14.0125V14.0518ZM31.5191 20.4781L21.797 14.8325L25.156 12.8925C25.1742 12.8828 25.1945 12.8778 25.2151 12.8778C25.2358 12.8778 25.2561 12.8828 25.2743 12.8925L33.3248 17.5447C34.5557 18.2549 35.5592 19.3007 36.218 20.5598C36.8769 21.819 37.164 23.2396 37.0458 24.6558C36.9276 26.072 36.4089 27.4254 35.5504 28.5579C34.6919 29.6904 33.5289 30.5553 32.1973 31.0516V21.5896C32.1903 21.3614 32.1241 21.139 32.0052 20.9441C31.8863 20.7492 31.7189 20.5887 31.5191 20.4781ZM34.8703 15.4397L34.6336 15.2977L26.6778 10.6613C26.4794 10.5449 26.2534 10.4835 26.0233 10.4835C25.7932 10.4835 25.5673 10.5449 25.3688 10.6613L15.639 16.2753V12.3882C15.6369 12.3684 15.6402 12.3484 15.6486 12.3304C15.6569 12.3124 15.67 12.2969 15.6863 12.2857L23.7368 7.64135C24.9707 6.93055 26.3814 6.58575 27.804 6.64728C29.2266 6.70882 30.6023 7.17414 31.7702 7.98882C32.9381 8.80351 33.8498 9.93388 34.3988 11.2477C34.9479 12.5616 35.1114 14.0046 34.8705 15.408L34.8703 15.4397ZM13.8015 22.3308L10.4349 20.3911C10.418 20.381 10.4036 20.3673 10.3927 20.351C10.3817 20.3346 10.3745 20.3161 10.3715 20.2966V11.0162C10.3734 9.59247 10.7805 8.19871 11.5453 6.99785C12.3101 5.79699 13.4009 4.83867 14.6902 4.23493C15.9796 3.63118 17.4142 3.40696 18.8263 3.58849C20.2384 3.77002 21.5696 4.3498 22.6643 5.26003L22.4277 5.39419L14.464 9.99084C14.2658 10.1071 14.1012 10.2729 13.9865 10.472C13.8717 10.6711 13.8108 10.8966 13.8095 11.1263L13.8015 22.3308ZM15.6308 18.3885L19.9675 15.8888L24.3123 18.3885V23.3875L19.9833 25.887L15.6388 23.3875L15.6308 18.3885Z" fill="white"/>
</svg>
