<svg width="16" height="17" viewBox="0 0 16 17" fill="none" xmlns="http://www.w3.org/2000/svg">
<path d="M13.6562 9.78128C13.9688 9.50003 14.0625 9.06253 13.9062 8.65628C13.7812 8.28128 13.4062 8.03128 12.9688 8.03128H9.5L11.9062 2.40628C12.0938 1.96878 11.9375 1.46878 11.5625 1.21878C11.1875 0.937531 10.6875 0.968781 10.3125 1.25003L2.3125 8.25003C2 8.53128 1.90625 8.96878 2.0625 9.37503C2.1875 9.75003 2.5625 10.0313 3 10.0313H6.46875L4.0625 15.625C3.875 16.0625 4.03125 16.5625 4.40625 16.8125C4.5625 16.9375 4.78125 17 5 17C5.21875 17 5.46875 16.9375 5.65625 16.7813L13.6562 9.78128Z" fill="#A9A9AD"/>
</svg>
