<svg viewBox="0 0 24 28" fill="none" xmlns="http://www.w3.org/2000/svg">
<path d="M23.25 13.7227C23.25 13.4062 22.9688 13.1602 22.6875 13.1602H17.625C17.168 13.1602 16.7812 13.3711 16.6055 13.7578L15.6562 15.6211L13.0547 6.09375C12.9492 5.60156 12.457 5.25 11.9648 5.28516C11.4375 5.28516 10.9805 5.63672 10.875 6.16406L8.44922 17.5195L7.42969 13.9688C7.28906 13.4766 6.86719 13.1602 6.375 13.1602H1.3125C0.996094 13.1602 0.75 13.4062 0.75 13.7227V14.8477C0.75 15.1289 0.996094 15.4102 1.3125 15.4102H5.49609L7.53516 22.4414C7.67578 22.9336 8.09766 23.25 8.625 23.25H8.66016C9.15234 23.25 9.60938 22.8633 9.71484 22.3711L12.1055 11.1562L14.2852 19.0664C14.3906 19.5234 14.7773 19.8398 15.2344 19.875C15.6914 19.9453 16.1484 19.6992 16.3594 19.2773L18.293 15.4102H22.6875C22.9688 15.4102 23.25 15.1289 23.25 14.8477V13.7227Z" fill="currentColor"/>
</svg>
