<svg width="20" height="20" viewBox="0 0 20 20" fill="none" xmlns="http://www.w3.org/2000/svg">
<path fill-rule="evenodd" clip-rule="evenodd" d="M8.13524 1.25C6.76208 1.25 5.64891 2.32783 5.64891 3.65741V5.32407H9.95218V5.78703H3.73634C2.36317 5.78703 1.25 6.86487 1.25 8.19444L1.25 11.8056C1.25 13.1351 2.36317 14.213 3.73634 14.213H5.17076V12.1759C5.17076 10.8463 6.28393 9.76851 7.6571 9.76851H12.2473C13.4092 9.76851 14.3511 8.8565 14.3511 7.73148V3.65741C14.3511 2.32783 13.2379 1.25 11.8647 1.25H8.13524ZM7.56147 4.21296C8.0368 4.21296 8.42213 3.83987 8.42213 3.37963C8.42213 2.91939 8.0368 2.5463 7.56147 2.5463C7.08615 2.5463 6.70082 2.91939 6.70082 3.37963C6.70082 3.83987 7.08615 4.21296 7.56147 4.21296Z" fill="url(#paint0_linear_806_6080)"/>
<path fill-rule="evenodd" clip-rule="evenodd" d="M11.8643 18.7501C13.2374 18.7501 14.3506 17.6722 14.3506 16.3427V14.676L10.0473 14.676L10.0473 14.213L16.2632 14.213C17.6364 14.213 18.7495 13.1352 18.7495 11.8056V8.19452C18.7495 6.86494 17.6364 5.78711 16.2632 5.78711L14.8288 5.78711V7.82415C14.8288 9.15372 13.7156 10.2316 12.3424 10.2316L7.75226 10.2316C6.59035 10.2316 5.64844 11.1436 5.64844 12.2686L5.64844 16.3427C5.64844 17.6722 6.76161 18.7501 8.13477 18.7501H11.8643ZM12.4381 15.7871C11.9627 15.7871 11.5774 16.1602 11.5774 16.6204C11.5774 17.0807 11.9627 17.4538 12.4381 17.4538C12.9134 17.4538 13.2987 17.0807 13.2987 16.6204C13.2987 16.1602 12.9134 15.7871 12.4381 15.7871Z" fill="url(#paint1_linear_806_6080)"/>
<defs>
<linearGradient id="paint0_linear_806_6080" x1="7.80054" y1="1.25" x2="7.80054" y2="14.213" gradientUnits="userSpaceOnUse">
<stop stop-color="#327EBD"/>
<stop offset="1" stop-color="#1565A7"/>
</linearGradient>
<linearGradient id="paint1_linear_806_6080" x1="12.199" y1="5.78711" x2="12.199" y2="18.7501" gradientUnits="userSpaceOnUse">
<stop stop-color="#FFDA4B"/>
<stop offset="1" stop-color="#F9C600"/>
</linearGradient>
</defs>
</svg>

