<?xml version="1.0" encoding="UTF-8"?> <svg xmlns="http://www.w3.org/2000/svg" width="36" height="36" viewBox="0 0 36 36" fill="none"><path d="M21.5017 0C21.659 0.025783 21.8164 0.0515665 21.9717 0.0773496C22.8686 0.226098 23.6849 0.56921 24.4146 1.11264C25.5829 1.98133 26.3421 3.12768 26.6745 4.55963C26.7728 4.98604 26.8161 5.41642 26.8181 5.85275C26.82 7.77854 26.8279 9.70434 26.8161 11.6301C26.8043 13.4131 26.1179 14.8947 24.7903 16.0688C24.0251 16.7451 23.1342 17.1834 22.133 17.3718C21.7613 17.4412 21.3797 17.4789 21.0021 17.4809C18.9742 17.4908 16.9464 17.4749 14.9186 17.4908C13.2428 17.5047 11.7657 18.0799 10.499 19.1905C9.52348 20.0473 8.84688 21.1044 8.46334 22.3499C8.25682 23.0163 8.16635 23.7006 8.16438 24.3967C8.16241 25.0869 8.16438 25.7771 8.16438 26.4673C8.16438 26.5069 8.16438 26.5466 8.16438 26.5902C8.14078 26.5942 8.12307 26.6021 8.10341 26.6021C7.31076 26.6021 6.51812 26.6081 5.72547 26.5982C4.6968 26.5863 3.73894 26.3126 2.85386 25.781C2.05334 25.2991 1.40035 24.6625 0.900764 23.8672C0.328407 22.9548 0.0156768 21.9572 0.00977625 20.8783C-0.00202491 18.899 -0.00202467 16.9216 0.00387591 14.9423C0.00584277 13.8633 0.287104 12.8578 0.845692 11.9356C1.41411 10.9994 2.18119 10.2755 3.14692 9.76582C3.78418 9.42866 4.46275 9.22437 5.17672 9.14504C5.40094 9.12124 5.62713 9.11331 5.85332 9.11331C9.80671 9.11133 13.7621 9.11133 17.7155 9.11133C17.7646 9.11133 17.8118 9.11133 17.8649 9.11133C17.8649 8.81383 17.8649 8.52625 17.8649 8.23074C14.9756 8.23074 12.0863 8.23074 9.19501 8.23074C9.19108 8.199 9.18715 8.17719 9.18715 8.15537C9.18911 7.2966 9.17928 6.43782 9.19698 5.57905C9.21468 4.78573 9.41334 4.03009 9.76147 3.31609C10.3338 2.13603 11.1992 1.24354 12.3558 0.638626C12.9714 0.31733 13.6244 0.117015 14.3128 0.0396662C14.3757 0.031733 14.4387 0.0158667 14.5016 0.00396686C16.8343 2.42044e-07 19.169 0 21.5017 0ZM13.0324 2.57235C12.1119 2.5664 11.3448 3.32799 11.3389 4.2542C11.333 5.20024 12.0843 5.96778 13.0245 5.97571C13.945 5.98563 14.7121 5.21611 14.718 4.28197C14.7239 3.34386 13.9725 2.58029 13.0324 2.57235Z" fill="#AAB8CD"></path><path d="M27.8474 9.39729C27.8946 9.39729 27.928 9.39729 27.9634 9.39729C28.6931 9.39729 29.4248 9.39332 30.1545 9.39927C31.4074 9.40919 32.5521 9.76222 33.5729 10.502C34.3833 11.0891 35.0048 11.8368 35.4355 12.7412C35.7069 13.3104 35.8879 13.9093 35.9508 14.54C35.9764 14.7959 35.998 15.0517 35.998 15.3095C36.002 17.1957 36 19.0818 36 20.9679C36 21.8862 35.8191 22.7648 35.4159 23.5899C34.9753 24.4923 34.3478 25.234 33.5355 25.8171C32.8688 26.2951 32.1312 26.6104 31.3327 26.777C30.9452 26.8584 30.5498 26.8861 30.1545 26.8861C26.1932 26.8841 22.232 26.8841 18.2707 26.8841C18.2294 26.8841 18.1862 26.8841 18.135 26.8841C18.135 27.1816 18.135 27.4712 18.135 27.7727C21.0263 27.7727 23.9137 27.7727 26.8069 27.7727C26.8089 27.8084 26.8108 27.8341 26.8108 27.8599C26.8108 28.679 26.8148 29.4981 26.8069 30.3172C26.799 31.1383 26.6024 31.9178 26.2542 32.6595C25.9612 33.2823 25.5717 33.8356 25.082 34.3156C24.2362 35.1486 23.2331 35.6841 22.0668 35.9022C21.699 35.9717 21.3292 35.9994 20.9555 35.9994C18.9139 35.9974 16.8723 36.0034 14.8327 35.9955C14.0774 35.9915 13.3536 35.815 12.6612 35.5096C11.9728 35.2061 11.3671 34.7817 10.8439 34.2402C10.0178 33.3854 9.4887 32.368 9.28021 31.1919C9.22121 30.8567 9.19564 30.5116 9.19367 30.1705C9.18581 28.2209 9.18581 26.2713 9.19171 24.3237C9.19367 23.0782 9.56738 21.9497 10.2931 20.9421C11.0386 19.9069 12.0181 19.1909 13.2238 18.7942C13.7863 18.6078 14.3645 18.5166 14.9566 18.5166C17.0277 18.5146 19.0988 18.5225 21.1679 18.5106C22.0923 18.5066 22.9755 18.2924 23.8192 17.9097C24.5785 17.5646 25.2531 17.0945 25.8412 16.5015C26.5296 15.8073 27.0488 15.0021 27.397 14.0839C27.5976 13.5543 27.7471 13.0089 27.7884 12.4437C27.8238 11.9637 27.8356 11.4818 27.8434 11.0018C27.8533 10.506 27.8454 10.0101 27.8454 9.51431C27.8474 9.47662 27.8474 9.44291 27.8474 9.39729ZM22.9735 33.4231C23.8763 33.437 24.6493 32.6794 24.665 31.7651C24.6807 30.8051 23.9373 30.0198 22.9814 30.0178C22.0176 30.0178 21.3213 30.7734 21.2859 31.654C21.2466 32.6417 22.0432 33.437 22.9735 33.4231Z" fill="#AAB8CD"></path></svg> 