<svg width="42" height="48" viewBox="0 0 42 48" fill="none" xmlns="http://www.w3.org/2000/svg">
<path d="M9 21C7.9425 21 6.94219 21.2156 6 21.5531V21C6 17.6906 8.69063 15 12 15C13.6566 15 15 13.6566 15 12C15 10.3434 13.6594 9 12 9C5.38312 9 0 14.3813 0 21V30C0 34.9706 4.02938 39 9 39C13.9706 39 18 34.9706 18 30C18 25.0294 13.9688 21 9 21Z" fill="url(#paint0_linear_2009_252)"/>
<path opacity="0.4" d="M33 21C31.9425 21 30.9422 21.2161 30 21.5512V21C30 17.6906 32.6906 15 36 15C37.6566 15 39 13.6566 39 12C39 10.3434 37.6566 9 36 9C29.3831 9 24 14.3831 24 21V30C24 34.9706 28.0294 39 33 39C37.9706 39 42 34.9706 42 30C42 25.0294 37.9688 21 33 21Z" fill="url(#paint1_linear_2009_252)"/>
<defs>
<linearGradient id="paint0_linear_2009_252" x1="-1.92857" y1="42.2812" x2="19.3593" y2="41.2751" gradientUnits="userSpaceOnUse">
<stop offset="0.149178" stop-color="#EE028B"/>
<stop offset="1" stop-color="#AE29FF"/>
</linearGradient>
<linearGradient id="paint1_linear_2009_252" x1="22.0714" y1="42.2812" x2="43.3593" y2="41.2751" gradientUnits="userSpaceOnUse">
<stop offset="0.149178" stop-color="#EE028B"/>
<stop offset="1" stop-color="#AE29FF"/>
</linearGradient>
</defs>
</svg>
