<svg fill="none" height="14" viewBox="0 0 40 40" width="14" xmlns="http://www.w3.org/2000/svg"><path d="m35 37.5h-30c-2.75781 0-5-2.2422-5-5v-25c0-2.75781 2.24219-5 5-5h10c1.5703 0 3.0547.74219 4 2l1.5 2c.4687.63281 1.2109 1 2 1h12.5c2.7578 0 5 2.24219 5 5v20c0 2.7578-2.2422 5-5 5zm-8.75-16.25c0-4.1406-3.3594-7.5-7.5-7.5s-7.5 3.3594-7.5 7.5 3.3594 7.5 7.5 7.5c1.3906 0 2.6875-.375 3.8047-1.0313l2.9922 2.9922c.7343.7344 1.9218.7344 2.6484 0 .7266-.7343.7344-1.9218 0-2.6484l-2.9922-2.9922c.6641-1.1172 1.0391-2.4219 1.0391-3.8203zm-7.5-3.75c.9946 0 1.9484.3951 2.6517 1.0983.7032.7033 1.0983 1.6571 1.0983 2.6517s-.3951 1.9484-1.0983 2.6517c-.7033.7032-1.6571 1.0983-2.6517 1.0983s-1.9484-.3951-2.6517-1.0983c-.7032-.7033-1.0983-1.6571-1.0983-2.6517s.3951-1.9484 1.0983-2.6517c.7033-.7032 1.6571-1.0983 2.6517-1.0983z" fill="#149afb"/></svg>