<svg width="14" height="14" viewBox="0 0 40 40" fill="none" xmlns="http://www.w3.org/2000/svg">
<path d="M7.5 7.84848C7.5 5.17424 9.74219 3 12.5 3H35C37.7578 3 40 5.17424 40 7.84848V32.0909C40 34.7651 37.7578 36.9394 35 36.9394H6.25C2.79687 36.9394 0 34.2273 0 30.8788V10.2727C0 8.93182 1.11719 7.84848 2.5 7.84848C3.88281 7.84848 5 8.93182 5 10.2727V30.8788C5 31.5455 5.5625 32.0909 6.25 32.0909C6.9375 32.0909 7.5 31.5455 7.5 30.8788V7.84848ZM12.5 9.66667V15.7273C12.5 16.7348 13.3359 17.5455 14.375 17.5455H23.125C24.1641 17.5455 25 16.7348 25 15.7273V9.66667C25 8.65909 24.1641 7.84848 23.125 7.84848H14.375C13.3359 7.84848 12.5 8.65909 12.5 9.66667ZM28.75 9.06061C28.75 9.72727 29.3125 10.2727 30 10.2727H33.75C34.4375 10.2727 35 9.72727 35 9.06061C35 8.39394 34.4375 7.84848 33.75 7.84848H30C29.3125 7.84848 28.75 8.39394 28.75 9.06061ZM28.75 16.3333C28.75 17 29.3125 17.5455 30 17.5455H33.75C34.4375 17.5455 35 17 35 16.3333C35 15.6667 34.4375 15.1212 33.75 15.1212H30C29.3125 15.1212 28.75 15.6667 28.75 16.3333ZM12.5 23.6061C12.5 24.2727 13.0625 24.8182 13.75 24.8182H33.75C34.4375 24.8182 35 24.2727 35 23.6061C35 22.9394 34.4375 22.3939 33.75 22.3939H13.75C13.0625 22.3939 12.5 22.9394 12.5 23.6061ZM12.5 30.8788C12.5 31.5455 13.0625 32.0909 13.75 32.0909H33.75C34.4375 32.0909 35 31.5455 35 30.8788C35 30.2121 34.4375 29.6667 33.75 29.6667H13.75C13.0625 29.6667 12.5 30.2121 12.5 30.8788Z" fill="#AE63F9"/>
</svg>
