<svg width="48" height="49" viewBox="0 0 48 49" fill="none" xmlns="http://www.w3.org/2000/svg">
<path d="M20.972 37.468C20.597 32.143 16.3688 28.0367 11.1001 27.7461C13.1063 23.2555 16.5751 15.8773 19.4251 11.668C27.1032 0.345773 38.5407 -0.0359768 45.3657 1.22187C46.4626 1.4224 47.3064 2.26765 47.5032 3.35796C48.7595 10.1867 48.3845 21.6242 37.0595 29.3023C32.8688 32.1336 25.5188 35.4992 20.972 37.468ZM36.0001 8.97734C33.9282 8.97734 32.2501 10.6555 32.2501 12.7273C32.2501 14.7992 33.9282 16.4773 36.0001 16.4773C38.072 16.4773 39.7501 14.7992 39.7501 12.7273C39.7501 10.6555 38.072 8.97734 36.0001 8.97734Z" fill="white"/>
<path opacity="0.3" d="M2.16566 27.7273C1.43722 27.7273 0.687594 27.2867 0.289063 26.5835C-0.109469 25.871 -0.0950311 24.9242 0.326938 24.3054L5.27441 16.1679C6.49784 14.1523 8.68503 12.9148 11.0438 12.9148H18.6188C15.9469 17.2179 12.9282 23.6492 11.1094 27.7273H2.16566ZM35.7282 37.6835C35.7282 40.046 34.575 42.2304 32.5594 43.4585L24.4219 48.3992C23.7188 48.821 22.8563 48.8398 22.1438 48.4367C21.4407 48.0429 20.9157 47.2929 20.9157 46.4773V37.4585C25.1157 35.6773 31.5375 32.7429 35.7282 30.1085V37.6835ZM15.6094 44.7898C10.9688 49.4304 0.0447033 48.6804 0.0447033 48.6804C0.0447033 48.6804 -0.704593 37.6742 3.93566 33.1179C7.15972 29.8929 12.3844 29.8929 15.6094 33.1179C18.8344 36.3429 18.8344 41.5648 15.6094 44.7898ZM11.2313 37.496C10.1532 36.4273 8.41972 36.4273 7.34816 37.496C5.80503 39.0429 6.05441 42.671 6.05441 42.671C6.05441 42.671 9.68441 42.9242 11.2313 41.3773C12.3 40.3085 12.3 38.5742 11.2313 37.496Z" fill="#A9A9AD"/>
<defs>
<linearGradient id="gradient-red-1" x1="8.14286" y1="52.8289" x2="50.5711" y2="49.6203" gradientUnits="userSpaceOnUse">
<stop offset="0.149178" stop-color="#EE028B"/>
<stop offset="1" stop-color="#AE29FF"/>
</linearGradient>
<linearGradient id="gradient-red-2" x1="-6.42857" y1="32.3445" x2="62.7859" y2="20.8659" gradientUnits="userSpaceOnUse">
<stop offset="0.149178" stop-color="#EE028B"/>
<stop offset="1" stop-color="#AE29FF"/>
</linearGradient>
</defs>
</svg>
