<svg width="16" height="16" viewBox="0 0 16 16" fill="none" xmlns="http://www.w3.org/2000/svg">
<path d="M15.5938 10.375C15.5938 10.2188 15.5 10.0313 15.3438 9.93753L13.875 9.12503C13.9375 8.75003 14 8.37503 14 8.00003C14 7.65628 13.9375 7.28128 13.875 6.90628L15.3438 6.09378C15.5 6.00003 15.5938 5.81253 15.5938 5.62503C15.5938 5.18753 14.2812 2.53128 13.5938 2.53128C13.5 2.53128 13.4062 2.56253 13.3438 2.62503L11.875 3.46878C11.3125 2.96878 10.6875 2.62503 10 2.37503V0.687531C10 0.437531 9.8125 0.218781 9.59375 0.187531C9.0625 0.0625305 8.53125 3.05176e-05 8 3.05176e-05C7.4375 3.05176e-05 6.90625 0.0625305 6.375 0.187531C6.15625 0.250031 6 0.437531 6 0.687531V2.37503C5.28125 2.62503 4.65625 2.96878 4.09375 3.46878L2.625 2.62503C2.5625 2.56253 2.46875 2.53128 2.375 2.53128C1.75 2.53128 0.375 5.09378 0.375 5.62503C0.375 5.81253 0.46875 6.00003 0.625 6.09378L2.09375 6.90628C2.03125 7.28128 2 7.62503 2 8.00003C2 8.37503 2.03125 8.75003 2.09375 9.12503L0.625 9.93753C0.46875 10.0313 0.375 10.2188 0.375 10.375C0.375 10.8438 1.6875 13.5 2.375 13.5C2.46875 13.5 2.5625 13.4688 2.625 13.4063L4.09375 12.5625C4.65625 13.0313 5.28125 13.4063 6 13.6563V15.3438C6 15.5938 6.15625 15.7813 6.375 15.8438C6.90625 15.9375 7.4375 16 7.96875 16C8.46875 16 9.03125 15.9688 9.5625 15.8438C9.8125 15.7813 10 15.5938 10 15.3438V13.6563C10.6875 13.4063 11.3125 13.0313 11.875 12.5625L13.3438 13.4063C13.4062 13.4688 13.5 13.5 13.5938 13.5C14.2188 13.4688 15.5938 10.9375 15.5938 10.375ZM8 10.5C6.59375 10.5 5.5 9.40628 5.5 8.00003C5.5 6.62503 6.59375 5.50003 8 5.50003C9.375 5.50003 10.5 6.62503 10.5 8.00003C10.5 9.40628 9.375 10.5 8 10.5Z" fill="url(#paint0_linear_1548_4455)"/>
<defs>
<linearGradient id="paint0_linear_1548_4455" x1="-13.5507" y1="3.20164e-05" x2="15.5937" y2="3.27627e-05" gradientUnits="userSpaceOnUse">
<stop stop-color="#201CFF"/>
<stop offset="0.895833" stop-color="#13EF95"/>
</linearGradient>
</defs>
</svg>
