<svg viewBox="0 0 24 28" fill="none" xmlns="http://www.w3.org/2000/svg">
<g clip-path="url(#clip0_9964_2089)">
<path d="M8.5625 13.75C9.67969 13.75 10.625 14.6953 10.625 15.8125V22.6875C10.625 23.8477 9.67969 24.75 8.5625 24.75C7.40234 24.75 6.5 23.8477 6.5 22.6875V15.8125C6.5 14.6953 7.40234 13.75 8.5625 13.75ZM1.6875 19.25C2.80469 19.25 3.75 20.1953 3.75 21.3125V22.6875C3.75 23.8477 2.80469 24.75 1.6875 24.75C0.527344 24.75 -0.375 23.8477 -0.375 22.6875V21.3125C-0.375 20.1953 0.527344 19.25 1.6875 19.25ZM15.4375 8.25C16.5547 8.25 17.5 9.19531 17.5 10.3125V22.6875C17.5 23.8477 16.5547 24.75 15.4375 24.75C14.2773 24.75 13.375 23.8477 13.375 22.6875V10.3125C13.375 9.19531 14.2773 8.25 15.4375 8.25Z" fill="currentColor"/>
</g>
<defs>
<clipPath id="clip0_9964_2089">
<rect width="24" height="28" fill="currentColor"/>
</clipPath>
</defs>
</svg>
