<svg width="42" height="42" viewBox="0 0 42 42" fill="none" xmlns="http://www.w3.org/2000/svg">
<path d="M21 0C9.402 0 0 9.402 0 21C0 32.598 9.402 42 21 42C32.598 42 42 32.598 42 21C42 9.402 32.598 0 21 0ZM30.1395 30.4767C29.8724 30.9336 29.3919 31.1884 28.8983 31.1885C28.6522 31.1885 28.4029 31.1251 28.1751 30.9921C24.4013 28.7866 20.0418 28.4322 17.0483 28.5232C13.7324 28.6241 11.3007 29.2787 11.2766 29.2853C10.5122 29.4941 9.72227 29.0443 9.51259 28.2801C9.30301 27.5159 9.75124 26.7265 10.5152 26.516C10.6248 26.4859 13.2416 25.7751 16.8804 25.6551C19.0237 25.5844 21.0871 25.7338 23.0124 26.099C25.451 26.5616 27.6755 27.3736 29.6242 28.5124C30.309 28.9125 30.5396 29.7921 30.1395 30.4767ZM32.8092 24.9319C32.493 25.4731 31.9238 25.7748 31.339 25.7749C31.0475 25.7749 30.7522 25.7 30.4823 25.5422C26.0124 22.9298 20.8482 22.5102 17.3025 22.6179C13.3746 22.7374 10.4942 23.5128 10.4656 23.5207C9.56042 23.7677 8.62457 23.2353 8.37619 22.33C8.12792 21.4247 8.65894 20.4897 9.56386 20.2403C9.69369 20.2046 12.7932 19.3626 17.1035 19.2205C19.6425 19.1368 22.0866 19.3137 24.3672 19.7463C27.2557 20.2944 29.8906 21.2561 32.1989 22.6051C33.0101 23.079 33.2833 24.1208 32.8092 24.9319ZM34.4504 19.8902C34.0929 19.8902 33.7307 19.7983 33.3996 19.6048C22.7725 13.3942 8.98716 17.0864 8.84918 17.1245C7.73812 17.4306 6.58954 16.7781 6.28352 15.6672C5.9774 14.5562 6.62991 13.4075 7.74087 13.1015C7.90007 13.0576 11.702 12.0249 16.989 11.8506C20.1035 11.7481 23.1013 11.9649 25.8986 12.4955C29.4418 13.1677 32.6739 14.3474 35.5051 16.0021C36.5 16.5835 36.8352 17.8613 36.2538 18.8562C35.8659 19.5201 35.1677 19.8902 34.4504 19.8902Z" fill="currentColor"/>
</svg>
