<svg viewBox="0 0 24 28" fill="none" xmlns="http://www.w3.org/2000/svg">
<path d="M15.75 9.5C15.75 10.2031 16.2969 10.75 17 10.75H22V22.625C22 23.6797 21.1406 24.5 20.125 24.5H10.7109V20.9453C11.4141 20.6719 11.9219 20.0859 12.1172 19.3438L12.1562 19.1875C12.1953 19.0703 12.1953 18.9922 12.2344 18.9141C12.2734 18.875 12.3516 18.7969 12.4297 18.7188L12.5469 18.6016C13.1328 18.0156 13.3672 17.1172 13.1328 16.2969L13.0938 16.1406C13.0938 16.0234 13.0547 15.9062 13.0547 15.8672C13.0547 15.7891 13.0938 15.7109 13.1328 15.5547V15.4375C13.3672 14.5781 13.1328 13.7188 12.5078 13.0938L12.4297 13.0156C12.3516 12.8984 12.2734 12.8594 12.2344 12.7812C12.1953 12.7422 12.1953 12.625 12.1562 12.5078L12.1172 12.3516C11.9219 11.5312 11.2578 10.8672 10.4375 10.6719L10.2812 10.6328C10.1641 10.5938 10.0859 10.5547 10.0078 10.5547C9.96875 10.4766 9.89062 10.4375 9.8125 10.3594L9.69531 10.2422C9.26562 9.77344 8.64062 9.5 8.01562 9.5C7.82031 9.5 7.58594 9.53906 7.39062 9.61719L7.23438 9.65625C7.11719 9.65625 7.03906 9.69531 7 9.69531V6.375C7 5.35938 7.82031 4.5 8.875 4.5H15.75V9.5ZM17 4.5L22 9.5H17V4.5ZM10.9062 19.0312C10.8672 19.1484 10.8281 19.2266 10.7891 19.3047C10.6328 19.5781 10.3984 19.7734 10.0859 19.8516C9.53906 20.0078 9.65625 19.9688 9.46094 20.0469V24.5L7 23.25L4.5 24.5V20.0469C4.38281 20.0078 4.38281 20.0078 4.30469 19.9688C4.26562 19.9688 4.14844 19.9297 3.875 19.8516C3.48438 19.7344 3.17188 19.4219 3.05469 19.0312C3.01562 18.8359 2.97656 18.6797 2.9375 18.5625C2.82031 18.25 2.74219 18.1719 2.3125 17.7422C2.23438 17.6641 2.19531 17.5859 2.11719 17.5078C2 17.2344 1.92188 16.9219 2.03906 16.6094C2.23438 15.7891 2.23438 15.9062 2.03906 15.125C1.92188 14.8125 2 14.5 2.11719 14.2266C2.19531 14.1484 2.23438 14.0703 2.3125 13.9922C2.66406 13.6016 2.78125 13.5234 2.89844 13.2891C2.9375 13.1719 2.97656 12.9766 3.05469 12.6641C3.17188 12.2734 3.48438 11.9609 3.875 11.8438C4.65625 11.6484 4.53906 11.6875 5.125 11.1016C5.24219 11.0234 5.35938 10.9453 5.47656 10.8672C5.51562 10.8672 5.51562 10.8672 5.55469 10.8672C5.67188 10.7891 5.82812 10.7891 5.94531 10.7891V10.75C6.0625 10.75 6.14062 10.7891 6.25781 10.7891C6.64844 10.9062 6.80469 10.9844 6.96094 10.9844C7.15625 10.9844 7.3125 10.9062 7.70312 10.7891C7.74219 10.7891 7.74219 10.7891 7.74219 10.7891C7.74219 10.7891 7.74219 10.7891 7.70312 10.7891C7.82031 10.7891 7.89844 10.75 8.01562 10.75V10.7891C8.13281 10.7891 8.28906 10.7891 8.40625 10.8672C8.44531 10.8672 8.44531 10.8672 8.48438 10.8672C8.60156 10.9453 8.71875 11.0234 8.83594 11.1016C8.875 11.1797 8.95312 11.2578 8.99219 11.2969C9.10938 11.4141 9.1875 11.4922 9.26562 11.5703C9.46094 11.6875 9.61719 11.7266 10.0859 11.8438C10.3984 11.9609 10.6328 12.1562 10.7891 12.3906C10.8281 12.5078 10.8672 12.5859 10.9062 12.6641C10.9453 12.8984 10.9844 13.0156 11.0234 13.1328C11.1406 13.4844 11.2188 13.5234 11.6484 13.9922C11.9219 14.2656 12.0391 14.6953 11.9219 15.125C11.7266 15.9062 11.7266 15.7891 11.9219 16.6094C12.0391 17 11.9219 17.4297 11.6484 17.7422C11.2188 18.1719 11.1406 18.2109 11.0234 18.5625C10.9844 18.6797 10.9453 18.8359 10.9062 19.0312ZM7 18.25C8.36719 18.25 9.46094 17.1562 9.46094 15.75C9.46094 14.3828 8.36719 13.25 7 13.25C6.80469 13.25 6.64844 13.2891 6.49219 13.3281C6.14062 13.3672 5.86719 13.5234 5.59375 13.6797C5.32031 13.875 5.08594 14.1094 4.89062 14.3828C4.65625 14.7734 4.5 15.2422 4.5 15.75C4.5 16.2969 4.65625 16.7656 4.89062 17.1562C5.08594 17.4297 5.32031 17.6641 5.59375 17.8594C5.86719 18.0156 6.14062 18.1328 6.49219 18.2109C6.64844 18.25 6.80469 18.25 7 18.25Z" fill="currentColor"/>
</svg>
