<svg width="1440" height="1000" viewBox="0 0 1440 1000" fill="none" xmlns="http://www.w3.org/2000/svg">

<g style="mix-blend-mode:overlay" opacity="0.6">
<ellipse cx="2.00242" cy="2.00346" rx="2.00242" ry="2.00346" transform="matrix(-0.96009 -0.279691 -0.279585 0.960121 435.077 305.424)" fill="white"/>
<ellipse cx="2.00242" cy="2.00346" rx="2.00242" ry="2.00346" transform="matrix(-0.96009 -0.279691 -0.279585 0.960121 340.409 374.715)" fill="white"/>
<ellipse cx="2.00242" cy="2.00346" rx="2.00242" ry="2.00346" transform="matrix(-0.96009 -0.279691 -0.279585 0.960121 190.99 528.944)" fill="white"/>
<ellipse cx="2.00242" cy="2.00346" rx="2.00242" ry="2.00346" transform="matrix(-0.96009 -0.279691 -0.279585 0.960121 214.454 322.447)" fill="white"/>
<ellipse cx="2.00242" cy="2.00346" rx="2.00242" ry="2.00346" transform="matrix(-0.96009 -0.279691 -0.279585 0.960121 84.1944 372.698)" fill="white"/>
<ellipse cx="2.00242" cy="2.00346" rx="2.00242" ry="2.00346" transform="matrix(-0.96009 -0.279691 -0.279585 0.960121 322.287 563.02)" fill="white"/>
<ellipse cx="2.00339" cy="2.00241" rx="2.00339" ry="2.00241" transform="matrix(-0.518412 0.855099 0.854931 0.518794 83.1454 509.185)" fill="white"/>
<ellipse cx="2.00339" cy="2.00241" rx="2.00339" ry="2.00241" transform="matrix(-0.518412 0.855099 0.854931 0.518794 125.512 618.599)" fill="white"/>
<ellipse cx="2.00339" cy="2.00241" rx="2.00339" ry="2.00241" transform="matrix(-0.518412 0.855099 0.854931 0.518794 235.688 802.895)" fill="white"/>
<ellipse cx="2.00339" cy="2.00241" rx="2.00339" ry="2.00241" transform="matrix(-0.518412 0.855099 0.854931 0.518794 42.4243 726.821)" fill="white"/>
<ellipse cx="2.00339" cy="2.00241" rx="2.00339" ry="2.00241" transform="matrix(-0.518412 0.855099 0.854931 0.518794 57.1895 865.711)" fill="white"/>
<ellipse cx="2.00339" cy="2.00241" rx="2.00339" ry="2.00241" transform="matrix(-0.518412 0.855099 0.854931 0.518794 302.596 684.807)" fill="white"/>
</g>
<g style="mix-blend-mode:overlay" opacity="0.6">
<ellipse cx="2.00242" cy="2.00346" rx="2.00242" ry="2.00346" transform="matrix(-0.96009 -0.279691 -0.279585 0.960121 435.077 305.424)" fill="white"/>
<ellipse cx="2.00242" cy="2.00346" rx="2.00242" ry="2.00346" transform="matrix(-0.96009 -0.279691 -0.279585 0.960121 340.409 374.715)" fill="white"/>
<ellipse cx="2.00242" cy="2.00346" rx="2.00242" ry="2.00346" transform="matrix(-0.96009 -0.279691 -0.279585 0.960121 190.99 528.944)" fill="white"/>
<ellipse cx="2.00242" cy="2.00346" rx="2.00242" ry="2.00346" transform="matrix(-0.96009 -0.279691 -0.279585 0.960121 214.454 322.447)" fill="white"/>
<ellipse cx="2.00242" cy="2.00346" rx="2.00242" ry="2.00346" transform="matrix(-0.96009 -0.279691 -0.279585 0.960121 84.1944 372.698)" fill="white"/>
<ellipse cx="2.00242" cy="2.00346" rx="2.00242" ry="2.00346" transform="matrix(-0.96009 -0.279691 -0.279585 0.960121 322.287 563.02)" fill="white"/>
<ellipse cx="2.00339" cy="2.00241" rx="2.00339" ry="2.00241" transform="matrix(-0.518412 0.855099 0.854931 0.518794 83.1454 509.185)" fill="white"/>
<ellipse cx="2.00339" cy="2.00241" rx="2.00339" ry="2.00241" transform="matrix(-0.518412 0.855099 0.854931 0.518794 125.512 618.599)" fill="white"/>
<ellipse cx="2.00339" cy="2.00241" rx="2.00339" ry="2.00241" transform="matrix(-0.518412 0.855099 0.854931 0.518794 235.688 802.895)" fill="white"/>
<ellipse cx="2.00339" cy="2.00241" rx="2.00339" ry="2.00241" transform="matrix(-0.518412 0.855099 0.854931 0.518794 42.4243 726.821)" fill="white"/>
<ellipse cx="2.00339" cy="2.00241" rx="2.00339" ry="2.00241" transform="matrix(-0.518412 0.855099 0.854931 0.518794 57.1895 865.711)" fill="white"/>
<ellipse cx="2.00339" cy="2.00241" rx="2.00339" ry="2.00241" transform="matrix(-0.518412 0.855099 0.854931 0.518794 302.596 684.807)" fill="white"/>
</g>
<g opacity="0.5">
<g style="mix-blend-mode:overlay">
<ellipse cx="2.00242" cy="2.00346" rx="2.00242" ry="2.00346" transform="matrix(-0.192072 0.981381 0.981402 0.191964 398.019 199.119)" fill="white"/>
<ellipse cx="2.00242" cy="2.00346" rx="2.00242" ry="2.00346" transform="matrix(-0.192072 0.981381 0.981402 0.191964 475.557 287.159)" fill="white"/>
<ellipse cx="2.00242" cy="2.00346" rx="2.00242" ry="2.00346" transform="matrix(-0.192072 0.981381 0.981402 0.191964 642.617 422.08)" fill="white"/>
<ellipse cx="2.00242" cy="2.00346" rx="2.00242" ry="2.00346" transform="matrix(-0.192072 0.981381 0.981402 0.191964 434.846 417.311)" fill="white"/>
<ellipse cx="2.00242" cy="2.00346" rx="2.00242" ry="2.00346" transform="matrix(-0.192072 0.981381 0.981402 0.191964 496.626 542.515)" fill="white"/>
<ellipse cx="2.00242" cy="2.00346" rx="2.00242" ry="2.00346" transform="matrix(-0.192072 0.981381 0.981402 0.191964 664.729 288.247)" fill="white"/>
<ellipse cx="2.00339" cy="2.00241" rx="2.00339" ry="2.00241" transform="matrix(0.89832 0.43928 0.439676 -0.898187 632.654 531.266)" fill="white"/>
<ellipse cx="2.00339" cy="2.00241" rx="2.00339" ry="2.00241" transform="matrix(0.89832 0.43928 0.439676 -0.898187 737.807 479.216)" fill="white"/>
<ellipse cx="2.00339" cy="2.00241" rx="2.00339" ry="2.00241" transform="matrix(0.89832 0.43928 0.439676 -0.898187 911.428 352.887)" fill="white"/>
<ellipse cx="2.00339" cy="2.00241" rx="2.00339" ry="2.00241" transform="matrix(0.89832 0.43928 0.439676 -0.898187 853.072 552.217)" fill="white"/>
<ellipse cx="2.00339" cy="2.00241" rx="2.00339" ry="2.00241" transform="matrix(0.89832 0.43928 0.439676 -0.898187 990.068 525.001)" fill="white"/>
<ellipse cx="2.00339" cy="2.00241" rx="2.00339" ry="2.00241" transform="matrix(0.89832 0.43928 0.439676 -0.898187 787.793 296.887)" fill="white"/>
<circle cx="2.00347" cy="2.00347" r="2.00347" transform="matrix(0.816722 -0.577126 -0.577587 -0.816262 667.462 981.994)" fill="white"/>
<circle cx="2.00347" cy="2.00347" r="2.00347" transform="matrix(0.816722 -0.577126 -0.577587 -0.816262 672.189 864.812)" fill="white"/>
<circle cx="2.00347" cy="2.00347" r="2.00347" transform="matrix(0.816722 -0.577126 -0.577587 -0.816262 644.535 651.953)" fill="white"/>
<circle cx="2.00347" cy="2.00347" r="2.00347" transform="matrix(0.816722 -0.577126 -0.577587 -0.816262 791.561 798.764)" fill="white"/>
<circle cx="2.00347" cy="2.00347" r="2.00347" transform="matrix(0.816722 -0.577126 -0.577587 -0.816262 833.363 665.576)" fill="white"/>
<circle cx="2.00347" cy="2.00347" r="2.00347" transform="matrix(0.816722 -0.577126 -0.577587 -0.816262 536.077 733.498)" fill="white"/>
</g>
<g style="mix-blend-mode:overlay">
<ellipse cx="2.00242" cy="2.00346" rx="2.00242" ry="2.00346" transform="matrix(-0.192072 0.981381 0.981402 0.191964 398.019 199.119)" fill="white"/>
<ellipse cx="2.00242" cy="2.00346" rx="2.00242" ry="2.00346" transform="matrix(-0.192072 0.981381 0.981402 0.191964 475.557 287.159)" fill="white"/>
<ellipse cx="2.00242" cy="2.00346" rx="2.00242" ry="2.00346" transform="matrix(-0.192072 0.981381 0.981402 0.191964 642.617 422.08)" fill="white"/>
<ellipse cx="2.00242" cy="2.00346" rx="2.00242" ry="2.00346" transform="matrix(-0.192072 0.981381 0.981402 0.191964 434.846 417.311)" fill="white"/>
<ellipse cx="2.00242" cy="2.00346" rx="2.00242" ry="2.00346" transform="matrix(-0.192072 0.981381 0.981402 0.191964 496.626 542.515)" fill="white"/>
<ellipse cx="2.00242" cy="2.00346" rx="2.00242" ry="2.00346" transform="matrix(-0.192072 0.981381 0.981402 0.191964 664.729 288.247)" fill="white"/>
<ellipse cx="2.00339" cy="2.00241" rx="2.00339" ry="2.00241" transform="matrix(0.89832 0.43928 0.439676 -0.898187 632.654 531.266)" fill="white"/>
<ellipse cx="2.00339" cy="2.00241" rx="2.00339" ry="2.00241" transform="matrix(0.89832 0.43928 0.439676 -0.898187 737.807 479.216)" fill="white"/>
<ellipse cx="2.00339" cy="2.00241" rx="2.00339" ry="2.00241" transform="matrix(0.89832 0.43928 0.439676 -0.898187 911.428 352.887)" fill="white"/>
<ellipse cx="2.00339" cy="2.00241" rx="2.00339" ry="2.00241" transform="matrix(0.89832 0.43928 0.439676 -0.898187 853.072 552.217)" fill="white"/>
<ellipse cx="2.00339" cy="2.00241" rx="2.00339" ry="2.00241" transform="matrix(0.89832 0.43928 0.439676 -0.898187 990.068 525.001)" fill="white"/>
<ellipse cx="2.00339" cy="2.00241" rx="2.00339" ry="2.00241" transform="matrix(0.89832 0.43928 0.439676 -0.898187 787.793 296.887)" fill="white"/>
<circle cx="2.00347" cy="2.00347" r="2.00347" transform="matrix(0.816722 -0.577126 -0.577587 -0.816262 667.462 981.994)" fill="white"/>
<circle cx="2.00347" cy="2.00347" r="2.00347" transform="matrix(0.816722 -0.577126 -0.577587 -0.816262 672.189 864.812)" fill="white"/>
<circle cx="2.00347" cy="2.00347" r="2.00347" transform="matrix(0.816722 -0.577126 -0.577587 -0.816262 644.535 651.953)" fill="white"/>
<circle cx="2.00347" cy="2.00347" r="2.00347" transform="matrix(0.816722 -0.577126 -0.577587 -0.816262 791.561 798.764)" fill="white"/>
<circle cx="2.00347" cy="2.00347" r="2.00347" transform="matrix(0.816722 -0.577126 -0.577587 -0.816262 833.363 665.576)" fill="white"/>
<circle cx="2.00347" cy="2.00347" r="2.00347" transform="matrix(0.816722 -0.577126 -0.577587 -0.816262 536.077 733.498)" fill="white"/>
</g>
</g>
<g style="mix-blend-mode:overlay" opacity="0.6">
<circle cx="2.00347" cy="2.00347" r="2.00347" transform="matrix(-0.299691 0.954036 0.953842 0.300309 1122.91 233.406)" fill="white"/>
<circle cx="2.00347" cy="2.00347" r="2.00347" transform="matrix(-0.299691 0.954036 0.953842 0.300309 1190.15 329.581)" fill="white"/>
<circle cx="2.00347" cy="2.00347" r="2.00347" transform="matrix(-0.299691 0.954036 0.953842 0.300309 1341.12 482.34)" fill="white"/>
<circle cx="2.00347" cy="2.00347" r="2.00347" transform="matrix(-0.299691 0.954036 0.953842 0.300309 1135.26 454.448)" fill="white"/>
<circle cx="2.00347" cy="2.00347" r="2.00347" transform="matrix(-0.299691 0.954036 0.953842 0.300309 1182.72 585.817)" fill="white"/>
<circle cx="2.00347" cy="2.00347" r="2.00347" transform="matrix(-0.299691 0.954036 0.953842 0.300309 1377.94 351.739)" fill="white"/>
<circle cx="2.00347" cy="2.00347" r="2.00347" transform="matrix(0.843775 0.536999 0.536352 -0.843803 1319.09 589.789)" fill="white"/>
<circle cx="2.00347" cy="2.00347" r="2.00347" transform="matrix(0.843775 0.536999 0.536352 -0.843803 1429.32 549.755)" fill="white"/>
<circle cx="2.00347" cy="2.00347" r="2.00347" transform="matrix(0.875362 -0.4828 -0.483086 -0.875942 1303.61 1041.8)" fill="white"/>
<circle cx="2.00347" cy="2.00347" r="2.00347" transform="matrix(0.875362 -0.4828 -0.483086 -0.875942 1321.32 925.824)" fill="white"/>
<circle cx="2.00347" cy="2.00347" r="2.00347" transform="matrix(0.875362 -0.4828 -0.483086 -0.875942 1317.49 711.106)" fill="white"/>
<circle cx="2.00347" cy="2.00347" r="2.00347" transform="matrix(0.875362 -0.4828 -0.483086 -0.875942 1200.7 780.098)" fill="white"/>
</g>
<g style="mix-blend-mode:overlay" opacity="0.6">
<circle cx="2.00347" cy="2.00347" r="2.00347" transform="matrix(-0.299691 0.954036 0.953842 0.300309 1122.91 233.406)" fill="white"/>
<circle cx="2.00347" cy="2.00347" r="2.00347" transform="matrix(-0.299691 0.954036 0.953842 0.300309 1190.15 329.581)" fill="white"/>
<circle cx="2.00347" cy="2.00347" r="2.00347" transform="matrix(-0.299691 0.954036 0.953842 0.300309 1341.12 482.34)" fill="white"/>
<circle cx="2.00347" cy="2.00347" r="2.00347" transform="matrix(-0.299691 0.954036 0.953842 0.300309 1135.26 454.448)" fill="white"/>
<circle cx="2.00347" cy="2.00347" r="2.00347" transform="matrix(-0.299691 0.954036 0.953842 0.300309 1182.72 585.817)" fill="white"/>
<circle cx="2.00347" cy="2.00347" r="2.00347" transform="matrix(-0.299691 0.954036 0.953842 0.300309 1377.94 351.739)" fill="white"/>
<circle cx="2.00347" cy="2.00347" r="2.00347" transform="matrix(0.843775 0.536999 0.536352 -0.843803 1319.09 589.789)" fill="white"/>
<circle cx="2.00347" cy="2.00347" r="2.00347" transform="matrix(0.843775 0.536999 0.536352 -0.843803 1429.32 549.755)" fill="white"/>
<circle cx="2.00347" cy="2.00347" r="2.00347" transform="matrix(0.875362 -0.4828 -0.483086 -0.875942 1303.61 1041.8)" fill="white"/>
<circle cx="2.00347" cy="2.00347" r="2.00347" transform="matrix(0.875362 -0.4828 -0.483086 -0.875942 1321.32 925.824)" fill="white"/>
<circle cx="2.00347" cy="2.00347" r="2.00347" transform="matrix(0.875362 -0.4828 -0.483086 -0.875942 1317.49 711.106)" fill="white"/>
<circle cx="2.00347" cy="2.00347" r="2.00347" transform="matrix(0.875362 -0.4828 -0.483086 -0.875942 1200.7 780.098)" fill="white"/>
</g>
<defs>
<filter id="filter0_f_2495_150172" x="-1148.31" y="-207.418" width="3715.14" height="1667.01" filterUnits="userSpaceOnUse" color-interpolation-filters="sRGB">
<feFlood flood-opacity="0" result="BackgroundImageFix"/>
<feBlend mode="normal" in="SourceGraphic" in2="BackgroundImageFix" result="shape"/>
<feGaussianBlur stdDeviation="283.12" result="effect1_foregroundBlur_2495_150172"/>
</filter>
<filter id="filter1_f_2495_150172" x="-1129.84" y="156.594" width="3749.24" height="1297.67" filterUnits="userSpaceOnUse" color-interpolation-filters="sRGB">
<feFlood flood-opacity="0" result="BackgroundImageFix"/>
<feBlend mode="normal" in="SourceGraphic" in2="BackgroundImageFix" result="shape"/>
<feGaussianBlur stdDeviation="101.114" result="effect1_foregroundBlur_2495_150172"/>
</filter>
<filter id="filter2_f_2495_150172" x="-1316.06" y="-760.575" width="2705.82" height="1674.45" filterUnits="userSpaceOnUse" color-interpolation-filters="sRGB">
<feFlood flood-opacity="0" result="BackgroundImageFix"/>
<feBlend mode="normal" in="SourceGraphic" in2="BackgroundImageFix" result="shape"/>
<feGaussianBlur stdDeviation="202.229" result="effect1_foregroundBlur_2495_150172"/>
</filter>
<filter id="filter3_f_2495_150172" x="28.7564" y="-772.709" width="2707.84" height="1674.45" filterUnits="userSpaceOnUse" color-interpolation-filters="sRGB">
<feFlood flood-opacity="0" result="BackgroundImageFix"/>
<feBlend mode="normal" in="SourceGraphic" in2="BackgroundImageFix" result="shape"/>
<feGaussianBlur stdDeviation="202.229" result="effect1_foregroundBlur_2495_150172"/>
</filter>
<filter id="filter4_f_2495_150172" x="-757.913" y="-839.445" width="2705.82" height="1674.45" filterUnits="userSpaceOnUse" color-interpolation-filters="sRGB">
<feFlood flood-opacity="0" result="BackgroundImageFix"/>
<feBlend mode="normal" in="SourceGraphic" in2="BackgroundImageFix" result="shape"/>
<feGaussianBlur stdDeviation="202.229" result="effect1_foregroundBlur_2495_150172"/>
</filter>
<linearGradient id="paint0_linear_2495_150172" x1="2217.44" y1="0" x2="2217.44" y2="1500.53" gradientUnits="userSpaceOnUse">
<stop stop-opacity="0"/>
<stop offset="1"/>
</linearGradient>
<linearGradient id="paint1_linear_2495_150172" x1="2217.37" y1="0" x2="2217.37" y2="443.612" gradientUnits="userSpaceOnUse">
<stop stop-opacity="0"/>
<stop offset="1"/>
</linearGradient>
<linearGradient id="paint2_linear_2495_150172" x1="2218" y1="1194" x2="2215.35" y2="230.508" gradientUnits="userSpaceOnUse">
<stop stop-opacity="0"/>
<stop offset="1"/>
</linearGradient>
</defs>
</svg>
