<svg viewBox="0 0 19 18" fill="none" xmlns="http://www.w3.org/2000/svg">
<path d="M8.82105 0.587816C8.93355 0.237798 9.25699 2.10939e-05 9.62613 0V14.2876L5.0804 17.8208C4.7886 18.0493 4.3843 18.0599 4.0809 17.8489C3.77785 17.638 3.64742 17.2513 3.75957 16.8997L5.5515 11.2747L0.951869 7.69575C0.667348 7.47427 0.554812 7.09809 0.671777 6.75708C0.788778 6.41606 1.10948 6.1559 1.46983 6.1559H7.04213L8.82105 0.587816Z" fill="currentColor"/>
<path opacity="0.4" d="M10.4313 0.587816C10.3188 0.237798 9.99534 2.10939e-05 9.59456 0V14.2876L14.1719 17.8208C14.4637 18.0493 14.868 18.0599 15.1704 17.8489C15.4762 17.638 15.6063 17.2513 15.4938 16.8997L13.7008 11.2747L18.2993 7.69575C18.5841 7.47427 18.6966 7.09809 18.5806 6.75708C18.4645 6.41606 18.1446 6.1559 17.7825 6.1559H12.2102L10.4313 0.587816Z" fill="currentColor"/>
</svg>
