<svg viewBox="0 0 19 18" fill="none" xmlns="http://www.w3.org/2000/svg">
<path d="M12.2145 6.18754H17.7833C18.1454 6.18754 18.4653 6.41606 18.5814 6.75708C18.6974 7.09809 18.5849 7.47427 18.3001 7.69575L13.7016 11.2747L15.4946 16.8997C15.6071 17.2513 15.477 17.638 15.1712 17.8489C14.8688 18.0599 14.4645 18.0493 14.1727 17.8208L9.627 14.2876L5.08127 17.8208C4.78947 18.0493 4.38517 18.0599 4.08177 17.8489C3.77872 17.638 3.64829 17.2513 3.76044 16.8997L5.55237 11.2747L0.952739 7.69575C0.668217 7.47427 0.555681 7.09809 0.672647 6.75708C0.789648 6.41606 1.11035 6.18754 1.4707 6.18754H7.043L8.82192 0.587816C8.93442 0.237798 9.26138 0 9.627 0C9.99615 0 10.3196 0.237798 10.4321 0.587816L12.2145 6.18754Z" fill="currentColor"/>
</svg>
