<svg width="42" height="49" viewBox="0 0 42 49" fill="none" xmlns="http://www.w3.org/2000/svg">
<path d="M9.15563 10.796C10.0781 5.08479 15.0281 0.727295 21 0.727295C26.5875 0.727295 31.2938 4.55136 32.5406 9.72729H29.25C27.1125 9.72729 25.2375 8.61073 24.1781 6.9298C22.5094 9.50792 19.7437 11.2273 16.5 11.2273H11.25C10.5094 11.2273 9.79688 11.0679 9.15563 10.796ZM19.6031 34.4023L16.5 29.2273H25.5L22.3969 34.4023L25.5188 46.0179L29.2219 30.9054C36.4594 32.0304 42 38.2929 42 45.8492C42 47.4335 40.7062 48.7273 39.1219 48.7273H2.88C1.28906 48.7273 0 47.4335 0 45.8492C0 38.2929 5.53969 32.0304 12.7781 30.9054L16.4813 46.0179L19.6031 34.4023Z" fill="white"/>
<path opacity="0.3" d="M24.1781 6.92981C25.2375 8.61168 27.1125 9.72731 29.25 9.72731H32.5406C32.8688 10.6836 33 11.6117 33 12.7273C33 19.3554 27.6281 24.7273 21 24.7273C14.3719 24.7273 9 19.3554 9 12.7273C9 11.9867 9.05344 11.4242 9.15469 10.7961C9.79688 11.0773 10.5094 11.2273 11.25 11.2273H16.5C19.7437 11.2273 22.5094 9.50793 24.1781 6.92981Z" fill="#A9A9AD"/>
<defs>
<linearGradient id="gradient-red-1" x1="8.14286" y1="52.8289" x2="50.5711" y2="49.6203" gradientUnits="userSpaceOnUse">
<stop offset="0.149178" stop-color="#EE028B"/>
<stop offset="1" stop-color="#AE29FF"/>
</linearGradient>
<linearGradient id="gradient-red-2" x1="-6.42857" y1="32.3445" x2="62.7859" y2="20.8659" gradientUnits="userSpaceOnUse">
<stop offset="0.149178" stop-color="#EE028B"/>
<stop offset="1" stop-color="#AE29FF"/>
</linearGradient>
</defs>
</svg>
