<svg width="60" height="49" viewBox="0 0 60 49" fill="none" xmlns="http://www.w3.org/2000/svg">
<path d="M29.9906 30.7273C35.3728 30.7273 39.6562 26.3623 39.6562 20.9773C39.6562 15.5923 35.2931 11.2273 29.9906 11.2273C24.6084 11.2273 20.325 15.5923 20.325 20.9773C20.2406 26.3585 24.6094 30.7273 29.9906 30.7273ZM34.6781 33.7273H25.3219C17.9625 33.7273 12 39.3242 12 46.2242C12 47.6117 13.1906 48.7273 14.6625 48.7273H45.3375C46.8094 48.7273 48 47.6117 48 46.2242C48 39.3242 42.0375 33.7273 34.6781 33.7273Z" fill="white"/>
<path opacity="0.3" d="M12 15.7273C16.1419 15.7273 19.5 12.3692 19.5 8.22729C19.5 4.08542 16.1437 0.727295 12 0.727295C7.85812 0.727295 4.5 4.08542 4.5 8.22729C4.5 12.3692 7.85812 15.7273 12 15.7273ZM48 15.7273C52.1419 15.7273 55.5 12.3692 55.5 8.22729C55.5 4.08542 52.1437 0.727295 48 0.727295C43.8581 0.727295 40.5 4.08542 40.5 8.22729C40.5 12.3692 43.8562 15.7273 48 15.7273ZM51.7406 18.7273H45.9431C44.7431 18.7273 43.6106 19.012 42.5812 19.4998C42.6375 19.9929 42.7312 20.471 42.7312 20.9773C42.7312 24.1376 41.5331 26.997 39.6225 29.2273H58.3444C59.2594 29.2273 60 28.4398 60 27.4742C60 22.646 56.3062 18.7273 51.7406 18.7273ZM17.3906 19.4867C16.3687 18.9242 15.2437 18.7273 14.0531 18.7273H8.2575C3.6975 18.7273 0 22.646 0 27.4742C0 28.4398 0.739406 29.2273 1.65187 29.2273H20.355C18.4444 26.997 17.2462 24.1376 17.2462 20.9773C17.2406 20.471 17.3344 19.9835 17.3906 19.4867Z" fill="#A9A9AD"/>
</svg>
