<svg viewBox="0 0 24 28" fill="none" xmlns="http://www.w3.org/2000/svg">
<path d="M5.125 13.25C5.4375 13.25 5.75 12.9766 5.75 12.625V12C5.75 8.5625 8.52344 5.75 12 5.75C15.4375 5.75 18.25 8.5625 18.25 12V12.625C18.25 14.3828 16.8438 15.75 15.125 15.75H13.875C13.875 15.0859 13.2891 14.5 12.625 14.5H11.375C10.6719 14.5 10.125 15.0859 10.125 15.75C10.125 16.4531 10.6719 17 11.375 17H15.125C17.5078 17 19.4609 15.0469 19.5 12.625V12C19.5 7.89844 16.1016 4.5 12 4.5C7.85938 4.5 4.5 7.89844 4.5 12V12.625C4.5 12.9766 4.77344 13.25 5.125 13.25ZM11.375 13.25H12.625C13.4844 13.25 14.3438 13.7578 14.7734 14.5H15.125C16.1406 14.5 17 13.6797 17 12.625V12C17 9.26562 14.7344 7 12 7C9.22656 7 7 9.26562 7 12C7 13.6016 7.74219 14.9688 8.875 15.9062C8.875 15.8672 8.875 15.8281 8.875 15.75C8.875 14.3828 9.96875 13.25 11.375 13.25ZM15.5156 18.25H8.44531C5.55469 18.25 3.25 20.5938 3.25 23.4844C3.25 24.0703 3.67969 24.5 4.26562 24.5H19.6953C20.2812 24.5 20.75 24.0703 20.75 23.4844C20.75 20.5938 18.4062 18.25 15.5156 18.25Z" fill="currentColor"/>
</svg>
