<svg width="17" height="16" viewBox="0 0 17 16" fill="none" xmlns="http://www.w3.org/2000/svg">
<path d="M2.55876 7.31137V7.28382C2.55876 7.25628 2.58381 7.20118 2.58381 7.14609C2.60886 7.06345 2.65896 6.89817 2.70906 6.70535C2.80926 6.3197 2.98461 5.82386 3.23511 5.35557C3.73611 4.33635 4.41247 3.59259 5.38943 3.59259C6.11588 3.59259 6.61688 4.00579 7.06779 4.83219C7.54374 5.71367 7.84434 6.89817 8.22009 8.24795C8.22009 8.2755 8.22009 8.30304 8.24514 8.33059C8.57079 9.59773 8.94655 11.0026 9.54775 12.1045C10.174 13.2614 11.1259 14.1704 12.6039 14.1704C14.4325 14.1704 15.5598 12.7105 16.161 11.526C16.4616 10.8924 16.662 10.2864 16.7872 9.84564C16.8624 9.62527 16.9125 9.43245 16.9375 9.29471C16.9626 9.21208 16.9626 9.18453 16.9626 9.12944C16.9876 9.10189 16.9876 9.10189 16.9876 9.07434C16.9876 9.07434 16.9876 9.07434 16.186 8.88152L16.9876 9.07434C17.0628 8.57851 16.7872 8.11022 16.3614 8.02758C15.9105 7.91739 15.5097 8.24795 15.4095 8.71624V8.74379C15.4095 8.77133 15.3844 8.79888 15.3844 8.85397C15.3594 8.96416 15.3093 9.12944 15.2592 9.32226C15.159 9.68037 14.9836 10.1762 14.7331 10.672C14.2321 11.6637 13.5558 12.4075 12.5788 12.4075C11.8524 12.4075 11.3514 12.0218 10.9005 11.1954C10.4245 10.3139 10.1239 9.10189 9.74815 7.75211C9.74815 7.72457 9.74815 7.72457 9.7231 7.69702C9.39745 6.42988 9.0217 4.99746 8.42049 3.92315C7.79424 2.7662 6.86738 1.82962 5.38943 1.82962C3.53571 1.82962 2.40846 3.31713 1.8323 4.50163C1.50665 5.10765 1.30625 5.71367 1.181 6.18196C1.10585 6.40234 1.05575 6.59516 1.0307 6.73289C1.00565 6.78799 1.00565 6.84308 1.00565 6.89817C0.980598 6.89817 0.980598 6.92572 0.980598 6.92572V6.95326C0.980598 6.95326 0.980598 6.95326 1.7822 7.11854L0.980598 6.95326C0.905448 7.42155 1.181 7.88984 1.60685 8.00003C2.05775 8.08267 2.45856 7.77966 2.55876 7.31137Z" fill="#A9A9AD"/>
</svg>
