<svg width="16" height="16" viewBox="0 0 16 16" fill="none" xmlns="http://www.w3.org/2000/svg">
<path d="M8.8 1.00003V0.500031C8.8 0.223888 8.57614 3.05176e-05 8.3 3.05176e-05H7.7C7.42386 3.05176e-05 7.2 0.223888 7.2 0.500031V1.00003V15V15.5C7.2 15.7762 7.42386 16 7.7 16H8.3C8.57614 16 8.8 15.7762 8.8 15.5V15V1.00003ZM13.6 3.00003V2.50003C13.6 2.22389 13.3761 2.00003 13.1 2.00003H12.5C12.2239 2.00003 12 2.22389 12 2.50003V3.00003V13V13.5C12 13.7762 12.2239 14 12.5 14H13.1C13.3761 14 13.6 13.7762 13.6 13.5V13V3.00003ZM6.4 4.00003V3.50003C6.4 3.22389 6.17614 3.00003 5.9 3.00003H5.3C5.02386 3.00003 4.8 3.22389 4.8 3.50003V4.00003V12V12.5C4.8 12.7762 5.02386 13 5.3 13H5.9C6.17614 13 6.4 12.7762 6.4 12.5V12V4.00003ZM11.2 5.00003V4.50003C11.2 4.22389 10.9761 4.00003 10.7 4.00003H10.1C9.82386 4.00003 9.6 4.22389 9.6 4.50003V5.00003V11V11.5C9.6 11.7762 9.82386 12 10.1 12H10.7C10.9761 12 11.2 11.7762 11.2 11.5V11V5.00003ZM4 7.00003V6.50003C4 6.22389 3.77614 6.00003 3.5 6.00003H2.9C2.62386 6.00003 2.4 6.22389 2.4 6.50003V7.00003V9.00003V9.50003C2.4 9.77617 2.62386 10 2.9 10H3.5C3.77614 10 4 9.77617 4 9.50003V9.00003V7.00003ZM0.500001 7.00003C0.223858 7.00003 0 7.22389 0 7.50003V8.50003C0 8.77617 0.223858 9.00003 0.5 9.00003H1.1C1.37614 9.00003 1.6 8.77617 1.6 8.50003V7.50003C1.6 7.22389 1.37614 7.00003 1.1 7.00003H0.500001ZM14.9 7.00003C14.6239 7.00003 14.4 7.22389 14.4 7.50003V8.50003C14.4 8.77617 14.6239 9.00003 14.9 9.00003H15.5C15.7761 9.00003 16 8.77617 16 8.50003V7.50003C16 7.22389 15.7761 7.00003 15.5 7.00003H14.9Z" fill="currentColor"/>
</svg>
