<svg viewBox="0 0 24 28" fill="none" xmlns="http://www.w3.org/2000/svg">
<path d="M18.75 6.375H5.25C3.98438 6.375 3 7.39453 3 8.625V19.875C3 21.1406 3.98438 22.125 5.25 22.125H18.75C19.9805 22.125 21 21.1406 21 19.875V8.625C21 7.39453 19.9805 6.375 18.75 6.375ZM6.375 10.875C5.74219 10.875 5.25 10.3828 5.25 9.75C5.25 9.15234 5.74219 8.625 6.375 8.625C6.97266 8.625 7.5 9.15234 7.5 9.75C7.5 10.3828 6.97266 10.875 6.375 10.875ZM9.75 10.875C9.11719 10.875 8.625 10.3828 8.625 9.75C8.625 9.15234 9.11719 8.625 9.75 8.625C10.3477 8.625 10.875 9.15234 10.875 9.75C10.875 10.3828 10.3477 10.875 9.75 10.875ZM13.125 10.875C12.4922 10.875 12 10.3828 12 9.75C12 9.15234 12.4922 8.625 13.125 8.625C13.7227 8.625 14.25 9.15234 14.25 9.75C14.25 10.3828 13.7227 10.875 13.125 10.875Z" fill="currentColor"/>
</svg>
