<svg xmlns="http://www.w3.org/2000/svg" viewBox="0 0 19 19" fill="none">
  <path opacity="0.2" d="M0.5 9.5C0.5 4.52891 4.52891 0.5 9.5 0.5C14.4711 0.5 18.5 4.52891 18.5 9.5C18.5 14.4711 14.4711 18.5 9.5 18.5C4.52891 18.5 0.5 14.4711 0.5 9.5ZM6.65234 7.81602L8.3082 9.46836L6.65234 11.1523C6.32539 11.4828 6.32539 12.0172 6.65234 12.316C6.98281 12.6746 7.51719 12.6746 7.81602 12.316L9.46836 10.6918L11.1523 12.316C11.4828 12.6746 12.0172 12.6746 12.316 12.316C12.6746 12.0172 12.6746 11.4828 12.316 11.1523L10.6918 9.46836L12.316 7.81602C12.6746 7.51719 12.6746 6.98281 12.316 6.65234C12.0172 6.32539 11.4828 6.32539 11.1523 6.65234L9.46836 8.3082L7.81602 6.65234C7.51719 6.32539 6.98281 6.32539 6.65234 6.65234C6.32539 6.98281 6.32539 7.51719 6.65234 7.81602Z" fill="#FBFBFF"/>
</svg>